<svg width="46" height="23" viewBox="0 0 46 23" xmlns="http://www.w3.org/2000/svg"><title>Shape</title><path d="M45.914 14.518c.192.24.048.623-.288.623h-9.73a3.531 3.531 0 0 0-.193-.671l-.048-.048.048-.048a3.827 3.827 0 0 0 1.295-2.828c0-1.103-.48-2.11-1.295-2.877l-.048-.048.048-.048c.096-.24.192-.479.24-.719h9.683c.336 0 .48.384.288.624l-2.349 2.924a.232.232 0 0 0 0 .335l2.35 2.78zm-35.617-.096l.048-.048-.048-.048a3.851 3.851 0 0 1-1.295-2.876c0-1.103.48-2.11 1.295-2.829l.048-.048-.048-.048a3.531 3.531 0 0 1-.192-.67H.374c-.336 0-.48.383-.288.623l2.349 2.828a.232.232 0 0 1 0 .335l-2.35 2.925c-.19.24 0 .623.289.623h9.683c.048-.288.144-.528.24-.767zm7.286-2.924A5.411 5.411 0 0 1 23 6.08a5.411 5.411 0 0 1 5.417 5.417A5.411 5.411 0 0 1 23 16.915c-2.972 0-5.417-2.445-5.417-5.417zm2.205.24l1.199 1.198 1.246 1.246 1.246-1.246 2.829-2.78-1.295-1.295-2.828 2.78-1.198-1.198-1.199 1.294zm-2.876-9.732l.575.096a1.619 1.619 0 0 0 1.63-.767l.288-.527c.431-.815 1.486-1.055 2.253-.528l.48.336a1.511 1.511 0 0 0 1.773 0l.48-.336c.766-.527 1.773-.287 2.252.528l.288.527c.335.575.959.91 1.582.767l.575-.096a1.531 1.531 0 0 1 1.774 1.438l.048.623c.048.671.48 1.199 1.102 1.39l.575.144c.863.24 1.343 1.199 1.007 2.062l-.24.575c-.24.623-.095 1.294.384 1.726l.431.383a1.567 1.567 0 0 1 0 2.301l-.431.384c-.48.431-.671 1.15-.384 1.725l.24.576c.336.862-.096 1.821-1.007 2.06l-.575.145c-.623.191-1.102.719-1.102 1.39l-.048.623c-.048.91-.911 1.582-1.774 1.438l-.575-.096a1.619 1.619 0 0 0-1.63.767l-.288.528c-.431.815-1.486 1.054-2.253.527l-.48-.336a1.511 1.511 0 0 0-1.773 0l-.48.336c-.766.527-1.773.288-2.252-.527l-.288-.528c-.335-.575-.959-.91-1.582-.767l-.575.096a1.531 1.531 0 0 1-1.774-1.438l-.096-.623a1.542 1.542 0 0 0-1.102-1.39l-.575-.144c-.863-.24-1.343-1.199-1.007-2.061l.24-.576c.24-.623.095-1.294-.384-1.725l-.431-.384a1.567 1.567 0 0 1 0-2.3l.431-.384c.48-.432.671-1.15.384-1.726l-.24-.575c-.336-.863.096-1.822 1.007-2.062l.575-.144c.623-.191 1.102-.719 1.102-1.39l.048-.623c.096-.959.911-1.63 1.822-1.438zm-1.39 9.492c0 4.122 3.355 7.478 7.478 7.478 4.123 0 7.478-3.356 7.478-7.478 0-4.123-3.355-7.479-7.478-7.479-4.123 0-7.478 3.356-7.478 7.479z" fill="#FFF" fill-rule="evenodd"/></svg>