<svg width="14" height="14" viewBox="0 0 14 14" xmlns="http://www.w3.org/2000/svg"><title>Icon_safe</title><defs><linearGradient x1="100%" y1="50%" x2="3.906%" y2="50%" id="a"><stop stop-color="#1B36CC" offset="0%"/><stop stop-color="#2137B2" offset="100%"/></linearGradient></defs><g fill="none" fill-rule="evenodd"><path d="M13.989 4.667c-.658 4.133-3.119 7.587-6.583 9.241a.955.955 0 0 1-.812 0C3.129 12.254.668 8.798.011 4.667A.923.923 0 0 1 .694 3.63C2.938 3.041 4.878 1.893 6.303.31a.937.937 0 0 1 1.394 0c1.423 1.584 3.363 2.732 5.608 3.322a.923.923 0 0 1 .684 1.036z" fill-rule="nonzero" fill="#FFF"/><path stroke="url(#a)" stroke-width="1.5" stroke-linecap="round" stroke-linejoin="round" d="M4 7.032l2.064 1.985 4.012-3.903"/></g></svg>