<svg id="Layer_1" xmlns="http://www.w3.org/2000/svg" viewBox="-297 389 16 16"><style>.st0{fill:#2b7ed6}</style><title>Combined Shape</title><g id="Page-1"><g id="Travel_with_Pets_320" transform="translate(-76 -7067)"><g id="Zoom" transform="translate(76 7063)"><path id="Combined-Shape" class="st0" d="M-281.3 407.3l-3.3-3.3c.2-.2.3-.4.5-.7.1-.1.1-.2.2-.3l.3-.6c.2-.5.4-1.1.5-1.6 0-.2.1-.5.1-.7v-.4c0-3.8-3.1-6.9-7-6.9h-.4c-.2 0-.5 0-.7.1-.6.1-1.1.2-1.6.5l-.6.3c-.1.1-.2.1-.3.2-.3.2-.6.4-.8.6-.2.1-.3.3-.5.4-.2.2-.3.3-.4.5-1 1.2-1.6 2.7-1.6 4.4v.4c0 .2 0 .5.1.7.1.6.2 1.1.5 1.6l.3.6c.1.1.1.2.2.3.6 1 1.4 1.8 2.3 2.3.1.1.2.1.3.2l.6.3c.5.2 1.1.4 1.6.5.2 0 .5.1.7.1h.4c1.6 0 3.1-.5 4.2-1.4l3.3 3.3c.2.2.4.3.6.3s.5-.1.6-.3c.3-.5.3-1.1-.1-1.4zm-14.3-7.6c0-3 2.5-5.5 5.5-5.5 3.1 0 5.5 2.5 5.5 5.5s-2.5 5.5-5.5 5.5c-3 .1-5.5-2.4-5.5-5.5zm8.1-.7h-1.8v-1.8c0-.4-.3-.7-.7-.7s-.7.3-.7.7v1.8h-1.8c-.4 0-.7.3-.7.7 0 .4.3.7.7.7h1.8v1.8c0 .4.3.7.7.7s.7-.3.7-.7v-1.8h1.8c.4 0 .7-.3.7-.7 0-.3-.3-.7-.7-.7z"/></g></g></g></svg>