<svg width="120" height="117" viewBox="0 0 120 117" xmlns="http://www.w3.org/2000/svg" xmlns:xlink="http://www.w3.org/1999/xlink"><title>Main_Icon</title><defs><path id="a" d="M0 29V.613h28.712V29H0z"/><path id="c" d="M21.296 18.582H.07V.56h21.225z"/><path id="e" d="M28.787.611v28.39H.074V.61h28.713z"/><path id="g" d="M21.819 18.582H.594V.56h21.225v18.022z"/><path id="i" d="M0 116.844h119.821V0H0z"/></defs><g fill="none" fill-rule="evenodd"><path d="M43.71 100.89c-.45 0-.865-.297-.994-.752l-1.597-5.628a17.063 17.063 0 0 0-9.26-10.837l-3.96-1.832a9.864 9.864 0 0 1-5.352-6.259l-1.973-6.949.178-1.346a4.786 4.786 0 0 0-2.225-4.692l-.095-.059a1.032 1.032 0 1 1 1.088-1.756l.096.06a6.853 6.853 0 0 1 3.188 6.718l-.124.923 1.858 6.538a7.805 7.805 0 0 0 4.232 4.95L32.73 81.8A19.12 19.12 0 0 1 43.11 93.949l1.596 5.627a1.03 1.03 0 0 1-.996 1.314z" fill="#0A0C0D"/><g transform="translate(0 77.615)"><mask id="b" fill="#fff"><use xlink:href="#a"/></mask><path d="M27.678 29c-.37 0-.73-.2-.916-.55-1.262-2.39-3.484-4.067-6.093-4.602a24.025 24.025 0 0 1-.899-.204c-4.624-1.151-8.725-4.322-11.249-8.698C5.348 9.445.637 3.787.591 3.73L0 3.024l.636-.666C.709 2.28 2.44.476 5.247.62c2.455.12 4.861 1.666 7.153 4.593 2.674 3.417 6.745 5.24 10.9 4.878.256-.023.517-.052.782-.088a1.032 1.032 0 1 1 .284 2.045c-.3.041-.595.075-.884.1-4.857.42-9.606-1.692-12.713-5.664-1.893-2.418-3.773-3.697-5.591-3.8a4.126 4.126 0 0 0-2.316.561c1.448 1.802 4.887 6.224 7.452 10.671 2.246 3.893 5.875 6.708 9.957 7.725.265.065.536.127.814.184 3.217.66 5.954 2.724 7.508 5.662A1.032 1.032 0 0 1 27.678 29" fill="#0A0C0D" mask="url(#b)"/></g><path d="M5.707 80.35c-.476 0-.904-.33-1.01-.813L2.665 70.27l6.176-18.92.936.233c1.47.368 4.039 2.318 3.233 7.066l-2.583 11.356 1.735 7.058a1.032 1.032 0 0 1-.758 1.249 1.036 1.036 0 0 1-1.252-.757l-1.85-7.531 2.68-11.776c.4-2.373-.246-3.565-.863-4.147L4.806 70.375l1.913 8.722a1.033 1.033 0 0 1-1.012 1.252" fill="#0A0C0D"/><path d="M15.535 77.295c-.45 0-.866-.297-.994-.752l-1.988-7.012 2.453-12.77c.802-3.164-.333-4.793-1.247-5.553l-1.156 3.562a1.033 1.033 0 0 1-1.968-.635l1.886-5.812 1.01.37c1.79.657 4.823 3.282 3.494 8.516l-2.348 12.23 1.854 6.542a1.031 1.031 0 0 1-.996 1.314" fill="#0A0C0D"/><path d="M19.683 76.403c-.449 0-.863-.294-.993-.747l-2.055-7.136 1.437-7.661a5.502 5.502 0 0 0-2.15-5.429l-.22-.16a1.032 1.032 0 0 1-.223-1.443c.338-.459.984-.56 1.446-.222l.219.16a7.577 7.577 0 0 1 2.962 7.474l-1.347 7.18 1.919 6.667a1.03 1.03 0 0 1-.995 1.317" fill="#0A0C0D"/><g transform="translate(23.448 98.262)"><mask id="d" fill="#fff"><use xlink:href="#c"/></mask><path d="M4.75 18.582c-.413 0-.8-.247-.96-.648L.143 8.857a1.03 1.03 0 0 1 .61-1.355L19.912.62a1.036 1.036 0 0 1 1.385.971v4.602a1.034 1.034 0 0 1-2.07 0V3.061L2.465 9.082l2.892 7.202 12.628-3.878a1.036 1.036 0 0 1 1.294.683 1.031 1.031 0 0 1-.685 1.29L5.054 18.537c-.1.031-.203.045-.304.045" fill="#0A0C0D" mask="url(#d)"/></g><path d="M26.129 111.69a1.032 1.032 0 0 1-.345-2.006l17.58-6.201c.538-.19 1.13.092 1.32.629a1.03 1.03 0 0 1-.63 1.317l-17.58 6.203c-.114.04-.23.059-.345.059M76.111 100.89a1.031 1.031 0 0 1-.996-1.313l1.595-5.628A19.124 19.124 0 0 1 87.092 81.8l3.958-1.832a7.804 7.804 0 0 0 4.233-4.95l1.858-6.538-.124-.923a6.85 6.85 0 0 1 3.187-6.718l.097-.06a1.032 1.032 0 1 1 1.088 1.756l-.096.06a4.782 4.782 0 0 0-2.224 4.691l.179 1.346-1.974 6.95a9.866 9.866 0 0 1-5.353 6.258l-3.958 1.832A17.064 17.064 0 0 0 78.7 94.51l-1.595 5.628a1.033 1.033 0 0 1-.995.752" fill="#0A0C0D"/><g transform="translate(91.034 77.615)"><mask id="f" fill="#fff"><use xlink:href="#e"/></mask><path d="M1.108 29a1.03 1.03 0 0 1-.914-1.514c1.554-2.937 4.29-5.001 7.508-5.661.278-.057.55-.119.813-.184 4.082-1.017 7.711-3.832 9.958-7.725 2.564-4.447 6.004-8.87 7.452-10.672a4.16 4.16 0 0 0-2.317-.56c-1.818.103-3.698 1.382-5.59 3.8-3.108 3.972-7.864 6.093-12.712 5.664-.29-.025-.586-.059-.885-.1a1.032 1.032 0 1 1 .284-2.045c.265.036.526.065.783.088 4.09.353 8.265-1.512 10.898-4.878C18.677 2.286 21.084.74 23.539.62c2.814-.148 4.54 1.661 4.612 1.738l.636.666-.59.707c-.047.056-4.762 5.718-7.932 11.215-2.524 4.376-6.624 7.547-11.248 8.698-.293.072-.593.14-.899.204-2.609.535-4.831 2.213-6.095 4.602-.185.351-.544.55-.915.55" fill="#0A0C0D" mask="url(#f)"/></g><path d="M114.114 80.35a1.033 1.033 0 0 1-1.012-1.253l1.912-8.722-5.312-16.274c-.613.586-1.26 1.79-.852 4.203l2.67 11.718-1.85 7.532a1.036 1.036 0 0 1-2.01-.492l1.734-7.057-2.573-11.3c-.816-4.805 1.753-6.755 3.223-7.123l.936-.234 6.176 18.921-2.031 9.268a1.036 1.036 0 0 1-1.01.812" fill="#0A0C0D"/><path d="M104.286 77.295a1.031 1.031 0 0 1-.996-1.313l1.855-6.543-2.363-12.289c-1.315-5.175 1.72-7.8 3.508-8.456l1.01-.37 1.886 5.81a1.034 1.034 0 0 1-1.968.635l-1.158-3.564c-.921.758-2.051 2.372-1.258 5.498l2.467 12.828-1.989 7.012a1.033 1.033 0 0 1-.994.752" fill="#0A0C0D"/><path d="M100.137 76.403a1.03 1.03 0 0 1-.994-1.317l1.92-6.668-1.349-7.179a7.577 7.577 0 0 1 2.963-7.474l.219-.16a1.037 1.037 0 0 1 1.446.222c.337.46.237 1.107-.223 1.443l-.219.16a5.502 5.502 0 0 0-2.152 5.429l1.438 7.66-2.056 7.137c-.13.453-.544.747-.993.747" fill="#0A0C0D"/><g transform="translate(74.483 98.262)"><mask id="h" fill="#fff"><use xlink:href="#g"/></mask><path d="M17.14 18.582c-.1 0-.203-.014-.304-.045L3.296 14.38a1.031 1.031 0 0 1-.683-1.29c.168-.545.747-.85 1.293-.683l12.628 3.878 2.891-7.202L2.663 3.061v3.133a1.034 1.034 0 0 1-2.069 0V1.592A1.032 1.032 0 0 1 1.979.621L21.135 7.5a1.033 1.033 0 0 1 .61 1.356l-3.644 9.077c-.161.4-.548.648-.96.648" fill="#0A0C0D" mask="url(#h)"/></g><path d="M93.693 111.69c-.115 0-.231-.018-.345-.058l-17.582-6.203a1.03 1.03 0 0 1-.63-1.317c.19-.537.783-.819 1.32-.629l17.581 6.202a1.032 1.032 0 0 1-.344 2.006" fill="#0A0C0D"/><mask id="j" fill="#fff"><use xlink:href="#i"/></mask><path fill="#0A0C0D" mask="url(#j)" d="M56.288 36.048h2.146v-2.065h-2.146zM61.387 36.048h2.147v-2.065h-2.147zM56.288 40.69h2.146v-2.065h-2.146zM61.387 40.69h2.147v-2.065h-2.147zM56.288 45.333h2.146v-2.065h-2.146zM61.387 45.333h2.147v-2.065h-2.147zM56.288 49.976h2.146V47.91h-2.146zM61.387 49.976h2.147V47.91h-2.147zM56.288 54.618h2.146v-2.065h-2.146zM61.387 54.618h2.147v-2.065h-2.147z"/><path d="M68.863 58.713h8.714V40.184h-8.714v18.53zm-2.07 0H53.028V29.887h13.766v28.826zm-24.55 0h8.715V40.184h-8.715v18.53zm13.785-30.891h7.766v-3.174h-7.766v3.174zm12.835 10.297V27.823h-3v-5.24h-4.917v-3.996c0-.57-.464-1.032-1.035-1.032s-1.034.462-1.034 1.032v3.997h-4.918v5.239h-3.001v10.296H40.175v22.66h39.471v-22.66H68.863z" fill="#0A0C0D" mask="url(#j)"/><path fill="#0A0C0D" mask="url(#j)" d="M45.567 45.371h2.069V43.23h-2.07zM45.567 50.014h2.069v-2.142h-2.07zM45.567 54.657h2.069v-2.143h-2.07zM72.186 45.371h2.07V43.23h-2.07zM72.186 50.014h2.07v-2.142h-2.07zM72.186 54.657h2.07v-2.143h-2.07z"/><path d="M93.098 42.433c-4.635 20.68-15.452 33.901-32.152 39.33V68.86a1.034 1.034 0 0 0-2.07 0v12.903c-16.7-5.429-27.517-18.65-32.152-39.33-3.036-13.543-2.3-26.134-1.998-29.726 1.768.173 3.477.252 5.133.252 16.469 0 27.256-7.89 30.052-10.19 3.076 2.532 15.831 11.83 35.184 9.938.303 3.592 1.038 16.183-1.997 29.726m3.954-30.986l-.12-1.024-1.028.12C74.386 13.072 60.75.772 60.612.648L59.91 0l-.702.648c-.134.125-13.742 12.427-35.291 9.895l-1.028-.12-.12 1.025c-.019.149-1.718 15.086 1.923 31.382 4.857 21.731 16.934 36.024 34.926 41.33l.293.087.293-.086c17.993-5.307 30.07-19.6 34.925-41.33 3.641-16.297 1.942-31.234 1.923-31.384" fill="#0A0C0D" mask="url(#j)"/><path d="M90.587 42.006c2.484-11.002 2.405-21.393 2.14-26.58-.9.045-1.797.067-2.688.067-15.015 0-25.607-6.25-30.128-9.527-4.523 3.277-15.115 9.526-30.128 9.527h-.004c-.89 0-1.786-.022-2.685-.067-.264 5.187-.344 15.578 2.141 26.58 1.766 7.823 4.454 14.517 8.037 20.07V35.225h10.784V24.926h3.001v-5.238h4.917v-1.1a3.937 3.937 0 0 1 7.874 0v1.1h4.916v5.238h3v10.298H82.55v26.853c3.583-5.554 6.27-12.248 8.038-20.071" fill="#253EBB" mask="url(#j)"/></g></svg>