<svg width="113" height="120" viewBox="0 0 113 120" xmlns="http://www.w3.org/2000/svg"><title>Illustation</title><g fill="none" fill-rule="evenodd"><path d="M17.127 40.417a6.092 6.092 0 0 0-2.927-.75 6.054 6.054 0 0 0-4.016 1.516 6.08 6.08 0 0 0-6.945-.763 6.047 6.047 0 0 0-3.133 5.29c0 .618.097 1.233.287 1.827 1.003 4.295 9 9.342 9.342 9.555a.857.857 0 0 0 .902 0c.341-.213 8.333-5.26 9.336-9.555a5.97 5.97 0 0 0 .287-1.827 6.05 6.05 0 0 0-3.133-5.293M54.587 12.115a9.182 9.182 0 0 0-4.412-1.13c-2.252 0-4.395.82-6.053 2.285a9.162 9.162 0 0 0-10.47-1.15 9.116 9.116 0 0 0-4.723 7.974c0 .932.146 1.86.432 2.754 1.513 6.476 13.569 14.083 14.083 14.405a1.288 1.288 0 0 0 1.36 0c.514-.322 12.562-7.93 14.074-14.405a9.005 9.005 0 0 0 .432-2.754 9.12 9.12 0 0 0-4.723-7.979M94.89 13.311a4.492 4.492 0 0 0-4.461-3.937 4.49 4.49 0 0 0-2.98 1.125 4.5 4.5 0 0 0-5.152-.566 4.486 4.486 0 0 0-2.325 3.925c0 .458.072.915.213 1.355.744 3.187 6.678 6.93 6.931 7.09a.636.636 0 0 0 .669 0c.063-.04.476-.3 1.072-.719l-.002-.011a6.233 6.233 0 0 1-.304-1.918c0-2.307 1.274-4.435 3.322-5.554a6.495 6.495 0 0 1 3.018-.79z" fill="#E61A28"/><path d="M102.12 14.744a5.145 5.145 0 0 0-3.398 1.273 5.173 5.173 0 0 0-5.876-.64 5.073 5.073 0 0 0-2.651 4.442c0 .52.081 1.036.242 1.535.849 3.608 7.616 7.846 7.905 8.025a.73.73 0 0 0 .763 0c.289-.18 7.051-4.417 7.9-8.025a4.983 4.983 0 0 0 .242-1.535 5.075 5.075 0 0 0-2.65-4.445 5.184 5.184 0 0 0-2.477-.63zM27.044 23.486a11.401 11.401 0 0 1-.517-3.392c0-4.184 2.285-8.043 5.962-10.07a11.579 11.579 0 0 1 5.576-1.435c1.933 0 3.815.485 5.488 1.387A10.035 10.035 0 0 0 33.505.074c-2.48 0-4.838.903-6.663 2.515A10.062 10.062 0 0 0 20.177.074c-1.688 0-3.365.428-4.857 1.25a10.033 10.033 0 0 0-5.197 8.776c0 1.025.16 2.046.475 3.03 1.664 7.127 14.932 15.5 15.499 15.854a1.419 1.419 0 0 0 1.496 0c.11-.07.715-.451 1.619-1.068-1.022-1.448-1.804-2.943-2.168-4.43" fill="#1DB1F1"/><g fill="#222B43"><path d="M37.502 85.212a1.6 1.6 0 0 1-1.602-1.597V66.652a1.125 1.125 0 0 0-2.251 0v16.963a1.6 1.6 0 0 1-1.602 1.597 1.6 1.6 0 0 1-1.602-1.597V66.652c0-2.379 1.942-4.314 4.329-4.314 2.388 0 4.33 1.935 4.33 4.314v16.963a1.6 1.6 0 0 1-1.602 1.597"/><path d="M30.445 83.615V62.427a1.125 1.125 0 0 0-2.252 0v21.188a1.6 1.6 0 0 1-1.601 1.597 1.6 1.6 0 0 1-1.602-1.597V62.427c0-2.38 1.942-4.315 4.33-4.315 2.386 0 4.329 1.936 4.329 4.315v21.188a1.6 1.6 0 0 1-1.602 1.597 1.6 1.6 0 0 1-1.602-1.597z"/><path d="M21.136 87.513a1.6 1.6 0 0 1-1.602-1.597V66.652c0-2.379 1.942-4.314 4.33-4.314 2.387 0 4.33 1.935 4.33 4.314v16.963a1.6 1.6 0 0 1-1.602 1.597 1.6 1.6 0 0 1-1.602-1.597V66.652a1.125 1.125 0 0 0-2.252 0v19.264a1.6 1.6 0 0 1-1.602 1.597"/><path d="M26.15 106.026h-1.48c-.047 0-.095-.003-.143-.006a13.827 13.827 0 0 1-7.904-3.418l-1.224-1.09c-.732-.65-1.515-1.616-2.185-2.475a1.575 1.575 0 0 1-.117-.174l-3.048-5.186-4.733-8.664a1.592 1.592 0 0 1 .221-1.837 5.427 5.427 0 0 1 6.522-1.148l.451.236a5.403 5.403 0 0 1 2.06 1.896l1.333 1.937c.564.82 1.23 1.568 1.978 2.22l.03.027c.463.26.883.094 1.047.004.173-.093.576-.372.576-.96v-2.28a1.6 1.6 0 0 1 1.602-1.597 1.6 1.6 0 0 1 1.602 1.597v2.28a4.276 4.276 0 0 1-2.26 3.772 4.303 4.303 0 0 1-4.405-.195 1.549 1.549 0 0 1-.172-.132l-.13-.112a15.115 15.115 0 0 1-2.51-2.819l-1.366-1.987a2.289 2.289 0 0 0-.875-.824l-.45-.236a2.214 2.214 0 0 0-1.762-.126l4.03 7.378 2.97 5.052c.36.461 1.15 1.459 1.724 1.972l1.225 1.088a10.596 10.596 0 0 0 5.988 2.613h1.405a1.6 1.6 0 0 1 1.602 1.597 1.6 1.6 0 0 1-1.602 1.597M39.295 119.79a1.6 1.6 0 0 1-1.594-1.458c-.117-1.323-.228-2.432-.329-3.44-.3-2.991-.516-5.152-.516-9.351a1.6 1.6 0 0 1 1.602-1.597 1.6 1.6 0 0 1 1.602 1.597c0 4.04.21 6.135.5 9.033.102 1.02.215 2.142.332 3.48a1.598 1.598 0 0 1-1.597 1.736"/><path d="M23.231 119.8a1.598 1.598 0 0 1-1.597-1.736c.117-1.336.23-2.456.332-3.475.29-2.904.501-5.003.501-9.048a1.6 1.6 0 0 1 1.602-1.597 1.6 1.6 0 0 1 1.602 1.597c0 4.205-.217 6.37-.517 9.365-.1 1.007-.212 2.115-.329 3.437a1.6 1.6 0 0 1-1.594 1.457M37.625 106.075a1.6 1.6 0 0 1-1.602-1.597 1.6 1.6 0 0 1 1.602-1.596 3.728 3.728 0 0 0 3.73-3.718v-27.74a1.125 1.125 0 0 0-2.25 0v12.651a1.6 1.6 0 0 1-1.603 1.597 1.6 1.6 0 0 1-1.602-1.597V71.424c0-2.38 1.942-4.315 4.33-4.315 2.387 0 4.33 1.935 4.33 4.315v27.74c0 3.81-3.112 6.91-6.935 6.91M29.811 99.144h-.026a1.6 1.6 0 0 1-1.577-1.622A5.305 5.305 0 0 0 28 95.964a5.34 5.34 0 0 0-4.726-3.828 1.597 1.597 0 0 1-1.48-1.71 1.59 1.59 0 0 1 1.714-1.474c3.547.26 6.59 2.724 7.572 6.132a8.49 8.49 0 0 1 .332 2.49 1.6 1.6 0 0 1-1.601 1.57"/><path d="M38.267 87.056c-.295 0-.593-.08-.86-.25-2.142-1.365-8.674-1.765-11.48-.302a1.606 1.606 0 0 1-2.162-.675 1.595 1.595 0 0 1 .677-2.155c3.597-1.873 11.423-1.64 14.69.44.745.475.963 1.462.487 2.206a1.602 1.602 0 0 1-1.352.736"/></g><g fill="#222B43"><path d="M100.76 84.962a1.52 1.52 0 0 0-1.53-1.51 1.52 1.52 0 0 0-1.515 1.524 1.52 1.52 0 0 0 1.53 1.51 1.52 1.52 0 0 0 1.514-1.524M83.202 55.512a1.6 1.6 0 0 1-1.602-1.597V35.1c0-.782-.638-1.418-1.423-1.418-.786 0-1.424.636-1.424 1.418a1.6 1.6 0 0 1-1.602 1.597A1.6 1.6 0 0 1 75.55 35.1c0-2.543 2.076-4.612 4.628-4.612 2.55 0 4.627 2.07 4.627 4.612v18.815a1.6 1.6 0 0 1-1.602 1.597"/><path d="M89.253 55.512a1.6 1.6 0 0 1-1.602-1.597V30.413c0-.782-.638-1.418-1.424-1.418-.785 0-1.423.636-1.423 1.418v23.502a1.6 1.6 0 0 1-1.602 1.597 1.6 1.6 0 0 1-1.602-1.597V30.413c0-2.542 2.076-4.612 4.627-4.612 2.552 0 4.628 2.07 4.628 4.612v23.502a1.6 1.6 0 0 1-1.602 1.597"/><path d="M95.304 58.064a1.6 1.6 0 0 1-1.602-1.596V35.1c0-.782-.638-1.418-1.424-1.418-.785 0-1.423.636-1.423 1.418v18.815a1.6 1.6 0 0 1-1.602 1.597 1.6 1.6 0 0 1-1.602-1.597V35.1c0-2.543 2.076-4.612 4.627-4.612 2.552 0 4.628 2.07 4.628 4.612v21.368a1.6 1.6 0 0 1-1.602 1.596"/><path d="M91.384 78.6h-1.642a1.6 1.6 0 0 1-1.602-1.597 1.6 1.6 0 0 1 1.602-1.597h1.568a11.935 11.935 0 0 0 6.75-2.943l1.357-1.208c.653-.58 1.519-1.677 1.943-2.218l3.327-5.663 4.54-8.313a2.632 2.632 0 0 0-2.284.075l-.5.262a2.642 2.642 0 0 0-1 .92l-1.547 2.253a16.6 16.6 0 0 1-2.754 3.093l-.145.126a1.73 1.73 0 0 1-.172.132 4.599 4.599 0 0 1-4.707.209 4.568 4.568 0 0 1-2.416-4.03v-2.53a1.6 1.6 0 0 1 1.602-1.596 1.6 1.6 0 0 1 1.602 1.596v2.53c0 .745.51 1.1.73 1.219.21.112.75.329 1.347-.017l.048-.041a13.418 13.418 0 0 0 2.222-2.496l1.514-2.204a5.764 5.764 0 0 1 2.187-1.99l.5-.263a5.842 5.842 0 0 1 7.024 1.237c.458.503.547 1.24.22 1.836l-5.222 9.562-3.405 5.797c-.036.06-.075.118-.119.174-.74.948-1.604 2.013-2.402 2.722l-1.356 1.208a15.16 15.16 0 0 1-8.666 3.748 1.886 1.886 0 0 1-.144.006M76.599 96.138a1.597 1.597 0 0 1-1.597-1.735c.49-5.588.528-10.548.528-16.946a1.6 1.6 0 0 1 1.601-1.597 1.6 1.6 0 0 1 1.602 1.597c0 6.48-.039 11.508-.54 17.223a1.6 1.6 0 0 1-1.594 1.458M101.929 119.857a1.6 1.6 0 0 1-1.602-1.58c-.074-7.736-.738-14.117-1.38-20.288l-.015-.137a479.79 479.79 0 0 1-.593-5.948 1.6 1.6 0 0 1 1.45-1.735c.888-.067 1.66.568 1.741 1.445.18 1.97.382 3.924.59 5.91l.013.136c.65 6.244 1.322 12.7 1.398 20.585a1.6 1.6 0 0 1-1.587 1.612h-.015"/><path d="M94.72 119.926a1.6 1.6 0 0 1-1.602-1.58c-.07-7.399-.717-13.61-1.342-19.616-.652-6.273-1.327-12.76-1.327-20.495a1.6 1.6 0 0 1 1.602-1.597 1.6 1.6 0 0 1 1.602 1.597c0 7.57.636 13.688 1.31 20.165.633 6.08 1.286 12.367 1.36 19.914a1.6 1.6 0 0 1-1.587 1.612h-.016M77.014 78.653c-4.278 0-7.892-3.447-7.892-7.529a1.6 1.6 0 0 1 1.602-1.596 1.6 1.6 0 0 1 1.602 1.596c0 2.269 2.234 4.336 4.688 4.336a1.6 1.6 0 0 1 1.602 1.596 1.6 1.6 0 0 1-1.602 1.597M85.682 70.966a1.6 1.6 0 0 1-1.6-1.57 9.221 9.221 0 0 1 .361-2.711c1.07-3.71 4.382-6.394 8.243-6.676.885-.082 1.65.595 1.714 1.475a1.597 1.597 0 0 1-1.48 1.709 6.1 6.1 0 0 0-5.398 4.372 6.06 6.06 0 0 0-.237 1.778 1.6 1.6 0 0 1-1.575 1.623h-.028M90.813 57.148c-.25 0-.504-.059-.741-.182-3.152-1.642-9.66-1.121-12.01-.301a1.604 1.604 0 0 1-2.042-.98 1.596 1.596 0 0 1 .983-2.034c2.846-.993 10.355-1.702 14.554.485a1.595 1.595 0 0 1-.744 3.012"/></g><g fill="#222B43"><path d="M69.384 38.87a1.6 1.6 0 0 1-1.602-1.598V14.428a2.07 2.07 0 0 0-2.071-2.064 2.07 2.07 0 0 0-2.072 2.064v22.844a1.6 1.6 0 0 1-1.602 1.597 1.6 1.6 0 0 1-1.602-1.597V14.428c0-2.899 2.367-5.257 5.276-5.257s5.275 2.358 5.275 5.257v22.844a1.6 1.6 0 0 1-1.602 1.597M54.69 38.87a1.6 1.6 0 0 1-1.601-1.598v-4.8a1.6 1.6 0 0 1 1.602-1.596 1.6 1.6 0 0 1 1.602 1.596v4.8a1.6 1.6 0 0 1-1.602 1.597"/><path d="M62.037 38.87a1.6 1.6 0 0 1-1.602-1.598V8.738a2.07 2.07 0 0 0-2.071-2.064 2.07 2.07 0 0 0-2.071 2.064V9.92a1.6 1.6 0 0 1-1.602 1.597 1.6 1.6 0 0 1-1.602-1.597V8.738c0-2.9 2.366-5.258 5.275-5.258 2.909 0 5.275 2.359 5.275 5.258v28.534a1.6 1.6 0 0 1-1.602 1.597M54.097 66.9h-1.994c-.047 0-.095-.002-.144-.007a18.06 18.06 0 0 1-10.324-4.465l-1.648-1.466c-.959-.854-2.039-2.191-2.873-3.261a1.609 1.609 0 0 1-.118-.173l-4.105-6.985-6.366-11.653a1.592 1.592 0 0 1 .222-1.838 6.752 6.752 0 0 1 8.114-1.427l.608.318A6.743 6.743 0 0 1 38.03 38.3l1.808 2.627a16.587 16.587 0 0 0 2.754 3.094l.082.071c.62.37 1.36.386 1.999.042a1.993 1.993 0 0 0 1.068-1.781v-3.07a1.6 1.6 0 0 1 1.602-1.597 1.6 1.6 0 0 1 1.602 1.597v3.07a5.206 5.206 0 0 1-2.753 4.593 5.244 5.244 0 0 1-5.363-.238 1.539 1.539 0 0 1-.176-.134l-.174-.153a19.786 19.786 0 0 1-3.284-3.688l-1.84-2.677c-.364-.571-.83-1-1.378-1.286l-.606-.318a3.543 3.543 0 0 0-3.402.065l5.71 10.455 4.027 6.851c.742.949 1.67 2.094 2.415 2.757l1.647 1.466a14.827 14.827 0 0 0 8.408 3.66h1.92a1.6 1.6 0 0 1 1.602 1.597 1.6 1.6 0 0 1-1.602 1.597M73.92 119.46a1.6 1.6 0 0 1-1.601-1.597c0-9.593-.83-17.779-1.632-25.695-.795-7.849-1.617-15.965-1.617-25.368a1.6 1.6 0 0 1 1.601-1.597 1.6 1.6 0 0 1 1.602 1.597c0 9.242.815 17.277 1.601 25.047.81 7.995 1.648 16.262 1.648 26.016a1.6 1.6 0 0 1-1.601 1.597"/><path d="M48.045 119.46a1.6 1.6 0 0 1-1.602-1.597c0-9.754.837-18.021 1.648-26.016.786-7.77 1.6-15.805 1.6-25.047a1.6 1.6 0 0 1 1.603-1.597 1.6 1.6 0 0 1 1.602 1.597c0 9.403-.823 17.52-1.618 25.368-.803 7.916-1.632 16.102-1.632 25.695a1.6 1.6 0 0 1-1.601 1.597M69.55 66.965a1.6 1.6 0 0 1-1.602-1.597 1.6 1.6 0 0 1 1.602-1.596c3.076 0 5.579-2.494 5.579-5.56V20.854a2.07 2.07 0 0 0-2.072-2.065 2.07 2.07 0 0 0-2.071 2.065v17.038a1.6 1.6 0 0 1-1.602 1.597 1.6 1.6 0 0 1-1.602-1.597V20.854c0-2.9 2.366-5.258 5.275-5.258 2.909 0 5.276 2.359 5.276 5.258v37.358c0 4.826-3.94 8.753-8.783 8.753M59.025 57.632h-.028a1.6 1.6 0 0 1-1.574-1.624 7.663 7.663 0 0 0-.3-2.256c-.89-3.088-3.647-5.32-6.86-5.557a1.597 1.597 0 0 1-1.48-1.709 1.588 1.588 0 0 1 1.714-1.475c4.547.333 8.446 3.492 9.704 7.86a10.82 10.82 0 0 1 .426 3.193 1.6 1.6 0 0 1-1.602 1.568"/><path d="M70.415 41.354c-.295 0-.594-.082-.861-.252-3.06-1.949-12.022-2.51-16.016-.429a1.606 1.606 0 0 1-2.162-.675 1.595 1.595 0 0 1 .677-2.155c4.713-2.454 14.954-2.151 19.226.568.746.475.964 1.462.488 2.206a1.603 1.603 0 0 1-1.352.737M60.979 84.163a1.6 1.6 0 0 1-1.602-1.596v-2.395a1.6 1.6 0 0 1 1.602-1.597 1.6 1.6 0 0 1 1.602 1.597v2.395a1.6 1.6 0 0 1-1.602 1.596zm0 10.378a1.6 1.6 0 0 1-1.602-1.596V90.55a1.6 1.6 0 0 1 1.602-1.597 1.6 1.6 0 0 1 1.602 1.597v2.395a1.6 1.6 0 0 1-1.602 1.596zm0 10.378a1.6 1.6 0 0 1-1.602-1.596v-2.395a1.6 1.6 0 0 1 1.602-1.597 1.6 1.6 0 0 1 1.602 1.597v2.395a1.6 1.6 0 0 1-1.602 1.596zm0 10.379a1.6 1.6 0 0 1-1.602-1.597v-2.395a1.6 1.6 0 0 1 1.602-1.597 1.6 1.6 0 0 1 1.602 1.597v2.395a1.6 1.6 0 0 1-1.602 1.597z"/></g></g></svg>