<svg width="120" height="120" viewBox="0 0 120 120" xmlns="http://www.w3.org/2000/svg"><title>Main_Icon</title><g fill-rule="nonzero" fill="none"><path fill="#FFB8DF" d="M91.034 33.125L55 12.304 18.966 33.125z"/><path d="M104.31 46.375v-5.679H89.138v5.679c0 1.045.85 1.893 1.896 1.893 1.047 0 1.897.848 1.897 1.893v30.285c0 1.045-.85 1.893-1.897 1.893a1.895 1.895 0 0 0-1.896 1.893v5.679H104.31v-5.679c0-1.045-.85-1.893-1.897-1.893a1.895 1.895 0 0 1-1.897-1.893V50.161c0-1.045.85-1.893 1.897-1.893a1.895 1.895 0 0 0 1.896-1.893M83.448 46.375v-5.679H68.276v5.679c0 1.045.85 1.893 1.896 1.893 1.047 0 1.897.848 1.897 1.893v30.285c0 1.045-.85 1.893-1.897 1.893a1.895 1.895 0 0 0-1.896 1.893v5.679H83.449v-5.679c0-1.045-.85-1.893-1.897-1.893a1.895 1.895 0 0 1-1.897-1.893V50.161c0-1.045.85-1.893 1.897-1.893a1.895 1.895 0 0 0 1.896-1.893M62.586 46.375v-5.679H47.413v5.679c0 1.045.85 1.893 1.897 1.893 1.047 0 1.897.848 1.897 1.893v30.285c0 1.045-.85 1.893-1.897 1.893a1.895 1.895 0 0 0-1.896 1.893v5.679H62.587v-5.679c0-1.045-.85-1.893-1.897-1.893a1.895 1.895 0 0 1-1.897-1.893V50.161c0-1.045.85-1.893 1.897-1.893a1.895 1.895 0 0 0 1.896-1.893M41.724 46.375v-5.679H26.551v5.679c0 1.045.85 1.893 1.897 1.893 1.047 0 1.897.848 1.897 1.893v30.285c0 1.045-.85 1.893-1.897 1.893a1.895 1.895 0 0 0-1.896 1.893v5.679h15.172v-5.679c0-1.045-.85-1.893-1.896-1.893a1.895 1.895 0 0 1-1.897-1.893V50.161c0-1.045.85-1.893 1.897-1.893a1.895 1.895 0 0 0 1.896-1.893M20.862 46.375v-5.679H5.69v5.679c0 1.045.85 1.893 1.897 1.893 1.047 0 1.897.848 1.897 1.893v30.285c0 1.045-.85 1.893-1.897 1.893a1.895 1.895 0 0 0-1.896 1.893v5.679h15.172v-5.679c0-1.045-.85-1.893-1.896-1.893a1.895 1.895 0 0 1-1.897-1.893V50.161c0-1.045.85-1.893 1.897-1.893a1.895 1.895 0 0 0 1.896-1.893M0 97.482h110v7.571H0z" fill="#F5C6DE"/><path fill="#F2E6E8" d="M1.897 89.911h106.207v7.571H1.897zM108.103 40.696H1.897l3.793-7.571h98.62z"/><path d="M22.759 21.768l-3.793 11.226c0 .06.062.095.113.065l19.542-11.291H22.76zM71.38 21.768l19.543 11.29a.075.075 0 0 0 .113-.064l-3.795-11.226h-15.86z" fill="#F5C6DE"/><path d="M55.118 12.304l16.378 9.464h13.018C84.514 10.41 71.417.946 55.118.946c-16.301 0-29.634 9.465-29.634 20.822h13.255l16.379-9.464z" fill="#F2E6E8"/><g><path d="M94.835 80.169a4.988 4.988 0 0 1-3.536-1.462 1 1 0 0 1 1.414-1.414 3.005 3.005 0 0 0 4.243 0 .999.999 0 1 1 1.414 1.414 4.984 4.984 0 0 1-3.535 1.462" fill="#4C4031"/><path d="M101.034 101.689v-4.001c0-.847 2.617-2.337 6.232-2.885a18.972 18.972 0 0 0-5.656-7.08l-7.248-4.928A10.38 10.38 0 0 0 93.156 82a25.48 25.48 0 0 1-1.127-5.212l-.518-4.813a5.648 5.648 0 0 1 .005-1.28c.064-.539.135-1.312.165-1.4.063-.182.149-.388.233-.59.412-.814.91-1.666 1.422-2.298.181-.202.358-.407.57-.586 1.162-.984.863-2.833-.582-3.311a9.703 9.703 0 0 0-2.513-.499c-.083-.005-.167.002-.25 0-.199-.004-.399-.012-.599.001-1.17.07-2.347.44-3.418 1.296a1.965 1.965 0 0 1-1.216.435 1.98 1.98 0 0 1-1.235-.437c-1.33-1.062-2.823-1.377-4.265-1.295a9.696 9.696 0 0 0-2.512.499c-1.445.478-1.744 2.327-.582 3.311.122.103.252.236.383.373l.12.123c.171.187.345.397.521.621a9.17 9.17 0 0 1 1.221 2.357c.067.194.135 1.265.24 1.851.067.373.111.747.111 1.126v3.488a25.47 25.47 0 0 1-.737 6.038 7.66 7.66 0 0 0-1.357.83l-7.048 5.135c-6.933 5.45-9.267 15.065-5.278 22.93 1.663 3.281 3.968 6.097 6.675 6.28.25.018.501.027.756.027h19.694a6.57 6.57 0 0 1-.613-1.422c.104-.004.208-.003.311-.011 6.523-.44 10.737-4.497 9.302-10.265v-3.613h-.001z" fill="#00990F"/><path d="M110.034 103.592c-4.971 0-9-.852-9-1.904v4.001c.003 1.051 4.031 1.903 9 1.903s8.997-.852 9-1.903v-4.001c0 1.052-4.028 1.904-9 1.904" fill="#D19D18"/><path d="M119.034 97.688c0 1.052-4.029 1.904-9 1.904s-9-.852-9-1.904c0-1.051 4.029-3.096 9-3.096 4.972 0 9 2.045 9 3.096" fill="#FCC62D"/><path d="M110.034 99.592c-4.971 0-9-.852-9-1.904v4.001c.003 1.051 4.031 1.903 9 1.903s8.997-.852 9-1.903v-4.001c0 1.052-4.028 1.904-9 1.904" fill="#E4AF18"/><path d="M92.034 79h-13a1 1 0 0 1 0-2h13a1 1 0 0 1 0 2M92.034 76h-13a1 1 0 0 1 0-2h13a1 1 0 0 1 0 2M92.034 73h-13a1 1 0 0 1 0-2h13a1 1 0 0 1 0 2" fill="#6B4746"/><path d="M110.034 115.592c-2.013 0-3.865-.141-5.364-.377a7.004 7.004 0 0 1-2.477 3.406c1.543.579 4.474.971 7.841.971 4.969 0 8.997-.852 9-1.903v-4.001c0 1.052-4.028 1.904-9 1.904M110.034 107.592c-4.971 0-9-.852-9-1.904v.994a7.006 7.006 0 0 1 3.767 4.553c1.475.224 3.279.357 5.233.357 4.969 0 8.997-.852 9-1.903v-4.001c0 1.052-4.028 1.904-9 1.904" fill="#E4AF18"/><path d="M110.034 111.592c-1.954 0-3.758-.133-5.233-.357.147.565.233 1.154.233 1.764 0 .775-.131 1.519-.364 2.216 1.499.236 3.351.377 5.364.377 4.969 0 8.997-.852 9-1.903v-4.001c0 1.052-4.028 1.904-9 1.904" fill="#D19D18"/><path d="M105.034 113a7 7 0 1 1-14 0 7 7 0 0 1 14 0" fill="#FCC62D"/><path d="M70.034 103a1 1 0 0 1-1-1c0-6.869 7.589-15 14-15a1 1 0 0 1 0 2c-5.271 0-12 7.29-12 13 0 .551-.448 1-1 1" fill="#F2E6E8"/></g></g></svg>