<svg width="37" height="50" viewBox="0 0 37 50" xmlns="http://www.w3.org/2000/svg"><title>Number</title><defs><linearGradient x1="50%" y1="0%" x2="50%" y2="100%" id="a"><stop stop-color="#C0F3BF" offset="0%"/><stop stop-color="#E1FAE7" offset="100%"/></linearGradient></defs><path d="M36.216 49.968c0-10.08-6.768-14.976-15.984-14.976-2.808 0-4.896.288-6.48.648l.36-6.192H35.28L33.48 18H3.456L1.8 45.072l8.568 1.872c1.728-.72 3.744-1.296 6.408-1.296 3.888 0 6.192 1.728 6.192 4.968 0 3.384-3.096 5.4-7.416 5.4-4.824 0-9.576-1.44-13.68-3.168L0 64.44c4.608 1.944 9.792 3.168 15.768 3.168 12.096 0 20.448-6.12 20.448-17.64z" fill="url(#a)" transform="translate(0 -18)" fill-rule="evenodd"/></svg>