<svg width="36" height="51" viewBox="0 0 36 51" xmlns="http://www.w3.org/2000/svg"><title>Number</title><defs><linearGradient x1="50%" y1="0%" x2="50%" y2="100%" id="a"><stop stop-color="#F3BFDA" offset="0%"/><stop stop-color="#FAE1EF" offset="100%"/></linearGradient></defs><path d="M37.8 53.248c0-6.192-3.528-9.72-9.144-11.664 4.968-1.944 8.424-4.968 8.424-11.376 0-7.992-6.912-12.816-17.784-12.816-6.552 0-12.6 1.944-16.416 4.464L4.608 32.44c3.672-2.304 8.064-3.744 12.312-3.744 4.032 0 6.048 1.152 6.048 3.816 0 2.592-2.088 4.536-8.496 4.536H9.504l1.656 10.008h3.312c6.84 0 9.36 1.512 9.36 4.968 0 3.024-2.52 4.608-6.48 4.608-4.752 0-9.504-1.368-13.464-3.312L2.16 64.12c4.248 2.304 10.08 3.816 16.848 3.816 10.44 0 18.792-4.824 18.792-14.688z" fill="url(#a)" transform="translate(-2 -17)" fill-rule="evenodd"/></svg>