<svg width="24" height="35" viewBox="0 0 24 35" xmlns="http://www.w3.org/2000/svg"><title>#3_Mobile</title><defs><linearGradient x1="50%" y1="0%" x2="50%" y2="100%" id="a"><stop stop-color="#BFE0F2" offset="0%"/><stop stop-color="#E1F1FA" offset="100%"/></linearGradient></defs><g fill="none" fill-rule="evenodd"><path d="M-4-8h32v48H-4z"/><path d="M27.808 32.832c0-4.128-2.352-6.48-6.096-7.776 3.312-1.296 5.616-3.312 5.616-7.584 0-5.328-4.608-8.544-11.856-8.544-4.368 0-8.4 1.296-10.944 2.976L5.68 18.96c2.448-1.536 5.376-2.496 8.208-2.496 2.688 0 4.032.768 4.032 2.544 0 1.728-1.392 3.024-5.664 3.024H8.944l1.104 6.672h2.208c4.56 0 6.24 1.008 6.24 3.312 0 2.016-1.68 3.072-4.32 3.072-3.168 0-6.336-.912-8.976-2.208l-1.152 7.2c2.832 1.536 6.72 2.544 11.232 2.544 6.96 0 12.528-3.216 12.528-9.792z" fill="url(#a)" transform="translate(-4 -8)"/></g></svg>