<svg width="37" height="50" viewBox="0 0 37 50" xmlns="http://www.w3.org/2000/svg"><title>#2</title><defs><linearGradient x1="50%" y1="0%" x2="50%" y2="100%" id="a"><stop stop-color="#BFE0F2" offset="0%"/><stop stop-color="#E1F1FA" offset="100%"/></linearGradient></defs><g fill="none" fill-rule="evenodd"><path d="M-6-17h48v80H-6z"/><path d="M42.072 67l-1.8-11.16H23.496l7.992-7.344c5.904-5.472 9.504-9.864 9.504-16.848 0-8.856-6.336-14.04-16.632-14.04-7.2 0-12.384 1.872-16.776 4.536l1.656 11.88c4.32-2.808 8.712-4.608 12.744-4.608 3.24 0 5.184 1.512 5.184 3.96 0 2.88-1.584 4.824-4.32 7.56L6.576 56.92V67h35.496z" fill="url(#a)" transform="translate(-6 -17)"/></g></svg>