<svg width="25" height="33" viewBox="0 0 25 33" xmlns="http://www.w3.org/2000/svg"><title>#2_Mobile</title><defs><linearGradient x1="50%" y1="0%" x2="50%" y2="100%" id="a"><stop stop-color="#BFE0F2" offset="0%"/><stop stop-color="#E1F1FA" offset="100%"/></linearGradient></defs><g fill="none" fill-rule="evenodd"><path d="M-4-9h32v48H-4z"/><path d="M28.048 42l-1.2-7.44H15.664l5.328-4.896c3.936-3.648 6.336-6.576 6.336-11.232 0-5.904-4.224-9.36-11.088-9.36-4.8 0-8.256 1.248-11.184 3.024l1.104 7.92c2.88-1.872 5.808-3.072 8.496-3.072 2.16 0 3.456 1.008 3.456 2.64 0 1.92-1.056 3.216-2.88 5.04L4.384 35.28V42h23.664z" fill="url(#a)" transform="translate(-4 -9)"/></g></svg>