<svg width="320" height="320" viewBox="0 0 320 320" xmlns="http://www.w3.org/2000/svg" xmlns:xlink="http://www.w3.org/1999/xlink"><title>Page 1</title><defs><path id="a" d="M0 12.109V.399h11.68v11.71z"/></defs><g fill="none" fill-rule="evenodd"><path d="M150.363 306.32v4.798a4.79 4.79 0 0 0 1.4 3.394 4.75 4.75 0 0 0 3.383 1.404h14.776a4.75 4.75 0 0 0 3.386-1.407 4.773 4.773 0 0 0 1.401-3.39v-4.798h-24.346zm4.783 12.97a8.091 8.091 0 0 1-5.764-2.394 8.153 8.153 0 0 1-2.382-5.778v-8.171h31.073v8.171c0 2.18-.848 4.232-2.386 5.777a8.095 8.095 0 0 1-5.765 2.395h-14.776z" fill="#1DB1F1"/><path d="M260.571 301.067a4.798 4.798 0 0 0 0 9.595c2.637 0 4.783-2.152 4.783-4.798 0-2.645-2.146-4.797-4.783-4.797m0 12.969c-4.494 0-8.15-3.666-8.15-8.172 0-4.505 3.656-8.171 8.15-8.171 4.492 0 8.146 3.666 8.146 8.171 0 4.506-3.654 8.172-8.146 8.172" fill="#6CA3C3"/><path d="M299.169 182.91c-3.973 0-7.205 3.242-7.205 7.228 0 3.992 3.232 7.24 7.205 7.24 3.976 0 7.211-3.248 7.211-7.24 0-3.986-3.235-7.228-7.211-7.228m0 17.841c-5.827 0-10.569-4.76-10.569-10.613 0-5.845 4.742-10.602 10.569-10.602 5.83 0 10.574 4.757 10.574 10.602 0 5.852-4.744 10.613-10.574 10.613" fill="#D5ADBD"/><path d="M304.4 278.75c-.939 0-1.702.771-1.702 1.719 0 .943.763 1.71 1.703 1.71a1.71 1.71 0 0 0 1.708-1.71c0-.948-.766-1.719-1.708-1.719m0 6.802c-2.794 0-5.066-2.28-5.066-5.083 0-2.808 2.272-5.093 5.066-5.093 2.797 0 5.072 2.285 5.072 5.093 0 2.802-2.275 5.083-5.072 5.083" fill="#6CA3C3"/><path d="M297.671 73.474h7.92l3.963-6.876-3.964-6.877h-7.919l-3.959 6.877 3.96 6.876zm9.86 3.374H295.73l-5.901-10.25 5.901-10.251h11.803l5.908 10.25-5.908 10.25z" fill="#D6E2EC"/><path d="M165.411 37.958h7.919l3.96-6.877-3.96-6.886h-7.919l-3.964 6.886 3.964 6.877zm9.86 3.374h-11.8l-5.909-10.249 5.908-10.262h11.802l5.901 10.262-5.901 10.25z" fill="#6CA3C3"/><path d="M180.203 29.396h7.917l3.961-6.888-3.961-6.876h-7.918l-3.96 6.876 3.96 6.888zm9.86 3.373H178.26l-5.902-10.262 5.902-10.249h11.801l5.902 10.249-5.902 10.262zM162.986 23.353l-2.472-4.281 2.91-1.691 2.472 4.281z" fill="#6CA3C3"/><path fill="#6CA3C3" d="M190.101 36.208l-2.465-4.28 2.911-1.69 2.466 4.281zM273.3 107.538h7.918l3.96-6.888-3.959-6.876H273.3l-3.961 6.876 3.962 6.888zm9.861 3.373H271.36l-5.904-10.262L271.36 90.4h11.8l5.902 10.249-5.9 10.262z"/><path fill="#6CA3C3" d="M283.646 92.93l-2.912-1.687 2.465-4.282 2.913 1.687zM22.851 118.056c-1.922 0-3.73.75-5.09 2.113-2.802 2.814-2.802 7.396.001 10.214a7.14 7.14 0 0 0 5.09 2.115c1.921 0 3.727-.751 5.085-2.115 2.808-2.818 2.808-7.4 0-10.215a7.134 7.134 0 0 0-5.086-2.112m0 17.816c-2.82 0-5.472-1.102-7.468-3.104-4.112-4.133-4.112-10.854-.001-14.984a10.485 10.485 0 0 1 7.47-3.102c2.82 0 5.471 1.102 7.464 3.1 4.118 4.13 4.119 10.853 0 14.986a10.46 10.46 0 0 1-7.465 3.104"/><path fill="#6CA3C3" d="M5.206 145.356l-2.378-2.386 12.554-12.588 2.379 2.385z"/><path d="M23.52 278.802l-.068-.022c-.935-.292-1.397-1.326-1.02-2.233l.026-.063c.366-.873 1.409-1.24 2.252-.812l.067.033c.778.396 1.097 1.326.762 2.134l-.02.047c-.321.778-1.197 1.165-1.998.916zm276.109-147.82l-.013-.422a1.48 1.48 0 0 1 1.468-1.522l.432-.003c.83 0 1.495.685 1.473 1.517l-.011.424a1.466 1.466 0 0 1-1.46 1.434c-.136 0-.272 0-.41.002a1.472 1.472 0 0 1-1.479-1.43zm-6.692.48l-.046-.42a1.477 1.477 0 0 1 1.32-1.63l.452-.041a1.469 1.469 0 0 1 1.585 1.364l.031.42c.06.809-.539 1.506-1.343 1.579l-.388.035a1.477 1.477 0 0 1-1.611-1.308zm14.984 1.4c-.114-.02-.23-.038-.349-.055a1.48 1.48 0 0 1-1.258-1.612l.045-.42a1.475 1.475 0 0 1 1.675-1.31c.162.024.321.05.48.075.827.136 1.364.953 1.183 1.775l-.091.412c-.17.77-.91 1.26-1.685 1.135zm-21.64-.494l-.066-.416a1.476 1.476 0 0 1 1.228-1.696l.44-.065c.806-.12 1.552.45 1.664 1.262l.056.417c.11.804-.447 1.54-1.246 1.66l-.394.059c-.8.122-1.552-.42-1.682-1.22zm-6.61 1.21l-.083-.414a1.476 1.476 0 0 1 1.16-1.741l.43-.084c.8-.153 1.57.38 1.717 1.185l.077.415c.146.8-.378 1.564-1.173 1.717l-.4.077a1.474 1.474 0 0 1-1.727-1.155zm33.903 1.156a6.756 6.756 0 0 0-.185-.112c-.649-.381-.937-1.171-.642-1.865l.168-.395c.338-.797 1.298-1.153 2.047-.724.167.095.33.194.49.295.773.491.928 1.558.318 2.243l-.282.316c-.49.549-1.29.63-1.914.242zm-40.47.279l-.097-.411a1.478 1.478 0 0 1 1.106-1.775l.423-.096a1.47 1.47 0 0 1 1.756 1.127l.09.412a1.475 1.475 0 0 1-1.116 1.755l-.4.09c-.789.18-1.578-.31-1.762-1.102zm-6.527 1.617l-.106-.408c-.206-.79.27-1.6 1.059-1.802.14-.036.28-.072.419-.106.79-.2 1.59.284 1.784 1.078l.101.41a1.475 1.475 0 0 1-1.068 1.784l-.398.102c-.786.2-1.588-.27-1.791-1.058zm-6.489 1.77l-.115-.408a1.478 1.478 0 0 1 1.02-1.824l.416-.115a1.47 1.47 0 0 1 1.808 1.037l.11.407a1.476 1.476 0 0 1-1.028 1.81c-.133.037-.266.073-.398.111a1.472 1.472 0 0 1-1.813-1.019zm-6.454 1.892l-.122-.404a1.476 1.476 0 0 1 .986-1.842c.138-.041.275-.083.413-.123a1.47 1.47 0 0 1 1.827 1.001l.119.405a1.476 1.476 0 0 1-.995 1.83l-.396.119a1.471 1.471 0 0 1-1.832-.986zm-6.42 2.007l-.13-.405c-.247-.776.181-1.61.957-1.857l.41-.13a1.47 1.47 0 0 1 1.843.971l.126.407a1.466 1.466 0 0 1-.955 1.84l-.4.126a1.473 1.473 0 0 1-1.85-.952zm-6.39 2.104l-.134-.4a1.486 1.486 0 0 1 .936-1.876l.403-.134a1.467 1.467 0 0 1 1.856.945l.131.402c.252.773-.16 1.6-.929 1.855l-.399.133a1.474 1.474 0 0 1-1.864-.925zm-6.36 2.193l-.14-.4c-.27-.77.141-1.619.911-1.888l.4-.139a1.467 1.467 0 0 1 1.869.92l.136.4a1.468 1.468 0 0 1-.903 1.868l-.397.14a1.472 1.472 0 0 1-1.876-.901zm-6.332 2.27l-.145-.396a1.484 1.484 0 0 1 .886-1.897l.398-.145a1.468 1.468 0 0 1 1.88.894l.143.398a1.47 1.47 0 0 1-.88 1.882l-.395.144a1.473 1.473 0 0 1-1.887-.88zm-5.786 3.725l-1.19-3.155c1.059-.402 2.112-.798 3.16-1.187l1.17 3.163c-1.042.387-2.088.78-3.14 1.179zm-6.265 2.412l-1.222-3.142c1.053-.414 2.101-.82 3.145-1.222l1.206 3.15c-1.038.4-2.081.805-3.129 1.214zm-6.24 2.479l-1.254-3.131c1.049-.423 2.094-.84 3.133-1.254l1.237 3.139c-1.034.41-2.073.825-3.115 1.246zm-6.216 2.54l-1.284-3.118c1.044-.432 2.084-.86 3.12-1.284l1.27 3.123c-1.031.423-2.067.848-3.106 1.279zm-6.192 2.598l-1.312-3.107c1.04-.441 2.075-.88 3.107-1.312l1.298 3.112c-1.027.432-2.058.867-3.093 1.307zm-6.169 2.657l-1.34-3.096a626.81 626.81 0 0 1 3.096-1.34l1.325 3.1c-1.023.441-2.05.886-3.08 1.336zm-6.145 2.71l-1.367-3.082c1.03-.46 2.058-.914 3.082-1.367l1.356 3.087c-1.021.451-2.045.905-3.071 1.362zm-6.12 2.764l-1.396-3.07c1.028-.47 2.052-.934 3.074-1.395l1.377 3.078c-1.016.458-2.035.92-3.055 1.387zm-6.1 2.815l-1.419-3.06c1.022-.476 2.042-.95 3.06-1.419l1.406 3.065c-1.014.468-2.03.94-3.048 1.414zm-6.077 2.867l-1.443-3.048c1.018-.485 2.033-.967 3.048-1.445l1.43 3.053c-1.009.477-2.02.957-3.035 1.44zm-6.053 2.913l-1.467-3.035c1.014-.493 2.025-.983 3.035-1.469l1.456 3.04c-1.006.485-2.014.973-3.024 1.464zm-6.028 2.965l-1.492-3.024c.904-.45 1.81-.897 2.721-1.346l.295-.145 1.493 3.024-.3.148c-.913.45-1.817.896-2.717 1.343zm-6.748 1.521l-.015-.03a1.673 1.673 0 0 1 .767-2.261 1.666 1.666 0 0 1 2.239.746l.015.03c.41.824.076 1.826-.745 2.24l-.03.015a1.66 1.66 0 0 1-2.23-.74zm-5.992 3.067l-.016-.03a1.672 1.672 0 0 1 .718-2.252l.03-.016a1.666 1.666 0 0 1 2.247.728l.014.03c.417.821.09 1.824-.726 2.244l-.031.016a1.658 1.658 0 0 1-2.236-.72zm-5.969 3.114l-.015-.029a1.672 1.672 0 0 1 .7-2.256l.03-.017a1.666 1.666 0 0 1 2.25.709l.016.029a1.673 1.673 0 0 1-.707 2.251l-.031.016a1.66 1.66 0 0 1-2.243-.703zm-5.942 3.167l-.015-.03a1.673 1.673 0 0 1 .68-2.264l.03-.015a1.666 1.666 0 0 1 2.258.69l.015.03c.43.814.12 1.823-.69 2.256l-.03.016a1.658 1.658 0 0 1-2.248-.683zm-5.779 3.464l-.287-.526a1.389 1.389 0 0 1 .548-1.885c.176-.095.35-.191.526-.288a1.385 1.385 0 0 1 1.88.557l.945 1.744c-.583.316-1.162.633-1.74.95-.67.366-1.505.12-1.872-.552zm-5.883 3.268l-.292-.523a1.39 1.39 0 0 1 .53-1.89l.525-.292a1.385 1.385 0 0 1 1.887.541l.289.524a1.39 1.39 0 0 1-.542 1.884l-.522.291a1.375 1.375 0 0 1-1.875-.535zm-5.854 3.323l-.297-.52a1.39 1.39 0 0 1 .513-1.895l.522-.298a1.385 1.385 0 0 1 1.891.524l.295.522c.375.665.138 1.51-.524 1.889l-.52.296a1.375 1.375 0 0 1-1.88-.518zm-5.821 3.377l-.302-.518a1.39 1.39 0 0 1 .495-1.9l.518-.302a1.386 1.386 0 0 1 1.897.506l.298.52a1.39 1.39 0 0 1-.507 1.892l-.515.301c-.66.385-1.5.161-1.884-.5zm-5.79 3.433l-.306-.514a1.387 1.387 0 0 1 .475-1.903l.516-.308a1.386 1.386 0 0 1 1.902.485l.304.516a1.391 1.391 0 0 1-.488 1.899l-.513.306a1.375 1.375 0 0 1-1.89-.48zm-5.752 3.494l-.312-.511c-.4-.655-.199-1.51.455-1.91.17-.105.34-.209.513-.313.653-.399 1.51-.19 1.907.467l.31.512a1.392 1.392 0 0 1-.47 1.903l-.51.313c-.65.398-1.495.19-1.893-.461zm-5.713 3.559l-.319-.508a1.387 1.387 0 0 1 .432-1.914l.51-.32a1.387 1.387 0 0 1 1.913.446l.316.51a1.391 1.391 0 0 1-.45 1.907l-.506.317a1.373 1.373 0 0 1-1.896-.438zm-5.673 3.623l-.324-.504a1.389 1.389 0 0 1 .41-1.919l.505-.325a1.389 1.389 0 0 1 1.919.421l.321.506c.41.644.216 1.502-.426 1.914l-.502.324a1.373 1.373 0 0 1-1.903-.417zm-5.625 3.696l-.331-.499c-.424-.64-.255-1.5.383-1.924.168-.11.335-.22.502-.332a1.388 1.388 0 0 1 1.925.396l.328.503c.418.639.234 1.499-.402 1.919l-.499.33a1.372 1.372 0 0 1-1.906-.393zm-5.574 3.772l-.338-.495a1.386 1.386 0 0 1 .356-1.929l.497-.34a1.39 1.39 0 0 1 1.932.37l.334.498a1.393 1.393 0 0 1-.377 1.924l-.494.337a1.37 1.37 0 0 1-1.91-.365zm-5.516 3.857l-.347-.491a1.388 1.388 0 0 1 .33-1.935c.164-.117.33-.233.496-.35a1.381 1.381 0 0 1 1.928.342l.343.494a1.394 1.394 0 0 1-.347 1.93l-.488.345a1.371 1.371 0 0 1-1.915-.335zm-30.257 25.32l-.055-.054a1.649 1.649 0 0 1 .051-2.41 1.637 1.637 0 0 1 2.332.027l.053.055c.63.65.612 1.684-.028 2.323l-.037.038c-.64.64-1.67.653-2.316.021zm-4.542 4.157l-.058-.05a1.651 1.651 0 0 1-.182-2.347l.052-.06a1.645 1.645 0 0 1 2.348-.132l.056.052c.661.604.715 1.63.124 2.306l-.05.056c-.59.675-1.604.751-2.29.175zm-4.189 5.071l-.064-.041a1.65 1.65 0 0 1-.416-2.394 1.648 1.648 0 0 1 2.339-.374l.061.046c.708.534.862 1.539.353 2.266l-.043.06a1.632 1.632 0 0 1-2.23.437zm-2.6 6.189l-.07-.021c-.935-.292-1.397-1.327-1.02-2.234l.027-.063c.365-.873 1.408-1.24 2.25-.812l.068.034c.778.395 1.098 1.325.763 2.133l-.02.047c-.321.778-1.198 1.165-1.998.916z" fill="#41464B"/><path d="M312.868 259.368l-3.144-1.2c2.35-6.195-9.653-18.29-32.107-32.355-23.789-14.9-56.944-30.763-93.358-44.666-36.41-13.9-71.688-24.163-99.333-28.898-26.092-4.471-43.076-3.44-45.428 2.756l-3.144-1.202c3.918-10.318 28.884-8.35 49.138-4.88 27.854 4.77 63.355 15.095 99.963 29.07 36.613 13.98 69.975 29.946 93.944 44.96 17.428 10.915 37.382 26.095 33.469 36.415" fill="#222B43"/><path d="M197.514 270.528h-3.363v-11.097c0-19.101 8.09-37.452 22.194-50.347l2.467-2.145c17.238-15.798 27.144-38.31 27.144-61.733 0-46.101-37.39-83.615-83.347-83.627-45.963.012-83.359 37.526-83.359 83.627 0 23.426 9.907 45.938 27.178 61.764l2.408 2.086c14.135 12.924 22.225 31.275 22.225 50.375v11.097h-3.363v-11.097c0-18.154-7.69-35.597-21.097-47.855l-2.408-2.086c-18.001-16.492-28.306-39.912-28.306-64.284 0-47.96 38.903-86.989 86.722-87 47.813.011 86.71 39.04 86.71 87 0 24.368-10.305 47.788-28.273 64.255l-2.468 2.145c-13.375 12.228-21.064 29.67-21.064 47.825v11.097z" fill="#222B43"/><path d="M135.135 305.865c-3.18 0-5.755-2.585-5.755-5.773v-29.564c0-3.188 2.576 0 5.755 0h54.943c3.179 0 5.755-3.188 5.755 0v29.564c0 3.188-2.576 5.773-5.755 5.773h-54.943z" fill="#1DB1F1"/><path d="M200.342 272.215H124.87c-.93 0-1.682-.756-1.682-1.687 0-.932.752-1.687 1.682-1.687h75.472c.929 0 1.682.755 1.682 1.687 0 .931-.753 1.687-1.682 1.687M200.342 279.163H124.87c-.93 0-1.682-.756-1.682-1.687 0-.933.752-1.687 1.682-1.687h75.472c.929 0 1.682.754 1.682 1.687 0 .93-.753 1.687-1.682 1.687M200.342 286.117H124.87c-.93 0-1.682-.755-1.682-1.687s.752-1.686 1.682-1.686h75.472c.929 0 1.682.754 1.682 1.686 0 .932-.753 1.687-1.682 1.687" fill="#222B43"/><path d="M98.872 145.206c0 35.302 28.539 63.93 63.73 63.93 35.195 0 63.737-28.628 63.737-63.93s-28.542-63.93-63.737-63.93c-35.191 0-63.73 28.628-63.73 63.93" fill="#FFDE79"/><path d="M161.853 187.525h1.517c.692 0 1.29-.49 1.425-1.172l1.443-7.269a1.455 1.455 0 0 1 1.213-1.156l.16-.024a32.417 32.417 0 0 0 6.97-1.863l.148-.058a1.448 1.448 0 0 1 1.614.395l4.89 5.564a1.45 1.45 0 0 0 1.815.3l1.315-.76a1.46 1.46 0 0 0 .65-1.73l-2.368-7.03a1.46 1.46 0 0 1 .467-1.603 34.503 34.503 0 0 0 5.317-5.337l.007-.01a1.45 1.45 0 0 1 1.6-.469l7.016 2.38a1.45 1.45 0 0 0 1.725-.657l.756-1.324a1.46 1.46 0 0 0-.3-1.818l-5.548-4.91a1.462 1.462 0 0 1-.393-1.619l.058-.15a33.342 33.342 0 0 0 1.864-6.971l.025-.16a1.455 1.455 0 0 1 1.148-1.207l7.245-1.467a1.457 1.457 0 0 0 1.165-1.428v-1.526c0-.695-.489-1.293-1.168-1.43l-7.239-1.452a1.454 1.454 0 0 1-1.15-1.21l-.025-.16c-.36-2.372-.99-4.729-1.87-7.004l-.057-.149a1.458 1.458 0 0 1 .394-1.62l5.549-4.902a1.46 1.46 0 0 0 .3-1.818l-.752-1.317a1.452 1.452 0 0 0-1.726-.656l-7.012 2.38a1.452 1.452 0 0 1-1.599-.468l-.1-.125a33.618 33.618 0 0 0-5.106-5.127l-.124-.1a1.459 1.459 0 0 1-.466-1.601l2.367-7.03a1.46 1.46 0 0 0-.652-1.73l-1.315-.758a1.448 1.448 0 0 0-1.812.298l-4.898 5.563a1.448 1.448 0 0 1-1.614.394l-.149-.058a32.663 32.663 0 0 0-6.967-1.861l-.158-.025a1.455 1.455 0 0 1-1.21-1.156l-1.443-7.266a1.454 1.454 0 0 0-1.424-1.173h-1.53c-.691 0-1.287.49-1.423 1.171l-1.454 7.272a1.456 1.456 0 0 1-1.207 1.154l-.16.024a32.786 32.786 0 0 0-6.967 1.868l-.149.058a1.45 1.45 0 0 1-1.615-.397l-4.885-5.568a1.451 1.451 0 0 0-1.815-.3l-1.314.758a1.46 1.46 0 0 0-.652 1.73l2.37 7.035a1.46 1.46 0 0 1-.47 1.604l-.124.1a32.806 32.806 0 0 0-5.1 5.12l-.1.125a1.45 1.45 0 0 1-1.602.471l-7.005-2.383a1.45 1.45 0 0 0-1.724.65l-.761 1.32a1.46 1.46 0 0 0 .3 1.826l5.552 4.885c.458.404.617 1.054.396 1.624l-.059.15a32.69 32.69 0 0 0-1.873 7.013l-.024.16a1.456 1.456 0 0 1-1.153 1.214l-7.24 1.45a1.455 1.455 0 0 0-1.168 1.428v1.523c0 .694.487 1.292 1.165 1.428l7.248 1.465c.6.121 1.06.606 1.15 1.213l.024.16a32.52 32.52 0 0 0 1.87 6.982l.058.149a1.46 1.46 0 0 1-.395 1.624l-5.553 4.891a1.46 1.46 0 0 0-.3 1.824l.765 1.328a1.45 1.45 0 0 0 1.723.65l7.01-2.38a1.45 1.45 0 0 1 1.6.47l.1.126a32.431 32.431 0 0 0 5.096 5.111l.125.1c.478.383.667 1.026.47 1.607l-2.37 7.033c-.222.659.05 1.383.65 1.73l1.314.758c.6.347 1.36.222 1.816-.3l4.881-5.568a1.45 1.45 0 0 1 1.616-.397l.15.058a32.19 32.19 0 0 0 6.971 1.87l.16.024c.607.09 1.092.551 1.212 1.154l1.458 7.275c.137.68.732 1.17 1.424 1.17m3.67 3.374h-5.818a2.196 2.196 0 0 1-2.15-1.766l-1.33-6.641c-.17-.846-.807-1.536-1.646-1.726a36.145 36.145 0 0 1-2.711-.727c-.823-.257-1.718-.027-2.287.621l-4.493 5.127a2.188 2.188 0 0 1-2.741.453l-5.04-2.913a2.202 2.202 0 0 1-.982-2.61l2.163-6.418c.278-.824.068-1.748-.57-2.338a36.307 36.307 0 0 1-1.977-1.986c-.591-.642-1.516-.853-2.341-.574l-6.388 2.17a2.19 2.19 0 0 1-2.603-.983l-2.916-5.064a2.206 2.206 0 0 1 .452-2.754l5.116-4.504c.644-.567.872-1.463.617-2.284a35.714 35.714 0 0 1-.727-2.713c-.191-.842-.877-1.482-1.721-1.651l-6.62-1.337a2.199 2.199 0 0 1-1.759-2.157v-5.836c0-1.048.738-1.952 1.764-2.157l6.604-1.32c.849-.17 1.54-.812 1.731-1.659.206-.912.449-1.822.73-2.726.255-.825.026-1.722-.621-2.292l-5.114-4.5a2.206 2.206 0 0 1-.451-2.755l2.915-5.058a2.19 2.19 0 0 1 2.603-.982l6.388 2.173c.823.28 1.744.069 2.334-.571a36.055 36.055 0 0 1 1.98-1.988c.64-.593.85-1.52.572-2.348l-2.162-6.415a2.203 2.203 0 0 1 .984-2.61l5.04-2.91a2.187 2.187 0 0 1 2.74.452l4.45 5.073c.577.658 1.485.938 2.32.68a36.34 36.34 0 0 1 2.703-.726c.844-.19 1.484-.883 1.654-1.733l1.328-6.638a2.194 2.194 0 0 1 2.15-1.767h5.83c1.045 0 1.945.741 2.15 1.77l1.317 6.632c.168.85.808 1.542 1.651 1.732a36 36 0 0 1 2.704.723c.817.253 1.704.026 2.27-.616l4.515-5.129a2.188 2.188 0 0 1 2.737-.451l5.038 2.906a2.203 2.203 0 0 1 .984 2.612l-2.16 6.414c-.28.83-.068 1.758.572 2.354.687.64 1.348 1.302 1.98 1.988.59.637 1.509.847 2.33.569l6.407-2.176a2.19 2.19 0 0 1 2.605.99l2.89 5.057c.52.907.33 2.054-.452 2.745l-5.113 4.516c-.641.566-.868 1.457-.615 2.275.277.9.52 1.807.726 2.72.193.85.884 1.493 1.736 1.665l6.603 1.324a2.199 2.199 0 0 1 1.762 2.157v5.836c0 1.047-.735 1.95-1.759 2.157l-6.619 1.34c-.845.171-1.532.812-1.724 1.655-.205.907-.447 1.81-.723 2.704-.258.835.02 1.744.673 2.322l5.055 4.473c.78.69.97 1.836.452 2.742l-2.89 5.064a2.19 2.19 0 0 1-2.606.991l-6.409-2.174c-.823-.278-1.745-.067-2.335.573a36.67 36.67 0 0 1-1.978 1.986c-.638.592-.848 1.517-.57 2.343l2.162 6.415a2.202 2.202 0 0 1-.982 2.61l-5.039 2.915a2.186 2.186 0 0 1-2.74-.451l-4.502-5.125c-.57-.648-1.464-.876-2.285-.622-.9.28-1.804.522-2.707.726-.84.19-1.476.879-1.643 1.724l-1.318 6.637a2.194 2.194 0 0 1-2.15 1.77" fill="#222B43"/><path d="M162.617 169.746c-13.548 0-24.48-10.973-24.48-24.542 0-13.57 10.932-24.554 24.48-24.554 13.503 0 24.475 10.983 24.475 24.554 0 13.569-10.972 24.542-24.475 24.542" fill="#FFF"/><path d="M159.553 134.825l-.405-1.381a.98.98 0 0 1 .754-1.232c.532-.111 1.07-.19 1.613-.235a.98.98 0 0 1 1.072.967l.003 1.44a.957.957 0 0 1-.863.962c-.362.032-.72.084-1.075.156a.956.956 0 0 1-1.1-.677zm7.625 1.6a9.763 9.763 0 0 0-.986-.45.96.96 0 0 1-.563-1.164l.4-1.382a.978.978 0 0 1 1.298-.631c.508.194 1.005.42 1.486.676.508.271.692.91.383 1.395l-.774 1.213a.954.954 0 0 1-1.244.342zm-12.73 1.704l-1.084-.941a.985.985 0 0 1-.03-1.447c.387-.383.798-.74 1.23-1.073a.977.977 0 0 1 1.423.232l.778 1.209a.96.96 0 0 1-.207 1.277c-.286.223-.56.461-.819.715a.954.954 0 0 1-1.29.028zm16.736 2.163a9.707 9.707 0 0 0-.589-.913.96.96 0 0 1 .153-1.285l1.08-.947a.976.976 0 0 1 1.433.174c.324.438.62.897.887 1.372a.983.983 0 0 1-.429 1.382l-1.303.602a.956.956 0 0 1-1.232-.385zm-19.245 3.382l-1.42-.2c-.57-.08-.934-.636-.808-1.2.12-.533.272-1.058.456-1.572.195-.542.8-.816 1.323-.577l1.306.596c.45.205.678.719.514 1.186-.12.342-.22.69-.303 1.043a.955.955 0 0 1-1.068.724zm22.779 3.23l-1.42-.198a.96.96 0 0 1-.83-.995 9.93 9.93 0 0 0-.004-1.09.957.957 0 0 1 .823-.995l1.42-.208c.57-.084 1.072.348 1.11.924a13.552 13.552 0 0 1 .005 1.634.978.978 0 0 1-1.104.928zm-24.542 2.827a13.304 13.304 0 0 1-.459-1.571c-.127-.563.236-1.12.805-1.201l1.42-.204c.49-.07.958.24 1.07.722.083.353.184.7.305 1.042a.962.962 0 0 1-.511 1.188l-1.305.598c-.523.241-1.128-.031-1.325-.574zm21.706 3.463l-1.088-.938a.961.961 0 0 1-.162-1.284c.212-.295.407-.602.585-.917a.954.954 0 0 1 1.228-.394l1.307.594a.982.982 0 0 1 .438 1.379c-.264.477-.557.937-.878 1.378a.976.976 0 0 1-1.43.182zm-17.293 2.56c-.431-.33-.843-.687-1.232-1.068-.41-.404-.407-1.068.026-1.446l1.083-.945a.954.954 0 0 1 1.29.024c.261.253.535.49.821.713.392.303.477.86.21 1.277l-.775 1.21a.976.976 0 0 1-1.423.236zm11.516 1.195l-.408-1.38a.959.959 0 0 1 .555-1.168c.337-.133.664-.285.983-.455a.954.954 0 0 1 1.247.335l.781 1.208a.984.984 0 0 1-.374 1.397c-.48.259-.974.488-1.482.685a.977.977 0 0 1-1.302-.622zm-3.44 1.518h-.048c-.905 0-1.803-.091-2.682-.272a.982.982 0 0 1-.758-1.23l.402-1.382a.955.955 0 0 1 1.097-.68 9.78 9.78 0 0 0 1.088.154c.488.041.859.457.866.947l.034 2.463z" fill="#E61A28"/><path d="M260.944 263.762c-27.446-4.984-61.958-15.135-97.18-28.581-36.608-13.974-69.97-29.938-93.942-44.955-17.427-10.917-37.38-26.099-33.464-36.424l3.143 1.2c-2.35 6.198 9.651 18.296 32.103 32.362 23.791 14.905 56.946 30.766 93.356 44.663 35.035 13.376 69.335 23.467 96.584 28.417l-.6 3.318z" fill="#222B43"/><path d="M296.08 266.91l-.211-3.367c7.919-.5 12.711-2.36 13.859-5.375l3.142 1.203c-1.676 4.404-7.324 6.94-16.79 7.539" fill="#41464B"/><path d="M40.231 287.697c-9.026 0-15.143-2.013-17.33-6.486l3.019-1.485c6.479 13.244 71.658-1.232 158.36-43.896 86.7-42.66 138.01-85.501 131.537-98.75l3.019-1.486c9.318 19.07-60.345 67.48-133.076 103.265-55.672 27.396-116.075 48.837-145.529 48.838" fill="#222B43"/><path d="M59.539 242.909c0 4.095-3.31 7.422-7.393 7.422-4.077 0-7.388-3.327-7.388-7.422 0-4.083 3.31-7.41 7.388-7.41 4.082 0 7.393 3.327 7.393 7.41" fill="#E61A28"/><path d="M52.146 231.707c-6.161 0-11.172 5.025-11.172 11.202 0 6.182 5.011 11.212 11.172 11.212 6.16 0 11.173-5.03 11.173-11.212 0-6.177-5.013-11.202-11.173-11.202m0 25.788c-8.016 0-14.536-6.544-14.536-14.586 0-8.038 6.52-14.576 14.536-14.576 8.015 0 14.535 6.538 14.535 14.576 0 8.042-6.52 14.586-14.535 14.586" fill="#D5ADBD"/><path d="M286.519 263.022c0 4.095-3.308 7.412-7.388 7.412-4.081 0-7.388-3.317-7.388-7.412 0-4.093 3.307-7.41 7.388-7.41 4.08 0 7.388 3.317 7.388 7.41" fill="#E61A28"/><path d="M279.131 251.82c-6.16 0-11.172 5.026-11.172 11.202 0 6.183 5.011 11.213 11.172 11.213 6.16 0 11.173-5.03 11.173-11.213 0-6.176-5.012-11.201-11.173-11.201m0 25.788c-8.014 0-14.535-6.543-14.535-14.587 0-8.036 6.52-14.575 14.535-14.575s14.537 6.539 14.537 14.575c0 8.044-6.522 14.587-14.537 14.587" fill="#CF98AA"/><path d="M87.785 237.716c-3.655 0-6.628 2.984-6.628 6.65 0 3.668 2.973 6.651 6.628 6.651 3.659 0 6.636-2.983 6.636-6.65 0-3.667-2.977-6.65-6.636-6.65m0 16.674c-5.51 0-9.992-4.497-9.992-10.024 0-5.528 4.482-10.024 9.992-10.024 5.513 0 9.999 4.496 9.999 10.024 0 5.527-4.486 10.024-9.999 10.024" fill="#6CA3C3"/><path d="M30.412 170.59c0 5.122-4.132 9.262-9.234 9.262s-9.241-4.14-9.241-9.263c0-5.11 4.139-9.265 9.24-9.265 5.103 0 9.235 4.154 9.235 9.265M51.424 304.938c0 3.578-2.891 6.484-6.464 6.484-3.572 0-6.464-2.906-6.464-6.484 0-3.59 2.892-6.485 6.464-6.485 3.573 0 6.464 2.896 6.464 6.485M251.331 227.536a3.703 3.703 0 0 1-3.694 3.707 3.703 3.703 0 0 1-3.694-3.707 3.696 3.696 0 0 1 3.694-3.706 3.696 3.696 0 0 1 3.694 3.706M32.027 192.917a2.776 2.776 0 0 1-2.77 2.781 2.778 2.778 0 0 1-2.772-2.78 2.777 2.777 0 0 1 2.771-2.78 2.775 2.775 0 0 1 2.771 2.78" fill-opacity=".1" fill="#222B43"/><g transform="translate(0 207.736)"><mask id="b" fill="#fff"><use xlink:href="#a"/></mask><path d="M5.842 3.772a2.484 2.484 0 0 0-2.479 2.482 2.483 2.483 0 0 0 2.48 2.48 2.481 2.481 0 1 0 0-4.963m0 8.338C2.62 12.109 0 9.483 0 6.254 0 3.026 2.62.398 5.842.398c3.22 0 5.838 2.628 5.838 5.856 0 3.229-2.619 5.855-5.838 5.855" fill="#CF98AA" mask="url(#b)"/></g><path d="M250.101 66.625c-10.993-1.72-18.973-11.082-18.973-22.26h3.363c0 9.505 6.783 17.464 16.128 18.926l-.518 3.334zM257.084 66.625l-.518-3.334c9.346-1.462 16.13-9.42 16.13-18.926 0-10.564-8.57-19.159-19.103-19.159v-3.374c12.387 0 22.465 10.11 22.465 22.533 0 11.18-7.98 20.54-18.974 22.26" fill="#222B43"/><path fill="#1DB1F1" d="M247.755 38.544l-9.145-9.168 21.556-21.627 9.138 9.178z"/><path d="M240.99 29.376l6.764 6.782 19.172-19.232-6.76-6.791-19.177 19.24zm6.765 11.553l-11.523-11.553 23.934-24.014 11.515 11.566-23.926 24.001z" fill="#222B43"/><path d="M264.828 10.046l2.192 2.198 2.194-2.198-2.194-2.198-2.192 2.198zm2.191 6.968l-6.948-6.968 6.948-6.968 6.955 6.968-6.955 6.968z" fill="#222B43"/><path fill="#41464B" d="M239.8 39.737l-2.379-2.386 4.57-4.584 2.379 2.386z"/><path fill="#222B43" d="M221.266 46.052h23.092v-3.374h-23.092z"/><path d="M265.89 24.987a4.625 4.625 0 0 1-4.622 4.633 4.626 4.626 0 0 1-4.617-4.633c0-2.56 2.07-4.632 4.617-4.632a4.625 4.625 0 0 1 4.622 4.632" fill="#FFF"/><path d="M261.268 22.042a2.943 2.943 0 0 0-2.935 2.945 2.944 2.944 0 0 0 2.935 2.945 2.946 2.946 0 0 0 0-5.89m0 9.264c-3.473 0-6.299-2.834-6.299-6.319 0-3.484 2.826-6.318 6.3-6.318 3.475 0 6.303 2.834 6.303 6.318 0 3.485-2.828 6.32-6.304 6.32M252.042 70.7h3.102v-9.428a1.58 1.58 0 0 0-.456-1.107c-.573-.571-1.616-.573-2.193.004a1.578 1.578 0 0 0-.453 1.103V70.7zm6.465 3.374h-9.828V61.272c0-1.318.51-2.559 1.44-3.49a4.884 4.884 0 0 1 3.474-1.435c1.314 0 2.547.509 3.471 1.431a4.92 4.92 0 0 1 1.443 3.494v12.802z" fill="#222B43"/><path fill="#222B43" d="M276.058 78.872h-3.363v-4.798h-38.203v4.798h-3.364V70.7h44.93z"/><path d="M35.67 90.716c0 10.233 8.273 18.54 18.475 18.54 10.2 0 18.469-8.307 18.469-18.54H35.67z" fill="#E61A28"/><g fill="#222B43"><path d="M51.205 51.22v22.884l-1.262.326c-7.414 1.915-12.592 8.612-12.592 16.286 0 9.292 7.533 16.852 16.794 16.852 9.256 0 16.787-7.56 16.787-16.852 0-7.674-5.177-14.371-12.59-16.286l-1.262-.326V51.221h-5.875zm2.94 59.722c-11.115 0-20.157-9.073-20.157-20.226 0-8.772 5.633-16.48 13.854-19.183V47.847h12.601v23.686c8.22 2.703 13.852 10.411 13.852 19.183 0 11.153-9.038 20.226-20.15 20.226z"/><path d="M43.981 51.22h20.322v-3.373H43.98z"/></g><g fill="#CF98AA"><path d="M67.452 41.517L64.6 38.66l2.375-2.387 2.853 2.856zM61.387 35.426l-2.847-2.845 2.373-2.391 2.848 2.845zM66.973 35.427l-2.372-2.393 2.853-2.845 2.371 2.393zM60.916 41.516l-2.38-2.386 2.848-2.857 2.38 2.386zM44.466 34.368l-3.989-4.011 2.381-2.384 3.99 4.011zM35.976 25.848l-3.983-3.98 2.375-2.39 3.983 3.98zM42.854 25.85l-2.373-2.391 3.99-3.982 2.372 2.391z"/></g><path fill="#CF98AA" d="M34.372 34.367l-2.384-2.382 3.985-4.011 2.382 2.382z"/><path d="M118.11 15.078c-9.194 0-17.258 4.825-21.825 12.087 4.567 7.264 12.631 12.088 21.825 12.088 9.193 0 17.26-4.824 21.826-12.088-4.567-7.262-12.633-12.087-21.826-12.087" fill="#1DB1F1"/><path d="M118.11 16.765c-5.716 0-10.367 4.666-10.367 10.4 0 5.735 4.65 10.4 10.367 10.4 5.717 0 10.368-4.665 10.368-10.4 0-5.734-4.65-10.4-10.368-10.4m0 24.175c-7.57 0-13.73-6.18-13.73-13.775 0-7.595 6.16-13.774 13.73-13.774 7.572 0 13.732 6.18 13.732 13.774 0 7.595-6.16 13.775-13.732 13.775" fill="#222B43"/><path d="M122.575 27.165c0 2.473-2.001 4.483-4.465 4.483s-4.464-2.01-4.464-4.483c0-2.471 2-4.483 4.464-4.483 2.464 0 4.465 2.012 4.465 4.483" fill="#FFF"/><path d="M121.132 3.566a23.875 23.875 0 0 0-3.022-.192L118.03 0h.08c1.154 0 2.313.073 3.447.218l-.425 3.348zm-9.23.631L111.023.94a27.035 27.035 0 0 1 3.472-.699l.446 3.344a23.701 23.701 0 0 0-3.04.612zm15.212.952a23.33 23.33 0 0 0-2.938-.99l.857-3.263c1.144.302 2.275.684 3.362 1.132l-1.281 3.12zm-20.918 1.44l-1.693-2.916a27.148 27.148 0 0 1 3.17-1.581l1.296 3.114c-.948.396-1.88.862-2.773 1.384zm26.29 1.65a23.708 23.708 0 0 0-2.585-1.721l1.674-2.927a27.147 27.147 0 0 1 2.95 1.966l-2.04 2.682zm-31.189 2.144l-2.384-2.379a27.18 27.18 0 0 1 2.655-2.35l2.056 2.673a23.921 23.921 0 0 0-2.327 2.056zm35.582 2.234a24.09 24.09 0 0 0-2.056-2.332l2.37-2.396c.833.83 1.621 1.725 2.344 2.66l-2.658 2.068zm-39.342 2.7l-2.914-1.683a27.342 27.342 0 0 1 1.962-2.957l2.672 2.05a23.886 23.886 0 0 0-1.72 2.59zm42.458 2.657a23.846 23.846 0 0 0-1.383-2.78l2.906-1.701a27.334 27.334 0 0 1 1.578 3.175l-3.1 1.306zM95.18 21.058l-3.252-.864c.302-1.14.682-2.275 1.132-3.37l3.11 1.284a23.83 23.83 0 0 0-.99 2.95zm46.437 2.904a23.724 23.724 0 0 0-.614-3.047l3.247-.885c.307 1.139.543 2.31.701 3.482l-3.334.45zm-49.955 3.246l-.633-.004a27.64 27.64 0 0 1 .22-3.523l3.336.43a24.136 24.136 0 0 0-.194 3.055l-2.73.042zm53.303 3.5l-3.335-.437c.133-1.02.2-2.065.2-3.105v-.106h3.363v.106c0 1.185-.077 2.376-.228 3.542zm-53.007 3.54a27.398 27.398 0 0 1-.695-3.484l3.335-.444a23.75 23.75 0 0 0 .608 3.05l-3.248.877zm51.182 3.313l-3.107-1.291c.395-.956.73-1.948.995-2.947l3.25.87a27.155 27.155 0 0 1-1.138 3.368zM94.676 40.79a27.27 27.27 0 0 1-1.574-3.18l3.105-1.298c.396.953.86 1.89 1.377 2.783l-2.908 1.695zm44.925 2.908l-2.668-2.054c.63-.822 1.21-1.694 1.727-2.587l2.91 1.688a27.304 27.304 0 0 1-1.969 2.953zm-40.613 2.705a27.348 27.348 0 0 1-2.339-2.665l2.664-2.06c.63.819 1.32 1.605 2.05 2.335l-2.375 2.39zm35.62 2.308l-2.05-2.675c.816-.63 1.6-1.32 2.33-2.053l2.378 2.385a27.282 27.282 0 0 1-2.659 2.343zm-30.012 2.002a27.423 27.423 0 0 1-2.944-1.971l2.044-2.68c.822.631 1.691 1.213 2.582 1.73l-1.682 2.92zm23.9 1.548l-1.29-3.116c.948-.395 1.882-.857 2.776-1.378l1.687 2.92a27.213 27.213 0 0 1-3.173 1.574zm-17.363 1.162a27.087 27.087 0 0 1-3.357-1.14l1.283-3.117a23.6 23.6 0 0 0 2.94.996l-.866 3.26zm10.536.676l-.437-3.346a23.168 23.168 0 0 0 3.04-.606l.87 3.26a26.85 26.85 0 0 1-3.473.692zm-3.532.234h-.027c-1.172 0-2.35-.076-3.502-.225l.431-3.346a23.93 23.93 0 0 0 3.071.197l.027 3.374z" fill="#CF98AA"/></g></svg>