<svg width="32" height="32" viewBox="0 0 32 32" xmlns="http://www.w3.org/2000/svg"><title>thumbs-up</title><defs><linearGradient x1="50%" y1="100%" x2="50%" y2="0%" id="a"><stop stop-color="#FBCB7E" offset="0%"/><stop stop-color="#F69644" offset="100%"/></linearGradient><linearGradient x1="50%" y1="0%" x2="50%" y2="91.62%" id="b"><stop stop-color="#FBCB7E" offset="0%"/><stop stop-color="#F69644" offset="100%"/></linearGradient></defs><g fill-rule="nonzero" fill="none"><path d="M19.192 13.567c-.116-.31 3.097-3.18 1.223-5.505-.438-.543-1.926 2.603-4.038 4.028-1.165.786-3.877 2.459-3.877 3.384v5.986c0 1.112 4.3 2.29 7.567 2.29 1.198 0 2.933-7.504 2.933-8.696 0-1.197-3.693-1.176-3.808-1.487zm-7.567.083C11.049 13.65 9 14 9 16.383v4.242c0 2.38 2.05 2.643 2.625 2.643.575 0-.875-.5-.875-1.977v-5.577c0-1.547 1.45-2.064.875-2.064z" fill="url(#a)" transform="rotate(-180 16 15.875)"/><path d="M16 29.53c7.472 0 13.53-6.058 13.53-13.53 0-7.472-6.058-13.53-13.53-13.53C8.528 2.47 2.47 8.529 2.47 16c0 7.472 6.058 13.53 13.53 13.53zM16 32C7.163 32 0 24.837 0 16S7.163 0 16 0s16 7.163 16 16-7.163 16-16 16z" fill="url(#b)"/></g></svg>