<svg width="32" height="32" viewBox="0 0 32 32" xmlns="http://www.w3.org/2000/svg"><title>thumbs-up</title><defs><linearGradient x1="50%" y1="0%" x2="50%" y2="100%" id="a"><stop stop-color="#8EB5FA" offset="0%"/><stop stop-color="#5078F1" offset="100%"/></linearGradient></defs><g transform="translate(-171 -3450)" fill-rule="nonzero" fill="url(#a)"><path d="M190.192 3462.567c-.116-.31 3.097-3.18 1.223-5.505-.438-.543-1.926 2.603-4.038 4.028-1.165.786-3.877 2.459-3.877 3.384v5.986c0 1.112 4.3 2.29 7.567 2.29 1.198 0 2.933-7.504 2.933-8.696 0-1.197-3.693-1.176-3.808-1.487zm-7.567.083c-.576 0-2.625.35-2.625 2.733v4.242c0 2.38 2.05 2.643 2.625 2.643.575 0-.875-.5-.875-1.977v-5.577c0-1.547 1.45-2.064.875-2.064z"/><path d="M187 3479.53c7.472 0 13.53-6.058 13.53-13.53 0-7.472-6.058-13.53-13.53-13.53-7.472 0-13.53 6.058-13.53 13.53 0 7.472 6.058 13.53 13.53 13.53zm0 2.47c-8.837 0-16-7.163-16-16s7.163-16 16-16 16 7.163 16 16-7.163 16-16 16z"/></g></svg>