<svg width="46" height="18" viewBox="0 0 46 18" xmlns="http://www.w3.org/2000/svg"><title>Combined Shape</title><path d="M22.885 8.4a1.485 1.485 0 0 1 0 2.971 1.485 1.485 0 0 1-1.483-1.473L18.83 7.48l3.364 1.09c.206-.109.441-.17.691-.17zm6.98-5.505a9.828 9.828 0 0 1 2.891 6.99 9.893 9.893 0 0 1-3.118 7.21l-.963.905-1.807-1.929.963-.904c.31-.292.594-.61.848-.95l-1.607-.93.849-1.472 1.608.93a7.26 7.26 0 0 0-.002-5.719l-1.606.929-.849-1.472 1.604-.928a7.23 7.23 0 0 0-4.942-2.86v1.857h-1.698V2.695a7.23 7.23 0 0 0-4.943 2.86l1.605.928-.85 1.472-1.605-.929a7.247 7.247 0 0 0 .61 6.852l1.498-1.128-.637 4.498-4.491-.637 1.516-1.142a9.895 9.895 0 0 1-1.725-5.584 9.827 9.827 0 0 1 2.891-6.99A9.8 9.8 0 0 1 22.885 0a9.8 9.8 0 0 1 6.98 2.895zm16.05 10.123c.19.24.047.623-.289.623h-9.73a3.531 3.531 0 0 0-.193-.671l-.048-.048.048-.048a3.827 3.827 0 0 0 1.295-2.828c0-1.103-.48-2.11-1.295-2.877l-.048-.048.048-.048c.096-.24.192-.479.24-.719h9.683c.336 0 .48.384.288.624l-2.349 2.924a.232.232 0 0 0 0 .335l2.35 2.78zm-35.618-.096c-.096.24-.192.48-.24.767H.374c-.288 0-.48-.384-.288-.623l2.349-2.925a.232.232 0 0 0 0-.335L.085 6.978c-.19-.24-.047-.624.289-.624h9.73c.049.24.097.432.193.671l.048.048-.048.048A3.75 3.75 0 0 0 9.002 9.95c0 1.102.48 2.157 1.295 2.876l.048.048-.048.048z" fill="#FFF" fill-rule="evenodd"/></svg>