<svg width="80" height="40" viewBox="0 0 80 40" xmlns="http://www.w3.org/2000/svg"><title>Group 8</title><defs><linearGradient x1="100%" y1="84.6%" x2="10.432%" y2="84.6%" id="a"><stop stop-color="#76A120" offset="0%"/><stop stop-color="#719A1F" offset="100%"/></linearGradient></defs><g fill="none" fill-rule="evenodd"><path d="M0 40C0 17.909 17.909 0 40 0s40 17.909 40 40H0z" fill="url(#a)"/><path d="M59.42 26.73c.164.206.04.535-.247.535H50.83a3.028 3.028 0 0 0-.164-.576l-.042-.04.042-.042a3.282 3.282 0 0 0 1.11-2.425c0-.945-.412-1.809-1.11-2.466l-.042-.042.042-.04c.082-.206.164-.412.205-.617h8.302c.287 0 .41.329.246.534l-2.013 2.508a.199.199 0 0 0 0 .287l2.013 2.385zm-30.536-.082l.04-.04-.04-.042a3.303 3.303 0 0 1-1.11-2.466c0-.946.411-1.809 1.11-2.426l.04-.04-.04-.042a3.028 3.028 0 0 1-.165-.575h-8.342c-.288 0-.411.329-.247.534l2.014 2.425a.199.199 0 0 1 0 .288l-2.014 2.508c-.164.205 0 .534.247.534h8.301c.041-.247.124-.452.206-.658zm6.247-2.507a4.64 4.64 0 0 1 4.644-4.645 4.64 4.64 0 0 1 4.644 4.645 4.64 4.64 0 0 1-4.644 4.645c-2.548 0-4.644-2.097-4.644-4.645zm1.89.205l1.028 1.028 1.068 1.069 1.069-1.069 2.424-2.384-1.11-1.11-2.424 2.384-1.027-1.027-1.028 1.11zm-2.466-8.344l.493.082a1.388 1.388 0 0 0 1.398-.658l.246-.452c.37-.699 1.274-.904 1.932-.452l.41.288a1.295 1.295 0 0 0 1.522 0l.41-.288c.658-.452 1.521-.247 1.932.452l.247.452c.287.494.822.781 1.356.658l.493-.082c.78-.124 1.48.452 1.52 1.233l.042.534c.04.576.41 1.028.945 1.192l.493.124c.74.205 1.15 1.027.863 1.767l-.205.494c-.206.534-.082 1.11.329 1.48l.37.328a1.343 1.343 0 0 1 0 1.973l-.37.33c-.411.37-.576.986-.33 1.48l.206.492c.288.74-.082 1.562-.863 1.768l-.493.123c-.534.165-.945.617-.945 1.192l-.041.535c-.041.78-.781 1.356-1.52 1.233l-.494-.082a1.388 1.388 0 0 0-1.397.657l-.247.453c-.37.698-1.274.904-1.932.452l-.41-.288a1.295 1.295 0 0 0-1.521 0l-.411.288c-.658.452-1.52.246-1.932-.452l-.246-.453c-.288-.493-.822-.78-1.357-.657l-.493.082a1.313 1.313 0 0 1-1.52-1.233l-.083-.535a1.322 1.322 0 0 0-.945-1.192l-.493-.123c-.74-.206-1.15-1.028-.863-1.768l.205-.493c.206-.534.083-1.11-.328-1.48l-.37-.329a1.343 1.343 0 0 1 0-1.973l.37-.329c.41-.37.575-.986.328-1.48l-.205-.493c-.288-.74.082-1.562.863-1.767l.493-.124c.534-.164.945-.616.945-1.192l.042-.534c.082-.822.78-1.398 1.561-1.233zm-1.192 8.139a6.42 6.42 0 0 0 6.412 6.412 6.42 6.42 0 0 0 6.41-6.412 6.42 6.42 0 0 0-6.41-6.413 6.42 6.42 0 0 0-6.412 6.413z" fill="#FFF"/></g></svg>