<svg width="70" height="54" viewBox="0 0 70 54" xmlns="http://www.w3.org/2000/svg"><title>Icon Salut</title><g fill="#FFF" fill-rule="evenodd"><path d="M23.204 29.077C29.478 31.804 31.558 39.96 32 46c-1.16-5.312-4.016-13.138-9.555-15.545-.963-.417-.203-1.794.76-1.378M36.999 18l-6.488-4.183-6.478 3.551 2.14-6.552L20 6.25l7.822.128L30.498 0l2.68 6.643 7.822.62-6.158 3.968zM3.687 42.343L4.255 39l1.99 2.71L10 40.904l-2.47 2.723 1.754 2.837-3.512-1.028L3.1 48l.305-3.349L0 43.385zM55.887 44l2.346 1.756 2.6-1.18-1.042 2.431L62 48.904l-2.986-.253L57.782 51l-.808-2.588L54 47.97l2.488-1.348zM65.517 21.964L63.671 26l-1.215-4.437-4.456-.76 3.731-2.302L60.826 14l3.524 3.01 3.898-2.028-1.56 4.173L70 22.4zM22.011 25.37L24 27.492l-2.998-.223L19.435 30l-.48-2.957L16 26.604l2.703-1.603L18.44 22l2.147 1.968 2.797-1.414z"/><path d="M67.437 36.62c1.4.723-.081 3.162-1.51 2.496C54.863 33.961 43.171 45.63 38.144 53H38c4.61-9.012 17.181-22.72 29.437-16.38M43.477 19.31c1.617-1.142 3.528 1.151 1.908 2.29-8.95 6.312-11.483 21.06-11.823 31.4h-.17c-1.208-11.352-.09-26.52 10.085-33.69"/><path d="M57.402 27.047c2.08.153 2.157 2.584.071 2.64-.41.014-.82.052-1.232.138C44.524 32.32 38.74 43.81 35.53 54H34c2.805-13.25 9.936-27.938 23.402-26.953M12.675 42.248C20.483 40.742 26.47 46.325 29 53h-1.034c-2.97-5.468-8.121-9.868-14.773-8.584-1.192.228-1.708-1.94-.518-2.168"/><path d="M8.285 33.73a8.413 8.413 0 0 0-1.663-.136c-2.113.055-2.187-2.524-.072-2.584C20.805 30.626 29.727 41.283 32 53h-1.32c-2.888-9.347-9.516-17.108-22.395-19.27"/></g></svg>