<svg width="24" height="24" viewBox="0 0 24 24" xmlns="http://www.w3.org/2000/svg" xmlns:xlink="http://www.w3.org/1999/xlink"><title>Info Icon</title><defs><linearGradient x1="50%" y1="100%" x2="50%" y2="0%" id="b"><stop stop-color="#FFF" stop-opacity=".5" offset="0%"/><stop stop-opacity=".5" offset="100%"/></linearGradient><circle id="a" cx="12" cy="12" r="12"/></defs><g fill="none" fill-rule="evenodd"><g><use fill="#F7D0E5" xlink:href="#a"/><use fill-opacity=".7" fill="url(#b)" style="mix-blend-mode:soft-light" xlink:href="#a"/></g><path d="M14.538 16.645l-.18.717a35.7 35.7 0 0 1-1.296.475 3.513 3.513 0 0 1-1.125.163c-.655 0-1.165-.156-1.53-.466a1.49 1.49 0 0 1-.545-1.184c0-.186.013-.376.04-.57.028-.194.072-.414.132-.658l.678-2.328c.06-.223.11-.434.152-.634.041-.198.061-.381.061-.546 0-.297-.063-.505-.189-.621-.126-.117-.367-.177-.724-.177-.175 0-.355.028-.538.08a7.438 7.438 0 0 0-.474.152l.181-.718c.443-.175.867-.325 1.273-.45a3.914 3.914 0 0 1 1.15-.188c.652 0 1.155.153 1.507.46.353.305.53.702.53 1.191 0 .101-.012.28-.037.534a3.49 3.49 0 0 1-.136.702l-.674 2.32a6.05 6.05 0 0 0-.147.638c-.045.238-.067.42-.067.542 0 .308.071.518.213.63.142.111.388.167.737.167.164 0 .35-.028.558-.084.207-.055.358-.104.45-.147zM15 7.388c0 .382-.18.709-.54.977-.36.27-.793.404-1.3.404-.509 0-.943-.134-1.307-.404-.363-.268-.545-.595-.545-.977s.182-.71.545-.981C12.216 6.135 12.65 6 13.16 6c.507 0 .94.136 1.3.407.36.272.54.599.54.98z" fill="#FFF"/></g></svg>