<svg width="20" height="20" viewBox="0 0 20 20" xmlns="http://www.w3.org/2000/svg"><title>Shape</title><path d="M19.941 7.216c-.132-.372-.45-.663-.848-.716l-5.625-.823-2.52-5.093A1.057 1.057 0 0 0 9.993 0c-.398 0-.77.239-.955.584l-2.52 5.093L.894 6.5a1.034 1.034 0 0 0-.85.716c-.105.371-.026.796.266 1.088l4.086 3.979-.955 5.597c-.08.398.106.796.424 1.035.318.239.77.265 1.114.08l5.04-2.653 5.041 2.653c.16.08.319.132.504.132.212 0 .451-.08.637-.212.318-.239.477-.637.424-1.035l-.955-5.597 4.086-3.98c.212-.291.318-.716.185-1.087zm-6.533 3.807a.997.997 0 0 0-.29.848l.629 3.68-3.318-1.743a1.002 1.002 0 0 0-.46-.121c-.17 0-.315.048-.46.12L6.19 15.552l.63-3.68a.931.931 0 0 0-.29-.848L3.914 8.408l3.705-.533a.97.97 0 0 0 .726-.533L9.993 4l1.647 3.342a.97.97 0 0 0 .726.533l3.706.533-2.664 2.615z" fill-rule="nonzero" fill="#F86A60"/></svg>