<svg width="32" height="32" viewBox="0 0 32 32" xmlns="http://www.w3.org/2000/svg"><title>Icon</title><g fill="none" fill-rule="evenodd"><circle fill="#F9C345" cx="16" cy="16" r="16"/><path fill="#FFF" d="M16 7l-1.25 3.444-.59.128-1.847-1 .815 5.384-2.443-3.347-.407 1.716-.506.337-2.77-1.027 1.002 2.838-.329.517L6 16.407l5.873 3.847-1.917 1.397 3.264.536 2.325-1.16L13.773 25h.909l1.773-3.972 2.325 1.159 3.264-.536-1.917-1.397L26 16.407l-1.675-.417-.33-.517 1.003-2.838-2.77 1.027-.506-.337-.407-1.716-2.443 3.347.815-5.385-1.847 1.001-.59-.128z"/></g></svg>