<?xml version="1.0" encoding="UTF-8"?>
<svg width="80px" height="40px" viewBox="0 0 80 40" version="1.1" xmlns="http://www.w3.org/2000/svg" xmlns:xlink="http://www.w3.org/1999/xlink">
    <!-- Generator: Sketch 47.1 (45422) - http://www.bohemiancoding.com/sketch -->
    <title>Group 8</title>
    <desc>Created with Sketch.</desc>
    <defs>
        <linearGradient x1="100%" y1="84.5996082%" x2="10.4315671%" y2="84.5996093%" id="linearGradient-1">
            <stop stop-color="#76A120" offset="0%"></stop>
            <stop stop-color="#719A1F" offset="100%"></stop>
        </linearGradient>
    </defs>
    <g id="Index" stroke="none" stroke-width="1" fill="none" fill-rule="evenodd">
        <g id="Thanksgiving_Holiday_2017_1440" transform="translate(-195.000000, -2809.000000)">
            <g id="Content" transform="translate(110.000000, 92.000000)">
                <g id="Best-and-Worst" transform="translate(45.000000, 2399.000000)">
                    <g id="Best-Table" transform="translate(0.000000, 318.000000)">
                        <g id="Header">
                            <g id="BG_header_table_best">
                                <g id="Group-8" transform="translate(40.000000, 0.000000)">
                                    <path d="M0,40 C0,17.90861 17.90861,0 40,0 C62.09139,0 80,17.90861 80,40 L0,40 Z" id="Combined-Shape" fill="url(#linearGradient-1)"></path>
                                    <g id="icon_best_airports" transform="translate(20.000000, 14.000000)" fill="#FFFFFF">
                                        <path d="M39.4193271,12.7305369 C39.5837177,12.936068 39.4604247,13.2649177 39.1727411,13.2649177 L30.8299171,13.2649177 C30.7888195,13.0593866 30.7477218,12.8949617 30.6655265,12.6894306 L30.6244289,12.6483244 L30.6655265,12.6072182 C31.3641866,11.9906249 31.7751632,11.0862881 31.7751632,10.1819513 C31.7751632,9.23650826 31.3641866,8.37327766 30.6655265,7.71557816 L30.6244289,7.67447194 L30.6655265,7.63336572 C30.7477218,7.42783463 30.8299171,7.22230353 30.8710148,7.01677244 L39.1727411,7.01677244 C39.4604247,7.01677244 39.5837177,7.34562219 39.4193271,7.55115328 L37.405542,10.0586326 C37.3233466,10.1408451 37.3233466,10.2641637 37.405542,10.3463762 L39.4193271,12.7305369 L39.4193271,12.7305369 Z M8.88376926,12.6483244 L8.92486692,12.6072182 L8.88376926,12.566112 C8.18510913,11.9495187 7.77413257,11.0451819 7.77413257,10.0997389 C7.77413257,9.15429582 8.18510913,8.29106522 8.88376926,7.67447194 L8.92486692,7.63336572 L8.88376926,7.5922595 C8.80157395,7.38672841 8.7604763,7.22230353 8.71937864,7.01677244 L0.376554643,7.01677244 C0.0888710564,7.01677244 -0.0344219091,7.34562219 0.129968712,7.55115328 L2.14375382,9.9764202 C2.22594913,10.0586326 2.22594913,10.1819513 2.14375382,10.2641637 L0.129968712,12.7716431 C-0.0344219091,12.9771742 0.129968712,13.3060239 0.376554643,13.3060239 L8.67828099,13.3060239 C8.71937864,13.0593866 8.80157395,12.8538555 8.88376926,12.6483244 L8.88376926,12.6483244 Z M15.1306129,10.1408451 C15.1306129,7.5922595 17.1854956,5.49584234 19.7746479,5.49584234 C22.3227025,5.49584234 24.4186829,7.55115328 24.4186829,10.1408451 C24.4186829,12.6894306 22.3638002,14.7858478 19.7746479,14.7858478 C17.2265933,14.7858478 15.1306129,12.6894306 15.1306129,10.1408451 L15.1306129,10.1408451 Z M17.021105,10.3463762 L18.0485464,11.3740316 L19.1170854,12.4427933 L20.1856244,11.3740316 L22.6103861,8.98987094 L21.5007494,7.88000304 L19.0759877,10.2641637 L18.0485464,9.23650826 L17.021105,10.3463762 L17.021105,10.3463762 Z M14.5552457,2.00181374 L15.0484175,2.08402618 C15.5826871,2.16623862 16.1580542,1.91960131 16.4457378,1.42632668 L16.6923237,0.974158274 C17.0622026,0.275352554 17.9663511,0.0698214598 18.6239135,0.521989867 L19.0348901,0.809733399 C19.4869643,1.13858315 20.1034291,1.13858315 20.5555033,0.809733399 L20.9664799,0.521989867 C21.6240424,0.0698214598 22.4870931,0.275352554 22.8980697,0.974158274 L23.1446556,1.42632668 C23.4323392,1.91960131 23.9666087,2.20734484 24.5008782,2.08402618 L24.9940501,2.00181374 C25.7749055,1.87849509 26.4735657,2.45398215 26.5146633,3.23500031 L26.555761,3.76938115 C26.5968586,4.34486822 26.9667375,4.79703662 27.5010071,4.9614615 L27.9941789,5.08478016 C28.7339367,5.29031125 29.1449133,6.11243563 28.8572297,6.85234756 L28.6517414,7.34562219 C28.4462531,7.88000304 28.5695461,8.4554901 28.9805226,8.82544607 L29.3504015,9.15429582 C29.9257687,9.68867666 29.9257687,10.5930135 29.3504015,11.1273943 L28.9805226,11.4562441 C28.5695461,11.8262 28.4051555,12.4427933 28.6517414,12.936068 L28.8572297,13.4293426 C29.1449133,14.1692545 28.7750344,14.9913789 27.9941789,15.19691 L27.5010071,15.3202286 C26.9667375,15.4846535 26.555761,15.9368219 26.555761,16.512309 L26.5146633,17.0466898 C26.4735657,17.827708 25.7338079,18.4031951 24.9940501,18.2798764 L24.5008782,18.197664 C23.9666087,18.1154515 23.3912415,18.3620888 23.103558,18.8553635 L22.856972,19.3075319 C22.4870931,20.0063376 21.5829447,20.2118687 20.9253822,19.7597003 L20.5144057,19.4719567 C20.0623315,19.143107 19.4458666,19.143107 18.9937924,19.4719567 L18.5828159,19.7597003 C17.9252534,20.2118687 17.0622026,20.0063376 16.6512261,19.3075319 L16.4046402,18.8553635 C16.1169566,18.3620888 15.5826871,18.0743453 15.0484175,18.197664 L14.5552457,18.2798764 C13.7743902,18.4031951 13.0757301,17.827708 13.0346324,17.0466898 L12.9524371,16.512309 C12.9113395,15.9368219 12.5414606,15.4846535 12.0071911,15.3202286 L11.5140192,15.19691 C10.7742614,14.9913789 10.3632849,14.1692545 10.6509684,13.4293426 L10.8564567,12.936068 C11.061945,12.4016871 10.938652,11.8262 10.5276755,11.4562441 L10.1577966,11.1273943 C9.5824294,10.5930135 9.5824294,9.68867666 10.1577966,9.15429582 L10.5276755,8.82544607 C10.938652,8.4554901 11.1030426,7.83889682 10.8564567,7.34562219 L10.6509684,6.85234756 C10.3632849,6.11243563 10.7331637,5.29031125 11.5140192,5.08478016 L12.0071911,4.9614615 C12.5414606,4.79703662 12.9524371,4.34486822 12.9524371,3.76938115 L12.9935348,3.23500031 C13.0757301,2.41287593 13.7743902,1.83738887 14.5552457,2.00181374 L14.5552457,2.00181374 Z M13.3634137,10.1408451 C13.3634137,13.6759799 16.2402495,16.5534152 19.7746479,16.5534152 C23.3090462,16.5534152 26.1858821,13.6759799 26.1858821,10.1408451 C26.1858821,6.60571025 23.3090462,3.72827493 19.7746479,3.72827493 C16.2402495,3.72827493 13.3634137,6.60571025 13.3634137,10.1408451 L13.3634137,10.1408451 Z" id="Shape"></path>
                                    </g>
                                </g>
                            </g>
                        </g>
                    </g>
                </g>
            </g>
        </g>
    </g>
</svg>