<?xml version="1.0" encoding="UTF-8"?>
<svg width="70px" height="54px" viewBox="0 0 70 54" version="1.1" xmlns="http://www.w3.org/2000/svg" xmlns:xlink="http://www.w3.org/1999/xlink">
    <!-- Generator: Sketch 44 (41411) - http://www.bohemiancoding.com/sketch -->
    <title>Icon Salut</title>
    <desc>Created with Sketch.</desc>
    <defs></defs>
    <g id="Index" stroke="none" stroke-width="1" fill="none" fill-rule="evenodd">
        <g id="Independence_Day_Air_Travel_Forecast_2017" transform="translate(-643.000000, -2007.000000)" fill="#FFFFFF">
            <g id="Content" transform="translate(110.000000, 92.000000)">
                <g id="#2" transform="translate(45.000000, 1734.000000)">
                    <g id="On-Time-Ranking">
                        <g id="Table-10-Major-Airl" transform="translate(472.000000, 170.000000)">
                            <g id="Header" transform="translate(327.000000, 32.500000) scale(-1, 1) translate(-327.000000, -32.500000) ">
                                <g id="Icon-Salut" transform="translate(568.000000, 11.000000)">
                                    <path d="M46.7958736,29.0774744 C40.5215165,31.8041775 38.4419566,39.9594135 38,46 C39.1599689,40.6878371 42.0164092,32.8617243 47.5549152,30.4552612 C48.5177653,30.03775 47.7578317,28.6612958 46.7958736,29.0774744" id="Fill-1"></path>
                                    <polygon id="Fill-3" points="33.0010223 18 39.4892654 13.8172504 45.9665456 17.3683001 43.8273987 10.8164604 50 6.25020947 42.1779305 6.37818687 39.5020556 0 36.8216127 6.64319058 29 7.26368707 35.157984 11.2314174"></polygon>
                                    <polygon id="Fill-5" points="66.3132769 42.3425294 65.7449108 39 63.7556296 41.710325 60 40.9043977 62.470726 43.6266048 60.7160872 46.4639443 64.2276166 45.4355367 66.9010088 48 66.5956584 44.6513248 70 43.3852772"></polygon>
                                    <polygon id="Fill-8" points="14.1126502 44 11.766938 45.7561089 9.16638819 44.5754596 10.2085916 47.0072143 8 48.9042355 10.9856088 48.6513265 12.2175389 51 13.0260335 48.4118571 16 47.9703863 13.5115615 46.6219455"></polygon>
                                    <polygon id="Fill-10" points="4.48271098 21.9643977 6.32920045 26 7.5439043 21.5625784 12 20.8026976 8.26862524 18.5014115 9.17441734 14 5.6502927 17.0108218 1.75180889 14.9824341 3.31207505 19.1554266 0 22.3996236"></polygon>
                                    <polygon id="Fill-12" points="47.9885442 25.3700557 46 27.4923761 48.9984688 27.2691161 50.5650768 30 51.0446322 27.0431553 54 26.6042874 51.2973402 25.0014066 51.5586684 22 49.4122384 23.9679289 46.6147564 22.5536488"></polygon>
                                    <path d="M2.56292578,36.6191748 C1.16261355,37.3431456 2.64445081,39.781623 4.07266465,39.1163052 C15.1369623,33.9614052 26.8294822,45.6289788 31.8556963,53 L32,53 C27.3905662,43.9884451 14.8187095,30.279834 2.56292578,36.6191748" id="Fill-14"></path>
                                    <path d="M26.5231039,19.310571 C24.9058609,18.1682008 22.9952904,20.4613348 24.6154376,21.5999279 C33.5654546,27.9115023 36.0983609,42.6594932 36.4377413,53 L36.6078463,53 C37.8164223,41.6476436 36.6987074,26.4799722 26.5231039,19.310571" id="Fill-16"></path>
                                    <path d="M12.5982482,27.0469903 C10.5184042,27.1997085 10.441243,29.6312836 12.5267864,29.6873392 C12.9362666,29.701022 13.347939,29.7389809 13.7591729,29.8254918 C25.4762702,32.3197431 31.2580961,43.809807 34.4686141,54 L36,54 C33.1945781,40.7492622 26.0637472,26.061825 12.5982482,27.0469903" id="Fill-18"></path>
                                    <path d="M57.3245108,42.2476584 C49.5173331,40.7416676 43.5306368,46.3250215 41,53 L42.0341893,53 C45.0048778,47.5322083 50.1549775,43.1316396 56.8074162,44.4161747 C57.9988639,44.6436157 58.5150522,42.4755598 57.3245108,42.2476584" id="Fill-20"></path>
                                    <path d="M61.7146777,33.7292693 C62.3052672,33.6284138 62.8660827,33.577124 63.3780158,33.5935023 C65.4910729,33.6491021 65.5648411,31.0699593 63.4504508,31.0100494 C49.194981,30.6264537 40.2725918,41.2826579 38,53 L39.3202719,53 C42.2078944,43.6531935 48.8363612,35.8924908 61.7146777,33.7292693" id="Fill-22"></path>
                                </g>
                            </g>
                        </g>
                    </g>
                </g>
            </g>
        </g>
    </g>
</svg>