<?xml version="1.0" encoding="UTF-8"?>
<svg width="24px" height="24px" viewBox="0 0 24 24" version="1.1" xmlns="http://www.w3.org/2000/svg" xmlns:xlink="http://www.w3.org/1999/xlink">
    <!-- Generator: Sketch 47.1 (45422) - http://www.bohemiancoding.com/sketch -->
    <title>Info Icon</title>
    <desc>Created with Sketch.</desc>
    <defs>
        <linearGradient x1="51.0859983%" y1="98.9140017%" x2="51.0859983%" y2="1.0859983%" id="linearGradient-1">
            <stop stop-color="#12BFF6" offset="0%"></stop>
            <stop stop-color="#0787E9" offset="100%"></stop>
        </linearGradient>
    </defs>
    <g id="Page-1" stroke="none" stroke-width="1" fill="none" fill-rule="evenodd">
        <g id="Financial_Institutions_1440" transform="translate(-198.000000, -1725.000000)">
            <g id="Content" transform="translate(110.000000, 90.000000)">
                <g id="Info-Block" transform="translate(64.000000, 1609.000000)">
                    <g id="Info-Icon" transform="translate(24.000000, 26.000000)">
                        <circle id="Oval-5" fill="url(#linearGradient-1)" cx="12" cy="12" r="12"></circle>
                        <path d="M14.5384615,16.6449672 L14.358029,17.3621678 C13.8167315,17.5699683 13.3838419,17.7279834 13.061588,17.8369344 C12.7393342,17.9458852 12.3643611,18 11.9374119,18 C11.2817661,18 10.7716544,17.8441496 10.4078191,17.5338918 C10.0439841,17.2229126 9.86206661,16.8282358 9.86206661,16.3498616 C9.86206661,16.1644286 9.87543189,15.9739447 9.9029051,15.7798533 C9.93037851,15.5857619 9.97418709,15.3664169 10.0343314,15.1218183 L10.7115102,12.7941635 C10.7716544,12.5712109 10.8228882,12.3598028 10.8637269,12.1599389 C10.9053081,11.9615184 10.9253562,11.7789713 10.9253562,11.6144627 C10.9253562,11.3171923 10.862242,11.1093917 10.7360134,10.992504 C10.6097848,10.8756163 10.3692083,10.8164508 10.0120557,10.8164508 C9.83682081,10.8164508 9.65713091,10.8438688 9.47372827,10.8965406 C9.28958315,10.9492123 9.13216877,11.0004409 9,11.0480618 L9.18117523,10.3301397 C9.62446,10.1548082 10.0484393,10.00473 10.4538555,9.87990522 C10.8592717,9.75508063 11.2424125,9.69230769 11.6047626,9.69230769 C12.2559532,9.69230769 12.7586396,9.84527179 13.111337,10.1512004 C13.4640343,10.4571289 13.6407541,10.8539703 13.6407541,11.3431675 C13.6407541,11.4441815 13.6288738,11.6223994 13.6043707,11.8770993 C13.5798673,12.1325209 13.5345736,12.3662965 13.4684893,12.5791478 L12.7942806,14.898144 C12.7393342,15.0842987 12.6895852,15.29715 12.6465189,15.5366977 C12.6019677,15.7748026 12.5804346,15.956628 12.5804346,16.0785665 C12.5804346,16.3866597 12.6509742,16.5966249 12.7927956,16.7084618 C12.9353596,16.820299 13.1811338,16.8758567 13.5301186,16.8758567 C13.6942156,16.8758567 13.8805883,16.8477172 14.0877516,16.7921595 C14.2949148,16.7366015 14.4456465,16.6875375 14.5384615,16.6449672 Z M15,7.38768858 C15,7.77012244 14.8205718,8.09655697 14.4600148,8.36494355 C14.1003081,8.63469604 13.6666194,8.76923077 13.1597987,8.76923077 C12.6512771,8.76923077 12.2167381,8.63469604 11.8527796,8.36494355 C11.4896714,8.09655697 11.3076923,7.77012244 11.3076923,7.38768858 C11.3076923,7.00593759 11.4896714,6.67882001 11.8527796,6.40701872 C12.2158876,6.1352176 12.6512771,6 13.1597987,6 C13.6666194,6 14.1003081,6.13590047 14.4600148,6.40701872 C14.8205718,6.67882001 15,7.00593759 15,7.38768858 Z" id="Shape" fill="#FFFFFF"></path>
                    </g>
                </g>
            </g>
        </g>
    </g>
</svg>