<?xml version="1.0" encoding="UTF-8"?>
<svg width="32px" height="32px" viewBox="0 0 32 32" version="1.1" xmlns="http://www.w3.org/2000/svg" xmlns:xlink="http://www.w3.org/1999/xlink">
    <!-- Generator: Sketch 47.1 (45422) - http://www.bohemiancoding.com/sketch -->
    <title>Info Icon</title>
    <desc>Created with Sketch.</desc>
    <defs>
        <linearGradient x1="100%" y1="50%" x2="3.90625%" y2="50%" id="linearGradient-1">
            <stop stop-color="#1B36CC" offset="0%"></stop>
            <stop stop-color="#2137B2" offset="100%"></stop>
        </linearGradient>
    </defs>
    <g id="Index" stroke="none" stroke-width="1" fill="none" fill-rule="evenodd">
        <g id="Safe_Cities_1440" transform="translate(-200.000000, -8233.000000)">
            <g id="Safest-Small-Cities" transform="translate(155.000000, 8127.000000)">
                <g id="Info-Block" transform="translate(0.000000, 72.000000)">
                    <g id="Info-Icon" transform="translate(45.000000, 34.000000)">
                        <circle id="Oval-5" fill="url(#linearGradient-1)" cx="16" cy="16" r="16"></circle>
                        <path d="M19.3846154,22.1932896 L19.1440386,23.1495571 C18.4223086,23.4266244 17.8451225,23.6373112 17.4154507,23.7825792 C16.9857789,23.927847 16.4858148,24 15.9165491,24 C15.0423548,24 14.3622058,23.7921995 13.8770922,23.3785223 C13.3919788,22.9638835 13.1494221,22.4376478 13.1494221,21.7998155 C13.1494221,21.5525714 13.1672425,21.298593 13.2038735,21.0398044 C13.2405047,20.7810158 13.2989161,20.4885558 13.3791085,20.1624244 L14.2820136,17.0588847 C14.3622058,16.7616145 14.4305176,16.479737 14.4849692,16.2132519 C14.5404108,15.9486912 14.5671416,15.705295 14.5671416,15.4859502 C14.5671416,15.0895897 14.4829893,14.8125223 14.3146845,14.656672 C14.1463797,14.5008218 13.825611,14.4219344 13.3494076,14.4219344 C13.1157611,14.4219344 12.8761746,14.4584918 12.6316377,14.5287208 C12.3861109,14.5989497 12.176225,14.6672545 12,14.730749 L12.241567,13.7735196 C12.8326133,13.5397442 13.3979191,13.33964 13.938474,13.173207 C14.4790289,13.0067742 14.9898834,12.9230769 15.4730168,12.9230769 C16.3412709,12.9230769 17.0115195,13.1270291 17.4817826,13.5349338 C17.9520457,13.9428386 18.1876722,14.4719605 18.1876722,15.1242234 C18.1876722,15.2589087 18.1718317,15.4965325 18.1391609,15.8361324 C18.1064898,16.1766945 18.0460982,16.4883953 17.9579858,16.772197 L17.0590408,19.864192 C16.9857789,20.1123983 16.919447,20.3962 16.8620252,20.7155969 C16.8026236,21.0330701 16.7739129,21.275504 16.7739129,21.4380887 C16.7739129,21.8488796 16.8679655,22.1288332 17.0570609,22.2779491 C17.2471461,22.4270653 17.5748451,22.5011423 18.0401581,22.5011423 C18.2589542,22.5011423 18.5074511,22.4636229 18.7836689,22.3895459 C19.0598864,22.3154687 19.260862,22.25005 19.3846154,22.1932896 Z M20,9.85025144 C20,10.3601633 19.7607624,10.7954093 19.2800197,11.1532581 C18.8004108,11.5129281 18.2221592,11.6923077 17.5463983,11.6923077 C16.8683695,11.6923077 16.2889841,11.5129281 15.8037061,11.1532581 C15.3195619,10.7954093 15.0769231,10.3601633 15.0769231,9.85025144 C15.0769231,9.34125012 15.3195619,8.90509335 15.8037061,8.54269163 C16.2878501,8.18029013 16.8683695,8 17.5463983,8 C18.2221592,8 18.8004108,8.18120063 19.2800197,8.54269163 C19.7607624,8.90509335 20,9.34125012 20,9.85025144 Z" id="Shape" fill="#FFFFFF"></path>
                    </g>
                </g>
            </g>
        </g>
    </g>
</svg>