<?xml version="1.0" encoding="UTF-8"?>
<svg width="20px" height="20px" viewBox="0 0 20 20" version="1.1" xmlns="http://www.w3.org/2000/svg" xmlns:xlink="http://www.w3.org/1999/xlink">
    <!-- Generator: Sketch 44 (41411) - http://www.bohemiancoding.com/sketch -->
    <title>Shape</title>
    <desc>Created with Sketch.</desc>
    <defs></defs>
    <g id="Index" stroke="none" stroke-width="1" fill="none" fill-rule="evenodd">
        <g id="Independence_Day_Air_Travel_Forecast_2017" transform="translate(-557.000000, -1286.000000)" fill-rule="nonzero" fill="#30B2F3">
            <g id="Content" transform="translate(110.000000, 92.000000)">
                <g id="#1" transform="translate(45.000000, 994.000000)">
                    <g id="Tips" transform="translate(402.000000, 196.000000)">
                        <g id="Tip1">
                            <g id="Icon-Star" transform="translate(0.000000, 4.000000)">
                                <path d="M19.9414973,7.2158408 C19.8088532,6.84443723 19.4905073,6.55262014 19.0925749,6.49956249 L13.4684636,5.67716887 L10.9482251,0.583634182 C10.7625233,0.212230612 10.3911198,0 9.99318737,0 C9.59525497,0 9.2238514,0.238759438 9.03814962,0.583634182 L6.5179111,5.67716887 L0.89379989,6.49956249 C0.495867493,6.55262014 0.150992749,6.84443723 0.0448774432,7.2158408 C-0.0612378627,7.58724437 0.0183486168,8.0117056 0.310165708,8.30352269 L4.39560499,12.2828467 L3.44056723,17.880429 C3.36098075,18.2783614 3.54668254,18.6762938 3.86502846,18.9150533 C4.18337437,19.1538127 4.63436442,19.1803415 4.97923917,18.9946398 L10.0197162,16.3417571 L15.0601932,18.9946398 C15.2193662,19.0742262 15.3785391,19.1272839 15.5642409,19.1272839 C15.7764715,19.1272839 16.015231,19.0476974 16.2009328,18.9150533 C16.5192787,18.6762938 16.6784516,18.2783614 16.625394,17.880429 L15.6703562,12.2828467 L19.7557955,8.30352269 C19.9680261,8.0117056 20.0741414,7.58724437 19.9414973,7.2158408 Z M13.4077086,11.0230204 C13.1897604,11.2409685 13.0686781,11.5557825 13.117111,11.8705966 L13.746739,15.5514988 L10.4290837,13.8079135 C10.2837849,13.7352642 10.1384861,13.6868312 9.96897091,13.6868312 C9.79945567,13.6868312 9.6541569,13.7352642 9.50885812,13.8079135 L6.19120278,15.5514988 L6.8208308,11.8705966 C6.86926372,11.5557825 6.77239787,11.2409685 6.53023325,11.0230204 L3.91485531,8.40764243 L7.61997406,7.87488026 C7.93478807,7.82644733 8.20116916,7.63271564 8.34646793,7.34211809 L9.99318737,4.00024628 L11.6399068,7.34211809 C11.7852056,7.63271564 12.0515867,7.82644733 12.3664007,7.87488026 L16.0715194,8.40764243 L13.4077086,11.0230204 Z" id="Shape"></path>
                            </g>
                        </g>
                    </g>
                </g>
            </g>
        </g>
    </g>
</svg>