<?xml version="1.0" encoding="UTF-8"?>
<svg width="32px" height="32px" viewBox="0 0 32 32" version="1.1" xmlns="http://www.w3.org/2000/svg" xmlns:xlink="http://www.w3.org/1999/xlink">
    <!-- Generator: Sketch 47.1 (45422) - http://www.bohemiancoding.com/sketch -->
    <title>Icon</title>
    <desc>Created with Sketch.</desc>
    <defs></defs>
    <g id="Index" stroke="none" stroke-width="1" fill="none" fill-rule="evenodd">
        <g id="Thanksgiving_Holiday_2017_1440" transform="translate(-555.000000, -1566.000000)">
            <g id="Content" transform="translate(110.000000, 92.000000)">
                <g id="Calendar" transform="translate(45.000000, 982.000000)">
                    <g id="Tips" transform="translate(400.000000, 86.000000)">
                        <g id="Tip5" transform="translate(0.000000, 406.000000)">
                            <g id="Icon">
                                <circle id="Oval-9-Copy" fill="#E6502E" cx="16" cy="16" r="16"></circle>
                                <polygon id="Page-1" fill="#FFFFFF" points="15.9998946 7.0000648 14.7499868 10.4440622 14.1597233 10.5721456 12.3130147 9.57123726 13.1278693 14.9561416 10.6847816 11.6086927 10.277776 13.3247516 9.77207689 13.6616996 7.00211938 12.6353042 8.00444965 15.4725792 7.67526018 15.9903127 6 16.4073939 11.8733222 20.253785 9.95638925 21.6506072 13.2196037 22.1869161 15.5452293 21.0279014 13.7727517 25 14.6818714 25 16.4545598 21.0279014 18.7803963 22.1869161 22.0436108 21.6506072 20.1266778 20.253785 25.9997891 16.4073939 24.3245289 15.9903127 23.9953395 15.4725792 24.9976697 12.6353042 22.2277122 13.6616996 21.7220131 13.3247516 21.3150075 11.6086927 18.8719198 14.9561416 19.6869853 9.57123726 17.8400658 10.5721456 17.2500132 10.4440622"></polygon>
                            </g>
                        </g>
                    </g>
                </g>
            </g>
        </g>
    </g>
</svg>