<?xml version="1.0" encoding="UTF-8"?>
<svg width="80px" height="40px" viewBox="0 0 80 40" version="1.1" xmlns="http://www.w3.org/2000/svg" xmlns:xlink="http://www.w3.org/1999/xlink">
    <!-- Generator: Sketch 47.1 (45422) - http://www.bohemiancoding.com/sketch -->
    <title>Group 10</title>
    <desc>Created with Sketch.</desc>
    <defs>
        <linearGradient x1="100%" y1="84.5996082%" x2="10.9292302%" y2="84.5996093%" id="linearGradient-1">
            <stop stop-color="#E8562E" offset="0%"></stop>
            <stop stop-color="#E7522E" offset="100%"></stop>
        </linearGradient>
    </defs>
    <g id="Index" stroke="none" stroke-width="1" fill="none" fill-rule="evenodd">
        <g id="Thanksgiving_Holiday_2017_1440" transform="translate(-782.000000, -2809.000000)">
            <g id="Content" transform="translate(110.000000, 92.000000)">
                <g id="Best-and-Worst" transform="translate(45.000000, 2399.000000)">
                    <g id="Worst-Table" transform="translate(587.000000, 318.000000)">
                        <g id="Header">
                            <g id="BG_header_table_worst">
                                <g id="Group-10" transform="translate(40.000000, 0.000000)">
                                    <path d="M0,40 C0,17.90861 17.90861,0 40,0 C62.09139,0 80,17.90861 80,40 L0,40 Z" id="Combined-Shape" fill="url(#linearGradient-1)"></path>
                                    <path d="M39.8851311,21.3990664 C40.7044319,21.3990664 41.3688799,22.0642534 41.3690855,22.8851311 C41.3690855,23.7058029 40.7046375,24.3709899 39.8853368,24.3709899 C39.0701489,24.3709899 38.4087857,23.7128049 38.4017936,22.8981053 L35.8303737,20.4799552 L39.1935376,21.5706146 C39.400008,21.4612604 39.6352691,21.3990664 39.8851311,21.3990664 Z M46.8650226,15.8951078 C48.7294255,17.7623679 49.7562249,20.2445655 49.7562249,22.8851311 C49.7562249,24.6380944 49.2914609,26.3609903 48.4125222,27.8670313 C47.9317177,28.6912041 47.3343109,29.4408265 46.6377818,30.0950986 L45.6747332,31 L43.8679118,29.0713697 L44.8307547,28.1666743 C45.1414885,27.874651 45.4250768,27.5564734 45.6790519,27.216672 L44.0723257,26.2874697 L44.9210341,24.8154089 L46.5285829,25.7448172 C46.9137612,24.8465059 47.115296,23.8728205 47.115296,22.8851311 C47.115296,21.8702577 46.9053296,20.9035742 46.527349,20.0260629 L44.9210341,20.9546474 L44.0723257,19.4825866 L45.6763784,18.5550318 C44.5169362,17.0034781 42.750833,15.9317651 40.7336339,15.694522 L40.7336339,17.5521029 L39.0362171,17.5521029 L39.0362171,15.6947279 C37.0190179,15.9319711 35.2529147,17.003684 34.0932669,18.5552377 L35.6975252,19.4827925 L34.8488168,20.9550593 L33.242502,20.0264748 C32.8645213,20.9039861 32.6545549,21.8704636 32.6545549,22.8853371 C32.6545549,24.1475447 32.9833858,25.3897762 33.6054703,26.4777585 C33.6829995,26.6134731 33.7660812,26.7471283 33.8528646,26.8785181 L35.35142,25.7503776 L34.7137062,30.2481122 L30.2225642,29.6109331 L31.7392166,28.4694064 C31.5882712,28.2490504 31.4459629,28.0223102 31.3141427,27.7914512 C30.4635834,26.3045627 30.0140374,24.6078212 30.0140374,22.8851311 C30.0140374,20.2445655 31.0408368,17.7623679 32.9052396,15.8953137 C34.7696424,14.0282596 37.2485208,13 39.8851311,13 C42.5217414,13 45.0008255,14.0282596 46.8650226,15.8951078 Z M62.9141151,26.0176654 C63.105865,26.2573528 62.9620525,26.6408526 62.6264902,26.6408526 L52.8951819,26.6408526 C52.8472444,26.4011652 52.799307,26.2094153 52.703432,25.9697279 L52.6554945,25.9217904 L52.703432,25.873853 C53.5183691,25.1547908 53.9977439,24.1001662 53.9977439,23.0455417 C53.9977439,21.9429797 53.5183691,20.9362926 52.703432,20.1692929 L52.6554945,20.1213555 L52.703432,20.073418 C52.799307,19.8337306 52.8951819,19.5940432 52.9431194,19.3543558 L62.6264902,19.3543558 C62.9620525,19.3543558 63.105865,19.7378556 62.9141151,19.977543 L60.5651786,22.9017293 C60.4693036,22.9976042 60.4693036,23.1414166 60.5651786,23.2372916 L62.9141151,26.0176654 Z M27.296568,25.9217904 C27.200693,26.1614778 27.1048181,26.4011652 27.0568806,26.6887901 L17.3735098,26.6887901 C17.0858849,26.6887901 16.894135,26.3052903 17.0858849,26.0656029 L19.4348214,23.1414166 C19.5306964,23.0455417 19.5306964,22.9017293 19.4348214,22.8058543 L17.0858849,19.977543 C16.894135,19.7378556 17.0379475,19.3543558 17.3735098,19.3543558 L27.1048181,19.3543558 C27.1527556,19.5940432 27.200693,19.7857931 27.296568,20.0254805 L27.3445055,20.073418 L27.296568,20.1213555 C26.4816309,20.8404176 26.0022561,21.8471047 26.0022561,22.9496667 C26.0022561,24.0522288 26.4816309,25.1068533 27.296568,25.8259155 L27.3445055,25.873853 L27.296568,25.9217904 Z" id="Combined-Shape" fill="#FFFFFF"></path>
                                </g>
                            </g>
                        </g>
                    </g>
                </g>
            </g>
        </g>
    </g>
</svg>