<?xml version="1.0" encoding="UTF-8"?>
<svg width="46px" height="23px" viewBox="0 0 46 23" version="1.1" xmlns="http://www.w3.org/2000/svg" xmlns:xlink="http://www.w3.org/1999/xlink">
    <!-- Generator: Sketch 44 (41411) - http://www.bohemiancoding.com/sketch -->
    <title>Shape</title>
    <desc>Created with Sketch.</desc>
    <defs></defs>
    <g id="Index" stroke="none" stroke-width="1" fill="none" fill-rule="evenodd">
        <g id="Independence_Day_Air_Travel_Forecast_2017" transform="translate(-758.000000, -4109.000000)" fill="#FFFFFF">
            <g id="Content" transform="translate(110.000000, 92.000000)">
                <g id="#4" transform="translate(45.000000, 3838.000000)">
                    <g id="Best-Table" transform="translate(587.000000, 158.000000)">
                        <path d="M61.9141151,35.5176654 C62.105865,35.7573528 61.9620525,36.1408526 61.6264902,36.1408526 L51.8951819,36.1408526 C51.8472444,35.9011652 51.799307,35.7094153 51.703432,35.4697279 L51.6554945,35.4217904 L51.703432,35.373853 C52.5183691,34.6547908 52.9977439,33.6001662 52.9977439,32.5455417 C52.9977439,31.4429797 52.5183691,30.4362926 51.703432,29.6692929 L51.6554945,29.6213555 L51.703432,29.573418 C51.799307,29.3337306 51.8951819,29.0940432 51.9431194,28.8543558 L61.6264902,28.8543558 C61.9620525,28.8543558 62.105865,29.2378556 61.9141151,29.477543 L59.5651786,32.4017293 C59.4693036,32.4976042 59.4693036,32.6414166 59.5651786,32.7372916 L61.9141151,35.5176654 L61.9141151,35.5176654 Z M26.296568,35.4217904 L26.3445055,35.373853 L26.296568,35.3259155 C25.4816309,34.6068533 25.0022561,33.5522288 25.0022561,32.4496667 C25.0022561,31.3471047 25.4816309,30.3404176 26.296568,29.6213555 L26.3445055,29.573418 L26.296568,29.5254805 C26.200693,29.2857931 26.1527556,29.0940432 26.1048181,28.8543558 L16.3735098,28.8543558 C16.0379475,28.8543558 15.894135,29.2378556 16.0858849,29.477543 L18.4348214,32.3058543 C18.5306964,32.4017293 18.5306964,32.5455417 18.4348214,32.6414166 L16.0858849,35.5656029 C15.894135,35.8052903 16.0858849,36.1887901 16.3735098,36.1887901 L26.0568806,36.1887901 C26.1048181,35.9011652 26.200693,35.6614778 26.296568,35.4217904 L26.296568,35.4217904 Z M33.5830648,32.4976042 C33.5830648,29.5254805 35.9799388,27.0806691 39,27.0806691 C41.9721237,27.0806691 44.4169352,29.477543 44.4169352,32.4976042 C44.4169352,35.4697279 42.0200612,37.9145394 39,37.9145394 C36.0278763,37.9145394 33.5830648,35.4697279 33.5830648,32.4976042 L33.5830648,32.4976042 Z M35.7881889,32.7372916 L36.9866259,33.9357286 L38.2330003,35.182103 L39.4793748,33.9357286 L42.3076861,31.1553548 L41.0133741,29.8610429 L38.1850629,32.6414166 L36.9866259,31.4429797 L35.7881889,32.7372916 L35.7881889,32.7372916 Z M32.9119401,23.0059833 L33.4871899,23.1018583 C34.1103771,23.1977332 34.7815018,22.9101084 35.1170642,22.3348586 L35.4046891,21.8075463 C35.8361264,20.9926092 36.8907509,20.7529218 37.6577506,21.2802341 L38.1371254,21.6157964 C38.6644376,21.9992963 39.3834998,21.9992963 39.9108121,21.6157964 L40.3901869,21.2802341 C41.1571866,20.7529218 42.1638736,20.9926092 42.6432484,21.8075463 L42.9308733,22.3348586 C43.2664357,22.9101084 43.8896229,23.2456707 44.5128101,23.1018583 L45.0880599,23.0059833 C45.998872,22.8621709 46.8138091,23.5332956 46.8617466,24.4441077 L46.9096841,25.0672949 C46.9576216,25.7384196 47.3890589,26.2657319 48.0122461,26.4574818 L48.5874958,26.6012943 C49.4503705,26.8409817 49.9297453,27.7997312 49.5941829,28.6626059 L49.3544955,29.2378556 C49.1148081,29.8610429 49.2586206,30.5321676 49.7379953,30.9636049 L50.1694327,31.3471047 C50.8405574,31.9702919 50.8405574,33.0249165 50.1694327,33.6481037 L49.7379953,34.0316035 C49.2586206,34.4630409 49.0668706,35.182103 49.3544955,35.7573528 L49.5941829,36.3326025 C49.9297453,37.1954772 49.4983079,38.1542268 48.5874958,38.3939142 L48.0122461,38.5377266 C47.3890589,38.7294765 46.9096841,39.2567888 46.9096841,39.9279135 L46.8617466,40.5511007 C46.8138091,41.4619128 45.9509345,42.1330375 45.0880599,41.9892251 L44.5128101,41.8933501 C43.8896229,41.7974752 43.2184982,42.0851001 42.8829358,42.6603498 L42.5953109,43.1876621 C42.1638736,44.0025992 41.1092491,44.2422866 40.3422494,43.7149743 L39.8628746,43.379412 C39.3355624,42.9959122 38.6165002,42.9959122 38.0891879,43.379412 L37.6098131,43.7149743 C36.8428134,44.2422866 35.8361264,44.0025992 35.3567516,43.1876621 L35.0691267,42.6603498 C34.7335643,42.0851001 34.1103771,41.7495377 33.4871899,41.8933501 L32.9119401,41.9892251 C32.001128,42.1330375 31.1861909,41.4619128 31.1382534,40.5511007 L31.0423784,39.9279135 C30.994441,39.2567888 30.5630037,38.7294765 29.9398164,38.5377266 L29.3645667,38.3939142 C28.5016921,38.1542268 28.0223173,37.1954772 28.3578796,36.3326025 L28.597567,35.7573528 C28.8372544,35.1341656 28.693442,34.4630409 28.2140672,34.0316035 L27.7826299,33.6481037 C27.1115052,33.0249165 27.1115052,31.9702919 27.7826299,31.3471047 L28.2140672,30.9636049 C28.693442,30.5321676 28.8851919,29.8131054 28.597567,29.2378556 L28.3578796,28.6626059 C28.0223173,27.7997312 28.4537546,26.8409817 29.3645667,26.6012943 L29.9398164,26.4574818 C30.5630037,26.2657319 31.0423784,25.7384196 31.0423784,25.0672949 L31.0903159,24.4441077 C31.1861909,23.4853581 32.001128,22.8142334 32.9119401,23.0059833 L32.9119401,23.0059833 Z M31.5217532,32.4976042 C31.5217532,36.6202274 34.8773768,39.975851 39,39.975851 C43.1226232,39.975851 46.4782468,36.6202274 46.4782468,32.4976042 C46.4782468,28.374981 43.1226232,25.0193575 39,25.0193575 C34.8773768,25.0193575 31.5217532,28.374981 31.5217532,32.4976042 L31.5217532,32.4976042 Z" id="Shape"></path>
                    </g>
                </g>
            </g>
        </g>
    </g>
</svg>