<?xml version="1.0" encoding="utf-8"?>
<!-- Generator: Adobe Illustrator 19.0.0, SVG Export Plug-In . SVG Version: 6.00 Build 0)  -->
<svg version="1.1" id="Layer_1" xmlns="http://www.w3.org/2000/svg" xmlns:xlink="http://www.w3.org/1999/xlink" x="0px" y="0px"
	 viewBox="-297 389 16 16" style="enable-background:new -297 389 16 16;" xml:space="preserve">
<style type="text/css">
	.st0{fill:#2B7ED6;}
</style>
<title>Combined Shape</title>
<desc>Created with Sketch.</desc>
<g id="Page-1">
	<g id="Travel_with_Pets_320" transform="translate(-76.000000, -7067.000000)">
		<g id="Zoom" transform="translate(76.000000, 7063.000000)">
			<path id="Combined-Shape" class="st0" d="M-281.3,407.3l-3.3-3.3c0.2-0.2,0.3-0.4,0.5-0.7c0.1-0.1,0.1-0.2,0.2-0.3
				c0.1-0.2,0.2-0.4,0.3-0.6c0.2-0.5,0.4-1.1,0.5-1.6c0-0.2,0.1-0.5,0.1-0.7c0-0.1,0-0.2,0-0.4c0-3.8-3.1-6.9-7-6.9
				c-0.1,0-0.2,0-0.4,0c-0.2,0-0.5,0-0.7,0.1c-0.6,0.1-1.1,0.2-1.6,0.5c-0.2,0.1-0.4,0.2-0.6,0.3c-0.1,0.1-0.2,0.1-0.3,0.2
				c-0.3,0.2-0.6,0.4-0.8,0.6c-0.2,0.1-0.3,0.3-0.5,0.4c-0.2,0.2-0.3,0.3-0.4,0.5c-1,1.2-1.6,2.7-1.6,4.4c0,0.1,0,0.2,0,0.4
				c0,0.2,0,0.5,0.1,0.7c0.1,0.6,0.2,1.1,0.5,1.6c0.1,0.2,0.2,0.4,0.3,0.6c0.1,0.1,0.1,0.2,0.2,0.3c0.6,1,1.4,1.8,2.3,2.3
				c0.1,0.1,0.2,0.1,0.3,0.2c0.2,0.1,0.4,0.2,0.6,0.3c0.5,0.2,1.1,0.4,1.6,0.5c0.2,0,0.5,0.1,0.7,0.1c0.1,0,0.2,0,0.4,0
				c1.6,0,3.1-0.5,4.2-1.4l3.3,3.3c0.2,0.2,0.4,0.3,0.6,0.3s0.5-0.1,0.6-0.3C-280.9,408.2-280.9,407.6-281.3,407.3z M-295.6,399.7
				c0-3,2.5-5.5,5.5-5.5c3.1,0,5.5,2.5,5.5,5.5s-2.5,5.5-5.5,5.5C-293.1,405.3-295.6,402.8-295.6,399.7z M-287.5,399h-1.8v-1.8
				c0-0.4-0.3-0.7-0.7-0.7s-0.7,0.3-0.7,0.7v1.8h-1.8c-0.4,0-0.7,0.3-0.7,0.7c0,0.4,0.3,0.7,0.7,0.7h1.8v1.8c0,0.4,0.3,0.7,0.7,0.7
				s0.7-0.3,0.7-0.7v-1.8h1.8c0.4,0,0.7-0.3,0.7-0.7C-286.8,399.4-287.1,399-287.5,399z"/>
		</g>
	</g>
</g>
</svg>
