    <svg width="10px" height="12px" viewBox="13 12 10 12" version="1.1" xmlns="http://www.w3.org/2000/svg" xmlns:xlink="http://www.w3.org/1999/xlink"><path d="M21.4032742,13.2739518 L18,16.6772333 L14.5967257,13.2739518 C14.2314575,12.9086827 13.6392407,12.9086827 13.2739725,13.2739518 C12.9087042,13.6392208 12.9087042,14.2314388 13.2739725,14.5967078 L16.6772467,17.9999893 L13.2739725,21.4032708 C13.0376854,21.6395585 12.9454047,21.9839552 13.0318918,22.30673 C13.1183789,22.6295049 13.3704943,22.8816208 13.6932685,22.9681081 C14.0160427,23.0545954 14.3604386,22.9623145 14.5967257,22.7260269 L18,19.3227454 L21.4032742,22.7260269 C21.6395614,22.9623145 21.9839573,23.0545954 22.3067315,22.9681081 C22.6295057,22.8816208 22.8816211,22.629505 22.9681082,22.3067301 C23.0545953,21.9839552 22.9623146,21.6395585 22.7260275,21.4032708 L19.3208445,17.9999893 L22.7241188,14.5967078 C23.089387,14.2314388 23.089387,13.6392208 22.7241188,13.2739518 C22.3588505,12.9086828 21.7666337,12.9086828 21.4013655,13.2739518 L21.4032742,13.2739518 Z" id="Shape" stroke="none" fill="#FFFFFF" fill-rule="nonzero"></path></svg>
