<?xml version="1.0" encoding="UTF-8"?>
<svg width="9px" height="9px" viewBox="0 0 9 9" version="1.1" xmlns="http://www.w3.org/2000/svg" xmlns:xlink="http://www.w3.org/1999/xlink">
    <!-- Generator: Sketch 42 (36781) - http://www.bohemiancoding.com/sketch -->
    <title>Combined Shape</title>
    <desc>Created with Sketch.</desc>
    <defs></defs>
    <g id="Page-1" stroke="none" stroke-width="1" fill="none" fill-rule="evenodd">
        <g id="Greenest_Cities_1440_V2" transform="translate(-565.000000, -3965.000000)" fill-rule="nonzero" fill="#9B9B9B">
            <g id="Content" transform="translate(110.000000, 92.000000)">
                <g id="Table" transform="translate(45.000000, 3863.000000)">
                    <g id="Tooltip" transform="translate(225.000000, 0.000000)">
                        <g id="Close" transform="translate(181.000000, 6.000000)">
                            <path d="M2.86028137,8.86028137 C2.86028137,9.06738816 3.02817459,9.23528137 3.23528137,9.23528137 L13.7352814,9.23528137 C14.1494949,9.23528137 14.4852814,8.89949494 14.4852814,8.48528137 C14.4852814,8.07106781 14.1494949,7.73528137 13.7352814,7.73528137 L3.23528137,7.73528137 C2.82106781,7.73528137 2.48528137,8.07106781 2.48528137,8.48528137 C2.48528137,8.69238816 2.65317459,8.86028137 2.86028137,8.86028137 Z M9.23528137,13.7352814 L9.23528137,3.23528137 C9.23528137,2.82106781 8.89949494,2.48528137 8.48528137,2.48528137 C8.07106781,2.48528137 7.73528137,2.82106781 7.73528137,3.23528137 L7.73528137,13.7352814 C7.73528137,14.1494949 8.07106781,14.4852814 8.48528137,14.4852814 C8.69238816,14.4852814 8.86028137,14.3173882 8.86028137,14.1102814 C9.06738816,14.1102814 9.23528137,13.9423882 9.23528137,13.7352814 Z" id="Combined-Shape" transform="translate(8.485281, 8.485281) rotate(-45.000000) translate(-8.485281, -8.485281) "></path>
                        </g>
                    </g>
                </g>
            </g>
        </g>
    </g>
</svg>