<?xml version="1.0" encoding="UTF-8"?>
<svg width="120px" height="117px" viewBox="0 0 120 117" version="1.1" xmlns="http://www.w3.org/2000/svg" xmlns:xlink="http://www.w3.org/1999/xlink">
    <!-- Generator: Sketch 47.1 (45422) - http://www.bohemiancoding.com/sketch -->
    <title>Main_Icon</title>
    <desc>Created with Sketch.</desc>
    <defs>
        <polygon id="path-1" points="0 29.00079 0 0.611801211 28.7123929 0.611801211 28.7123929 29.00079 9.18637023e-16 29.00079"></polygon>
        <polygon id="path-3" points="21.2955172 18.5823529 0.0706270595 18.5823529 0.0706270595 0.559683095 21.2955172 0.559683095"></polygon>
        <polygon id="path-5" points="28.7868966 0.611430716 28.7868966 29.00079 0.0739077804 29.00079 0.0739077804 0.611430716 28.7868966 0.611430716"></polygon>
        <polygon id="path-7" points="21.8188902 18.5823529 0.594 18.5823529 0.594 0.559683095 21.8188902 0.559683095 21.8188902 18.5823529"></polygon>
        <polygon id="path-9" points="0 116.844459 119.821379 116.844459 119.821379 0 0 0"></polygon>
    </defs>
    <g id="Index" stroke="none" stroke-width="1" fill="none" fill-rule="evenodd">
        <g id="Safe_Cities_1440" transform="translate(-155.000000, -692.000000)">
            <g id="Subheader" transform="translate(155.000000, 690.000000)">
                <g id="Main_Icon">
                    <rect id="BL" fill="#D8D8D8" opacity="0" x="0" y="0" width="120" height="120"></rect>
                    <g id="Page-1" transform="translate(0.000000, 2.000000)">
                        <path d="M43.7101379,100.889513 C43.2591034,100.889513 42.8446207,100.592884 42.7156552,100.13796 L41.1191034,94.51026 C39.7611724,89.7194541 36.386,85.7689835 31.8584138,83.6726188 L27.8997931,81.8405365 C25.2853103,80.6313071 23.3349655,78.3498071 22.5473793,75.5824129 L20.5735862,68.6333012 L20.7522069,67.2871129 C20.9997931,65.4268129 20.1266897,63.5850953 18.5273793,62.5947247 L18.4315172,62.5362247 C17.946,62.2368424 17.7949655,61.6002247 18.0949655,61.1150188 C18.3970345,60.6298129 19.0335862,60.4811541 19.5197931,60.7798482 L19.6163448,60.8397247 C21.9073793,62.2574894 23.1577241,64.8941188 22.803931,67.5582776 L22.6804828,68.4812012 L24.5384138,75.0187482 C25.1611724,77.2073365 26.7032414,79.0112012 28.7701379,79.9685365 L32.7287586,81.8006188 C37.8046207,84.1495659 41.588069,88.5776718 43.1101379,93.94866 L44.706,99.57636 C44.8618621,100.124884 44.5425517,100.695431 43.9922069,100.850284 C43.8984138,100.877125 43.803931,100.889513 43.7101379,100.889513 Z" id="Fill-1" fill="#0A0C0D"></path>
                        <g id="Group-5" transform="translate(0.000000, 77.615047)">
                            <mask id="mask-2" fill="white">
                                <use xlink:href="#path-1"></use>
                            </mask>
                            <g id="Clip-4"></g>
                            <path d="M27.6783448,29.00079 C27.3073103,29.00079 26.948,28.8005135 26.7624828,28.4502018 C25.4997241,26.0606488 23.2783448,24.3827312 20.6686897,23.8479724 C20.3624828,23.7846547 20.0624828,23.7158312 19.770069,23.6435665 C15.145931,22.4928371 11.0452414,19.3221371 8.52110345,14.9456488 C5.348,9.44458412 0.636965517,3.78729 0.590068966,3.73085471 L-0.000275862069,3.02403706 L0.635586207,2.35782529 C0.708689655,2.28143118 2.44041379,0.475501765 5.24731034,0.620031176 C7.7017931,0.739784118 10.108,2.28556059 12.4004138,5.21331353 C15.0735172,8.63040176 19.1452414,10.4521606 23.3004138,10.0908371 C23.5555862,10.0681253 23.8169655,10.0392194 24.0817931,10.0027429 C24.650069,9.92084294 25.170069,10.3186429 25.2486897,10.8836841 C25.3273103,11.4487253 24.9321379,11.9697194 24.365931,12.04749 C24.0666207,12.0894724 23.7714483,12.1225076 23.4824828,12.1479724 C18.6245517,12.5677959 13.8755862,10.4556018 10.7686897,6.48379588 C8.87627586,4.06602529 6.99558621,2.78659588 5.17765517,2.68404882 C4.18386207,2.62692529 3.39075862,2.93869588 2.8617931,3.24496059 C4.31006897,5.04676059 7.74937931,9.46936059 10.3135172,13.9160488 C12.5597241,17.8087076 16.1886897,20.6242782 20.2714483,21.6408018 C20.5355862,21.7061841 20.8066207,21.7681253 21.0845517,21.8245606 C24.3024828,22.4852665 27.0390345,24.5485959 28.5928276,27.4866724 C28.8590345,27.9911488 28.665931,28.6153782 28.1604138,28.8817253 C28.0066207,28.9622488 27.8411034,29.00079 27.6783448,29.00079" id="Fill-3" fill="#0A0C0D" mask="url(#mask-2)"></path>
                        </g>
                        <path d="M5.70703448,80.3492682 C5.23117241,80.3492682 4.80289655,80.0196035 4.69668966,79.5371506 L2.66496552,70.2693741 L8.84082759,51.3484094 L9.77668966,51.5824094 C11.2477241,51.9499271 13.816,53.8996976 13.0104828,58.6478329 L10.4270345,70.0044035 L12.1615172,77.0622565 C12.298069,77.6155976 11.958069,78.1751329 11.4035862,78.3107153 C10.8477241,78.4449212 10.2884138,78.1076859 10.1518621,77.5536565 L8.30151724,70.0229859 L10.9815172,58.24728 C11.3828966,55.8735565 10.736,54.6822212 10.1187586,54.0999741 L4.80634483,70.3753624 L6.71875862,79.09668 C6.84082759,79.6527741 6.48703448,80.2033624 5.92841379,80.3258682 C5.85462069,80.3416976 5.77944828,80.3492682 5.70703448,80.3492682" id="Fill-6" fill="#0A0C0D"></path>
                        <path d="M15.5353103,77.2946047 C15.0842759,77.2946047 14.6691034,76.9979753 14.5408276,76.5430518 L12.5525517,69.5306224 L15.0056552,56.7617929 C15.8084138,53.5972871 14.6732414,51.9675459 13.7594483,51.2077341 L12.6028966,54.77004 C12.4270345,55.3137459 11.8435862,55.6103753 11.3001379,55.4341871 C10.7573793,55.2586871 10.4587586,54.6771282 10.6353103,54.1347988 L12.5208276,48.32334 L13.5304828,48.6936106 C15.3201379,49.3501871 18.353931,51.9751165 17.0249655,57.2091459 L14.6766897,69.4390871 L16.5311724,75.9814518 C16.6870345,76.5299753 16.3670345,77.1005224 15.8173793,77.2553753 C15.7228966,77.2822165 15.6291034,77.2946047 15.5353103,77.2946047" id="Fill-8" fill="#0A0C0D"></path>
                        <path d="M19.6833103,76.40334 C19.2343448,76.40334 18.8198621,76.1087753 18.6902069,75.6559165 L16.6350345,68.5196047 L18.0722759,60.8588576 C18.4591724,58.7996576 17.6143448,56.6681929 15.9212414,55.4300576 L15.7026207,55.2703871 C15.241931,54.93384 15.141931,54.2875871 15.4791724,53.8271576 C15.8171034,53.3681047 16.4633103,53.2662459 16.9253793,53.6048576 L17.144,53.7645282 C19.4750345,55.4699753 20.6384828,58.4039224 20.106069,61.2394518 L18.7591724,68.4184341 L20.6777931,75.0860576 C20.8364138,75.6338929 20.5184828,76.2058165 19.9695172,76.3627341 C19.8736552,76.3902635 19.7784828,76.40334 19.6833103,76.40334" id="Fill-10" fill="#0A0C0D"></path>
                        <g id="Group-14" transform="translate(23.448276, 98.262106)">
                            <mask id="mask-4" fill="white">
                                <use xlink:href="#path-3"></use>
                            </mask>
                            <g id="Clip-13"></g>
                            <path d="M4.75,18.5824906 C4.33689655,18.5824906 3.95068966,18.3347259 3.78931034,17.9341729 L0.144482759,8.85703765 C0.0403448276,8.59688471 0.0465517241,8.30576118 0.161724138,8.05042588 C0.276896552,7.79440235 0.490689655,7.59687882 0.754827586,7.50190235 L19.9106897,0.620925882 C20.2272414,0.506678824 20.5803448,0.554167059 20.8562069,0.747561176 C21.1313793,0.940955294 21.2955172,1.25616706 21.2955172,1.59202588 L21.2955172,6.19425529 C21.2955172,6.76411412 20.832069,7.22660824 20.2610345,7.22660824 C19.69,7.22660824 19.2265517,6.76411412 19.2265517,6.19425529 L19.2265517,3.06072 L2.46448276,9.08209059 L5.3562069,16.2837847 L17.9844828,12.4055788 C18.5306897,12.2390259 19.11,12.5439141 19.2775862,13.0889965 C19.4465517,13.6340788 19.1396552,14.2115082 18.5934483,14.3794376 L5.05413793,18.5370671 C4.95344828,18.5680376 4.85068966,18.5824906 4.75,18.5824906" id="Fill-12" fill="#0A0C0D" mask="url(#mask-4)"></path>
                        </g>
                        <path d="M26.1286207,111.690884 C25.7024138,111.690884 25.3037931,111.425914 25.1534483,111.002649 C24.9631034,110.465137 25.2451724,109.875319 25.7837931,109.685366 L43.3644828,103.48299 C43.9024138,103.293037 44.4941379,103.575214 44.6844828,104.112037 C44.8755172,104.650237 44.5927586,105.239366 44.0541379,105.429319 L26.4734483,111.631696 C26.3596552,111.672302 26.2431034,111.690884 26.1286207,111.690884" id="Fill-15" fill="#0A0C0D"></path>
                        <path d="M76.1111034,100.889513 C76.0173103,100.889513 75.9235172,100.877125 75.8290345,100.850284 C75.2793793,100.695431 74.9593793,100.124884 75.1152414,99.57636 L76.7104138,93.94866 C78.2331724,88.5769835 82.0173103,84.1495659 87.0924828,81.8006188 L91.0504138,79.9685365 C93.118,79.0112012 94.660069,77.2073365 95.2828276,75.0187482 L97.1407586,68.4812012 L97.0173103,67.5582776 C96.6635172,64.8934306 97.9138621,62.2568012 100.204207,60.8404129 L100.301448,60.7798482 C100.786966,60.4811541 101.424897,60.6298129 101.726276,61.1150188 C102.026276,61.6002247 101.875241,62.2368424 101.389724,62.5362247 L101.293172,62.5961012 C99.6945517,63.5844071 98.8214483,65.4261247 99.0690345,67.2871129 L99.2476552,68.6333012 L97.2738621,75.5824129 C96.4862759,78.3504953 94.5352414,80.6313071 91.9207586,81.8412247 L87.9628276,83.6726188 C83.4352414,85.7682953 80.060069,89.7194541 78.7014483,94.51026 L77.1055862,100.13796 C76.9773103,100.592884 76.5621379,100.889513 76.1111034,100.889513" id="Fill-17" fill="#0A0C0D"></path>
                        <g id="Group-21" transform="translate(91.034483, 77.615047)">
                            <mask id="mask-6" fill="white">
                                <use xlink:href="#path-5"></use>
                            </mask>
                            <g id="Clip-20"></g>
                            <path d="M1.10772414,29.00079 C0.944965517,29.00079 0.779448276,28.9622488 0.625655172,28.8810371 C0.120137931,28.61469 -0.0729655172,27.9904606 0.193931034,27.4866724 C1.74772414,24.5485959 4.48427586,22.4845782 7.7022069,21.8245606 C7.98013793,21.7681253 8.25117241,21.7061841 8.51531034,21.6408018 C12.5973793,20.6242782 16.2263448,17.8087076 18.4725517,13.9160488 C21.0366897,9.46936059 24.4766897,5.04607235 25.9249655,3.24427235 C25.396,2.93938412 24.596,2.62761353 23.6084138,2.68404882 C21.7904828,2.78659588 19.9097931,4.06602529 18.0173793,6.48379588 C14.9104828,10.4556018 10.153931,12.5767429 5.30565517,12.1479724 C5.01531034,12.1225076 4.72013793,12.0894724 4.42082759,12.04749 C3.85462069,11.9697194 3.45944828,11.4487253 3.53806897,10.8836841 C3.616,10.3193312 4.13186207,9.92153118 4.70496552,10.0027429 C4.9697931,10.0392194 5.23117241,10.0681253 5.48772414,10.0908371 C9.57737931,10.4439018 13.7525517,8.57947235 16.3856552,5.21331353 C18.6773793,2.28556059 21.0842759,0.739784118 23.5387586,0.620031176 C26.3525517,0.472060588 28.0787586,2.28143118 28.1511724,2.35782529 L28.7870345,3.02403706 L28.1966897,3.73085471 C28.1497931,3.78729 23.4353103,9.44940176 20.2649655,14.9456488 C17.7408276,19.3221371 13.6408276,22.4928371 9.01668966,23.6435665 C8.72427586,23.7158312 8.42427586,23.7846547 8.11806897,23.8479724 C5.50910345,24.3827312 3.28703448,26.0606488 2.02289655,28.4502018 C1.83806897,28.8012018 1.47875862,29.00079 1.10772414,29.00079" id="Fill-19" fill="#0A0C0D" mask="url(#mask-6)"></path>
                        </g>
                        <path d="M114.114207,80.3492682 C114.041793,80.3492682 113.966621,80.3416976 113.892828,80.3258682 C113.334207,80.2033624 112.980414,79.6534624 113.102483,79.09668 L115.014207,70.3753624 L109.702483,54.1013506 C109.08869,54.6870388 108.441103,55.8914506 108.850069,58.3037153 L111.519724,70.0222976 L109.669379,77.5536565 C109.532828,78.1076859 108.973517,78.4456094 108.417655,78.3107153 C107.863172,78.1751329 107.523172,77.6155976 107.659724,77.0622565 L109.394207,70.0050918 L106.821103,58.7042682 C106.005241,53.8996976 108.573517,51.9499271 110.043862,51.5824094 L110.979724,51.3484094 L117.155586,70.2693741 L115.124552,79.5371506 C115.018345,80.0196035 114.590069,80.3492682 114.114207,80.3492682" id="Fill-22" fill="#0A0C0D"></path>
                        <path d="M104.285931,77.2946047 C104.192138,77.2946047 104.098345,77.2822165 104.003862,77.2553753 C103.454207,77.1005224 103.134207,76.5299753 103.290069,75.9814518 L105.144552,69.4390871 L102.782483,57.1499576 C101.46731,51.9751165 104.501103,49.3501871 106.290069,48.6936106 L107.299724,48.32334 L109.185931,54.1347988 C109.362483,54.6771282 109.064552,55.2586871 108.521103,55.4341871 C107.977655,55.6096871 107.394207,55.3130576 107.218345,54.77004 L106.060414,51.2049812 C105.139034,51.9627282 104.00869,53.5773282 104.801793,56.7026047 L107.26869,69.5306224 L105.280414,76.5430518 C105.152138,76.9979753 104.736966,77.2946047 104.285931,77.2946047" id="Fill-24" fill="#0A0C0D"></path>
                        <path d="M100.137241,76.40334 C100.042069,76.40334 99.9468966,76.3902635 99.8510345,76.3627341 C99.3013793,76.2058165 98.9841379,75.6338929 99.1427586,75.0860576 L101.062069,68.4184341 L99.7144828,61.2394518 C99.182069,58.4039224 100.345517,55.4699753 102.677241,53.7645282 L102.895862,53.6048576 C103.357931,53.2669341 104.004138,53.3687929 104.342069,53.8271576 C104.67931,54.2875871 104.57931,54.93384 104.118621,55.2703871 L103.9,55.4300576 C102.206207,56.6688812 101.361379,58.7996576 101.748276,60.8588576 L103.186207,68.5196047 L101.130345,75.6559165 C101.00069,76.1087753 100.586207,76.40334 100.137241,76.40334" id="Fill-26" fill="#0A0C0D"></path>
                        <g id="Group-30" transform="translate(74.482759, 98.262106)">
                            <mask id="mask-8" fill="white">
                                <use xlink:href="#path-7"></use>
                            </mask>
                            <g id="Clip-29"></g>
                            <path d="M17.1402069,18.5824906 C17.0395172,18.5824906 16.9367586,18.5680376 16.836069,18.5370671 L3.29675862,14.3794376 C2.75055172,14.2115082 2.44365517,13.6340788 2.61262069,13.0889965 C2.78089655,12.5439141 3.35951724,12.2397141 3.90572414,12.4055788 L16.534,16.2837847 L19.4250345,9.08209059 L2.66296552,3.06072 L2.66296552,6.19425529 C2.66296552,6.76411412 2.19951724,7.22660824 1.62848276,7.22660824 C1.05744828,7.22660824 0.594,6.76411412 0.594,6.19425529 L0.594,1.59202588 C0.594,1.25616706 0.758137931,0.940955294 1.034,0.747561176 C1.30917241,0.554167059 1.66227586,0.506678824 1.97882759,0.620925882 L21.1346897,7.50190235 C21.3988276,7.59687882 21.6126207,7.79440235 21.7277931,8.05042588 C21.8429655,8.30576118 21.8491724,8.59688471 21.7450345,8.85703765 L18.1008966,17.9341729 C17.9395172,18.3347259 17.5533103,18.5824906 17.1402069,18.5824906" id="Fill-28" fill="#0A0C0D" mask="url(#mask-8)"></path>
                        </g>
                        <path d="M93.6926207,111.690884 C93.5781379,111.690884 93.4615862,111.672302 93.3477931,111.631696 L75.7664138,105.429319 C75.2277931,105.239366 74.9450345,104.650237 75.136069,104.112037 C75.3264138,103.575214 75.9188276,103.293037 76.456069,103.48299 L94.0374483,109.685366 C94.576069,109.875319 94.8581379,110.465137 94.6677931,111.002649 C94.5174483,111.425914 94.1188276,111.690884 93.6926207,111.690884" id="Fill-31" fill="#0A0C0D"></path>
                        <mask id="mask-10" fill="white">
                            <use xlink:href="#path-9"></use>
                        </mask>
                        <g id="Clip-34"></g>
                        <polygon id="Fill-33" fill="#0A0C0D" mask="url(#mask-10)" points="56.2875862 36.0477 58.4344828 36.0477 58.4344828 33.9829941 56.2875862 33.9829941"></polygon>
                        <polygon id="Fill-35" fill="#0A0C0D" mask="url(#mask-10)" points="61.3868966 36.0477 63.5344828 36.0477 63.5344828 33.9829941 61.3868966 33.9829941"></polygon>
                        <polygon id="Fill-36" fill="#0A0C0D" mask="url(#mask-10)" points="56.2875862 40.6898471 58.4344828 40.6898471 58.4344828 38.6251412 56.2875862 38.6251412"></polygon>
                        <polygon id="Fill-37" fill="#0A0C0D" mask="url(#mask-10)" points="61.3868966 40.6898471 63.5344828 40.6898471 63.5344828 38.6251412 61.3868966 38.6251412"></polygon>
                        <polygon id="Fill-38" fill="#0A0C0D" mask="url(#mask-10)" points="56.2875862 45.3326824 58.4344828 45.3326824 58.4344828 43.2679765 56.2875862 43.2679765"></polygon>
                        <polygon id="Fill-39" fill="#0A0C0D" mask="url(#mask-10)" points="61.3868966 45.3326824 63.5344828 45.3326824 63.5344828 43.2679765 61.3868966 43.2679765"></polygon>
                        <polygon id="Fill-40" fill="#0A0C0D" mask="url(#mask-10)" points="56.2875862 49.9755176 58.4344828 49.9755176 58.4344828 47.9108118 56.2875862 47.9108118"></polygon>
                        <polygon id="Fill-41" fill="#0A0C0D" mask="url(#mask-10)" points="61.3868966 49.9755176 63.5344828 49.9755176 63.5344828 47.9108118 61.3868966 47.9108118"></polygon>
                        <polygon id="Fill-42" fill="#0A0C0D" mask="url(#mask-10)" points="56.2875862 54.6176647 58.4344828 54.6176647 58.4344828 52.5529588 56.2875862 52.5529588"></polygon>
                        <polygon id="Fill-43" fill="#0A0C0D" mask="url(#mask-10)" points="61.3868966 54.6176647 63.5344828 54.6176647 63.5344828 52.5529588 61.3868966 52.5529588"></polygon>
                        <path d="M68.8627586,58.7133529 L77.5772414,58.7133529 L77.5772414,40.1839941 L68.8627586,40.1839941 L68.8627586,58.7133529 Z M66.7937931,58.7133529 L53.0268966,58.7133529 L53.0268966,38.1192882 L53.0268966,29.8873059 L53.9586207,29.8873059 L65.8627586,29.8873059 L66.7937931,29.8873059 L66.7937931,38.1192882 L66.7937931,58.7133529 Z M42.2434483,58.7133529 L50.957931,58.7133529 L50.957931,40.1839941 L42.2434483,40.1839941 L42.2434483,58.7133529 Z M56.0275862,27.8219118 L63.7937931,27.8219118 L63.7937931,24.6484588 L56.0275862,24.6484588 L56.0275862,27.8219118 Z M68.8627586,38.1192882 L68.8627586,27.8226 L65.8627586,27.8226 L65.8627586,22.5837529 L60.9455172,22.5837529 L60.9455172,18.5871706 C60.9455172,18.0166235 60.482069,17.5548176 59.9110345,17.5548176 C59.34,17.5548176 58.8765517,18.0166235 58.8765517,18.5871706 L58.8765517,22.5837529 L53.9586207,22.5837529 L53.9586207,27.8226 L50.957931,27.8226 L50.957931,38.1192882 L40.1751724,38.1192882 L40.1751724,60.7780588 L50.957931,60.7780588 L53.0268966,60.7780588 L66.7937931,60.7780588 L68.8627586,60.7780588 L79.6462069,60.7780588 L79.6462069,38.1192882 L68.8627586,38.1192882 Z" id="Fill-44" fill="#0A0C0D" mask="url(#mask-10)"></path>
                        <polygon id="Fill-45" fill="#0A0C0D" mask="url(#mask-10)" points="45.5668966 45.3712235 47.6358621 45.3712235 47.6358621 43.2287471 45.5668966 43.2287471"></polygon>
                        <polygon id="Fill-46" fill="#0A0C0D" mask="url(#mask-10)" points="45.5668966 50.0140588 47.6358621 50.0140588 47.6358621 47.8715824 45.5668966 47.8715824"></polygon>
                        <polygon id="Fill-47" fill="#0A0C0D" mask="url(#mask-10)" points="45.5668966 54.6568941 47.6358621 54.6568941 47.6358621 52.5144176 45.5668966 52.5144176"></polygon>
                        <polygon id="Fill-48" fill="#0A0C0D" mask="url(#mask-10)" points="72.1862069 45.3712235 74.2551724 45.3712235 74.2551724 43.2287471 72.1862069 43.2287471"></polygon>
                        <polygon id="Fill-49" fill="#0A0C0D" mask="url(#mask-10)" points="72.1862069 50.0140588 74.2551724 50.0140588 74.2551724 47.8715824 72.1862069 47.8715824"></polygon>
                        <polygon id="Fill-50" fill="#0A0C0D" mask="url(#mask-10)" points="72.1862069 54.6568941 74.2551724 54.6568941 74.2551724 52.5144176 72.1862069 52.5144176"></polygon>
                        <path d="M93.097931,42.4331471 C88.4634483,63.1132412 77.6462069,76.3342412 60.9455172,81.7630412 L60.9455172,68.8600059 C60.9455172,68.2901471 60.482069,67.8276529 59.9110345,67.8276529 C59.34,67.8276529 58.8765517,68.2901471 58.8765517,68.8600059 L58.8765517,81.7630412 C42.1758621,76.3342412 31.3586207,63.1132412 26.7241379,42.4331471 C23.6882759,28.8900529 24.4234483,16.2987882 24.7262069,12.7068882 C26.4937931,12.8796353 28.2027586,12.9594706 29.8586207,12.9594706 C46.3275862,12.9580941 57.1151724,5.06954118 59.9110345,2.76877059 C62.9868966,5.30078824 75.742069,14.5981588 95.0951724,12.7068882 C95.397931,16.2987882 96.1331034,28.8900529 93.097931,42.4331471 M97.0524138,11.4474176 L96.9324138,10.4226353 L95.9041379,10.5430765 C74.3862069,13.0716529 60.7489655,0.771511765 60.6124138,0.647629412 L59.9096552,0 L59.2082759,0.648317647 C59.0737931,0.772888235 45.4662069,13.0750941 23.9165517,10.5430765 L22.8889655,10.4226353 L22.7682759,11.4481059 C22.7503448,11.5967647 21.0510345,26.5342235 24.6924138,42.8302588 C29.5489655,64.5612882 41.6255172,78.8538706 59.617931,84.1608529 L59.9110345,84.2468824 L60.2041379,84.1608529 C78.1965517,78.8538706 90.2731034,64.5612882 95.1289655,42.8302588 C98.7703448,26.5342235 97.0710345,11.5967647 97.0524138,11.4474176" id="Fill-51" fill="#0A0C0D" mask="url(#mask-10)"></path>
                        <path d="M90.5868276,42.0056841 C93.0709655,31.0035547 92.9916552,20.6125782 92.7268276,15.4260371 C91.8275172,15.4707724 90.9302759,15.4934841 90.0392414,15.4934841 C75.024069,15.4934841 64.4323448,9.24293118 59.9109655,5.96555471 C55.3882069,9.24293118 44.7964828,15.4921076 29.7826897,15.4934841 L29.7785517,15.4934841 C28.8895862,15.4934841 27.9930345,15.4707724 27.0944138,15.4260371 C26.8295862,20.6132665 26.7502759,31.0035547 29.2351034,42.0056841 C31.0013103,49.8288547 33.6888966,56.5233194 37.2723448,62.07669 L37.2723448,35.2238135 L48.0564828,35.2238135 L48.0564828,24.9264371 L51.0571724,24.9264371 L51.0571724,19.68759 L55.9744138,19.68759 L55.9744138,18.5871018 C55.9744138,16.4205371 57.7406207,14.6586547 59.9109655,14.6586547 C62.0813103,14.6586547 63.8475172,16.4205371 63.8475172,18.5871018 L63.8475172,19.68759 L68.764069,19.68759 L68.764069,24.9264371 L71.7647586,24.9264371 L71.7647586,35.2238135 L82.5488966,35.2238135 L82.5488966,62.07669 C86.1323448,56.5233194 88.819931,49.8288547 90.5868276,42.0056841" id="Fill-52" fill="#253EBB" mask="url(#mask-10)"></path>
                    </g>
                </g>
            </g>
        </g>
    </g>
</svg>