<?xml version="1.0" encoding="UTF-8"?>
<svg width="120px" height="120px" viewBox="0 0 120 120" version="1.1" xmlns="http://www.w3.org/2000/svg" xmlns:xlink="http://www.w3.org/1999/xlink">
    <!-- Generator: Sketch 47.1 (45422) - http://www.bohemiancoding.com/sketch -->
    <title>Main_Icon</title>
    <desc>Created with Sketch.</desc>
    <defs></defs>
    <g id="Page-1" stroke="none" stroke-width="1" fill="none" fill-rule="evenodd">
        <g id="Financial_Institutions_1440" transform="translate(-155.000000, -692.000000)">
            <g id="Content" transform="translate(110.000000, 90.000000)">
                <g id="Subheader" transform="translate(45.000000, 602.000000)">
                    <g id="Main_Icon">
                        <rect id="BL" fill="#D8D8D8" opacity="0" x="0" y="0" width="120" height="120"></rect>
                        <g id="bank" fill-rule="nonzero">
                            <polygon id="XMLID_116_" fill="#FFB8DF" points="91.0344828 33.125 55 12.3035714 18.9655172 33.125"></polygon>
                            <path d="M104.310345,46.375 L104.310345,40.6964286 L98.6206897,40.6964286 L94.8275862,40.6964286 L89.137931,40.6964286 L89.137931,46.375 C89.137931,47.4198571 89.9875862,48.2678571 91.0344828,48.2678571 C92.0813793,48.2678571 92.9310345,49.1158571 92.9310345,50.1607143 L92.9310345,80.4464286 C92.9310345,81.4912857 92.0813793,82.3392857 91.0344828,82.3392857 C89.9875862,82.3392857 89.137931,83.1872857 89.137931,84.2321429 L89.137931,89.9107143 L94.8275862,89.9107143 L98.6206897,89.9107143 L104.310345,89.9107143 L104.310345,84.2321429 C104.310345,83.1872857 103.46069,82.3392857 102.413793,82.3392857 C101.366897,82.3392857 100.517241,81.4912857 100.517241,80.4464286 L100.517241,50.1607143 C100.517241,49.1158571 101.366897,48.2678571 102.413793,48.2678571 C103.46069,48.2678571 104.310345,47.4198571 104.310345,46.375" id="XMLID_115_" fill="#F5C6DE"></path>
                            <path d="M83.4482759,46.375 L83.4482759,40.6964286 L77.7586207,40.6964286 L73.9655172,40.6964286 L68.2758621,40.6964286 L68.2758621,46.375 C68.2758621,47.4198571 69.1255172,48.2678571 70.1724138,48.2678571 C71.2193103,48.2678571 72.0689655,49.1158571 72.0689655,50.1607143 L72.0689655,80.4464286 C72.0689655,81.4912857 71.2193103,82.3392857 70.1724138,82.3392857 C69.1255172,82.3392857 68.2758621,83.1872857 68.2758621,84.2321429 L68.2758621,89.9107143 L73.9655172,89.9107143 L77.7586207,89.9107143 L83.4482759,89.9107143 L83.4482759,84.2321429 C83.4482759,83.1872857 82.5986207,82.3392857 81.5517241,82.3392857 C80.5048276,82.3392857 79.6551724,81.4912857 79.6551724,80.4464286 L79.6551724,50.1607143 C79.6551724,49.1158571 80.5048276,48.2678571 81.5517241,48.2678571 C82.5986207,48.2678571 83.4482759,47.4198571 83.4482759,46.375" id="XMLID_114_" fill="#F5C6DE"></path>
                            <path d="M62.5862069,46.375 L62.5862069,40.6964286 L56.8965517,40.6964286 L53.1034483,40.6964286 L47.4137931,40.6964286 L47.4137931,46.375 C47.4137931,47.4198571 48.2634483,48.2678571 49.3103448,48.2678571 C50.3572414,48.2678571 51.2068966,49.1158571 51.2068966,50.1607143 L51.2068966,80.4464286 C51.2068966,81.4912857 50.3572414,82.3392857 49.3103448,82.3392857 C48.2634483,82.3392857 47.4137931,83.1872857 47.4137931,84.2321429 L47.4137931,89.9107143 L53.1034483,89.9107143 L56.8965517,89.9107143 L62.5862069,89.9107143 L62.5862069,84.2321429 C62.5862069,83.1872857 61.7365517,82.3392857 60.6896552,82.3392857 C59.6427586,82.3392857 58.7931034,81.4912857 58.7931034,80.4464286 L58.7931034,50.1607143 C58.7931034,49.1158571 59.6427586,48.2678571 60.6896552,48.2678571 C61.7365517,48.2678571 62.5862069,47.4198571 62.5862069,46.375" id="XMLID_113_" fill="#F5C6DE"></path>
                            <path d="M41.7241379,46.375 L41.7241379,40.6964286 L36.0344828,40.6964286 L32.2413793,40.6964286 L26.5517241,40.6964286 L26.5517241,46.375 C26.5517241,47.4198571 27.4013793,48.2678571 28.4482759,48.2678571 C29.4951724,48.2678571 30.3448276,49.1158571 30.3448276,50.1607143 L30.3448276,80.4464286 C30.3448276,81.4912857 29.4951724,82.3392857 28.4482759,82.3392857 C27.4013793,82.3392857 26.5517241,83.1872857 26.5517241,84.2321429 L26.5517241,89.9107143 L32.2413793,89.9107143 L36.0344828,89.9107143 L41.7241379,89.9107143 L41.7241379,84.2321429 C41.7241379,83.1872857 40.8744828,82.3392857 39.8275862,82.3392857 C38.7806897,82.3392857 37.9310345,81.4912857 37.9310345,80.4464286 L37.9310345,50.1607143 C37.9310345,49.1158571 38.7806897,48.2678571 39.8275862,48.2678571 C40.8744828,48.2678571 41.7241379,47.4198571 41.7241379,46.375" id="XMLID_112_" fill="#F5C6DE"></path>
                            <path d="M20.862069,46.375 L20.862069,40.6964286 L15.1724138,40.6964286 L11.3793103,40.6964286 L5.68965517,40.6964286 L5.68965517,46.375 C5.68965517,47.4198571 6.53931034,48.2678571 7.5862069,48.2678571 C8.63310345,48.2678571 9.48275862,49.1158571 9.48275862,50.1607143 L9.48275862,80.4464286 C9.48275862,81.4912857 8.63310345,82.3392857 7.5862069,82.3392857 C6.53931034,82.3392857 5.68965517,83.1872857 5.68965517,84.2321429 L5.68965517,89.9107143 L11.3793103,89.9107143 L15.1724138,89.9107143 L20.862069,89.9107143 L20.862069,84.2321429 C20.862069,83.1872857 20.0124138,82.3392857 18.9655172,82.3392857 C17.9186207,82.3392857 17.0689655,81.4912857 17.0689655,80.4464286 L17.0689655,50.1607143 C17.0689655,49.1158571 17.9186207,48.2678571 18.9655172,48.2678571 C20.0124138,48.2678571 20.862069,47.4198571 20.862069,46.375" id="XMLID_111_" fill="#F5C6DE"></path>
                            <rect id="XMLID_110_" fill="#F5C6DE" x="0" y="97.4821429" width="110" height="7.57142857"></rect>
                            <rect id="XMLID_109_" fill="#F2E6E8" x="1.89655172" y="89.9107143" width="106.206897" height="7.57142857"></rect>
                            <polygon id="XMLID_108_" fill="#F2E6E8" points="108.103448 40.6964286 1.89655172 40.6964286 5.68965517 33.125 104.310345 33.125"></polygon>
                            <path d="M22.7586207,21.7678571 L18.9655172,32.9943929 C18.9655172,33.0530714 19.0281034,33.0890357 19.0793103,33.05875 L38.6213793,21.7678571 L22.7586207,21.7678571 Z" id="XMLID_107_" fill="#F5C6DE"></path>
                            <path d="M71.3805172,21.7678571 L90.9225862,33.05875 C90.9737931,33.0890357 91.0363793,33.0530714 91.0363793,32.9943929 L87.2413793,21.7678571 L71.3805172,21.7678571 Z" id="XMLID_106_" fill="#F5C6DE"></path>
                            <path d="M55.1175862,12.3035714 L71.4962069,21.7678571 L84.5141379,21.7678571 C84.5141379,10.4107143 71.4165517,0.946428571 55.1175862,0.946428571 C38.8167241,0.946428571 25.4839655,10.4107143 25.4839655,21.7678571 L38.7389655,21.7678571 L55.1175862,12.3035714 Z" id="XMLID_105_" fill="#F2E6E8"></path>
                        </g>
                        <g id="rich" transform="translate(62.000000, 61.000000)" fill-rule="nonzero">
                            <path d="M32.835,19.169 C31.554,19.169 30.274,18.681 29.299,17.707 C28.909,17.316 28.909,16.683 29.299,16.293 C29.69,15.902 30.323,15.902 30.713,16.293 C31.882,17.462 33.785,17.462 34.956,16.293 C35.347,15.902 35.98,15.902 36.37,16.293 C36.761,16.683 36.761,17.316 36.37,17.707 C35.396,18.681 34.116,19.169 32.835,19.169" id="XMLID_121_" fill="#4C4031"></path>
                            <path d="M39.034,40.689 L39.034,40.689 L39.034,40.687 L39.034,36.688 C39.034,35.841 41.651,34.351 45.266,33.803 C44.006,31.091 42.106,28.637 39.61,26.723 L32.362,21.795 C31.983,21.505 31.578,21.238 31.156,21 C30.601,19.306 30.219,17.559 30.029,15.788 L29.511,10.975 C29.465,10.549 29.465,10.12 29.516,9.695 C29.58,9.156 29.651,8.383 29.681,8.295 C29.744,8.113 29.83,7.907 29.914,7.705 C30.326,6.891 30.824,6.039 31.336,5.407 C31.517,5.205 31.694,5 31.906,4.821 C33.068,3.837 32.769,1.988 31.324,1.51 C30.537,1.249 29.683,1.058 28.811,1.011 C28.728,1.006 28.644,1.013 28.561,1.011 C28.362,1.007 28.162,0.999 27.962,1.012 C26.792,1.082 25.615,1.452 24.544,2.308 C24.185,2.596 23.757,2.739 23.328,2.743 C22.893,2.742 22.457,2.597 22.093,2.306 C20.763,1.244 19.27,0.929 17.828,1.011 C16.956,1.058 16.103,1.249 15.316,1.51 C13.871,1.988 13.572,3.837 14.734,4.821 C14.856,4.924 14.986,5.057 15.117,5.194 C15.158,5.235 15.198,5.276 15.237,5.317 C15.408,5.504 15.582,5.714 15.758,5.938 C16.343,6.741 16.741,7.605 16.979,8.295 C17.046,8.489 17.114,9.56 17.219,10.146 C17.286,10.519 17.33,10.893 17.33,11.272 L17.33,14.76 C17.33,16.797 17.075,18.823 16.593,20.798 C16.118,21.032 15.658,21.297 15.236,21.628 L8.188,26.763 C1.255,32.213 -1.079,41.828 2.91,49.693 C4.573,52.974 6.878,55.79 9.585,55.973 C9.835,55.991 10.086,56 10.341,56 L30.035,56 C29.786,55.585 29.583,55.097 29.422,54.578 C29.526,54.574 29.63,54.575 29.733,54.567 C36.256,54.127 40.47,50.07 39.035,44.302 L39.035,40.689 L39.034,40.689 Z" id="XMLID_120_" fill="#00990F"></path>
                            <path d="M48.034,42.592 C43.063,42.592 39.034,41.74 39.034,40.688 L39.034,44.689 C39.037,45.74 43.065,46.592 48.034,46.592 C53.003,46.592 57.031,45.74 57.034,44.689 L57.034,40.688 C57.034,41.74 53.006,42.592 48.034,42.592" id="XMLID_119_" fill="#D19D18"></path>
                            <path d="M57.034,36.688 C57.034,37.74 53.005,38.592 48.034,38.592 C43.063,38.592 39.034,37.74 39.034,36.688 C39.034,35.637 43.063,33.592 48.034,33.592 C53.006,33.592 57.034,35.637 57.034,36.688" id="XMLID_116_" fill="#FCC62D"></path>
                            <path d="M48.034,38.592 C43.063,38.592 39.034,37.74 39.034,36.688 L39.034,40.689 C39.037,41.74 43.065,42.592 48.034,42.592 C53.003,42.592 57.031,41.74 57.034,40.689 L57.034,36.688 C57.034,37.74 53.006,38.592 48.034,38.592" id="XMLID_115_" fill="#E4AF18"></path>
                            <path d="M30.034,18 L17.034,18 C16.482,18 16.034,17.552 16.034,17 C16.034,16.448 16.482,16 17.034,16 L30.034,16 C30.586,16 31.034,16.448 31.034,17 C31.034,17.551 30.586,18 30.034,18" id="XMLID_112_" fill="#6B4746"></path>
                            <path d="M30.034,15 L17.034,15 C16.482,15 16.034,14.552 16.034,14 C16.034,13.448 16.482,13 17.034,13 L30.034,13 C30.586,13 31.034,13.448 31.034,14 C31.034,14.552 30.586,15 30.034,15" id="XMLID_111_" fill="#6B4746"></path>
                            <path d="M30.034,12 L17.034,12 C16.482,12 16.034,11.552 16.034,11 C16.034,10.448 16.482,10 17.034,10 L30.034,10 C30.586,10 31.034,10.448 31.034,11 C31.034,11.552 30.586,12 30.034,12" id="XMLID_110_" fill="#6B4746"></path>
                            <path d="M48.034,54.592 C46.021,54.592 44.169,54.451 42.67,54.215 C42.211,55.592 41.335,56.774 40.193,57.621 C41.736,58.2 44.667,58.592 48.034,58.592 C53.003,58.592 57.031,57.74 57.034,56.689 L57.034,52.688 C57.034,53.74 53.006,54.592 48.034,54.592" id="XMLID_109_" fill="#E4AF18"></path>
                            <path d="M48.034,46.592 C43.063,46.592 39.034,45.74 39.034,44.688 L39.034,45.682 C40.88,46.561 42.276,48.219 42.801,50.235 C44.276,50.459 46.08,50.592 48.034,50.592 C53.003,50.592 57.031,49.74 57.034,48.689 L57.034,44.688 C57.034,45.74 53.006,46.592 48.034,46.592" id="XMLID_108_" fill="#E4AF18"></path>
                            <path d="M48.034,50.592 C46.08,50.592 44.276,50.459 42.801,50.235 C42.948,50.8 43.034,51.389 43.034,51.999 C43.034,52.774 42.903,53.518 42.67,54.215 C44.169,54.451 46.021,54.592 48.034,54.592 C53.003,54.592 57.031,53.74 57.034,52.689 L57.034,48.688 C57.034,49.74 53.006,50.592 48.034,50.592" id="XMLID_107_" fill="#D19D18"></path>
                            <path d="M43.034,52 C43.034,55.866 39.9,59 36.034,59 C32.168,59 29.034,55.866 29.034,52 C29.034,48.134 32.168,45 36.034,45 C39.901,45 43.034,48.133 43.034,52" id="XMLID_106_" fill="#FCC62D"></path>
                            <path d="M8.034,42 C7.482,42 7.034,41.552 7.034,41 C7.034,34.131 14.623,26 21.034,26 C21.586,26 22.034,26.448 22.034,27 C22.034,27.552 21.586,28 21.034,28 C15.763,28 9.034,35.29 9.034,41 C9.034,41.551 8.586,42 8.034,42" id="XMLID_105_" fill="#F2E6E8"></path>
                        </g>
                    </g>
                </g>
            </g>
        </g>
    </g>
</svg>