<?xml version="1.0" encoding="UTF-8"?>
<svg width="113px" height="120px" viewBox="0 0 113 120" version="1.1" xmlns="http://www.w3.org/2000/svg" xmlns:xlink="http://www.w3.org/1999/xlink">
    <!-- Generator: Sketch 47.1 (45422) - http://www.bohemiancoding.com/sketch -->
    <title>Illustation</title>
    <desc>Created with Sketch.</desc>
    <defs></defs>
    <g id="Page-1" stroke="none" stroke-width="1" fill="none" fill-rule="evenodd">
        <g id="Financial_Institutions_1440" transform="translate(-159.000000, -696.000000)">
            <g id="Content" transform="translate(110.000000, 90.000000)">
                <g id="Subheader" transform="translate(45.000000, 602.000000)">
                    <g id="Illustration" transform="translate(0.000000, 4.000000)">
                        <g id="Illustation" transform="translate(4.000000, 0.000000)">
                            <g id="Hearts">
                                <path d="M17.1266909,40.4168601 C16.2307036,39.9247782 15.2196618,39.6665529 14.2001964,39.6665529 C12.7059255,39.6665529 11.2843855,40.2108532 10.1843818,41.1827304 C9.08252909,40.2108532 7.66016727,39.6665529 6.16651273,39.6665529 C5.14930727,39.6665529 4.13826545,39.9247782 3.23940182,40.419727 C1.30771818,41.4849829 0.10622,43.5122867 0.10622,45.7097611 C0.10622,46.3277816 0.202783636,46.9431399 0.392623636,47.5367918 C1.39585818,51.8324232 9.39358727,56.8785666 9.73505273,57.0923549 C9.87332364,57.178157 10.02988,57.2217747 10.1872582,57.2217747 C10.34176,57.2217747 10.4985218,57.178157 10.6367927,57.0923549 C10.9782582,56.8785666 18.9702345,51.8324232 19.9734691,47.5367918 C20.1641309,46.9431399 20.2598727,46.3277816 20.2598727,45.7097611 C20.2598727,43.5122867 19.0612509,41.4849829 17.1266909,40.4168601" id="Fill-3" fill="#E61A28"></path>
                                <path d="M54.5868073,12.1152901 C53.2361491,11.3733788 51.7120873,10.9843003 50.1752873,10.9843003 C47.9228891,10.9843003 45.7797927,11.8046416 44.1217745,13.2696246 C42.4606745,11.8046416 40.3165509,10.9843003 38.0649745,10.9843003 C36.5314618,10.9843003 35.0076055,11.3733788 33.6524273,12.1197952 C30.7407255,13.7254608 28.9294382,16.78157 28.9294382,20.0940614 C28.9294382,21.0260068 29.0751055,21.9534471 29.3613036,22.8479181 C30.8736545,29.3236177 42.9295218,36.9305119 43.4443909,37.252628 C43.6529273,37.3820478 43.8889945,37.4477816 44.1260891,37.4477816 C44.3588691,37.4477816 44.5951418,37.3820478 44.8034727,37.252628 C45.3183418,36.9305119 57.3657855,29.3236177 58.8783418,22.8479181 C59.1653618,21.9534471 59.3100018,21.0260068 59.3100018,20.0940614 C59.3100018,16.78157 57.5030291,13.7254608 54.5868073,12.1152901" id="Fill-4" fill="#E61A28"></path>
                                <path d="M94.8908189,13.311145 C94.7166151,11.8967709 93.873116,10.6335716 92.6000073,9.93071672 C91.9351564,9.56559727 91.1850418,9.37392491 90.4287636,9.37392491 C89.3201309,9.37392491 88.2653273,9.77774744 87.4494673,10.4989761 C86.6317582,9.77774744 85.5765436,9.37392491 84.4685273,9.37392491 C83.7136873,9.37392491 82.9637782,9.56559727 82.2968727,9.93276451 C80.8636218,10.7230034 79.97236,12.2273038 79.97236,13.8575427 C79.97236,14.316041 80.0440636,14.7726962 80.1848,15.2129693 C80.9291618,18.4001365 86.8626891,22.143686 87.1160145,22.3021843 C87.2185364,22.3658703 87.3348236,22.39843 87.4515218,22.39843 C87.5661655,22.39843 87.6822473,22.3658703 87.7849745,22.3021843 C87.8478325,22.262824 88.2607433,22.0023764 88.8573706,21.5842656 C88.8564581,21.5804404 88.8555508,21.5766158 88.8546489,21.5727917 C88.6533599,20.9498529 88.5509091,20.3039531 88.5509091,19.6549159 C88.5509091,17.3479884 89.8248245,15.219614 91.8726841,14.101376 C92.8006771,13.5952538 93.8411312,13.3250427 94.8908189,13.311145 Z" id="Combined-Shape" fill="#E61A28"></path>
                                <path d="M102.119922,14.7440273 C100.855643,14.7440273 99.6527143,15.2010773 98.7220623,16.017287 C97.7896805,15.2010773 96.5861756,14.7440273 95.3223572,14.7440273 C94.4615906,14.7440273 93.6062441,14.9608009 92.8455774,15.3766639 C91.211228,16.2712543 90.1945455,17.9739539 90.1945455,19.8194958 C90.1945455,20.3387256 90.2763091,20.8554454 90.4369532,21.3537965 C91.2858416,24.9617078 98.0528463,29.1998598 98.3418443,29.3793255 C98.4588965,29.4514313 98.591402,29.4880546 98.7244841,29.4880546 C98.8551444,29.4880546 98.9877652,29.4514313 99.1047021,29.3793255 C99.3937001,29.1998598 106.155977,24.9617078 107.00498,21.3537965 C107.166086,20.8554454 107.247273,20.3387256 107.247273,19.8194958 C107.247273,17.9739539 106.233012,16.2712543 104.596125,15.3741539 C103.837996,14.9608009 102.982534,14.7440273 102.119922,14.7440273 Z" id="Fill-4" fill="#1DB1F1"></path>
                                <path d="M27.0437764,23.485802 C26.7004618,22.3826621 26.5266473,21.2420478 26.5266473,20.0936519 C26.5266473,15.9102389 28.8115073,12.0513993 32.4893491,10.0243003 C34.1919509,9.08559727 36.1201418,8.58901024 38.0647691,8.58901024 C39.9978909,8.58901024 41.8798545,9.07433447 43.5534873,9.9759727 C43.5091091,6.37822526 41.5326364,3.07064846 38.3600073,1.31856655 C36.8733382,0.502116041 35.1960073,0.0737201365 33.5047055,0.0737201365 C31.0258964,0.0737201365 28.6670727,0.976996587 26.8424309,2.5894198 C25.0140909,0.976996587 22.6546509,0.0737201365 20.1766636,0.0737201365 C18.48906,0.0737201365 16.8117291,0.502116041 15.3203345,1.32348123 C12.1156545,3.09071672 10.12254,6.45419795 10.12254,10.0996587 C10.12254,11.1253925 10.2827945,12.1460068 10.5975509,13.1305802 C12.2621436,20.2574744 25.5303982,28.629215 26.0970418,28.983686 C26.3263291,29.1260068 26.5860236,29.1982935 26.8469509,29.1982935 C27.1033582,29.1982935 27.3632582,29.1260068 27.5927509,28.983686 C27.7039018,28.9140614 28.3077327,28.5327645 29.2119382,27.9161775 C28.1895964,26.4677816 27.4084582,24.9726962 27.0437764,23.485802" id="Fill-6" fill="#1DB1F1"></path>
                            </g>
                            <g id="Left-Hand" transform="translate(4.930909, 57.952218)" fill="#222B43">
                                <path d="M32.5713255,27.2596587 C31.6868436,27.2596587 30.9693964,26.5447782 30.9693964,25.6630034 L30.9693964,8.70020478 C30.9693964,8.0821843 30.4641836,7.57863481 29.8430945,7.57863481 C29.2228273,7.57863481 28.7176145,8.0821843 28.7176145,8.70020478 L28.7176145,25.6630034 C28.7176145,26.5447782 28.0003727,27.2596587 27.1156855,27.2596587 C26.2309982,27.2596587 25.5137564,26.5447782 25.5137564,25.6630034 L25.5137564,8.70020478 C25.5137564,6.32088737 27.4559182,4.38532423 29.8430945,4.38532423 C32.2310927,4.38532423 34.1732545,6.32088737 34.1732545,8.70020478 L34.1732545,25.6630034 C34.1732545,26.5447782 33.4560127,27.2596587 32.5713255,27.2596587" id="Fill-8"></path>
                                <path d="M25.5137564,25.6630034 L25.5137564,4.47501706 C25.5137564,3.85658703 25.0085436,3.35303754 24.3882764,3.35303754 C23.7680091,3.35303754 23.2625909,3.85658703 23.2625909,4.47501706 L23.2625909,25.6630034 C23.2625909,26.5447782 22.5453491,27.2596587 21.6606618,27.2596587 C20.77618,27.2596587 20.0587327,26.5447782 20.0587327,25.6630034 L20.0587327,4.47501706 C20.0587327,2.09549488 22.0008945,0.159726962 24.3882764,0.159726962 C26.7754527,0.159726962 28.7176145,2.09549488 28.7176145,4.47501706 L28.7176145,25.6630034 C28.7176145,26.5447782 28.0003727,27.2596587 27.1156855,27.2596587 C26.2309982,27.2596587 25.5137564,26.5447782 25.5137564,25.6630034 Z" id="Fill-9"></path>
                                <path d="M16.2050218,29.5603413 C15.3203345,29.5603413 14.6030927,28.845256 14.6030927,27.963686 L14.6030927,8.70020478 C14.6030927,6.32088737 16.5452545,4.38532423 18.9332527,4.38532423 C21.3204291,4.38532423 23.2625909,6.32088737 23.2625909,8.70020478 L23.2625909,25.6630034 C23.2625909,26.5447782 22.5453491,27.2596587 21.6606618,27.2596587 C20.77618,27.2596587 20.0587327,26.5447782 20.0587327,25.6630034 L20.0587327,8.70020478 C20.0587327,8.0821843 19.55352,7.57863481 18.9332527,7.57863481 C18.3121636,7.57863481 17.8069509,8.0821843 17.8069509,8.70020478 L17.8069509,27.963686 C17.8069509,28.845256 17.0897091,29.5603413 16.2050218,29.5603413" id="Fill-10"></path>
                                <path d="M21.2195509,48.0735154 L19.7396618,48.0735154 C19.6919964,48.0735154 19.6443309,48.0712628 19.59646,48.067372 C16.6820873,47.8060751 13.8749618,46.5921502 11.6918018,44.6494198 L10.4677036,43.5604096 C9.73649091,42.9094198 8.95350364,41.9434812 8.28310545,41.0844369 C8.23996,41.028942 8.20092364,40.9713993 8.16579091,40.9111945 L5.11766727,35.7245734 L0.384610909,27.0608191 C0.0585545455,26.4643003 0.147721818,25.727099 0.606090909,25.2241638 C2.26493091,23.4053242 4.94631818,22.9343345 7.12783455,24.0755631 L7.57921818,24.3120819 C8.42076,24.7523549 9.13348182,25.4080546 9.63931091,26.2079181 L10.9723,28.1445051 C11.5362727,28.9644369 12.20174,29.7122867 12.9495945,30.365529 L12.97918,30.3913311 C13.4430964,30.6518089 13.8632509,30.485529 14.0274091,30.396041 C14.2001964,30.3030717 14.6030927,30.0241638 14.6030927,29.4354266 L14.6030927,27.1558362 C14.6030927,26.2742662 15.3203345,25.5591809 16.2050218,25.5591809 C17.0897091,25.5591809 17.8069509,26.2742662 17.8069509,27.1558362 L17.8069509,29.4354266 C17.8069509,31.0142662 16.9411655,32.4595904 15.5463345,33.2080546 C14.1525309,33.9571331 12.4645164,33.88157 11.1420055,33.0122867 C11.0818073,32.9725597 11.0238691,32.928942 10.9698345,32.8812287 L10.8399873,32.7683959 C9.88893818,31.9374061 9.04493091,30.9901024 8.32994909,29.9500341 L6.96367636,27.9628669 C6.7235,27.5862799 6.43257636,27.3188396 6.08905636,27.1386348 L5.63849455,26.9025256 C5.08089091,26.6109215 4.44172182,26.5775427 3.87713273,26.7763823 L7.90691818,34.1545392 L10.8767636,39.2070307 C11.2373364,39.6677816 12.0266927,40.6656655 12.6013491,41.1786348 L13.8256527,42.2670307 C15.4816164,43.7406143 17.6058109,44.6674403 19.8140364,44.8802048 L21.2195509,44.8802048 C22.1042382,44.8802048 22.82148,45.5950853 22.82148,46.4768601 C22.82148,47.3586348 22.1042382,48.0735154 21.2195509,48.0735154" id="Fill-11"></path>
                                <path d="M34.3641218,61.8376792 C33.5420982,61.8376792 32.8427309,61.2114676 32.77,60.380273 C32.6535073,59.0567918 32.5423564,57.9479181 32.4414782,56.9391809 C32.1419255,53.9486007 31.9253764,51.7875768 31.9253764,47.5886007 C31.9253764,46.7068259 32.6424127,45.9919454 33.5273055,45.9919454 C34.4117873,45.9919454 35.1290291,46.7068259 35.1290291,47.5886007 C35.1290291,51.6284642 35.3385927,53.7233447 35.6297218,56.6219795 C35.7314218,57.6423891 35.8440109,58.7635495 35.9613255,60.1011604 C36.0387818,60.9798635 35.3864636,61.754744 34.50568,61.8311263 C34.4580145,61.836041 34.4103491,61.8376792 34.3641218,61.8376792" id="Fill-12"></path>
                                <path d="M18.3004527,61.8475085 C18.2536091,61.8475085 18.20656,61.8460751 18.1588945,61.8413652 C17.2781109,61.7641638 16.6257927,60.9901024 16.7032491,60.1113993 C16.8205636,58.7758362 16.9325364,57.6556997 17.0350582,56.6367235 C17.3259818,53.7327645 17.5363673,51.6339932 17.5363673,47.5886007 C17.5363673,46.7068259 18.2536091,45.9919454 19.1382964,45.9919454 C20.0229836,45.9919454 20.7402255,46.7068259 20.7402255,47.5886007 C20.7402255,51.7939249 20.5234709,53.9580205 20.2230964,56.9541297 C20.1222182,57.9612287 20.0110673,59.0690785 19.8945745,60.3905119 C19.8218436,61.2217065 19.1224764,61.8475085 18.3004527,61.8475085" id="Fill-13"></path>
                                <path d="M32.6941873,48.1226621 C31.8095,48.1226621 31.0922582,47.4077816 31.0922582,46.5260068 C31.0922582,45.6442321 31.8095,44.9293515 32.6941873,44.9293515 C34.7514036,44.9293515 36.42442,43.261843 36.42442,41.2113993 L36.42442,13.4715358 C36.42442,12.8533106 35.9190018,12.3497611 35.29894,12.3497611 C34.6786727,12.3497611 34.1732545,12.8533106 34.1732545,13.4715358 L34.1732545,26.1229352 C34.1732545,27.0047099 33.4560127,27.7195904 32.5713255,27.7195904 C31.6868436,27.7195904 30.9693964,27.0047099 30.9693964,26.1229352 L30.9693964,13.4715358 C30.9693964,11.0922184 32.9115582,9.15645051 35.29894,9.15645051 C37.6861164,9.15645051 39.6282782,11.0922184 39.6282782,13.4715358 L39.6282782,41.2113993 C39.6282782,45.022116 36.5174909,48.1226621 32.6941873,48.1226621" id="Fill-14"></path>
                                <path d="M24.8801345,41.1919454 C24.8708891,41.1919454 24.86226,41.1919454 24.8536309,41.1919454 C23.9689436,41.1772014 23.2634127,40.4504437 23.2773836,39.5694881 C23.2860127,39.0464846 23.2165691,38.5226621 23.0694636,38.0119454 C22.4561818,35.8843003 20.5571655,34.3455973 18.3427764,34.183413 C17.4603491,34.1193174 16.7979636,33.3538567 16.8628873,32.4743345 C16.9278109,31.5958362 17.6904582,30.9223208 18.5774055,30.9993174 C22.1237564,31.2589761 25.16736,33.7234812 26.1488164,37.1318089 C26.3836509,37.9466212 26.4945964,38.7837543 26.4812418,39.6210922 C26.4664491,40.4942662 25.7522891,41.1919454 24.8801345,41.1919454" id="Fill-15"></path>
                                <path d="M33.3362327,29.1040956 C33.0414055,29.1040956 32.7426745,29.0230034 32.4751727,28.8530375 C30.3343364,27.4888055 23.80232,27.0888737 20.9958109,28.5522184 C20.20892,28.9591126 19.2439,28.6574744 18.8338127,27.8770648 C18.4241364,27.0950171 18.7275927,26.1307167 19.5111964,25.7221843 C23.1085,23.8488737 30.9342636,24.0827304 34.20058,26.1620478 C34.9459691,26.6367235 35.1643673,27.6237543 34.6879182,28.3673038 C34.3822018,28.8438225 33.8650727,29.1040956 33.3362327,29.1040956" id="Fill-16"></path>
                            </g>
                            <g id="Right-Hand" transform="translate(69.032727, 25.597270)" fill="#222B43">
                                <path d="M31.7264964,59.3643686 C31.7225927,58.5262116 31.0376073,57.8502389 30.1968873,57.8541297 C29.3559618,57.85843 28.6777564,58.5409556 28.6818655,59.3791126 C28.6859745,60.2172696 29.37096,60.8930375 30.21168,60.8891468 C31.0524,60.8848464 31.7306055,60.2023208 31.7264964,59.3643686" id="Fill-7"></path>
                                <path d="M14.1691727,29.9148123 C13.2846909,29.9148123 12.5672436,29.199727 12.5672436,28.318157 L12.5672436,9.50313993 C12.5672436,8.72027304 11.9291018,8.08423208 11.1438545,8.08423208 C10.3584018,8.08423208 9.72026,8.72027304 9.72026,9.50313993 C9.72026,10.3849147 9.00301818,11.0997952 8.11833091,11.0997952 C7.23364364,11.0997952 6.51640182,10.3849147 6.51640182,9.50313993 C6.51640182,6.96 8.59231455,4.8909215 11.1438545,4.8909215 C13.6951891,4.8909215 15.7711018,6.96 15.7711018,9.50313993 L15.7711018,28.318157 C15.7711018,29.199727 15.05386,29.9148123 14.1691727,29.9148123" id="Fill-26"></path>
                                <path d="M20.22022,29.9148123 C19.3355327,29.9148123 18.6182909,29.199727 18.6182909,28.318157 L18.6182909,4.81617747 C18.6182909,4.03331058 17.9799436,3.39726962 17.1946964,3.39726962 C16.4094491,3.39726962 15.7711018,4.03331058 15.7711018,4.81617747 L15.7711018,28.318157 C15.7711018,29.199727 15.05386,29.9148123 14.1691727,29.9148123 C13.2846909,29.9148123 12.5672436,29.199727 12.5672436,28.318157 L12.5672436,4.81617747 C12.5672436,2.27324232 14.6431564,0.203959044 17.1946964,0.203959044 C19.7462364,0.203959044 21.8221491,2.27324232 21.8221491,4.81617747 L21.8221491,28.318157 C21.8221491,29.199727 21.1049073,29.9148123 20.22022,29.9148123" id="Fill-27"></path>
                                <path d="M26.2712673,32.4671672 C25.38658,32.4671672 24.6693382,31.7522867 24.6693382,30.8705119 L24.6693382,9.50313993 C24.6693382,8.72027304 24.0309909,8.08423208 23.2457436,8.08423208 C22.4602909,8.08423208 21.8221491,8.72027304 21.8221491,9.50313993 L21.8221491,28.318157 C21.8221491,29.199727 21.1049073,29.9148123 20.22022,29.9148123 C19.3355327,29.9148123 18.6182909,29.199727 18.6182909,28.318157 L18.6182909,9.50313993 C18.6182909,6.96 20.6942036,4.8909215 23.2457436,4.8909215 C25.7972836,4.8909215 27.8731964,6.96 27.8731964,9.50313993 L27.8731964,30.8705119 C27.8731964,31.7522867 27.1557491,32.4671672 26.2712673,32.4671672" id="Fill-28"></path>
                                <path d="M22.3516055,53.0019113 L20.7089964,53.0019113 C19.8243091,53.0019113 19.1072727,52.2870307 19.1072727,51.405256 C19.1072727,50.523686 19.8243091,49.8086007 20.7089964,49.8086007 L22.2772309,49.8086007 C24.7663127,49.5700341 27.1612964,48.5262799 29.0276455,46.8657338 L30.3846727,45.658157 C31.0369909,45.0772014 31.9027764,43.9810239 32.3268345,43.4393857 L35.6541709,37.7762457 L40.1938945,29.4632765 C39.4768582,29.1466894 38.6373709,29.1593857 37.9106782,29.5388396 L37.4101909,29.8007509 C37.0027745,30.0145392 36.6569945,30.3325597 36.4104491,30.72 L34.8633764,32.9737884 C34.0773073,34.116041 33.1511182,35.1569283 32.1092582,36.0665529 L31.9646182,36.192901 C31.9097618,36.2406143 31.8520291,36.2842321 31.7918309,36.3245734 C30.3783036,37.2530375 28.5762618,37.3341297 27.0854836,36.5334471 C25.5953218,35.7344027 24.6693382,34.1901706 24.6693382,32.5030034 L24.6693382,29.9739932 C24.6693382,29.0922184 25.38658,28.3773379 26.2712673,28.3773379 C27.1557491,28.3773379 27.8731964,29.0922184 27.8731964,29.9739932 L27.8731964,32.5030034 C27.8731964,33.2490102 28.3837509,33.6038908 28.6035873,33.7224573 C28.8139727,33.8346758 29.3537018,34.0513311 29.9505473,33.7060751 L29.9982127,33.6647099 C30.8383164,32.9309898 31.5859655,32.0905802 32.2204091,31.1690785 L33.7346091,28.9650512 C34.2486564,28.1526962 35.0158236,27.4472355 35.9208509,26.974198 L36.4215436,26.7120819 C38.7727655,25.4819795 41.6598127,25.9902389 43.4448018,27.9485324 C43.9031709,28.4514676 43.9923382,29.1888737 43.6660764,29.7851877 L38.4434218,39.3464846 L35.0378073,45.1435495 C35.0026745,45.2035495 34.9634327,45.2619113 34.9196709,45.3174061 C34.1798291,46.265529 33.3154818,47.3311945 32.5174964,48.0399317 L31.1612909,49.2473038 C28.7671291,51.3780205 25.6900364,52.7088737 22.4956291,52.9957679 C22.4477582,52.9994539 22.3992709,53.0019113 22.3516055,53.0019113" id="Fill-29"></path>
                                <path d="M7.56606909,70.5407509 C7.51984182,70.5407509 7.47217636,70.5391126 7.42533273,70.5344027 C6.54372727,70.4580205 5.89140909,69.6831399 5.96886545,68.8054608 C6.45928545,63.217884 6.49688364,58.2573379 6.49688364,51.8598635 C6.49688364,50.9780887 7.21412545,50.2632082 8.09860727,50.2632082 C8.9835,50.2632082 9.70053636,50.9780887 9.70053636,51.8598635 C9.70053636,58.3392491 9.6615,63.3675768 9.16019091,69.0827304 C9.08746,69.9139249 8.38809273,70.5407509 7.56606909,70.5407509" id="Fill-30"></path>
                                <path d="M32.8961491,94.2602048 C32.0186527,94.2602048 31.3028491,93.5553584 31.29422,92.6791126 C31.2200509,84.9440273 30.5560218,78.5627304 29.9137709,72.3915358 L29.8995945,72.2551536 C29.6916745,70.256314 29.4874527,68.2900341 29.3060364,66.3067577 C29.2261145,65.4280546 29.8755564,64.6515358 30.7561345,64.5712628 C31.6439036,64.5043003 32.4166182,65.139727 32.4973618,66.0167918 C32.6771345,67.9875768 32.8797127,69.9403413 33.0864,71.9260751 L33.1003709,72.0624573 C33.7504291,78.3063481 34.4222655,84.7632082 34.4982836,92.6481911 C34.5067073,93.5297611 33.7966564,94.2518089 32.9117636,94.2602048 C32.9064218,94.2602048 32.9008745,94.2602048 32.8961491,94.2602048" id="Fill-31"></path>
                                <path d="M25.6875709,94.3290102 C24.8100745,94.3290102 24.0942709,93.623959 24.0856418,92.7479181 C24.0145545,85.3501024 23.3684,79.1389761 22.7436127,73.1330375 C22.0910891,66.8594539 21.4161709,60.3731058 21.4161709,52.6378157 C21.4161709,51.756041 22.1334127,51.0411604 23.0181,51.0411604 C23.9025818,51.0411604 24.6200291,51.756041 24.6200291,52.6378157 C24.6200291,60.2078498 25.2567327,66.3262116 25.9300073,72.8031399 C26.5628073,78.8825939 27.2167691,85.1692833 27.2895,92.7167918 C27.2981291,93.5983618 26.5878727,94.3204096 25.7031855,94.3290102 C25.6978436,94.3290102 25.6922964,94.3290102 25.6875709,94.3290102" id="Fill-32"></path>
                                <path d="M7.98149818,53.0557679 C3.70372909,53.0557679 0.0891672727,49.6083276 0.0891672727,45.527099 C0.0891672727,44.645529 0.806409091,43.9304437 1.69109636,43.9304437 C2.57578364,43.9304437 3.29302545,44.645529 3.29302545,45.527099 C3.29302545,47.7956314 5.52775455,49.8624573 7.98149818,49.8624573 C8.86598,49.8624573 9.58342727,50.5773379 9.58342727,51.4591126 C9.58342727,52.3408874 8.86598,53.0557679 7.98149818,53.0557679" id="Fill-33"></path>
                                <path d="M16.6496255,45.3690102 C15.7772655,45.3690102 15.0633109,44.6717406 15.0485182,43.7987713 C15.03352,42.8858703 15.1547382,41.9729693 15.4105291,41.0873038 C16.4797145,37.3769283 19.7922582,34.6937201 23.65316,34.4115358 C24.5386691,34.3296246 25.3027545,35.0070307 25.3676782,35.8865529 C25.4326018,36.7658703 24.7702164,37.5313311 23.8877891,37.5954266 C21.3590545,37.7809556 19.1900709,39.538157 18.4892655,41.9680546 C18.32182,42.5506485 18.2421036,43.1486007 18.2521709,43.7457338 C18.2671691,44.6266894 17.5616382,45.3540614 16.6769509,45.3690102 C16.6683218,45.3690102 16.6588709,45.3690102 16.6496255,45.3690102" id="Fill-34"></path>
                                <path d="M21.7798255,31.5503754 C21.5301982,31.5503754 21.2760509,31.4918089 21.0391618,31.3687372 C17.8876945,29.7268259 11.3801273,30.2475768 9.0287,31.0677133 C8.1925,31.3593174 7.27904909,30.9194539 6.98730364,30.0886689 C6.69473636,29.256041 7.13523091,28.3453925 7.96978727,28.0537884 C10.8167709,27.0612287 18.3249018,26.3520819 22.5237764,28.5387031 C23.30738,28.9470307 23.6108364,29.9115358 23.20116,30.6935836 C22.9147564,31.2384983 22.3571527,31.5503754 21.7798255,31.5503754" id="Fill-35"></path>
                            </g>
                            <g id="Middle-Hand" transform="translate(26.298182, 3.276451)" fill="#222B43">
                                <path d="M43.0856673,35.5926962 C42.2011855,35.5926962 41.4839436,34.8776109 41.4839436,33.996041 L41.4839436,11.1518089 C41.4839436,10.0136519 40.5546727,9.08744027 39.4127564,9.08744027 C38.2698127,9.08744027 37.3407473,10.0136519 37.3407473,11.1518089 L37.3407473,33.996041 C37.3407473,34.8776109 36.6233,35.5926962 35.7388182,35.5926962 C34.8541309,35.5926962 34.1368891,34.8776109 34.1368891,33.996041 L34.1368891,11.1518089 C34.1368891,8.25255973 36.5037255,5.89412969 39.4127564,5.89412969 C42.3215818,5.89412969 44.6875964,8.25255973 44.6875964,11.1518089 L44.6875964,33.996041 C44.6875964,34.8776109 43.9703545,35.5926962 43.0856673,35.5926962" id="Fill-17"></path>
                                <path d="M28.3925855,35.5926962 C27.5078982,35.5926962 26.7906564,34.8776109 26.7906564,33.996041 L26.7906564,29.1958362 C26.7906564,28.3142662 27.5078982,27.5991809 28.3925855,27.5991809 C29.2772727,27.5991809 29.9945145,28.3142662 29.9945145,29.1958362 L29.9945145,33.996041 C29.9945145,34.8776109 29.2772727,35.5926962 28.3925855,35.5926962" id="Fill-18"></path>
                                <path d="M35.7388182,35.5926962 C34.8541309,35.5926962 34.1368891,34.8776109 34.1368891,33.996041 L34.1368891,5.46143345 C34.1368891,4.32327645 33.2076182,3.39726962 32.0657018,3.39726962 C30.9237855,3.39726962 29.9945145,4.32327645 29.9945145,5.46143345 L29.9945145,6.64341297 C29.9945145,7.52518771 29.2772727,8.24006826 28.3925855,8.24006826 C27.5078982,8.24006826 26.7906564,7.52518771 26.7906564,6.64341297 L26.7906564,5.46143345 C26.7906564,2.5621843 29.1566709,0.203959044 32.0657018,0.203959044 C34.9745273,0.203959044 37.3407473,2.5621843 37.3407473,5.46143345 L37.3407473,33.996041 C37.3407473,34.8776109 36.6233,35.5926962 35.7388182,35.5926962" id="Fill-19"></path>
                                <path d="M27.7988218,63.6231399 L25.8050909,63.6231399 C25.7574255,63.6231399 25.7095545,63.6210922 25.6610673,63.6169966 C21.8550218,63.2756314 18.1890964,61.6898294 15.3371818,59.1520137 L13.6890255,57.685802 C12.7301691,56.8312628 11.6498891,55.4942662 10.8153327,54.4245051 C10.7723927,54.3694198 10.7333564,54.3116724 10.6980182,54.2516724 L6.59303636,47.2662799 L0.227027273,35.6135836 C-0.0992345455,35.0164505 -0.0100672727,34.2796587 0.449123636,33.7759044 C2.51086,31.5151536 5.84682545,30.9280546 8.56272909,32.3486007 L9.17046364,32.6666212 C10.2154055,33.2137884 11.1015309,34.0286007 11.7328927,35.023413 L13.5404818,37.6505119 C14.3257291,38.7927645 15.2525345,39.8342662 16.2952164,40.7449147 L16.3765764,40.8157679 C16.9962273,41.1853925 17.7368909,41.2017747 18.3758545,40.8579522 C19.0446091,40.4991809 19.4436018,39.8336519 19.4436018,39.076587 L19.4436018,36.0065529 C19.4436018,35.1247782 20.1608436,34.4098976 21.0455309,34.4098976 C21.9302182,34.4098976 22.64746,35.1247782 22.64746,36.0065529 L22.64746,39.076587 C22.64746,40.9982253 21.5930673,42.7587031 19.89478,43.6693515 C18.19752,44.5797952 16.1411255,44.4892833 14.5322109,43.4313993 C14.4705745,43.391058 14.4118145,43.3466212 14.3561364,43.2974744 L14.1819109,43.1445051 C12.9397327,42.0602048 11.8345927,40.8182253 10.8975145,39.4562457 L9.05705273,36.7797952 C8.69401455,36.2082594 8.22866,35.7804778 7.68030182,35.4935836 L7.07338909,35.1753584 C5.98139818,34.6038225 4.69710182,34.6531741 3.67167818,35.2408874 L9.38249273,45.696041 L13.4091964,52.5466894 C14.1506818,53.4954266 15.0783091,54.6405461 15.8236982,55.3040273 L17.4710327,56.7698294 C19.7947236,58.8387031 22.7787455,60.1367918 25.8786436,60.4300341 L27.7988218,60.4300341 C28.6835091,60.4300341 29.4007509,61.1449147 29.4007509,62.0264846 C29.4007509,62.9082594 28.6835091,63.6231399 27.7988218,63.6231399" id="Fill-20"></path>
                                <path d="M47.6225145,116.183345 C46.7378273,116.183345 46.0205855,115.468669 46.0205855,114.586689 C46.0205855,104.993857 45.1913709,96.8078498 44.3888655,88.8917406 C43.5933455,81.0427986 42.7713218,72.9262116 42.7713218,63.523413 C42.7713218,62.6416382 43.4885636,61.9267577 44.3732509,61.9267577 C45.2579382,61.9267577 45.97518,62.6416382 45.97518,63.523413 C45.97518,72.7656655 46.7893964,80.8003413 47.5762873,88.5706485 C48.3866,96.5655973 49.2242382,104.832491 49.2242382,114.586689 C49.2242382,115.468669 48.5069964,116.183345 47.6225145,116.183345" id="Fill-21"></path>
                                <path d="M21.7463364,116.183345 C20.8616491,116.183345 20.1444073,115.468669 20.1444073,114.586689 C20.1444073,104.832491 20.9820455,96.5655973 21.7925636,88.5706485 C22.5792491,80.8003413 23.3936709,72.7656655 23.3936709,63.523413 C23.3936709,62.6416382 24.1109127,61.9267577 24.9956,61.9267577 C25.8800818,61.9267577 26.5975291,62.6416382 26.5975291,63.523413 C26.5975291,72.9262116 25.7753,81.0427986 24.97978,88.8917406 C24.1772745,96.8078498 23.3482655,104.993857 23.3482655,114.586689 C23.3482655,115.468669 22.6310236,116.183345 21.7463364,116.183345" id="Fill-22"></path>
                                <path d="M43.2516745,63.6886689 C42.3669873,63.6886689 41.6497455,62.9737884 41.6497455,62.0920137 C41.6497455,61.2102389 42.3669873,60.4953584 43.2516745,60.4953584 C46.3279455,60.4953584 48.8307927,58.0013652 48.8307927,54.9354266 L48.8307927,17.5773379 C48.8307927,16.4391809 47.9015218,15.5129693 46.7589891,15.5129693 C45.6168673,15.5129693 44.6875964,16.4391809 44.6875964,17.5773379 L44.6875964,34.6156997 C44.6875964,35.4974744 43.9703545,36.2123549 43.0856673,36.2123549 C42.2011855,36.2123549 41.4839436,35.4974744 41.4839436,34.6156997 L41.4839436,17.5773379 C41.4839436,14.6780887 43.8499582,12.3196587 46.7589891,12.3196587 C49.6678145,12.3196587 52.0346509,14.6780887 52.0346509,17.5773379 L52.0346509,54.9354266 C52.0346509,59.761843 48.0948545,63.6886689 43.2516745,63.6886689" id="Fill-23"></path>
                                <path d="M32.7272655,54.3559044 C32.71802,54.3559044 32.7085691,54.3559044 32.6985018,54.3559044 C31.8146364,54.3403413 31.1097218,53.6131741 31.12472,52.7313993 C31.1378691,51.972901 31.0369909,51.2144027 30.8243455,50.4759727 C29.9341109,47.3879181 27.1777327,45.1552218 23.9646291,44.9189078 C23.0822018,44.8550171 22.4198164,44.0895563 22.4845345,43.2100341 C22.5488418,42.3315358 23.3106673,41.6580205 24.1992582,41.7350171 C28.7453509,42.0679863 32.6444673,45.2260751 33.9030818,49.5944027 C34.2040727,50.6373379 34.3472745,51.7116041 34.3283727,52.7875085 C34.3127582,53.6590444 33.5988036,54.3559044 32.7272655,54.3559044" id="Fill-24"></path>
                                <path d="M44.1168436,38.0770648 C43.8218109,38.0770648 43.5228745,37.9959727 43.2555782,37.8260068 C40.1955382,35.8769283 31.2334055,35.3158362 27.2395745,37.396587 C26.4535055,37.8032765 25.4866364,37.501843 25.0775764,36.7214334 C24.6676945,35.9395904 24.9713564,34.9750853 25.75496,34.5665529 C30.4676764,32.1122867 40.7087636,32.4155631 44.9809855,35.1348123 C45.7263745,35.6096928 45.9447727,36.5967235 45.4683236,37.3404778 C45.1624018,37.8167918 44.6454782,38.0770648 44.1168436,38.0770648" id="Fill-25"></path>
                                <path d="M34.6805218,80.8867577 C33.7958345,80.8867577 33.0785927,80.1718771 33.0785927,79.2901024 L33.0785927,76.8952218 C33.0785927,76.0134471 33.7958345,75.2985666 34.6805218,75.2985666 C35.5650036,75.2985666 36.2824509,76.0134471 36.2824509,76.8952218 L36.2824509,79.2901024 C36.2824509,80.1718771 35.5650036,80.8867577 34.6805218,80.8867577 Z M34.6805218,91.2649147 C33.7958345,91.2649147 33.0785927,90.5502389 33.0785927,89.6682594 L33.0785927,87.2733788 C33.0785927,86.3916041 33.7958345,85.6767235 34.6805218,85.6767235 C35.5650036,85.6767235 36.2824509,86.3916041 36.2824509,87.2733788 L36.2824509,89.6682594 C36.2824509,90.5502389 35.5650036,91.2649147 34.6805218,91.2649147 Z M34.6805218,101.642867 C33.7958345,101.642867 33.0785927,100.928191 33.0785927,100.046416 L33.0785927,97.6513311 C33.0785927,96.7697611 33.7958345,96.0546758 34.6805218,96.0546758 C35.5650036,96.0546758 36.2824509,96.7697611 36.2824509,97.6513311 L36.2824509,100.046416 C36.2824509,100.928191 35.5650036,101.642867 34.6805218,101.642867 Z M34.6805218,112.021229 C33.7958345,112.021229 33.0785927,111.306348 33.0785927,110.424573 L33.0785927,108.029488 C33.0785927,107.147713 33.7958345,106.432833 34.6805218,106.432833 C35.5650036,106.432833 36.2824509,107.147713 36.2824509,108.029488 L36.2824509,110.424573 C36.2824509,111.306348 35.5650036,112.021229 34.6805218,112.021229 L34.6805218,112.021229 Z" id="Fill-36"></path>
                            </g>
                        </g>
                    </g>
                </g>
            </g>
        </g>
    </g>
</svg>