<?xml version="1.0" encoding="UTF-8"?>
<svg width="63px" height="72px" viewBox="0 0 63 72" version="1.1" xmlns="http://www.w3.org/2000/svg" xmlns:xlink="http://www.w3.org/1999/xlink">
    <!-- Generator: Sketch 47.1 (45422) - http://www.bohemiancoding.com/sketch -->
    <title>Methodology_icon</title>
    <desc>Created with Sketch.</desc>
    <defs>
        <linearGradient x1="100%" y1="50%" x2="3.90625%" y2="50%" id="linearGradient-1">
            <stop stop-color="#1B36CC" offset="0%"></stop>
            <stop stop-color="#2137B2" offset="100%"></stop>
        </linearGradient>
    </defs>
    <g id="Index" stroke="none" stroke-width="1" fill="none" fill-rule="evenodd">
        <g id="Safe_Cities_1440" transform="translate(-163.000000, -14666.000000)">
            <g id="Methodology" transform="translate(155.000000, 14590.000000)">
                <g id="Methodology_icon" transform="translate(0.000000, 72.000000)">
                    <rect id="base" x="0" y="0" width="80" height="80"></rect>
                    <g id="Page-1" transform="translate(8.000000, 4.000000)" fill="url(#linearGradient-1)" opacity="0.903419384">
                        <path d="M23.89923,16.8038222 C26.35803,17.8073778 28.87083,18.9896 31.38363,20.3256 C33.90003,19.0260444 36.48123,17.8376 39.23973,16.7087111 C37.05723,7.56915556 33.83343,3.46693333 31.55733,3.46693333 C30.32073,3.46693333 28.86453,4.75137778 27.51813,7.01448889 C27.92943,7.5976 28.13733,8.25537778 28.13733,8.97804444 C28.13733,10.7033778 26.89173,12.0962667 25.20063,12.3878222 C24.75333,13.7113778 24.34383,15.1451556 23.89923,16.8038222 M23.25663,20.5327111 C22.99743,22.1096 22.76613,23.8420444 22.56633,25.7104889 C23.17653,25.3140444 23.77323,24.9629333 24.38073,24.6393778 C25.39593,23.9682667 26.46873,23.3096 27.71613,22.5976 C26.26893,21.8536 24.79383,21.1709333 23.25663,20.5327111 M35.20683,22.5416 C36.31653,23.1984889 37.45683,23.8864889 38.59713,24.5753778 C39.33783,25.0447111 40.08483,25.5202667 40.83273,26.0127111 C40.61403,23.8696 40.36113,22.0224889 40.05873,20.3496 C38.26143,21.0936 36.69723,21.8002667 35.20683,22.5416 M8.51733,16.7113778 C6.26373,16.7113778 4.60503,17.2749333 3.96513,18.2580444 C2.64933,20.3007111 4.81203,25.7878222 12.58173,33.1033778 C14.50953,31.4224889 16.61013,29.8304889 18.63063,28.3309333 C18.88893,25.0242667 19.28763,21.9407111 19.81953,19.1460444 C15.42843,17.5513778 11.53413,16.7113778 8.51733,16.7113778 M44.57673,28.6856 C46.83393,30.3478222 48.66813,31.8011556 50.26653,33.1958222 C58.13253,25.8740444 60.31143,20.3407111 58.96863,18.2544889 C58.19103,16.9753778 56.06523,16.7113778 54.41733,16.7113778 C52.75863,16.7113778 50.62203,17.0313778 48.06603,17.6624889 C46.76823,17.9993778 45.09873,18.4562667 43.38243,19.0633778 C43.91433,21.9407111 44.31573,25.1727111 44.57673,28.6856 M44.87823,33.5824889 C44.89983,34.2811556 44.92143,34.9798222 44.96553,35.6784889 C44.96643,36.3833778 44.96733,37.0856 44.95563,37.7736 C45.80703,37.1024889 46.69353,36.3736 47.62773,35.5744889 C46.73583,34.8518222 45.81693,34.1256 44.87103,33.3798222 C44.87373,33.4473778 44.87553,33.5149333 44.87823,33.5824889 M15.28173,35.5824889 C16.25733,36.4367111 17.31843,37.2749333 18.43263,38.1309333 C18.41733,37.3593778 18.41733,36.5780444 18.41733,35.7336 C18.41733,34.8002667 18.41733,33.8962667 18.43533,33.0029333 C17.34093,33.8731556 16.29873,34.7362667 15.28173,35.5824889 M22.26573,40.8704889 C23.64183,41.8767111 24.95133,42.7487111 26.35713,43.5967111 C26.93673,43.9353778 27.51993,44.2802667 28.09503,44.6207111 C29.30283,45.3362667 30.45213,46.0153778 31.56813,46.6340444 C33.47973,45.6304889 35.17083,44.6411556 36.72873,43.6162667 C38.11383,42.7513778 39.60063,41.7664889 41.28003,40.6038222 C41.28543,39.9104889 41.30433,39.2038222 41.32143,38.4891556 C41.34483,37.6082667 41.36733,36.7149333 41.36733,35.8224889 C41.36733,34.0269333 41.28993,32.2198222 41.21073,30.6224889 C40.73013,30.3033778 40.24863,29.9762667 39.76443,29.6473778 C38.75733,28.9638222 37.71603,28.2562667 36.65673,27.5967111 C36.09243,27.2669333 35.51283,26.9238222 34.94133,26.5860444 C33.72993,25.8687111 32.57793,25.1869333 31.45743,24.5673778 C29.72943,25.4856 27.97353,26.5593778 26.27163,27.6002667 C24.94413,28.4011556 23.63193,29.2678222 22.26663,30.2456 C22.18293,31.9993778 22.10733,33.8553778 22.10733,35.7336 C22.10733,37.4678222 22.17753,39.1007111 22.26573,40.8704889 M22.46553,45.3407111 C22.66083,47.1949333 22.89393,48.9540444 23.17023,50.6624889 C24.52743,50.0927111 26.01873,49.4038222 27.67923,48.5816 C26.44443,47.8749333 25.36713,47.2136 24.30873,46.5176 C23.69583,46.1460444 23.07663,45.7451556 22.46553,45.3407111 M35.20683,48.5860444 C36.83943,49.4118222 38.43783,50.1158222 40.11993,50.8260444 C40.39713,49.0393778 40.63833,47.1211556 40.83813,45.0953778 C40.09743,45.5833778 39.36123,46.0518222 38.63853,46.5104889 C37.47123,47.2784889 36.32373,47.9460444 35.20683,48.5860444 M43.38063,52.0429333 C47.70153,53.5656 51.47973,54.3673778 54.33903,54.3673778 C56.66283,54.3673778 58.23243,53.8429333 58.88133,52.8518222 C59.79033,51.4011556 58.96053,48.5620444 56.65383,45.2029333 C56.51433,45.2287111 56.36853,45.2447111 56.21733,45.2447111 C54.28233,45.2447111 52.70823,43.6891556 52.70823,41.7780444 C52.70823,41.4544889 52.73163,41.0304889 52.88193,40.5984889 C52.06113,39.7398222 51.13413,38.8153778 50.15493,37.8473778 C48.31173,39.4704889 46.43973,40.9780444 44.57673,42.3398222 C44.31753,45.8224889 43.91523,49.0811556 43.38063,52.0429333 M6.20073,45.2793778 C3.88773,48.6438222 3.05433,51.4891556 3.97233,52.9540444 C4.57443,53.9238222 6.20343,54.4571556 8.56053,54.4571556 C11.51253,54.4571556 15.36273,53.6544889 19.73223,52.1309333 C19.26603,49.5709333 18.92043,46.6651556 18.63063,42.8793778 C16.47153,41.3398222 14.43483,39.7300444 12.56463,38.0838222 C11.64483,38.9211556 10.79883,39.8011556 10.06443,40.5824889 C10.22733,40.9824889 10.31733,41.4296 10.31733,41.8669333 C10.31733,43.7780444 8.74323,45.3336 6.80733,45.3336 C6.61293,45.3336 6.41043,45.3149333 6.20073,45.2793778 M23.86593,54.2402667 C25.95393,63.6882667 29.33613,68.0002667 31.64733,68.0002667 C33.97473,68.0002667 37.24713,63.7896 39.42423,54.4047111 C36.59823,53.2473778 33.98553,52.0296 31.46823,50.6989333 C28.87803,52.0758222 26.32653,53.2642667 23.86593,54.2402667 M31.64733,71.5558222 C26.91153,71.5558222 22.85973,65.6856 20.46123,55.4020444 C15.78033,57.0384889 11.76543,57.8669333 8.51733,57.8669333 C4.75533,57.8669333 2.19663,56.8278222 0.91233,54.7789333 C-0.81567,52.0287111 0.10593,47.8447111 3.50433,42.9593778 C3.36663,42.6100444 3.29733,42.2144889 3.29733,41.7780444 C3.29733,39.8660444 4.87233,38.3113778 6.80733,38.3113778 C6.94953,38.3113778 7.10613,38.3113778 7.27443,38.3247111 C8.04123,37.4696 8.94033,36.5549333 9.99783,35.5549333 C1.59003,27.5887111 -1.80027,20.4002667 0.92133,16.2296 C2.24073,14.2038222 4.87503,13.1318222 8.54163,13.1318222 C11.83923,13.1318222 16.00443,13.9887111 20.63763,15.6162667 C21.00213,14.0349333 21.42153,12.5416 21.88863,11.1593778 C21.39813,10.5567111 21.11733,9.77804444 21.11733,8.97804444 C21.11733,7.15137778 22.55553,5.65004444 24.37263,5.52026667 C26.56683,1.85715556 29.01303,0.000266666667 31.64733,0.000266666667 C36.25893,0.000266666667 40.24233,5.61093333 42.64263,15.4402667 C44.04573,14.9469333 45.50823,14.5060444 47.16783,14.0740444 C49.85433,13.4358222 52.24653,13.1149333 54.29673,13.1149333 C58.04343,13.1149333 60.63903,14.1602667 62.01063,16.2233778 C64.69353,20.3878222 61.30053,27.5433778 52.93413,35.4696 C53.94483,36.4420444 54.83493,37.3762667 55.69173,38.2856 C55.87353,38.2482667 56.07783,38.2224889 56.30823,38.2224889 C58.24323,38.2224889 59.81733,39.7771556 59.81733,41.6891556 C59.81733,42.2269333 59.67963,42.6838222 59.51493,43.0509333 C62.88993,48.0260444 63.72333,52.0811556 61.92063,54.7984889 C60.59943,56.8047111 57.97323,57.8669333 54.32823,57.8669333 C51.12153,57.8669333 47.13363,57.0758222 42.74253,55.5744889 C40.35123,65.7478222 36.33183,71.5558222 31.64733,71.5558222" id="Fill-1"></path>
                        <path d="M31.64769,33.5112889 C30.31389,33.5112889 29.30769,34.4668444 29.30769,35.7335111 C29.30769,37.0295111 30.33549,38.0446222 31.64769,38.0446222 C32.98149,38.0446222 33.98769,37.0890667 33.98769,35.8224 C33.98769,34.5264 32.95989,33.5112889 31.64769,33.5112889 M31.64769,41.6001778 C28.37259,41.6001778 25.70769,38.9681778 25.70769,35.7335111 C25.70769,32.4988444 28.37259,29.8668444 31.64769,29.8668444 C34.92279,29.8668444 37.58769,32.4988444 37.58769,35.7335111 C37.58769,38.9681778 34.92279,41.6001778 31.64769,41.6001778" id="Fill-4"></path>
                    </g>
                </g>
            </g>
        </g>
    </g>
</svg>