<?xml version="1.0" encoding="UTF-8"?>
<svg width="37px" height="50px" viewBox="0 0 37 50" version="1.1" xmlns="http://www.w3.org/2000/svg" xmlns:xlink="http://www.w3.org/1999/xlink">
    <!-- Generator: Sketch 47.1 (45422) - http://www.bohemiancoding.com/sketch -->
    <title>Number</title>
    <desc>Created with Sketch.</desc>
    <defs>
        <linearGradient x1="50%" y1="0%" x2="50%" y2="100%" id="linearGradient-1">
            <stop stop-color="#C0F3BF" offset="0%"></stop>
            <stop stop-color="#E1FAE7" offset="100%"></stop>
        </linearGradient>
    </defs>
    <g id="Page-1" stroke="none" stroke-width="1" fill="none" fill-rule="evenodd">
        <g id="Financial_Institutions_1440" transform="translate(-305.000000, -5873.000000)">
            <g id="Content" transform="translate(110.000000, 90.000000)">
                <g id="Best-Small-&amp;-Regional-Banks" transform="translate(0.000000, 4068.000000)">
                    <g id="Top-5-Best-Small" transform="translate(0.000000, 217.000000)">
                        <g id="5" transform="translate(150.000000, 1384.000000)">
                            <g id="Number&amp;Title" transform="translate(45.000000, 96.000000)">
                                <g id="Number">
                                    <rect id="Rectangle-2" fill="#D8D8D8" opacity="0" x="0" y="16" width="44" height="56"></rect>
                                    <path d="M36.216,49.968 C36.216,39.888 29.448,34.992 20.232,34.992 C17.424,34.992 15.336,35.28 13.752,35.64 L14.112,29.448 L35.28,29.448 L33.48,18 L3.456,18 L1.8,45.072 L10.368,46.944 C12.096,46.224 14.112,45.648 16.776,45.648 C20.664,45.648 22.968,47.376 22.968,50.616 C22.968,54 19.872,56.016 15.552,56.016 C10.728,56.016 5.976,54.576 1.872,52.848 L0,64.44 C4.608,66.384 9.792,67.608 15.768,67.608 C27.864,67.608 36.216,61.488 36.216,49.968 Z" id="5" fill="url(#linearGradient-1)"></path>
                                </g>
                            </g>
                        </g>
                    </g>
                </g>
            </g>
        </g>
    </g>
</svg>