<?xml version="1.0" encoding="UTF-8"?>
<svg width="36px" height="51px" viewBox="0 0 36 51" version="1.1" xmlns="http://www.w3.org/2000/svg" xmlns:xlink="http://www.w3.org/1999/xlink">
    <!-- Generator: Sketch 47.1 (45422) - http://www.bohemiancoding.com/sketch -->
    <title>#3</title>
    <desc>Created with Sketch.</desc>
    <defs>
        <linearGradient x1="50%" y1="0%" x2="50%" y2="100%" id="linearGradient-1">
            <stop stop-color="#BFE0F2" offset="0%"></stop>
            <stop stop-color="#E1F1FA" offset="100%"></stop>
        </linearGradient>
    </defs>
    <g id="Page-1" stroke="none" stroke-width="1" fill="none" fill-rule="evenodd">
        <g id="#3" transform="translate(-6.000000, -17.000000)">
            <rect id="baseline" x="0" y="0" width="48" height="80"></rect>
            <path d="M41.712,53.248 C41.712,47.056 38.184,43.528 32.568,41.584 C37.536,39.64 40.992,36.616 40.992,30.208 C40.992,22.216 34.08,17.392 23.208,17.392 C16.656,17.392 10.608,19.336 6.792,21.856 L8.52,32.44 C12.192,30.136 16.584,28.696 20.832,28.696 C24.864,28.696 26.88,29.848 26.88,32.512 C26.88,35.104 24.792,37.048 18.384,37.048 L13.416,37.048 L15.072,47.056 L18.384,47.056 C25.224,47.056 27.744,48.568 27.744,52.024 C27.744,55.048 25.224,56.632 21.264,56.632 C16.512,56.632 11.76,55.264 7.8,53.32 L6.072,64.12 C10.32,66.424 16.152,67.936 22.92,67.936 C33.36,67.936 41.712,63.112 41.712,53.248 Z" id="3" fill="url(#linearGradient-1)"></path>
        </g>
    </g>
</svg>