<?xml version="1.0" encoding="UTF-8"?>
<svg width="24px" height="35px" viewBox="0 0 24 35" version="1.1" xmlns="http://www.w3.org/2000/svg" xmlns:xlink="http://www.w3.org/1999/xlink">
    <!-- Generator: Sketch 47.1 (45422) - http://www.bohemiancoding.com/sketch -->
    <title>#3_Mobile</title>
    <desc>Created with Sketch.</desc>
    <defs>
        <linearGradient x1="50%" y1="0%" x2="50%" y2="100%" id="linearGradient-1">
            <stop stop-color="#BFE0F2" offset="0%"></stop>
            <stop stop-color="#E1F1FA" offset="100%"></stop>
        </linearGradient>
    </defs>
    <g id="Page-1" stroke="none" stroke-width="1" fill="none" fill-rule="evenodd">
        <g id="#3_Mobile" transform="translate(-4.000000, -8.000000)">
            <rect id="Rectangle" x="0" y="0" width="32" height="48"></rect>
            <path d="M27.808,32.832 C27.808,28.704 25.456,26.352 21.712,25.056 C25.024,23.76 27.328,21.744 27.328,17.472 C27.328,12.144 22.72,8.928 15.472,8.928 C11.104,8.928 7.072,10.224 4.528,11.904 L5.68,18.96 C8.128,17.424 11.056,16.464 13.888,16.464 C16.576,16.464 17.92,17.232 17.92,19.008 C17.92,20.736 16.528,22.032 12.256,22.032 L8.944,22.032 L10.048,28.704 L12.256,28.704 C16.816,28.704 18.496,29.712 18.496,32.016 C18.496,34.032 16.816,35.088 14.176,35.088 C11.008,35.088 7.84,34.176 5.2,32.88 L4.048,40.08 C6.88,41.616 10.768,42.624 15.28,42.624 C22.24,42.624 27.808,39.408 27.808,32.832 Z" id="3" fill="url(#linearGradient-1)"></path>
        </g>
    </g>
</svg>