<?xml version="1.0" encoding="UTF-8"?>
<svg width="36px" height="51px" viewBox="0 0 36 51" version="1.1" xmlns="http://www.w3.org/2000/svg" xmlns:xlink="http://www.w3.org/1999/xlink">
    <!-- Generator: Sketch 47.1 (45422) - http://www.bohemiancoding.com/sketch -->
    <title>Number</title>
    <desc>Created with Sketch.</desc>
    <defs>
        <linearGradient x1="50%" y1="0%" x2="50%" y2="100%" id="linearGradient-1">
            <stop stop-color="#F3BFDA" offset="0%"></stop>
            <stop stop-color="#FAE1EF" offset="100%"></stop>
        </linearGradient>
    </defs>
    <g id="Page-1" stroke="none" stroke-width="1" fill="none" fill-rule="evenodd">
        <g id="Financial_Institutions_1440" transform="translate(-307.000000, -2420.000000)">
            <g id="Content" transform="translate(110.000000, 90.000000)">
                <g id="Top-5-Worst-Financial" transform="translate(0.000000, 1047.000000)">
                    <g id="Top-5-Worst-Banks" transform="translate(0.000000, 269.000000)">
                        <g id="3" transform="translate(150.000000, 901.000000)">
                            <g id="Number&amp;Title" transform="translate(45.000000, 96.000000)">
                                <g id="Number">
                                    <rect id="Rectangle-2" fill="#D8D8D8" opacity="0" x="0" y="16" width="44" height="56"></rect>
                                    <path d="M37.8,53.248 C37.8,47.056 34.272,43.528 28.656,41.584 C33.624,39.64 37.08,36.616 37.08,30.208 C37.08,22.216 30.168,17.392 19.296,17.392 C12.744,17.392 6.696,19.336 2.88,21.856 L4.608,32.44 C8.28,30.136 12.672,28.696 16.92,28.696 C20.952,28.696 22.968,29.848 22.968,32.512 C22.968,35.104 20.88,37.048 14.472,37.048 L9.504,37.048 L11.16,47.056 L14.472,47.056 C21.312,47.056 23.832,48.568 23.832,52.024 C23.832,55.048 21.312,56.632 17.352,56.632 C12.6,56.632 7.848,55.264 3.888,53.32 L2.16,64.12 C6.408,66.424 12.24,67.936 19.008,67.936 C29.448,67.936 37.8,63.112 37.8,53.248 Z" id="3" fill="url(#linearGradient-1)"></path>
                                </g>
                            </g>
                        </g>
                    </g>
                </g>
            </g>
        </g>
    </g>
</svg>