<?xml version="1.0" encoding="UTF-8"?>
<svg width="37px" height="50px" viewBox="0 0 37 50" version="1.1" xmlns="http://www.w3.org/2000/svg" xmlns:xlink="http://www.w3.org/1999/xlink">
    <!-- Generator: Sketch 47.1 (45422) - http://www.bohemiancoding.com/sketch -->
    <title>#2</title>
    <desc>Created with Sketch.</desc>
    <defs>
        <linearGradient x1="50%" y1="0%" x2="50%" y2="100%" id="linearGradient-1">
            <stop stop-color="#BFE0F2" offset="0%"></stop>
            <stop stop-color="#E1F1FA" offset="100%"></stop>
        </linearGradient>
    </defs>
    <g id="Page-1" stroke="none" stroke-width="1" fill="none" fill-rule="evenodd">
        <g id="#2" transform="translate(-6.000000, -17.000000)">
            <rect id="baseline" x="0" y="0" width="48" height="80"></rect>
            <path d="M42.072,67 L40.272,55.84 L23.496,55.84 L31.488,48.496 C37.392,43.024 40.992,38.632 40.992,31.648 C40.992,22.792 34.656,17.608 24.36,17.608 C17.16,17.608 11.976,19.48 7.584,22.144 L9.24,34.024 C13.56,31.216 17.952,29.416 21.984,29.416 C25.224,29.416 27.168,30.928 27.168,33.376 C27.168,36.256 25.584,38.2 22.848,40.936 L6.576,56.92 L6.576,67 L42.072,67 Z" id="2" fill="url(#linearGradient-1)"></path>
        </g>
    </g>
</svg>