<?xml version="1.0" encoding="UTF-8"?>
<svg width="25px" height="33px" viewBox="0 0 25 33" version="1.1" xmlns="http://www.w3.org/2000/svg" xmlns:xlink="http://www.w3.org/1999/xlink">
    <!-- Generator: Sketch 47.1 (45422) - http://www.bohemiancoding.com/sketch -->
    <title>#2_Mobile</title>
    <desc>Created with Sketch.</desc>
    <defs>
        <linearGradient x1="50%" y1="0%" x2="50%" y2="100%" id="linearGradient-1">
            <stop stop-color="#BFE0F2" offset="0%"></stop>
            <stop stop-color="#E1F1FA" offset="100%"></stop>
        </linearGradient>
    </defs>
    <g id="Page-1" stroke="none" stroke-width="1" fill="none" fill-rule="evenodd">
        <g id="#2_Mobile" transform="translate(-4.000000, -9.000000)">
            <rect id="Rectangle" x="0" y="0" width="32" height="48"></rect>
            <path d="M28.048,42 L26.848,34.56 L15.664,34.56 L20.992,29.664 C24.928,26.016 27.328,23.088 27.328,18.432 C27.328,12.528 23.104,9.072 16.24,9.072 C11.44,9.072 7.984,10.32 5.056,12.096 L6.16,20.016 C9.04,18.144 11.968,16.944 14.656,16.944 C16.816,16.944 18.112,17.952 18.112,19.584 C18.112,21.504 17.056,22.8 15.232,24.624 L4.384,35.28 L4.384,42 L28.048,42 Z" id="2" fill="url(#linearGradient-1)"></path>
        </g>
    </g>
</svg>