<?xml version="1.0" encoding="UTF-8"?>
<svg width="320px" height="320px" viewBox="0 0 320 320" version="1.1" xmlns="http://www.w3.org/2000/svg" xmlns:xlink="http://www.w3.org/1999/xlink">
    <!-- Generator: Sketch 47.1 (45422) - http://www.bohemiancoding.com/sketch -->
    <title>Page 1</title>
    <desc>Created with Sketch.</desc>
    <defs>
        <polygon id="path-1" points="4.06904657e-16 12.108566 4.06904657e-16 0.398217402 11.6800961 0.398217402 11.6800961 12.108566"></polygon>
    </defs>
    <g id="Page-1" stroke="none" stroke-width="1" fill="none" fill-rule="evenodd">
        <g id="Financial_Institutions_1440" transform="translate(-965.000000, -1208.000000)">
            <g id="Content" transform="translate(110.000000, 90.000000)">
                <g id="Group-12" transform="translate(46.000000, 1076.000000)">
                    <g id="Page-1" transform="translate(809.000000, 42.000000)">
                        <g id="Group-11" transform="translate(2.000000, 12.037618)">
                            <path d="M148.363363,294.282998 L148.363363,299.080693 C148.363363,300.359886 148.86018,301.565817 149.762523,302.474843 C150.664865,303.379051 151.867027,303.878389 153.146066,303.878389 L167.921802,303.878389 C169.19988,303.878389 170.403003,303.379051 171.308228,302.470988 C172.211532,301.564853 172.709309,300.359886 172.709309,299.080693 L172.709309,294.282998 L148.363363,294.282998 Z M153.146066,307.252296 C150.969489,307.252296 148.922643,306.402071 147.382222,304.85875 C145.844685,303.30868 145,301.257345 145,299.080693 L145,290.909091 L176.072673,290.909091 L176.072673,299.080693 C176.072673,301.261201 175.225105,303.312536 173.686607,304.857786 C172.144264,306.402071 170.097417,307.252296 167.921802,307.252296 L153.146066,307.252296 Z" id="Fill-15" fill="#1DB1F1"></path>
                            <path d="M258.571003,289.029005 C255.931243,289.029005 253.783495,291.181558 253.783495,293.826701 C253.783495,296.472808 255.931243,298.624396 258.571003,298.624396 C261.20788,298.624396 263.353706,296.472808 263.353706,293.826701 C263.353706,291.181558 261.20788,289.029005 258.571003,289.029005 M258.571003,301.998303 C254.076589,301.998303 250.420132,298.332313 250.420132,293.826701 C250.420132,289.321089 254.076589,285.655099 258.571003,285.655099 C263.062535,285.655099 266.717069,289.321089 266.717069,293.826701 C266.717069,298.332313 263.062535,301.998303 258.571003,301.998303" id="Fill-39" fill="#6CA3C3"></path>
                            <path d="M297.168961,170.872571 C293.196348,170.872571 289.963676,174.114414 289.963676,178.100444 C289.963676,182.092258 293.196348,185.339884 297.168961,185.339884 C301.145417,185.339884 304.380012,182.092258 304.380012,178.100444 C304.380012,174.114414 301.145417,170.872571 297.168961,170.872571 M297.168961,188.713791 C291.341694,188.713791 286.600312,183.952726 286.600312,178.100444 C286.600312,172.254909 291.341694,167.498665 297.168961,167.498665 C302.999111,167.498665 307.743375,172.254909 307.743375,178.100444 C307.743375,183.952726 302.999111,188.713791 297.168961,188.713791" id="Fill-43" fill="#D5ADBD"></path>
                            <path d="M302.400817,266.712636 C301.460997,266.712636 300.697994,267.483815 300.697994,268.431401 C300.697994,269.374167 301.460997,270.140525 302.400817,270.140525 C303.342559,270.140525 304.109405,269.374167 304.109405,268.431401 C304.109405,267.483815 303.342559,266.712636 302.400817,266.712636 M302.400817,273.514432 C299.607303,273.514432 297.334631,271.233671 297.334631,268.431401 C297.334631,265.623346 299.607303,263.338729 302.400817,263.338729 C305.198174,263.338729 307.472769,265.623346 307.472769,268.431401 C307.472769,271.233671 305.198174,273.514432 302.400817,273.514432" id="Fill-53" fill="#6CA3C3"></path>
                            <path d="M295.671207,61.4361441 L303.590486,61.4361441 L307.55445,54.560122 L303.590486,47.6831359 L295.671207,47.6831359 L291.712048,54.560122 L295.671207,61.4361441 Z M305.531628,64.8100509 L293.729105,64.8100509 L287.827844,54.560122 L293.729105,44.3092291 L305.531628,44.3092291 L311.439616,54.560122 L305.531628,64.8100509 Z" id="Fill-76" fill="#D6E2EC"></path>
                            <path d="M163.411459,25.9207621 L171.329778,25.9207621 L175.289898,19.0437761 L171.329778,12.1571503 L163.411459,12.1571503 L159.446535,19.0437761 L163.411459,25.9207621 Z M173.27188,29.294669 L161.470318,29.294669 L155.56233,19.045704 L161.470318,8.78324343 L173.27188,8.78324343 L179.173141,19.045704 L173.27188,29.294669 Z" id="Fill-77" fill="#6CA3C3"></path>
                            <path d="M178.202667,17.357883 L186.120024,17.357883 L190.081105,10.4702932 L186.120024,3.59427114 L178.201706,3.59427114 L174.242547,10.4702932 L178.202667,17.357883 Z M188.062126,20.7317898 L176.260565,20.7317898 L170.359303,10.4693293 L176.260565,0.220364314 L188.062126,0.220364314 L193.964348,10.4693293 L188.062126,20.7317898 Z" id="Fill-78" fill="#6CA3C3"></path>
                            <polygon id="Fill-79" fill="#6CA3C3" points="160.98561 11.3152159 158.514018 7.03421013 161.424769 5.34340083 163.89636 9.6244066"></polygon>
                            <polygon id="Fill-80" fill="#6CA3C3" points="188.101333 24.1706685 185.635508 19.8896627 188.547219 18.2007813 191.013045 22.4817871"></polygon>
                            <path d="M271.300949,95.499975 L279.218306,95.499975 L283.178426,88.6123852 L279.219267,81.7363631 L271.299988,81.7363631 L267.338907,88.6123852 L271.300949,95.499975 Z M281.161369,98.8738818 L269.358847,98.8738818 L263.454703,88.6114212 L269.359808,78.3624562 L281.160408,78.3624562 L287.06167,88.6114212 L281.161369,98.8738818 Z" id="Fill-81" fill="#6CA3C3"></path>
                            <polygon id="Fill-82" fill="#6CA3C3" points="281.64627 80.8925972 278.733598 79.2056438 281.199423 74.923674 284.112096 76.6106274"></polygon>
                            <path d="M20.8513634,106.018081 C18.9294414,106.018081 17.1209129,106.768053 15.7601922,108.131111 C12.958991,110.944949 12.958991,115.527679 15.7621141,118.345373 C17.1218739,119.709395 18.9294414,120.46033 20.8513634,120.46033 C22.7732853,120.46033 24.5789309,119.709395 25.9367688,118.345373 C28.7446967,115.527679 28.7446967,110.945913 25.9377297,108.130147 C24.5798919,106.768053 22.7732853,106.018081 20.8513634,106.018081 M20.8513634,123.834237 C18.0319039,123.834237 15.3786907,122.732416 13.3827748,120.730243 C9.27082282,116.597689 9.27082282,109.875903 13.3818138,105.746241 C15.3796517,103.745032 18.0319039,102.644174 20.8513634,102.644174 C23.6717838,102.644174 26.3230751,103.745996 28.3161081,105.745277 C32.4338258,109.874939 32.4347868,116.597689 28.3161081,120.730243 C26.324036,122.732416 23.6727447,123.834237 20.8513634,123.834237" id="Fill-94" fill="#6CA3C3"></path>
                            <polygon id="Fill-95" fill="#6CA3C3" points="3.20590991 133.318097 0.827531532 130.932262 13.3824865 118.344698 15.7608649 120.729568"></polygon>
                        </g>
                        <path d="M23.5208649,278.80162 L23.4516757,278.780413 C22.5166607,278.488329 22.0553994,277.453986 22.4320961,276.546887 C22.4407447,276.525679 22.4493934,276.505436 22.458042,276.484228 C22.8241682,275.610869 23.8668108,275.243595 24.7095736,275.671599 L24.7768408,275.705338 C25.5552192,276.100567 25.8742583,277.030801 25.5388829,277.838611 C25.5321562,277.854035 25.5254294,277.870422 25.5187027,277.885846 C25.1977417,278.663772 24.3223063,279.05129 23.5208649,278.80162 Z M299.628973,130.982293 L299.61648,130.560072 C299.591495,129.730091 300.25648,129.044706 301.083868,129.037958 C301.228973,129.03603 301.373117,129.03603 301.5163,129.035066 C302.346571,129.035066 303.010595,129.720451 302.989453,130.552361 L302.977922,130.975545 C302.956781,131.772751 302.312937,132.408973 301.517261,132.409937 C301.381766,132.410901 301.24627,132.410901 301.108853,132.411865 C300.311255,132.418613 299.652036,131.782391 299.628973,130.982293 Z M292.936841,131.461387 L292.890715,131.042059 C292.803267,130.226538 293.397141,129.489098 294.211075,129.41198 C294.361946,129.39752 294.512817,129.384025 294.662727,129.370529 C295.476661,129.297267 296.187772,129.917102 296.248312,130.734551 L296.279063,131.155808 C296.338643,131.963618 295.739964,132.66057 294.93564,132.733832 C294.807832,132.7454 294.678102,132.756968 294.548372,132.769499 C293.744048,132.844689 293.023327,132.267269 292.936841,131.461387 Z M307.921105,132.862041 C307.806751,132.842761 307.690474,132.824446 307.572276,132.807094 C306.791015,132.690453 306.232697,131.983861 306.314378,131.195331 L306.358583,130.775038 C306.445069,129.942165 307.209033,129.342574 308.034498,129.464999 C308.19594,129.489098 308.355459,129.514161 308.513057,129.540188 C309.341405,129.676109 309.877622,130.492594 309.696961,131.314863 L309.60567,131.727444 C309.43558,132.496695 308.696601,132.987357 307.921105,132.862041 Z M286.281225,132.368486 L286.214919,131.95205 C286.084228,131.14424 286.63582,130.378845 287.443027,130.256421 C287.589093,130.234249 287.73612,130.212078 287.882186,130.19087 C288.689393,130.070374 289.435099,130.641046 289.546571,131.452712 L289.603267,131.870112 C289.712817,132.674066 289.15642,133.410542 288.356901,133.530074 C288.22621,133.549354 288.094559,133.569597 287.962907,133.588877 C287.163387,133.711301 286.410955,133.169548 286.281225,132.368486 Z M279.671736,133.578273 L279.588132,133.163764 C279.426691,132.361739 279.947532,131.578028 280.747051,131.422828 C280.891195,131.394873 281.034378,131.366918 281.177562,131.338963 C281.978042,131.185691 282.747772,131.719732 282.894799,132.523686 L282.971676,132.939159 C283.117742,133.738293 282.594018,134.502723 281.799303,134.655995 C281.66573,134.681058 281.533117,134.707086 281.399544,134.733113 C280.604829,134.887349 279.831255,134.374515 279.671736,133.578273 Z M313.574438,134.734077 C313.513898,134.696482 313.452396,134.658887 313.388973,134.622256 C312.740324,134.240523 312.452036,133.451028 312.747051,132.756968 L312.915219,132.361739 C313.253477,131.565497 314.212517,131.208826 314.962066,131.637795 C315.129273,131.733228 315.292637,131.831553 315.451195,131.93277 C316.224769,132.424397 316.380444,133.490551 315.770234,134.175936 L315.487712,134.49212 C314.998583,135.040621 314.198102,135.121594 313.574438,134.734077 Z M273.103568,135.012665 L273.007471,134.602013 C272.822967,133.806735 273.318823,133.008565 274.112577,132.827338 C274.253838,132.795527 274.395099,132.762751 274.53636,132.73094 C275.331075,132.551641 276.118102,133.058691 276.292036,133.857825 L276.382366,134.270406 C276.555339,135.063756 276.056601,135.846502 275.26573,136.024837 C275.133117,136.054721 275.000505,136.084604 274.866931,136.115451 C274.077021,136.295714 273.288072,135.805051 273.103568,135.012665 Z M266.576721,136.630213 L266.471015,136.222452 C266.265369,135.431994 266.740084,134.622256 267.529994,134.419822 C267.669333,134.384155 267.809634,134.348488 267.948973,134.313785 C268.738883,134.113278 269.538402,134.598157 269.733477,135.391507 L269.834378,135.801196 C270.029453,136.59069 269.551856,137.386932 268.76579,137.586474 C268.633177,137.620213 268.500565,137.653952 268.367952,137.687691 C267.581886,137.888198 266.780444,137.417779 266.576721,136.630213 Z M260.088312,138.399104 L259.972997,137.992307 C259.751976,137.206669 260.209393,136.387291 260.993538,136.168469 C261.131916,136.12991 261.270294,136.091352 261.408673,136.052793 C262.192817,135.835899 263.002907,136.301498 263.217201,137.090028 L263.327712,137.496825 C263.540084,138.282463 263.080745,139.090273 262.298523,139.307167 C262.16591,139.343798 262.033297,139.380429 261.900685,139.418024 C261.119423,139.634918 260.308372,139.18185 260.088312,138.399104 Z M253.634498,140.292348 L253.512456,139.888443 C253.27606,139.10666 253.718102,138.279571 254.498402,138.04629 C254.63582,138.004839 254.773237,137.963388 254.910655,137.922901 C255.690955,137.690583 256.509694,138.140759 256.738402,138.924469 L256.856601,139.329338 C257.084348,140.111121 256.639423,140.927606 255.862006,141.15896 C255.730354,141.198482 255.597742,141.238005 255.46609,141.277528 C254.688673,141.509846 253.868973,141.071238 253.634498,140.292348 Z M247.214318,142.29934 L247.084589,141.894471 C246.836661,141.117509 247.265249,140.283672 248.040745,140.036895 C248.177201,139.99448 248.313658,139.951101 248.450114,139.907722 C249.226571,139.662873 250.052036,140.099553 250.294198,140.878443 L250.420084,141.28524 C250.660324,142.060275 250.237502,142.880616 249.464889,143.124501 C249.331315,143.166916 249.198703,143.208367 249.065129,143.250782 C248.292517,143.496595 247.461285,143.073411 247.214318,142.29934 Z M240.823928,144.40273 L240.690354,144.002681 C240.430895,143.227646 240.853718,142.385134 241.62633,142.126789 C241.760865,142.082446 241.894438,142.037139 242.028973,141.992797 C242.802547,141.735416 243.630895,142.162456 243.884589,142.938454 L244.01624,143.340431 C244.268012,144.112574 243.856721,144.939663 243.086991,145.195116 C242.954378,145.239459 242.821766,145.283802 242.688192,145.328144 C241.919423,145.584561 241.082426,145.173909 240.823928,144.40273 Z M234.464288,146.595769 L234.323988,146.196684 C234.053958,145.425506 234.465249,144.577209 235.234979,144.308261 C235.368553,144.26199 235.501165,144.215719 235.634739,144.169448 C236.404468,143.901464 237.239544,144.315972 237.503808,145.089079 L237.640264,145.489128 C237.903568,146.257415 237.502847,147.091252 236.736961,147.357308 C236.604348,147.403579 236.471736,147.44985 236.340084,147.496121 C235.574198,147.763141 234.732396,147.363092 234.464288,146.595769 Z M228.131556,148.866891 L227.987411,148.469734 C227.708733,147.702411 228.108492,146.850258 228.873417,146.572634 C229.00603,146.524435 229.138643,146.476237 229.271255,146.428038 C230.037141,146.151378 230.877021,146.553355 231.151856,147.321641 L231.294078,147.719762 C231.567952,148.485157 231.177802,149.325742 230.414799,149.602402 C230.282186,149.649637 230.150535,149.697836 230.018883,149.746034 C229.25588,150.022695 228.409273,149.631322 228.131556,148.866891 Z M222.34561,152.59072 L221.15594,149.435635 C222.214919,149.033658 223.268132,148.638429 224.316541,148.248984 L225.48603,151.41178 C224.444348,151.799298 223.397862,152.192599 222.34561,152.59072 Z M216.081105,155.002581 L214.858763,151.860992 C215.911976,151.447447 216.960384,151.040651 218.003988,150.638674 L219.209994,153.788939 C218.172156,154.188988 217.128553,154.593857 216.081105,155.002581 Z M209.841586,157.481921 L208.586571,154.350935 C209.63594,153.927751 210.680505,153.51035 211.720264,153.096806 L212.957021,156.235503 C211.923027,156.645192 210.884228,157.060664 209.841586,157.481921 Z M203.625129,160.021991 L202.341285,156.903537 C203.384889,156.471677 204.424649,156.044636 205.460565,155.619524 L206.731916,158.742798 C205.699844,159.165982 204.663928,159.591095 203.625129,160.021991 Z M197.432697,162.619899 L196.120985,159.513013 C197.160745,159.071513 198.1957,158.633869 199.227772,158.201045 L200.52603,161.312751 C199.498763,161.744611 198.467652,162.180327 197.432697,162.619899 Z M191.264288,165.27661 L189.924709,162.181291 C190.958703,161.730151 191.990775,161.282868 193.019964,160.840404 L194.345129,163.941506 C193.321706,164.382042 192.294438,164.827398 191.264288,165.27661 Z M185.118943,167.987303 L183.752456,164.90548 C184.782607,164.445664 185.809874,163.990669 186.834258,163.537602 L188.190174,166.625208 C187.168673,167.076348 186.145249,167.530379 185.118943,167.987303 Z M178.998583,170.751014 L177.603267,167.680759 C178.630535,167.211304 179.654919,166.746669 180.677381,166.28589 L182.054438,169.363857 C181.037742,169.821744 180.019123,170.284451 178.998583,170.751014 Z M172.898402,173.565817 L171.480024,170.506165 C172.502486,170.029962 173.522066,169.556651 174.539724,169.087196 L175.94561,172.151668 C174.931796,172.620159 173.91606,173.091542 172.898402,173.565817 Z M166.822246,176.432673 L165.378883,173.38459 C166.396541,172.899711 167.412276,172.417724 168.427051,171.939594 L169.857922,174.993461 C168.847952,175.469664 167.83606,175.949723 166.822246,176.432673 Z M160.769153,179.345801 L159.301766,176.311213 C160.31558,175.817658 161.326511,175.32796 162.337441,174.842117 L163.793297,177.882489 C162.787171,178.367368 161.779123,178.855139 160.769153,179.345801 Z M154.741045,182.310983 L153.248673,179.286999 C154.152937,178.837787 155.059123,178.389539 155.970114,177.941292 L156.265129,177.795732 L157.758462,180.819716 L157.457682,180.968168 C156.544769,181.41738 155.641465,181.863699 154.741045,182.310983 Z M147.993177,183.832133 L147.977802,183.801286 C147.563628,182.977089 147.891315,181.9707 148.713898,181.556192 C148.724468,181.551372 148.734078,181.546552 148.744649,181.540768 C149.567231,181.12626 150.572396,181.460759 150.983688,182.286884 L150.999063,182.316767 C151.409393,183.140964 151.074979,184.142533 150.254318,184.556077 C150.243748,184.560897 150.234138,184.566681 150.224529,184.571501 C149.403868,184.985045 148.407351,184.654402 147.993177,183.832133 Z M142.000625,186.898532 L141.985249,186.868649 C141.563387,186.047344 141.883387,185.038064 142.703087,184.616807 C142.712697,184.611024 142.723267,184.606204 142.732877,184.601384 C143.552577,184.179163 144.560625,184.50595 144.979604,185.329184 L144.994018,185.359067 C145.411075,186.180372 145.084348,187.182905 144.267532,187.603197 C144.256961,187.608017 144.247351,187.613801 144.236781,187.618621 C143.419964,188.038913 142.421526,187.716946 142.000625,186.898532 Z M136.032096,190.01313 L136.016721,189.984211 C135.589093,189.166762 135.900444,188.155554 136.7163,187.727549 C136.72591,187.721766 136.73648,187.716946 136.74609,187.711162 C137.561946,187.283158 138.572877,187.600305 138.997622,188.419682 L139.012997,188.448602 C139.437742,189.266051 139.119664,190.273403 138.30573,190.700443 C138.295159,190.705263 138.28555,190.711047 138.274979,190.715867 C137.461045,191.142907 136.459724,190.828652 136.032096,190.01313 Z M130.090474,193.179783 L130.075099,193.150864 C129.639784,192.336306 129.941526,191.322206 130.754498,190.88649 C130.764108,190.88167 130.774679,190.875887 130.784288,190.871067 C131.5963,190.435351 132.611075,190.74575 133.042547,191.561272 L133.057922,191.591155 C133.488432,192.404748 133.178042,193.414028 132.367952,193.846852 C132.358342,193.852636 132.348733,193.857456 132.338162,193.86324 C131.528072,194.297028 130.524829,193.991449 130.090474,193.179783 Z M124.311255,196.644303 L124.023928,196.117974 C123.656841,195.44512 123.899964,194.60068 124.571676,194.233406 C124.747532,194.137972 124.922426,194.041575 125.098282,193.945178 C125.769994,193.578868 126.614679,193.827573 126.978883,194.502354 L127.922547,196.246182 C127.340204,196.562366 126.760745,196.878549 126.183207,197.195696 C125.513417,197.562006 124.678342,197.315229 124.311255,196.644303 Z M118.428252,199.912173 L118.13612,199.388735 C117.763267,198.719738 117.998703,197.873369 118.666571,197.499348 C118.841465,197.401986 119.01636,197.304625 119.191255,197.207264 C119.860084,196.834206 120.706691,197.076163 121.077622,197.748053 L121.366871,198.272454 C121.73588,198.941452 121.491796,199.784929 120.824889,200.156058 C120.650955,200.25342 120.477021,200.349817 120.303087,200.447178 C119.637141,200.819272 118.800144,200.580207 118.428252,199.912173 Z M112.574078,203.234989 L112.277141,202.714444 C111.898523,202.048338 112.125309,201.200041 112.790294,200.820236 C112.964228,200.720947 113.138162,200.621657 113.312096,200.522368 C113.977081,200.143527 114.827532,200.377772 115.203267,201.045806 L115.498282,201.568279 C115.873057,202.233421 115.6357,203.078826 114.973598,203.456703 C114.799664,203.555028 114.626691,203.654318 114.453718,203.752643 C113.790655,204.131484 112.952697,203.899167 112.574078,203.234989 Z M106.752577,206.611788 L106.450835,206.094134 C106.064529,205.430921 106.284589,204.580696 106.94573,204.194143 C107.118703,204.09389 107.290715,203.992672 107.463688,203.892419 C108.12579,203.50683 108.978162,203.733363 109.360625,204.397541 L109.659483,204.917123 C110.040985,205.579372 109.811315,206.425741 109.152096,206.810366 C108.980084,206.91062 108.808072,207.010873 108.637021,207.111126 C107.977802,207.495752 107.137922,207.27211 106.752577,206.611788 Z M100.963748,210.045461 L100.657201,209.530699 C100.265129,208.872306 100.474619,208.020153 101.131916,207.627816 C101.303928,207.525635 101.47594,207.42249 101.647952,207.320308 C102.305249,206.927971 103.160505,207.144865 103.549694,207.805187 L103.854318,208.320913 C104.242547,208.979307 104.021526,209.829531 103.36615,210.21994 C103.195099,210.322121 103.024048,210.424303 102.852997,210.526484 C102.197622,210.917857 101.354859,210.701927 100.963748,210.045461 Z M95.2114354,213.538901 L94.8991231,213.027995 C94.4993634,212.373457 94.7002042,211.517448 95.3536577,211.118364 C95.5237477,211.01329 95.6947988,210.909181 95.8668108,210.805072 C96.5202643,210.405987 97.3774414,210.615169 97.7743183,211.271635 L98.0837477,211.784469 C98.4777417,212.438043 98.2653694,213.290196 97.6147988,213.687353 C97.4437477,213.791462 97.2736577,213.895571 97.1045285,213.99968 C96.453958,214.397801 95.6092733,214.190547 95.2114354,213.538901 Z M89.4975616,217.09789 L89.1794835,216.589876 C88.772036,215.940158 88.9623063,215.083186 89.610955,214.676389 C89.781045,214.569388 89.9511351,214.463351 90.1212252,214.35635 C90.7708348,213.950517 91.6308949,214.149096 92.0344985,214.801706 L92.3496937,215.311648 C92.7513754,215.960402 92.5476517,216.814482 91.9009249,217.219351 C91.7317958,217.325388 91.5626667,217.431425 91.3944985,217.536498 C90.7487327,217.942331 89.9030871,217.744717 89.4975616,217.09789 Z M83.825009,220.720502 L83.5011652,220.217308 C83.086991,219.571446 83.2666907,218.71351 83.9105345,218.298037 C84.0787027,218.190072 84.2468709,218.082107 84.416,217.973178 C85.0608048,217.559634 85.9237477,217.747608 86.335039,218.394435 L86.656,218.899557 C87.0653694,219.544455 86.8722162,220.402391 86.2302943,220.814008 C86.0621261,220.921973 85.8949189,221.029938 85.7277117,221.137903 C85.0857898,221.551447 84.2382222,221.363473 83.825009,220.720502 Z M78.1995435,224.41734 L77.868973,223.918002 C77.4451892,223.278888 77.6143183,222.417095 78.2523964,221.993911 C78.4196036,221.884018 78.5868108,221.773161 78.754018,221.662304 C79.3930571,221.240084 80.2598438,221.416491 80.6788228,222.058497 L81.0065105,222.560727 C81.4245285,223.199842 81.240985,224.059706 80.6048288,224.479998 C80.4385826,224.589891 80.2723363,224.699784 80.1060901,224.809677 C79.4708949,225.230934 78.6214054,225.054527 78.1995435,224.41734 Z M72.62597,228.189368 L72.2877117,227.693886 C71.8552793,227.059591 72.010955,226.196835 72.6442282,225.764975 C72.8095135,225.65219 72.9747988,225.539405 73.141045,225.425656 C73.7743183,224.99476 74.643988,225.158636 75.0725766,225.795822 L75.406991,226.293232 C75.8326967,226.927527 75.6606847,227.788355 75.0302943,228.217323 C74.865009,228.330108 74.7006847,228.441929 74.5363604,228.55375 C73.9069309,228.983682 73.0564805,228.819807 72.62597,228.189368 Z M67.1100541,232.046226 L66.7631471,231.554599 C66.3211051,230.92898 66.4671712,230.061404 67.0927568,229.619905 C67.2570811,229.503264 67.4223664,229.386623 67.5886126,229.269982 C68.2141982,228.829446 69.0790631,228.982718 69.5172613,229.612193 L69.8603243,230.105747 C70.2966006,230.73233 70.1370811,231.597014 69.5134174,232.036586 C69.3500541,232.151299 69.1876517,232.266011 69.0252492,232.380724 C68.4025465,232.820296 67.5501742,232.668952 67.1100541,232.046226 Z M36.8529017,257.365971 L36.7981269,257.311989 C36.1456344,256.673839 36.13122,255.619252 36.7769858,254.972426 C36.8010098,254.94929 36.8250338,254.925191 36.8490579,254.901091 C37.4948236,254.256193 38.5461149,254.272581 39.1813101,254.929047 L39.234163,254.983993 C39.8635924,255.633711 39.8462951,256.668055 39.2062951,257.307169 C39.1938026,257.319701 39.1813101,257.332232 39.1688176,257.344764 C38.5297786,257.984842 37.4996284,257.998338 36.8529017,257.365971 Z M32.3113754,261.522965 L32.2527568,261.472838 C31.5483724,260.879031 31.4638078,259.820588 32.0711351,259.125563 C32.0884324,259.106284 32.1057297,259.08604 32.123027,259.065797 C32.7303544,258.371736 33.7902943,258.311006 34.4706547,258.933732 L34.5273514,258.985787 C35.1884925,259.590198 35.2423063,260.61683 34.6513153,261.291611 C34.634979,261.310891 34.6176817,261.329206 34.6013453,261.348486 C34.0113153,262.023267 32.9965405,262.099421 32.3113754,261.522965 Z M28.1220421,266.594051 L28.0576577,266.5526 C27.2744745,266.04555 27.0611412,264.989035 27.5963965,264.22364 C27.6108109,264.202433 27.6261863,264.180261 27.6415616,264.159054 C28.1758559,263.396551 29.2377178,263.224964 29.9805406,263.785032 L30.0420421,263.831303 C30.7502703,264.365344 30.9040241,265.369804 30.3947148,266.09664 C30.3803004,266.116884 30.3668469,266.136163 30.3524325,266.156407 C29.8460061,266.882279 28.863904,267.074109 28.1220421,266.594051 Z M25.5216896,272.782812 L25.4525004,272.761604 C24.5174854,272.46952 24.0552632,271.435177 24.4319599,270.528078 C24.4406085,270.506871 24.4492572,270.486627 24.4588668,270.46542 C24.824032,269.59206 25.8666746,269.224786 26.7094374,269.65279 L26.7767046,269.686529 C27.555083,270.081758 27.875083,271.011993 27.5397076,271.819802 C27.5329809,271.835226 27.5262542,271.851613 27.5195275,271.867037 C27.1985665,272.644963 26.3221701,273.032481 25.5216896,272.782812 Z" id="Fill-1" fill="#41464B"></path>
                        <path d="M312.867844,259.368123 L309.72358,258.16894 C312.073129,251.972519 300.070727,239.877545 277.616913,225.813174 C253.828324,210.913037 220.673249,195.049891 184.258595,181.146503 C147.848745,167.246971 112.570907,156.983547 84.925982,152.248509 C58.83397,147.777601 41.8499459,148.809052 39.4975135,155.004509 L36.3542102,153.803398 C40.272048,143.485027 65.2378138,145.453461 85.491988,148.922801 C113.346402,153.693505 148.847183,164.01766 185.454991,177.992382 C222.067604,191.972888 255.430246,207.939179 279.398535,222.952101 C296.826523,233.868135 316.780877,249.047824 312.867844,259.368123" id="Fill-3" fill="#222B43"></path>
                        <path d="M197.514474,270.528236 L194.151111,270.528236 L194.151111,259.430974 C194.151111,240.329842 202.24048,221.97868 216.345465,209.083608 L218.812252,206.938768 C236.04997,191.141172 245.955556,168.629502 245.955556,145.205913 C245.955556,99.1048498 208.566486,61.5908618 162.609489,61.5792942 C116.645766,61.5908618 79.24997,99.1048498 79.24997,145.205913 C79.24997,168.632394 89.1565165,191.144064 106.427868,206.969615 L108.836036,209.055653 C122.970811,221.979644 131.061141,240.330806 131.061141,259.430974 L131.061141,270.528236 L127.697778,270.528236 L127.697778,259.430974 C127.697778,241.277427 120.008168,223.834329 106.600841,211.576444 L104.192673,209.490405 C86.191952,192.997785 75.8866066,169.578052 75.8866066,145.205913 C75.8866066,97.2453452 114.79015,58.216955 162.609489,58.2053873 C210.422102,58.216955 249.318919,97.2453452 249.318919,145.205913 C249.318919,169.574196 239.013574,192.993929 221.045526,209.460522 L218.577778,211.606327 C205.203123,223.834329 197.514474,241.276463 197.514474,259.430974 L197.514474,270.528236 Z" id="Fill-5" fill="#222B43"></path>
                        <path d="M135.134751,305.8648 C131.955892,305.8648 129.379556,303.280388 129.379556,300.091564 L129.379556,270.528428 C129.379556,267.339604 131.955892,270.528428 135.134751,270.528428 L190.077694,270.528428 C193.256553,270.528428 195.832889,267.339604 195.832889,270.528428 L195.832889,300.091564 C195.832889,303.280388 193.256553,305.8648 190.077694,305.8648 L135.134751,305.8648 Z" id="Fill-7" fill="#1DB1F1"></path>
                        <path d="M200.342486,272.215189 L124.869574,272.215189 C123.940324,272.215189 123.187892,271.459434 123.187892,270.528236 L123.187892,270.528236 C123.187892,269.596073 123.940324,268.841282 124.869574,268.841282 L200.342486,268.841282 C201.270775,268.841282 202.024168,269.596073 202.024168,270.528236 L202.024168,270.528236 C202.024168,271.459434 201.270775,272.215189 200.342486,272.215189" id="Fill-9" fill="#222B43"></path>
                        <path d="M200.342486,279.162545 L124.869574,279.162545 C123.940324,279.162545 123.187892,278.40679 123.187892,277.475592 L123.187892,277.475592 C123.187892,276.543429 123.940324,275.788638 124.869574,275.788638 L200.342486,275.788638 C201.270775,275.788638 202.024168,276.543429 202.024168,277.475592 L202.024168,277.475592 C202.024168,278.40679 201.270775,279.162545 200.342486,279.162545" id="Fill-11" fill="#222B43"></path>
                        <path d="M200.342486,286.11742 L124.869574,286.11742 C123.940324,286.11742 123.187892,285.361665 123.187892,284.430467 L123.187892,284.430467 C123.187892,283.498305 123.940324,282.743513 124.869574,282.743513 L200.342486,282.743513 C201.270775,282.743513 202.024168,283.498305 202.024168,284.430467 L202.024168,284.430467 C202.024168,285.361665 201.270775,286.11742 200.342486,286.11742" id="Fill-13" fill="#222B43"></path>
                        <path d="M98.8724084,145.206009 C98.8724084,180.507678 127.411027,209.135759 162.602378,209.135759 C197.796613,209.135759 226.339075,180.507678 226.339075,145.206009 C226.339075,109.90434 197.796613,81.2762586 162.602378,81.2762586 C127.411027,81.2762586 98.8724084,109.90434 98.8724084,145.206009" id="Fill-17" fill="#FFDE79"></path>
                        <path d="M161.853213,187.524826 L163.36961,187.524826 C164.062462,187.524826 164.659219,187.034163 164.794715,186.352634 L166.238078,179.084275 C166.358198,178.480828 166.843483,178.017156 167.450811,177.927507 L167.611291,177.904372 C169.931051,177.561197 172.275796,176.935578 174.58018,176.041011 L174.729129,175.983173 C175.296096,175.762423 175.940901,175.920514 176.342583,176.378402 L181.232913,181.942456 C181.689369,182.463002 182.449489,182.587354 183.048168,182.241288 L184.362763,181.481677 C184.962402,181.133682 185.235315,180.410702 185.013333,179.752309 L182.644565,172.722051 C182.449489,172.142703 182.635916,171.50166 183.111592,171.118963 L183.111592,171.118963 C185.072913,169.539975 186.855495,167.75084 188.428589,165.782406 L188.436276,165.772767 C188.818739,165.294636 189.456817,165.107625 190.035315,165.303312 L197.052252,167.682398 C197.70955,167.905076 198.432192,167.630343 198.777177,167.025932 L199.533453,165.702397 C199.876517,165.101841 199.751592,164.34223 199.233634,163.884343 L193.685045,158.974826 C193.22955,158.570922 193.071952,157.924095 193.292012,157.355351 L193.34967,157.205935 C194.227027,154.934814 194.854535,152.589467 195.213934,150.233516 L195.238919,150.07446 C195.331171,149.470049 195.78955,148.988062 196.387267,148.866602 L203.631952,147.400398 C204.309429,147.26255 204.796637,146.664886 204.796637,145.971789 L204.796637,144.44582 C204.796637,143.750795 204.308468,143.153131 203.629069,143.016247 L196.39015,141.563539 C195.791471,141.443043 195.331171,140.960092 195.23988,140.353753 L195.214895,140.194697 C194.854535,137.822359 194.225105,135.465444 193.345826,133.190466 L193.288168,133.041051 C193.067147,132.471342 193.224745,131.824516 193.682162,131.420611 L199.230751,126.518807 C199.748709,126.060919 199.874595,125.301308 199.530571,124.700753 L198.779099,123.383965 C198.433153,122.780518 197.710511,122.505786 197.053213,122.728463 L190.041081,125.108514 C189.462583,125.3042 188.824505,125.117189 188.442042,124.640023 L188.342102,124.514706 C186.845886,122.643634 185.127688,120.919085 183.235556,119.388296 L183.111592,119.288042 C182.636877,118.905345 182.45045,118.266231 182.645526,117.686883 L185.013333,110.656625 C185.235315,109.997267 184.962402,109.273323 184.360841,108.926293 L183.046246,108.168609 C182.448529,107.823507 181.69033,107.94786 181.233874,108.467441 L176.335856,114.029568 C175.933213,114.487455 175.289369,114.644583 174.722402,114.423833 L174.573453,114.365994 C172.300781,113.482995 169.956997,112.857376 167.606486,112.504562 L167.447928,112.480462 C166.841562,112.389849 166.357237,111.927142 166.237117,111.323694 L164.794715,104.058227 C164.659219,103.376698 164.063423,102.885071 163.370571,102.885071 L161.841682,102.885071 C161.14979,102.885071 160.553994,103.375734 160.417538,104.056299 L158.963604,111.32755 C158.843483,111.92907 158.361081,112.389849 157.756637,112.48239 L157.597117,112.50649 C155.242763,112.86316 152.898979,113.490707 150.63015,114.373706 L150.481201,114.431545 C149.913273,114.652294 149.268468,114.494203 148.865826,114.035351 L143.981261,108.467441 C143.523844,107.946896 142.764685,107.821579 142.166006,108.166682 L140.852372,108.925329 C140.251772,109.272359 139.978859,109.996303 140.19988,110.654697 L142.56961,117.689775 C142.764685,118.270087 142.577297,118.911129 142.100661,119.293826 L141.975736,119.394079 C140.092252,120.908482 138.375976,122.630138 136.875916,124.513742 L136.775976,124.639059 C136.394474,125.119117 135.753514,125.307092 135.174054,125.110442 L128.168649,122.727499 C127.513273,122.503858 126.791592,122.776662 126.444685,123.377217 L125.683604,124.697861 C125.336697,125.29938 125.461622,126.063811 125.983423,126.522663 L131.535856,131.40808 C131.994234,131.811985 132.152793,132.461703 131.931772,133.032375 L131.873153,133.182755 C130.978498,135.488579 130.348108,137.848386 130.00024,140.194697 L129.976216,140.354717 C129.885886,140.962984 129.424625,141.448826 128.823063,141.569323 L121.583183,143.018175 C120.903784,143.154095 120.414655,143.751759 120.414655,144.446784 L120.414655,145.969862 C120.414655,146.663922 120.901862,147.261586 121.5803,147.39847 L128.827868,148.862746 C129.428468,148.984206 129.887808,149.469085 129.978138,150.076388 L130.002162,150.235444 C130.348108,152.567295 130.977538,154.916498 131.871231,157.217503 L131.92985,157.366919 C132.151832,157.937591 131.994234,158.586345 131.534895,158.991214 L125.981502,163.882415 C125.460661,164.340302 125.334775,165.104733 125.681682,165.706252 L126.446607,167.033644 C126.792553,167.634199 127.514234,167.907004 128.16961,167.684326 L135.17982,165.303312 C135.759279,165.106661 136.399279,165.2956 136.780781,165.774695 L136.880721,165.900011 C138.389429,167.793255 140.102823,169.512983 141.975736,171.010998 L142.100661,171.111251 C142.579219,171.493949 142.767568,172.136919 142.571532,172.718195 L140.200841,179.751345 C139.978859,180.409738 140.250811,181.133682 140.851411,181.480713 L142.165045,182.23936 C142.764685,182.58639 143.524805,182.461074 143.981261,181.939564 L148.861982,176.37069 C149.264625,175.911839 149.91039,175.752783 150.478318,175.974497 L150.627267,176.032335 C152.934535,176.931722 155.28024,177.560233 157.599039,177.902444 L157.75952,177.925579 C158.365886,178.015229 158.851171,178.476972 158.971291,179.080419 L160.429069,186.354562 C160.565526,187.035127 161.161321,187.524826 161.853213,187.524826 M165.522162,190.898733 L159.705465,190.898733 C158.660901,190.898733 157.761441,190.159365 157.554835,189.132733 L156.224865,182.491921 C156.054775,181.645552 155.417658,180.956311 154.578739,180.766409 C153.673514,180.561082 152.769249,180.318161 151.867868,180.038609 C151.045285,179.782192 150.14967,180.011617 149.580781,180.660371 L145.088288,185.786782 C144.398318,186.573384 143.250931,186.763287 142.346667,186.239849 L137.307387,183.326722 C136.401201,182.80232 135.98991,181.710138 136.325285,180.716282 L138.488408,174.299111 C138.766126,173.474914 138.555676,172.551427 137.918559,171.960512 C137.235315,171.325253 136.575135,170.663004 135.940901,169.974727 C135.34991,169.33272 134.425465,169.12161 133.6,169.401162 L127.211532,171.571066 C126.220781,171.907493 125.132012,171.495877 124.609249,170.587814 L121.692733,165.524061 C121.16997,164.615035 121.359279,163.463086 122.145345,162.76999 L127.260541,158.266306 C127.905345,157.698526 128.133093,156.802994 127.878438,155.981689 C127.598799,155.080374 127.355676,154.175203 127.150991,153.269068 C126.95976,152.426555 126.273634,151.787441 125.42991,151.617782 L118.810811,150.28075 C117.787387,150.073496 117.051291,149.171217 117.051291,148.124342 L117.051291,142.288447 C117.051291,141.239644 117.789309,140.336401 118.814655,140.131075 L125.419339,138.810431 C126.267868,138.640772 126.958799,137.998766 127.15003,137.152397 C127.355676,136.240478 127.598799,135.330487 127.879399,134.42628 C128.135015,133.601119 127.906306,132.70366 127.258619,132.133952 L122.145345,127.634124 C121.359279,126.941991 121.16997,125.788115 121.693694,124.879088 L124.609249,119.82112 C125.132973,118.913057 126.221742,118.502404 127.212492,118.838831 L133.6,121.011627 C134.422583,121.292143 135.344144,121.081033 135.934174,120.440955 C136.567447,119.753642 137.228589,119.090428 137.914715,118.453241 C138.553754,117.860398 138.764204,116.933055 138.485526,116.105002 L136.324324,109.689759 C135.98991,108.695903 136.401201,107.602757 137.308348,107.07932 L142.347628,104.169084 C143.251892,103.645646 144.398318,103.835549 145.088288,104.622151 L149.537538,109.694579 C150.115075,110.352973 151.023183,110.633489 151.858258,110.375145 C152.752913,110.09752 153.655255,109.855563 154.561441,109.649273 C155.405165,109.458406 156.045165,108.766273 156.215255,107.916048 L157.543303,101.278128 C157.748949,100.250532 158.648408,99.5111646 159.692973,99.5111646 L165.522162,99.5111646 C166.567688,99.5111646 167.468108,100.25246 167.672793,101.28102 L168.99027,107.913157 C169.158438,108.763381 169.798438,109.45455 170.641201,109.645417 C171.547387,109.849779 172.44973,110.091736 173.345345,110.368397 C174.162162,110.620958 175.049129,110.394424 175.615135,109.752418 L180.12973,104.623115 C180.8197,103.839405 181.963243,103.65143 182.866547,104.171976 L187.904865,107.078356 C188.812012,107.601793 189.224264,108.694939 188.888889,109.689759 L186.728649,116.104038 C186.449009,116.934019 186.661381,117.862326 187.301381,118.458061 C187.988468,119.097176 188.648649,119.760389 189.281922,120.445774 C189.870991,121.082961 190.78967,121.293107 191.61033,121.014519 L198.018018,118.838831 C199.010691,118.502404 200.102342,118.916913 200.623183,119.828831 L203.513754,124.885836 C204.032673,125.792935 203.843363,126.940063 203.061141,127.631232 L197.947868,132.147447 C197.306907,132.7133 197.08012,133.604011 197.332853,134.422424 C197.60961,135.321812 197.852733,136.228911 198.059339,137.141793 C198.251532,137.991054 198.943423,138.634988 199.794835,138.806575 L206.397598,140.131075 C207.421982,140.337365 208.16,141.239644 208.16,142.288447 L208.16,148.124342 C208.16,149.171217 207.424865,150.073496 206.401441,150.28075 L199.782342,151.621637 C198.936697,151.792261 198.24961,152.433303 198.058378,153.275816 C197.852733,154.182915 197.610571,155.085194 197.334775,155.979761 C197.077237,156.814562 197.354955,157.723589 198.008408,158.301973 L203.063063,162.774809 C203.843363,163.465014 204.032673,164.611179 203.514715,165.517314 L200.624144,170.581066 C200.103303,171.492985 199.011652,171.908457 198.018979,171.57203 L191.61033,169.39827 C190.786787,169.119682 189.865225,169.330792 189.275195,169.970871 C188.640961,170.658184 187.980781,171.320433 187.296577,171.956656 C186.659459,172.549499 186.449009,173.47395 186.726727,174.300075 L188.888889,180.715318 C189.224264,181.709175 188.812973,182.801356 187.906787,183.325758 L182.868468,186.239849 C181.965165,186.763287 180.818739,186.574348 180.128769,185.78871 L175.625706,180.664227 C175.056817,180.016437 174.162162,179.787976 173.340541,180.042465 C172.44012,180.322017 171.536817,180.563974 170.633514,180.768336 C169.794595,180.958239 169.158438,181.646516 168.991231,182.491921 L167.672793,189.128878 C167.469069,190.157437 166.568649,190.898733 165.522162,190.898733" id="Fill-19" fill="#222B43"></path>
                        <path d="M162.617273,169.745879 C149.068685,169.745879 138.137754,158.77297 138.137754,145.204081 C138.137754,131.633264 149.068685,120.649751 162.617273,120.649751 C176.119736,120.649751 187.091988,131.633264 187.091988,145.204081 C187.091988,158.77297 176.119736,169.745879 162.617273,169.745879" id="Fill-21" fill="#FFFFFF"></path>
                        <path d="M159.552577,134.82498 L159.148012,133.443606 C158.98561,132.890285 159.339243,132.329253 159.902366,132.211648 C160.433778,132.100791 160.971916,132.022709 161.514859,131.977402 C162.087592,131.930168 162.585369,132.367812 162.587291,132.944268 L162.590174,134.38348 C162.592096,134.879926 162.220204,135.302147 161.727231,135.346489 C161.364949,135.3783 161.006511,135.430355 160.651916,135.501689 C160.167592,135.59905 159.691916,135.300219 159.552577,134.82498 L159.552577,134.82498 Z M167.177802,136.424212 C166.857802,136.25648 166.528192,136.1061 166.191856,135.975 C165.731556,135.795701 165.491315,135.287687 165.628733,134.811484 L166.028492,133.429146 C166.188012,132.874862 166.788613,132.592417 167.326751,132.797744 C167.835099,132.992466 168.331916,133.218036 168.813357,133.474453 C169.320745,133.74533 169.505249,134.38348 169.19582,134.869322 L168.422246,136.082001 C168.15606,136.500365 167.616,136.653637 167.177802,136.424212 L167.177802,136.424212 Z M154.448913,138.128516 L153.363988,137.187678 C152.928673,136.809801 152.923868,136.145623 153.333237,135.740754 C153.721465,135.358057 154.131796,135.000423 154.563267,134.667852 C155.019724,134.316966 155.675099,134.415291 155.987411,134.90017 L156.764829,136.108992 C157.032937,136.526393 156.948372,137.082605 156.558222,137.386257 C156.271856,137.608935 155.998943,137.847036 155.739483,138.100561 C155.384889,138.445664 154.822727,138.453376 154.448913,138.128516 L154.448913,138.128516 Z M171.184048,140.291673 C171.005309,139.977417 170.808312,139.671838 170.594979,139.37879 C170.303808,138.977777 170.374919,138.419636 170.747772,138.093813 L171.828853,137.147192 C172.262246,136.76835 172.918583,136.856072 173.260685,137.320707 C173.584529,137.759315 173.880505,138.218166 174.147652,138.693405 C174.430174,139.195635 174.240865,139.832821 173.719063,140.074779 L172.416,140.677262 C171.967231,140.884516 171.430054,140.721605 171.184048,140.291673 L171.184048,140.291673 Z M151.938883,143.674255 L150.518583,143.473749 C149.948733,143.393739 149.585489,142.837526 149.711375,142.274566 C149.830535,141.740525 149.983327,141.216123 150.166871,140.702325 C150.361946,140.159608 150.96639,139.88584 151.490114,140.124905 L152.79606,140.720641 C153.24579,140.925967 153.473538,141.439765 153.310174,141.907292 C153.190054,142.248539 153.089153,142.596533 153.007471,142.950311 C152.896,143.433262 152.428012,143.743661 151.938883,143.674255 L151.938883,143.674255 Z M174.717502,146.903566 L173.297201,146.705952 C172.80615,146.637509 172.442907,146.207577 172.467892,145.711131 C172.476541,145.542436 172.480384,145.372776 172.480384,145.203117 C172.480384,145.009358 172.47558,144.814636 172.464048,144.620877 C172.435219,144.126359 172.798462,143.697391 173.286631,143.626057 L174.706931,143.417838 C175.276781,143.333973 175.779363,143.765833 175.816841,144.342289 C175.835099,144.628589 175.843748,144.916817 175.843748,145.203117 C175.843748,145.460498 175.837021,145.718843 175.821646,145.976224 C175.788973,146.551716 175.285429,146.983576 174.717502,146.903566 L174.717502,146.903566 Z M150.17648,149.7309 C149.991015,149.217102 149.838222,148.692701 149.717141,148.159623 C149.590294,147.596663 149.952577,147.039486 150.522426,146.958513 L151.942727,146.755114 C152.431856,146.684744 152.899844,146.995144 153.012276,147.47713 C153.094919,147.829945 153.19582,148.177939 153.316901,148.519186 C153.481225,148.985749 153.254438,149.50051 152.80567,149.706801 L151.500685,150.305428 C150.977922,150.546422 150.372517,150.273617 150.17648,149.7309 L150.17648,149.7309 Z M171.881706,153.194456 L170.793898,152.255546 C170.419123,151.931651 170.344168,151.373511 170.632456,150.971534 C170.843868,150.676558 171.038943,150.370014 171.216721,150.054795 C171.459844,149.622935 171.995099,149.457132 172.444829,149.661494 L173.751736,150.255302 C174.27642,150.493403 174.469574,151.129625 174.189934,151.633784 C173.92567,152.11095 173.632577,152.570766 173.311616,153.012265 C172.973357,153.477865 172.317021,153.570406 171.881706,153.194456 L171.881706,153.194456 Z M154.589213,155.75477 C154.157742,155.424127 153.74645,155.067457 153.357261,154.685723 C152.946931,154.281818 152.949814,153.617641 153.383207,153.239763 L154.46621,152.295069 C154.839063,151.969246 155.400264,151.97503 155.756781,152.319169 C156.017201,152.57173 156.291075,152.809831 156.577441,153.031545 C156.968553,153.335197 157.054078,153.891409 156.787892,154.30881 L156.012396,155.51956 C155.702006,156.005403 155.046631,156.104692 154.589213,155.75477 L154.589213,155.75477 Z M166.105369,156.949133 L165.696961,155.568723 C165.5557,155.093484 165.793057,154.583542 166.252396,154.401351 C166.588733,154.268323 166.91642,154.116015 167.235459,153.946356 C167.672697,153.714038 168.213718,153.864418 168.481826,154.280854 L169.263087,155.488713 C169.575399,155.972628 169.3957,156.612706 168.889273,156.886474 C168.409754,157.144819 167.914859,157.374245 167.407471,157.570896 C166.871255,157.780078 166.269694,157.502453 166.105369,156.949133 L166.105369,156.949133 Z M162.664168,158.467391 L162.617081,158.467391 C161.711856,158.467391 160.814318,158.375813 159.935039,158.194586 C159.371916,158.07891 159.01636,157.517877 159.176841,156.964556 L159.578523,155.583182 C159.716901,155.10698 160.190655,154.807184 160.67594,154.903581 C161.034378,154.974915 161.397622,155.026006 161.763748,155.056853 C162.251916,155.098304 162.622847,155.513776 162.629574,156.004439 L162.664168,158.467391 Z" id="Fill-23" fill="#E61A28"></path>
                        <path d="M260.944048,263.762492 C233.498042,258.777786 198.98609,248.627146 163.763988,235.180681 C127.15618,221.206923 93.7935375,205.24256 69.8223664,190.225783 C52.3953393,179.308784 32.4429069,164.127168 36.3578619,153.802049 L39.5011652,155.001232 C37.1506547,161.199581 49.1520961,173.29841 71.603988,187.363746 C95.3954595,202.268702 128.549574,218.12992 164.960384,232.02656 C199.995099,245.402655 234.294679,255.494492 261.543688,260.443532 L260.944048,263.762492 Z" id="Fill-25" fill="#222B43"></path>
                        <path d="M296.080144,266.909576 L295.868733,263.543381 C303.788012,263.042115 308.580324,261.183574 309.727712,258.168265 L312.870054,259.371304 C311.194138,263.774734 305.54561,266.311912 296.080144,266.909576" id="Fill-27" fill="#41464B"></path>
                        <path d="M40.2313033,287.697083 C31.204997,287.697083 25.0875195,285.684307 22.9003724,281.211471 L25.9197117,279.725988 C32.3985105,292.970018 97.5776096,278.49403 184.279351,235.829532 C270.980132,193.170818 322.290643,150.328949 315.816649,137.079135 L318.835988,135.593652 C328.154426,154.663937 258.491483,203.073716 185.760192,238.8593 C130.08788,266.255424 69.6847568,287.696119 40.2313033,287.697083" id="Fill-29" fill="#222B43"></path>
                        <path d="M59.5387387,242.909049 C59.5387387,247.004008 56.2282282,250.33068 52.1460661,250.33068 C48.0687087,250.33068 44.7581982,247.004008 44.7581982,242.909049 C44.7581982,238.825658 48.0687087,235.498985 52.1460661,235.498985 C56.2282282,235.498985 59.5387387,238.825658 59.5387387,242.909049" id="Fill-31" fill="#E61A28"></path>
                        <path d="M52.1456817,231.706618 C45.984961,231.706618 40.9735495,236.731811 40.9735495,242.908952 C40.9735495,249.090914 45.984961,254.120927 52.1456817,254.120927 C58.3064024,254.120927 63.3187748,249.090914 63.3187748,242.908952 C63.3187748,236.731811 58.3064024,231.706618 52.1456817,231.706618 M52.1456817,257.494834 C44.1303063,257.494834 37.6101862,250.951382 37.6101862,242.908952 C37.6101862,234.871342 44.1303063,228.332711 52.1456817,228.332711 C60.1610571,228.332711 66.6811772,234.871342 66.6811772,242.908952 C66.6811772,250.951382 60.1610571,257.494834 52.1456817,257.494834" id="Fill-33" fill="#D5ADBD"></path>
                        <path d="M286.518967,263.022401 C286.518967,267.11736 283.211339,270.434393 279.131099,270.434393 C275.049898,270.434393 271.743231,267.11736 271.743231,263.022401 C271.743231,258.92937 275.049898,255.612338 279.131099,255.612338 C283.211339,255.612338 286.518967,258.92937 286.518967,263.022401" id="Fill-35" fill="#E61A28"></path>
                        <path d="M279.131099,251.820934 C272.970378,251.820934 267.958967,256.846128 267.958967,263.022305 C267.958967,269.20523 272.970378,274.235243 279.131099,274.235243 C285.29182,274.235243 290.304192,269.20523 290.304192,263.022305 C290.304192,256.846128 285.29182,251.820934 279.131099,251.820934 M279.131099,277.60915 C271.116685,277.60915 264.595604,271.065699 264.595604,263.022305 C264.595604,254.985659 271.116685,248.447028 279.131099,248.447028 C287.146474,248.447028 293.667556,254.985659 293.667556,263.022305 C293.667556,271.065699 287.146474,277.60915 279.131099,277.60915" id="Fill-37" fill="#CF98AA"></path>
                        <path d="M87.7852252,237.716413 C84.1297297,237.716413 81.1565165,240.699911 81.1565165,244.366866 C81.1565165,248.03382 84.1297297,251.017318 87.7852252,251.017318 C91.4436036,251.017318 94.4206607,248.03382 94.4206607,244.366866 C94.4206607,240.699911 91.4436036,237.716413 87.7852252,237.716413 M87.7852252,254.391225 C82.2750751,254.391225 77.7931532,249.894289 77.7931532,244.366866 C77.7931532,238.839442 82.2750751,234.342507 87.7852252,234.342507 C93.2982583,234.342507 97.784024,238.839442 97.784024,244.366866 C97.784024,249.894289 93.2982583,254.391225 87.7852252,254.391225" id="Fill-41" fill="#6CA3C3"></path>
                        <path d="M30.4123964,170.589356 C30.4123964,175.711911 26.2802643,179.852176 21.1775616,179.852176 C16.0758198,179.852176 11.936961,175.711911 11.936961,170.589356 C11.936961,165.478369 16.0758198,161.323644 21.1775616,161.323644 C26.2802643,161.323644 30.4123964,165.478369 30.4123964,170.589356" id="Fill-45" fill-opacity="0.1" fill="#222B43"></path>
                        <path d="M51.4244805,304.937554 C51.4244805,308.515824 48.5329489,311.422203 44.9600961,311.422203 C41.3882042,311.422203 38.4957117,308.515824 38.4957117,304.937554 C38.4957117,301.348682 41.3882042,298.452906 44.9600961,298.452906 C48.5329489,298.452906 51.4244805,301.348682 51.4244805,304.937554" id="Fill-47" fill-opacity="0.1" fill="#222B43"></path>
                        <path d="M251.331171,227.536276 C251.331171,229.577972 249.678318,231.242754 247.637237,231.242754 C245.596156,231.242754 243.943303,229.577972 243.943303,227.536276 C243.943303,225.483013 245.596156,223.829798 247.637237,223.829798 C249.678318,223.829798 251.331171,225.483013 251.331171,227.536276" id="Fill-49" fill-opacity="0.1" fill="#222B43"></path>
                        <path d="M32.0274835,192.9171 C32.0274835,194.451746 30.7878438,195.698163 29.2560721,195.698163 C27.7262222,195.698163 26.4846607,194.451746 26.4846607,192.9171 C26.4846607,191.383419 27.7262222,190.137965 29.2560721,190.137965 C30.7878438,190.137965 32.0274835,191.383419 32.0274835,192.9171" id="Fill-51" fill-opacity="0.1" fill="#222B43"></path>
                        <g id="Group-57" transform="translate(0.000000, 207.736263)">
                            <mask id="mask-2" fill="white">
                                <use xlink:href="#path-1"></use>
                            </mask>
                            <g id="Clip-56"></g>
                            <path d="M5.84225826,3.77212422 C4.47577177,3.77212422 3.36297898,4.88551348 3.36297898,6.25435567 C3.36297898,7.6222339 4.47577177,8.73465917 5.84225826,8.73465917 C7.20682282,8.73465917 8.31673273,7.6222339 8.31673273,6.25435567 C8.31673273,4.88551348 7.20682282,3.77212422 5.84225826,3.77212422 M5.84225826,12.108566 C2.62015616,12.108566 -0.000384384384,9.48270251 -0.000384384384,6.25435567 C-0.000384384384,3.02600883 2.62015616,0.398217402 5.84225826,0.398217402 C9.06147748,0.398217402 11.6800961,3.02600883 11.6800961,6.25435567 C11.6800961,9.48270251 9.06147748,12.108566 5.84225826,12.108566" id="Fill-55" fill="#CF98AA" mask="url(#mask-2)"></path>
                        </g>
                        <path d="M250.101333,66.6252128 C239.10794,64.9054843 231.12812,55.5433748 231.12812,44.3651396 L234.491483,44.3651396 C234.491483,53.8699171 241.273946,61.8294452 250.619291,63.2908289 L250.101333,66.6252128 Z" id="Fill-58" fill="#222B43"></path>
                        <path d="M257.084252,66.6252128 L256.566294,63.2908289 C265.91164,61.8294452 272.695063,53.870881 272.695063,44.3651396 C272.695063,33.8009553 264.126174,25.2061687 253.593081,25.2061687 L253.593081,21.8322619 C265.979868,21.8322619 276.058426,31.9414507 276.058426,44.3651396 C276.058426,55.5443388 268.078607,64.9054843 257.084252,66.6252128" id="Fill-60" fill="#222B43"></path>
                        <polygon id="Fill-62" fill="#1DB1F1" points="247.754763 38.5438971 238.610258 29.3755463 260.165574 7.7488036 269.304312 16.9267941"></polygon>
                        <path d="M240.989117,29.3757391 L247.754282,36.1582558 L266.926414,16.926023 L260.165093,10.1348305 L240.989117,29.3757391 Z M247.755243,40.9289601 L236.23236,29.3757391 L260.166054,5.36219831 L271.681249,16.9279509 L247.755243,40.9289601 Z" id="Fill-64" fill="#222B43"></path>
                        <path d="M264.828252,10.0464341 L267.020204,12.2442934 L269.214078,10.0464341 L267.020204,7.84761087 L264.828252,10.0464341 Z M267.019243,17.0140337 L260.071495,10.0464341 L267.019243,3.0778706 L273.973718,10.0464341 L267.019243,17.0140337 Z" id="Fill-66" fill="#222B43"></path>
                        <polygon id="Fill-68" fill="#41464B" points="239.79964 39.7366214 237.421261 37.3507873 241.991592 32.7670939 244.36997 35.152928"></polygon>
                        <polygon id="Fill-70" fill="#222B43" points="221.266066 46.0519002 244.357958 46.0519002 244.357958 42.6779934 221.266066 42.6779934"></polygon>
                        <path d="M265.890498,24.9870575 C265.890498,27.5483348 263.822511,29.6199136 261.268276,29.6199136 C258.72173,29.6199136 256.650859,27.5483348 256.650859,24.9870575 C256.650859,22.4267442 258.72173,20.3551654 261.268276,20.3551654 C263.822511,20.3551654 265.890498,22.4267442 265.890498,24.9870575" id="Fill-72" fill="#FFFFFF"></path>
                        <path d="M261.268276,22.0424081 C259.649057,22.0424081 258.332541,23.3630516 258.332541,24.9873467 C258.332541,26.6106779 259.649057,27.9322854 261.268276,27.9322854 C262.889417,27.9322854 264.208817,26.6106779 264.208817,24.9873467 C264.208817,23.3630516 262.889417,22.0424081 261.268276,22.0424081 M261.268276,31.3061922 C257.795363,31.3061922 254.969177,28.4721105 254.969177,24.9873467 C254.969177,21.502583 257.795363,18.6685012 261.268276,18.6685012 C264.744072,18.6685012 267.57218,21.502583 267.57218,24.9873467 C267.57218,28.4721105 264.744072,31.3061922 261.268276,31.3061922" id="Fill-73" fill="#222B43"></path>
                        <path d="M252.041994,70.7005067 L255.143976,70.7005067 L255.143976,61.271883 C255.143976,60.8602664 254.97773,60.4573255 254.68752,60.1652416 C254.114787,59.5936054 253.072144,59.5916774 252.494607,60.1690975 C252.20824,60.4573255 252.041994,60.8602664 252.041994,61.271883 L252.041994,70.7005067 Z M258.507339,74.0744135 L248.678631,74.0744135 L248.678631,61.271883 C248.678631,59.9541314 249.189862,58.7134977 250.11815,57.7822994 C251.046438,56.855921 252.279351,56.3469431 253.592985,56.3469431 C254.906619,56.3469431 256.139532,56.855921 257.063976,57.7784435 C257.995147,58.7134977 258.507339,59.9541314 258.507339,61.271883 L258.507339,74.0744135 Z" id="Fill-74" fill="#222B43"></path>
                        <polygon id="Fill-75" fill="#222B43" points="276.058042 78.871627 272.694679 78.871627 272.694679 74.0739315 234.491676 74.0739315 234.491676 78.871627 231.128312 78.871627 231.128312 70.7000247 276.058042 70.7000247"></polygon>
                        <path d="M35.6695255,90.7160643 C35.6695255,100.948642 43.9433994,109.2552 54.144961,109.2552 C64.3455616,109.2552 72.6136697,100.948642 72.6136697,90.7160643 L35.6695255,90.7160643 Z" id="Fill-83" fill="#E61A28"></path>
                        <g id="Group-8" transform="translate(33.000000, 47.147335)" fill="#222B43">
                            <path d="M18.2053814,4.07319721 L18.2053814,26.9569612 L16.9426787,27.2827842 C9.52886486,29.1972354 4.35120721,35.8949224 4.35120721,43.5691144 C4.35120721,52.8608538 11.8841802,60.4203331 21.144961,60.4203331 C30.4009369,60.4203331 37.931988,52.8608538 37.931988,43.5691144 C37.931988,35.8949224 32.7552913,29.1972354 25.3424384,27.2827842 L24.0797357,26.9569612 L24.0797357,4.07319721 L18.2053814,4.07319721 Z M21.144961,63.7942399 C10.0304865,63.7942399 0.987843844,54.7213225 0.987843844,43.5691144 C0.987843844,34.7969567 6.620997,27.0880616 14.842018,24.3860442 L14.842018,0.699290388 L27.4430991,0.699290388 L27.4430991,24.3860442 C35.6631592,27.0890256 41.2953514,34.7969567 41.2953514,43.5691144 C41.2953514,54.7213225 32.2565526,63.7942399 21.144961,63.7942399 L21.144961,63.7942399 Z" id="Fill-84"></path>
                            <polygon id="Fill-85" points="10.9812613 4.07339 31.3027027 4.07339 31.3027027 0.699483182 10.9812613 0.699483182"></polygon>
                        </g>
                        <g id="Group-7" transform="translate(31.000000, 19.059561)" fill="#CF98AA">
                            <polygon id="Fill-86" points="36.4516757 22.4572299 33.5995435 19.6000128 35.975039 17.2132147 38.8281321 20.0694678"></polygon>
                            <polygon id="Fill-87" points="30.386955 16.3664605 27.5396276 13.5217751 29.9132012 11.1301571 32.7605285 13.9758065"></polygon>
                            <polygon id="Fill-88" points="35.973021 16.3674245 33.6013694 13.9748426 36.4544625 11.1291931 38.8251532 13.522739"></polygon>
                            <polygon id="Fill-89" points="29.9158919 22.4562659 27.5365526 20.0704318 30.3838799 17.2132147 32.7632192 19.5990488"></polygon>
                            <polygon id="Fill-90" points="13.46597 15.3083069 9.47702102 11.2972137 11.8582823 8.91330754 15.8472312 12.9244008"></polygon>
                            <polygon id="Fill-91" points="4.97645646 6.78890301 0.993273273 2.80769296 3.36780781 0.418966929 7.35099099 4.39921301"></polygon>
                            <polygon id="Fill-92" points="11.8537658 6.78977059 9.48115315 4.39911661 13.4701021 0.417906559 15.8427147 2.80856054"></polygon>
                        </g>
                        <polygon id="Fill-93" fill="#CF98AA" points="34.3716517 34.3670005 31.9884685 31.9850223 35.9726126 27.973929 38.3548348 30.3559073"></polygon>
                        <g id="Group-10" transform="translate(2.000000, 114.357367)"></g>
                        <path d="M118.110462,15.078086 C108.915988,15.078086 100.851604,19.9027727 96.2851171,27.1653482 C100.851604,34.4288876 108.915988,39.2526104 118.110462,39.2526104 C127.303015,39.2526104 135.369321,34.4288876 139.935808,27.1653482 C135.369321,19.9027727 127.303015,15.078086 118.110462,15.078086" id="Fill-96" fill="#1DB1F1"></path>
                        <path d="M118.110462,16.7650394 C112.393706,16.7650394 107.742655,21.4306705 107.742655,27.1653482 C107.742655,32.9000258 112.393706,37.5656569 118.110462,37.5656569 C123.827219,37.5656569 128.47827,32.9000258 128.47827,27.1653482 C128.47827,21.4306705 123.827219,16.7650394 118.110462,16.7650394 M118.110462,40.9395638 C110.539051,40.9395638 104.379291,34.7604944 104.379291,27.1653482 C104.379291,19.5702019 110.539051,13.3911326 118.110462,13.3911326 C125.681874,13.3911326 131.841634,19.5702019 131.841634,27.1653482 C131.841634,34.7604944 125.681874,40.9395638 118.110462,40.9395638" id="Fill-97" fill="#222B43"></path>
                        <path d="M122.574607,27.1654446 C122.574607,29.6380363 120.573886,31.6479208 118.109982,31.6479208 C115.646078,31.6479208 113.646318,29.6380363 113.646318,27.1654446 C113.646318,24.6938168 115.646078,22.6820044 118.109982,22.6820044 C120.573886,22.6820044 122.574607,24.6938168 122.574607,27.1654446" id="Fill-98" fill="#FFFFFF"></path>
                        <path d="M121.131724,3.56593032 C120.13809,3.43868583 119.121393,3.37409962 118.110462,3.37409962 L118.030703,0.000192794676 L118.110462,0.000192794676 C119.263616,0.000192794676 120.423495,0.0734547714 121.557429,0.218050778 L121.131724,3.56593032 Z M111.901694,4.19733288 L111.023375,0.940066838 C112.159231,0.63255933 113.326799,0.397349826 114.495327,0.241186139 L114.941213,3.58520979 C113.91779,3.72209401 112.895327,3.92838431 111.901694,4.19733288 L111.901694,4.19733288 Z M127.113706,5.14877461 C126.164276,4.75547347 125.175447,4.42386663 124.176048,4.15877395 L125.033225,0.895724063 C126.176769,1.1984117 127.30782,1.58014516 128.394667,2.02839278 L127.113706,5.14877461 Z M106.195508,6.58991481 L104.503255,3.67293136 C105.523796,3.07815979 106.589502,2.54604649 107.673465,2.09201502 L108.968841,5.20564903 C108.021333,5.60184209 107.08824,6.06840521 106.195508,6.58991481 L106.195508,6.58991481 Z M132.485477,8.23927325 C131.661934,7.60883467 130.793225,7.03045064 129.901453,6.5176168 L131.575447,3.59099363 C132.593105,4.17708944 133.585778,4.8374112 134.524637,5.55653534 L132.485477,8.23927325 Z M101.297489,10.38315 L98.9133453,8.00406375 C99.7445766,7.16540691 100.637309,6.37591272 101.56848,5.65486063 L103.623976,8.32699483 C102.80812,8.95743342 102.025898,9.65053028 101.297489,10.38315 L101.297489,10.38315 Z M136.878991,12.6166764 C136.244757,11.795371 135.552865,11.0116607 134.823495,10.2848248 L137.193225,7.88935092 C138.026378,8.719332 138.814366,9.61389929 139.537009,10.5489535 L136.878991,12.6166764 Z M97.5372492,15.3167658 L94.6226547,13.6336683 C95.2088408,12.6108925 95.869982,11.616072 96.5849369,10.6771619 L99.2573694,12.7275333 C98.6298619,13.5498026 98.0513634,14.4212345 97.5372492,15.3167658 L97.5372492,15.3167658 Z M139.995387,17.9744404 C139.596589,17.0210707 139.130523,16.0850526 138.611604,15.1933772 L141.51755,13.4929282 C142.110462,14.511848 142.640913,15.5808945 143.096408,16.6682565 L139.995387,17.9744404 Z M95.180012,21.0581912 L91.9281201,20.1935071 C92.2298619,19.0531266 92.6104024,17.9194939 93.0601321,16.8244202 L96.1698018,18.1084327 C95.7767688,19.0675862 95.4433153,20.0595148 95.180012,21.0581912 L95.180012,21.0581912 Z M141.617489,23.961679 C141.480072,22.9360114 141.273465,21.9103437 141.003435,20.9145592 L144.249562,20.0296316 C144.557069,21.1690482 144.793465,22.3402758 144.951063,23.5115035 L141.617489,23.961679 Z M91.6619339,27.2083414 L91.0286607,27.2035215 C91.0276997,25.9995188 91.1026547,24.8273271 91.2487207,23.6811628 L94.5851772,24.1101309 C94.4564084,25.1155552 94.3910631,26.1431508 94.3910631,27.1659266 L91.6619339,27.2083414 Z M144.965477,30.7075647 L141.629982,30.2708848 C141.762595,29.251001 141.829862,28.2060538 141.829862,27.1659266 L141.829862,27.0598895 L145.193225,27.0598895 L145.193225,27.1659266 C145.193225,28.3506498 145.116348,29.5421209 144.965477,30.7075647 L144.965477,30.7075647 Z M91.9579099,34.247275 C91.6523243,33.1088224 91.4188108,31.9366308 91.2631351,30.7644392 L94.5976697,30.3200474 C94.7331652,31.3466791 94.9378498,32.3733107 95.205958,33.3700592 L91.9579099,34.247275 Z M143.139652,37.5614155 L140.032865,36.2696911 C140.42782,35.3143935 140.762234,34.3224649 141.02842,33.3228245 L144.27839,34.1932925 C143.973766,35.3356009 143.591303,36.4692336 143.139652,37.5614155 L143.139652,37.5614155 Z M94.6755075,40.7897623 C94.0845165,39.7689145 93.555027,38.698904 93.1024144,37.6105781 L96.2072793,36.312106 C96.6031952,37.2645117 97.0663784,38.2014938 97.5843363,39.0950971 L94.6755075,40.7897623 Z M139.601393,43.69807 L136.932805,41.6438427 C137.563195,40.8215734 138.143616,39.9501415 138.659652,39.0565382 L141.570402,40.7454195 C140.982294,41.7662673 140.319231,42.7601239 139.601393,43.69807 L139.601393,43.69807 Z M98.9883003,46.4029793 C98.1541862,45.5691423 97.3681201,44.6726471 96.6493213,43.7375929 L99.3131051,41.6775818 C99.9425345,42.4969592 100.632505,43.2825975 101.362835,44.0132893 L98.9883003,46.4029793 Z M134.607279,48.7107315 L132.558511,46.0357054 C133.374366,45.4052668 134.158511,44.7160259 134.888841,43.9834061 L137.266258,46.3682762 C136.434066,47.2040412 135.539411,47.9916074 134.607279,48.7107315 L134.607279,48.7107315 Z M104.596468,50.7129043 C103.579772,50.1248805 102.589982,49.4607028 101.652084,48.7415787 L103.696048,46.0626967 C104.51767,46.6931353 105.387339,47.2753752 106.27815,47.7911009 L104.596468,50.7129043 Z M128.495568,52.2610455 L127.206919,49.1445196 C128.154426,48.7502545 129.08752,48.2875472 129.982174,47.7670016 L131.668661,50.686877 C130.646198,51.2797206 129.578571,51.809906 128.495568,52.2610455 L128.495568,52.2610455 Z M111.132925,53.4226334 C109.996108,53.1180178 108.866018,52.7353204 107.776288,52.2832169 L109.059171,49.165727 C110.014366,49.5609561 111.003195,49.8964188 111.998751,50.1615115 L111.132925,53.4226334 Z M121.668901,54.0993427 L121.231664,50.7533911 C122.253165,50.6203628 123.275628,50.4160005 124.271183,50.1470519 L125.142775,53.4062459 C124.004997,53.7127894 122.835508,53.946071 121.668901,54.0993427 L121.668901,54.0993427 Z M118.137369,54.3326243 L118.110462,54.3326243 C116.93809,54.3326243 115.759952,54.2574344 114.60776,54.1080185 L115.039231,50.7620669 C116.04824,50.8931673 117.082234,50.9587175 118.110462,50.9587175 L118.137369,54.3326243 Z" id="Fill-99" fill="#CF98AA"></path>
                    </g>
                </g>
            </g>
        </g>
    </g>
</svg>