<?xml version="1.0" encoding="UTF-8"?>
<svg width="46px" height="18px" viewBox="0 0 46 18" version="1.1" xmlns="http://www.w3.org/2000/svg" xmlns:xlink="http://www.w3.org/1999/xlink">
    <!-- Generator: Sketch 44 (41411) - http://www.bohemiancoding.com/sketch -->
    <title>Combined Shape</title>
    <desc>Created with Sketch.</desc>
    <defs></defs>
    <g id="Index" stroke="none" stroke-width="1" fill="none" fill-rule="evenodd">
        <g id="Independence_Day_Air_Travel_Forecast_2017" transform="translate(-758.000000, -4479.000000)" fill="#FFFFFF">
            <g id="Content" transform="translate(110.000000, 92.000000)">
                <g id="#4" transform="translate(45.000000, 3838.000000)">
                    <g id="Worst-Table" transform="translate(587.000000, 526.000000)">
                        <g id="Worst">
                            <path d="M38.8851311,31.3990664 C39.7044319,31.3990664 40.3688799,32.0642534 40.3690855,32.8851311 C40.3690855,33.7058029 39.7046375,34.3709899 38.8853368,34.3709899 C38.0701489,34.3709899 37.4087857,33.7128049 37.4017936,32.8981053 L34.8303737,30.4799552 L38.1935376,31.5706146 C38.400008,31.4612604 38.6352691,31.3990664 38.8851311,31.3990664 Z M45.8650226,25.8951078 C47.7294255,27.7623679 48.7562249,30.2445655 48.7562249,32.8851311 C48.7562249,34.6380944 48.2914609,36.3609903 47.4125222,37.8670313 C46.9317177,38.6912041 46.3343109,39.4408265 45.6377818,40.0950986 L44.6747332,41 L42.8679118,39.0713697 L43.8307547,38.1666743 C44.1414885,37.874651 44.4250768,37.5564734 44.6790519,37.216672 L43.0723257,36.2874697 L43.9210341,34.8154089 L45.5285829,35.7448172 C45.9137612,34.8465059 46.115296,33.8728205 46.115296,32.8851311 C46.115296,31.8702577 45.9053296,30.9035742 45.527349,30.0260629 L43.9210341,30.9546474 L43.0723257,29.4825866 L44.6763784,28.5550318 C43.5169362,27.0034781 41.750833,25.9317651 39.7336339,25.694522 L39.7336339,27.5521029 L38.0362171,27.5521029 L38.0362171,25.6947279 C36.0190179,25.9319711 34.2529147,27.003684 33.0932669,28.5552377 L34.6975252,29.4827925 L33.8488168,30.9550593 L32.242502,30.0264748 C31.8645213,30.9039861 31.6545549,31.8704636 31.6545549,32.8853371 C31.6545549,34.1475447 31.9833858,35.3897762 32.6054703,36.4777585 C32.6829995,36.6134731 32.7660812,36.7471283 32.8528646,36.8785181 L34.35142,35.7503776 L33.7137062,40.2481122 L29.2225642,39.6109331 L30.7392166,38.4694064 C30.5882712,38.2490504 30.4459629,38.0223102 30.3141427,37.7914512 C29.4635834,36.3045627 29.0140374,34.6078212 29.0140374,32.8851311 C29.0140374,30.2445655 30.0408368,27.7623679 31.9052396,25.8953137 C33.7696424,24.0282596 36.2485208,23 38.8851311,23 C41.5217414,23 44.0008255,24.0282596 45.8650226,25.8951078 Z M61.9141151,36.0176654 C62.105865,36.2573528 61.9620525,36.6408526 61.6264902,36.6408526 L51.8951819,36.6408526 C51.8472444,36.4011652 51.799307,36.2094153 51.703432,35.9697279 L51.6554945,35.9217904 L51.703432,35.873853 C52.5183691,35.1547908 52.9977439,34.1001662 52.9977439,33.0455417 C52.9977439,31.9429797 52.5183691,30.9362926 51.703432,30.1692929 L51.6554945,30.1213555 L51.703432,30.073418 C51.799307,29.8337306 51.8951819,29.5940432 51.9431194,29.3543558 L61.6264902,29.3543558 C61.9620525,29.3543558 62.105865,29.7378556 61.9141151,29.977543 L59.5651786,32.9017293 C59.4693036,32.9976042 59.4693036,33.1414166 59.5651786,33.2372916 L61.9141151,36.0176654 Z M26.296568,35.9217904 C26.200693,36.1614778 26.1048181,36.4011652 26.0568806,36.6887901 L16.3735098,36.6887901 C16.0858849,36.6887901 15.894135,36.3052903 16.0858849,36.0656029 L18.4348214,33.1414166 C18.5306964,33.0455417 18.5306964,32.9017293 18.4348214,32.8058543 L16.0858849,29.977543 C15.894135,29.7378556 16.0379475,29.3543558 16.3735098,29.3543558 L26.1048181,29.3543558 C26.1527556,29.5940432 26.200693,29.7857931 26.296568,30.0254805 L26.3445055,30.073418 L26.296568,30.1213555 C25.4816309,30.8404176 25.0022561,31.8471047 25.0022561,32.9496667 C25.0022561,34.0522288 25.4816309,35.1068533 26.296568,35.8259155 L26.3445055,35.873853 L26.296568,35.9217904 Z" id="Combined-Shape"></path>
                        </g>
                    </g>
                </g>
            </g>
        </g>
    </g>
</svg>