<svg width="223" height="196" viewBox="0 0 223 196" xmlns="http://www.w3.org/2000/svg" xmlns:xlink="http://www.w3.org/1999/xlink"><title>Main Icon</title><defs><path id="a" d="M34.24.165v41.096H.102V.165h34.14z"/><path id="c" d="M12.297 29.448H.023V.137h12.274v29.311z"/></defs><g fill="none" fill-rule="evenodd"><path d="M158.691 173.913l-.298.242c-1.486-2.296-8.625-5.768-10.296-6.56.421 1.703 2.123 8.233 3.761 9.14l-.174.358c-2.015-1.12-3.955-9.435-4.038-9.79l-.092-.397.342.156c.37.169 9.063 4.171 10.795 6.851M147.538 167.304c-.026.082-2.47 8.412-.55 12.33l-.322.2c-1.994-4.073.421-12.295.525-12.644l.347.114z" fill="#8F9274"/><path d="M155.298 175.655l-.32.207c-1.354-2.618-7.22-8.406-7.28-8.462-.095-.091-2.38-2.384-3.798-14.095l.36-.072c1.393 11.51 3.663 13.84 3.684 13.862.246.24 5.968 5.888 7.354 8.56" fill="#8F9274"/><path d="M162.777 178.972c-1.693 1.206-3.851.806-4.818-.894-.969-1.7-.38-4.059 1.312-5.265 1.694-1.208 3.853-.806 4.82.896.968 1.7.379 4.053-1.314 5.263" fill="#D6352E"/><path d="M157.64 177.475c.77 1.973.01 4.276-1.703 5.145-1.713.866-3.726-.03-4.498-2.005-.77-1.973-.008-4.275 1.704-5.142 1.709-.868 3.722.029 4.498 2.002M149.383 184.89c-1.69 1.206-3.849.806-4.813-.894-.972-1.702-.382-4.06 1.311-5.266 1.692-1.208 3.85-.806 4.818.896.97 1.699.38 4.056-1.316 5.263" fill="#EE603F"/><path d="M161.62 186.57c-1.449 1.033-3.297.69-4.126-.766-.828-1.455-.326-3.474 1.126-4.507 1.449-1.031 3.296-.69 4.125.765.829 1.458.324 3.474-1.124 4.509" fill="#DF8458"/><path d="M156.412 186.675c.342 2.13-.86 4.206-2.69 4.64-1.833.433-3.596-.947-3.943-3.076-.34-2.13.864-4.209 2.695-4.64 1.827-.43 3.593.944 3.938 3.076" fill="#F08065"/><path d="M124.29 145.842l.307-25.126c15.52-1.182 13.3-29.9 13.3-29.9l-29.854-.363s-2.984 27.708 13.37 30.128l-.306 25.27c-2.955.8-3.626 3.312-3.626 3.312l10.351.128s-1.02-2.646-3.541-3.45" fill="#C6DDDF"/><path d="M110.25 101.047s1.395 17.549 12.778 17.687c11.378.138 12.156-17.716 12.156-17.716l-24.935.029zM130.107 88.342a1.993 1.993 0 0 0-.048 3.985 1.994 1.994 0 0 0 .048-3.985" fill="#D6352E"/><path d="M125.259 107.004a2.693 2.693 0 1 0-.062 5.385 2.693 2.693 0 0 0 .062-5.385" fill="#FFF"/><path d="M122.08 92.75a3.159 3.159 0 0 0-3.196 3.122 3.158 3.158 0 1 0 6.314.078 3.158 3.158 0 0 0-3.118-3.2M123.02 83.3a1.416 1.416 0 0 0-1.432 1.4 1.416 1.416 0 1 0 2.83.034 1.413 1.413 0 0 0-1.397-1.433" fill="#D6352E"/><path d="M128.473 94.08s5.904 11.105-2.744 22.515c0 0 8.84-3.047 8.84-22.47l-6.096-.046z" fill="#FFF"/><path d="M115.206 128.477s-7.9.056-9.652-7.836l-1.752-7.892s6.242 2.6 8.593 5.562c2.355 2.96 5.823 6.115 2.81 10.166" fill="#909374"/><path d="M54.347 135.572c-.218.035-.41.087-.577.16l.185.416c2.12-.942 9.34 1.94 11.204 2.715-2.039 1.054-10.848 5.496-14.093 5.33l-.024.452c3.792.194 14.308-5.367 14.754-5.603l.415-.22-.43-.188c-.36-.155-8.282-3.574-11.434-3.062M55.304 129.03l-.076.448c5.057.87 10.585 8.968 10.64 9.05l.374-.253a38.428 38.428 0 0 0-3.462-4.266c-2.75-2.924-5.264-4.6-7.476-4.978" fill="#8F9274"/><path d="M52.25 139.744l-.065.448c3.501.52 13.133-1.062 13.542-1.127.022-.003.996-.15 3.357.516 2.187.616 6.05 2.08 12.033 5.535l.226-.39c-11.65-6.739-15.539-6.13-15.693-6.108-.106.016-9.97 1.634-13.4 1.126" fill="#8F9274"/><path d="M43.245 145.062c.265-2.456 2.342-4.246 4.643-3.998 2.298.247 3.948 2.439 3.683 4.898-.266 2.456-2.343 4.247-4.643 3.998-2.299-.247-3.947-2.44-3.683-4.898" fill="#D6352E"/><path d="M48.681 141.175c-2.386-.625-3.848-2.946-3.264-5.187.584-2.24 2.994-3.55 5.382-2.924 2.388.623 3.852 2.948 3.265 5.185-.584 2.24-2.994 3.55-5.383 2.926M48.596 128.142c.265-2.456 2.343-4.248 4.641-3.997 2.3.246 3.948 2.44 3.685 4.897-.265 2.457-2.344 4.249-4.643 4-2.298-.25-3.947-2.443-3.683-4.9" fill="#EE603F"/><path d="M37.34 138.7c.228-2.103 2.007-3.635 3.976-3.424 1.966.214 3.379 2.091 3.152 4.196-.228 2.103-2.006 3.635-3.976 3.424-1.967-.213-3.379-2.092-3.152-4.196" fill="#DF8458"/><path d="M41.396 133.64c-2.187-1.144-3.093-3.736-2.024-5.788 1.07-2.051 3.71-2.788 5.9-1.648 2.187 1.145 3.094 3.736 2.022 5.788-1.066 2.053-3.708 2.79-5.898 1.647" fill="#F08065"/><path d="M126.876 131.162s4.869-.022 5.778-5.067l.91-5.043s-3.79 1.702-5.177 3.608c-1.387 1.904-3.456 3.94-1.511 6.502" fill="#8F9274"/><path d="M128.418 149.906s-2.044-3.235-.07-3.925c1.976-.69 10.31-2.836 11.152-5.439 0 0 1.869-3.158 1.401-4.403-.465-1.248 3.387 3.882.44 9.013 0 0 .231 5.485-4.324 6.009-4.558.526-2.097 4.898-4.912 2.867-2.817-2.035-2.838.325-3.42-.714-.584-1.04-.267-3.408-.267-3.408" fill="#E4A14D"/><path d="M156.44 128.898s11.496 3.215 17.176-7.593l5.676-10.808s-10.127 1.313-14.731 4.693c-4.604 3.381-10.91 6.603-8.12 13.708" fill="#A0D22E"/><path d="M150.397 155.587s.398 3.51 4.077 7.591c3.677 4.079 8.193 5.393 7.78 7.621-.41 2.234 3.979-5.933-.178-10.008-4.164-4.073-4.039-4.197-7.933-5.849-3.892-1.656-3.746.645-3.746.645" fill="#AAB462"/><path d="M175.492 157.225c3.512-.708 6.795-2.667 10.093-1.988 3.297.678 5.298 4.406 6.083 7.094.786 2.688-.88 2.882-1.348 3.266-.468.382-2.21-.473-5.724-1.416-3.514-.945 1.522-3.28-4.447-2.793-5.97.485-7.79-1.283-7.79-1.283s-1.722-1.898 3.133-2.88" fill="#FADF27"/><path d="M170.432 157.892c10.266-2.973 10.649-4.516 10.083-4.903-.564-.389-12.165-7.427-14.49 3.239-2.328 10.664 8.09 12.262 8.09 12.262s.362-6.1-3.683-10.598" fill="#8DBC28"/><path d="M165.13 154.415l.942-1.095c-.427-.368-10.511-8.942-18.598-7.19l.306 1.411c7.393-1.597 17.253 6.79 17.35 6.874M149.204 144.883c2.819-4.578 9.674-3.739 9.742-3.731l.187-1.433c-.318-.04-7.854-.96-11.158 4.405l1.229.759z" fill="#89A571"/><path d="M159.602 137.153c2.564-7.065 11.705-8.214 10.476-7.7-1.23.513-8.292 4.025-5.045 10.374 3.244 6.348 13.234-3.078 14.139-1.514.902 1.566-.426 3.674-.426 3.674-10.155 7.973-17.974.704-17.974.704l-1.17-5.538z" fill="#8DBC28"/><path d="M174.086 162.284s5.159 13.247 15.232 6.83c0 0 1.216-2.101-2.75-3.344-3.97-1.244-5.57-.764-5.57-.764s-2.286.011-3.348-1.726c-1.063-1.735-3.564-.996-3.564-.996" fill="#F5B332"/><path d="M161.72 105.858l-.3-.364c-2.623 2.165-12.787 3.943-15.157 4.332 1.084-1.814 5.349-8.747 7.716-9.283l-.105-.464c-2.913.662-8.059 9.564-8.275 9.943l-.247.426.487-.075c.522-.077 12.82-1.985 15.88-4.515M145.46 109.99c-.005-.104-.407-10.363 3.29-14.252l-.342-.328c-3.84 4.04-3.44 14.17-3.42 14.6l.472-.02z" fill="#8F9274"/><path d="M157.986 102.83l-.337-.333c-2.562 2.574-11.861 7.384-11.953 7.431-.15.076-3.782 1.992-9.367 14.933l.435.19c5.485-12.715 9.11-14.68 9.145-14.7.389-.198 9.459-4.894 12.077-7.521" fill="#8F9274"/><path d="M168.526 101.334c-1.753-1.896-4.612-2.1-6.388-.455-1.777 1.644-1.793 4.518-.039 6.412 1.754 1.9 4.615 2.104 6.392.457 1.774-1.644 1.788-4.513.035-6.414" fill="#D6352E"/><path d="M161.538 101.469c1.615-2.017 1.397-4.88-.491-6.399-1.888-1.511-4.727-1.107-6.344.913-1.613 2.016-1.394 4.88.494 6.394 1.883 1.515 4.723 1.107 6.341-.908M153.481 90.474c-1.75-1.898-4.613-2.102-6.384-.456-1.78 1.644-1.794 4.518-.039 6.413 1.754 1.897 4.613 2.104 6.39.456 1.775-1.644 1.791-4.515.033-6.413" fill="#EE603F"/><path d="M169.52 92.303c-1.501-1.624-3.952-1.798-5.473-.39-1.518 1.41-1.535 3.867-.032 5.492 1.502 1.623 3.951 1.797 5.47.392 1.52-1.413 1.534-3.87.035-5.494" fill="#DF8458"/><path d="M162.957 90.587c1.124-2.33.27-5.068-1.906-6.123-2.179-1.055-4.858-.022-5.983 2.307-1.121 2.325-.269 5.071 1.91 6.123 2.175 1.053 4.854.02 5.98-2.307" fill="#F08065"/><path d="M93.935 150.228l.675.873c-2.006 2.146-16.499 4.483-18.166 4.683l-.133-1.1c.406-.046 14.739-2.723 17.624-4.456" fill="#89A571"/><path d="M54.235 160.15c-6.144 2.504-12.123 6.122-15.761 11.304l.716.505c9.738-13.881 36.947-16.28 37.222-16.3l-.072-.874c-.177.014-11.39 1-22.105 5.365" fill="#89A571"/><path d="M69.365 180.806c15.982-6.893 13.337-21.287 13.337-21.287s-11.205 3.175-13.337 21.287" fill="#D3A35F"/><path d="M85.26 153.9c-2.366 2.376-3.22 6.277-3.255 6.441l.854.183c.009-.037.84-3.816 3.02-6.006l-.62-.618z" fill="#89A571"/><path d="M59.75 181.853c15.983-6.894 13.332-21.287 13.332-21.287s-11.202 3.18-13.333 21.287" fill="#F5B332"/><path d="M75.641 154.953c-2.368 2.368-3.22 6.27-3.256 6.434l.855.184c.008-.038.84-3.815 3.02-5.999l-.619-.619z" fill="#89A571"/><path d="M50.254 181.309c14.482-6.247 12.08-19.289 12.08-19.289s-10.149 2.878-12.08 19.289" fill="#7BA322"/><path d="M64.603 156.763c-2.148 2.15-2.919 5.684-2.952 5.832l.777.166c.006-.033.756-3.455 2.735-5.437l-.56-.561z" fill="#89A571"/><path d="M43.33 184.423c10.654-5.828 8.502-18.893 8.502-18.893s-7.51 2.588-8.503 18.893" fill="#D3A35F"/><path d="M53.326 160.431c-1.535 2.075-2.014 5.554-2.031 5.7l.676.092c.004-.034.476-3.452 1.905-5.383l-.55-.409z" fill="#89A571"/><path d="M25.23 180.367c17.392-.644 20.118-15.018 20.118-15.018s-11.588-1.094-20.118 15.018M36.65 155.397c13.472-8.203 22.702 1.303 22.702 1.303s-8.22 6.622-22.702-1.303" fill="#9E9776"/><path d="M58.804 156.2l-.314.728c.14.06 3.464 1.471 6.455.966l-.132-.78c-2.76.467-5.978-.903-6.009-.914" fill="#89A571"/><path d="M27.399 162.187c9.165-7.982 20.651-1.426 20.651-1.426s-5.034 6.158-20.651 1.426" fill="#7BA322"/><path d="M47.45 160.394l-.15.669c.143.032 3.565.79 6.045.068l-.192-.659c-2.308.673-5.669-.068-5.703-.078" fill="#89A571"/><path d="M48.334 150.11c14.769-5.046 21.992 3.956 21.992 3.956s-9.316 4.41-21.992-3.956" fill="#C68162"/><path d="M69.831 153.547l-.344.637c.126.069 3.104 1.647 6.106 1.61l-.008-.725c-2.815.036-5.727-1.507-5.754-1.522" fill="#89A571"/><path d="M66.701 150.817c10.206-3.203 15.1 2.227 15.1 2.227s-6.45 2.774-15.1-2.227" fill="#D3A35F"/><path d="M81.444 152.714l-.199.426c.086.04 2.115.973 4.172.926l-.011-.47c-1.945.047-3.944-.872-3.962-.882" fill="#89A571"/><path d="M165.916 138.714s1.587 4.457 10.148-1.518c0 0 4.052-.94 5.432-.93 1.378.011 6.431-5.716 5.564-9.13-.866-3.42-8.573-2.02-10.162-.64-1.59 1.384-6.402 1.943-9.325 8.207-2.926 6.265-1.657 4.01-1.657 4.01" fill="#F5B332"/><path d="M150.54 128.8s7.629 4.856 6.993 11.321c0 0 .484 11.165-5.227 13.045-5.712 1.88-10.5 3.992-10.5 3.992s-6.307.997-10.779-6.012c0 0-4.767-4.51-2.53-11.495 0 0 1.768-9.678 7.743-11.31l5.822-1.668 1.637-3.27s-1.248-4.177-2.173-4.409c-.925-.231 3.41.119 4.012 2.293 0 0 .648-2.597 3.461-3.363 0 0 .955 2.076.195 4.464 0 0 4.152-1.538 7.454-.338 0 0-4.613 1.418-5.243 3.285-.63 1.867-.866 3.464-.866 3.464" fill="#9F4747"/><path d="M146.27 152.414c16.06-6.653 5.54-19.892 5.54-19.892s2.995 16.015-5.54 19.892" fill="#F08065"/><path d="M146.27 152.414c16.06-6.653 5.54-19.892 5.54-19.892s2.995 16.015-5.54 19.892" fill="#BB5757"/><path d="M139.988 129.768c-8.58-1.085-7.289 7.232-7.289 7.232s2.646-7.661 7.289-7.232" fill="#F08065"/><path d="M139.988 129.768c-8.58-1.085-7.289 7.232-7.289 7.232s2.646-7.661 7.289-7.232" fill="#BB5757"/><path d="M119.592 167.314s-.903 4.426 4.769 7.993c5.67 3.569 7.803 3.29 7.803 3.29s4.996 1.687 5.01 3.305c.014 1.616 3.262-4.075-2.641-10.66-5.905-6.583-7.998-3.751-10.49-4.371-2.487-.619-4.45.443-4.45.443" fill="#748717"/><g transform="translate(188.525 121.379)"><mask id="b" fill="#fff"><use xlink:href="#a"/></mask><path d="M7.211 8.72c4.154 1.952 6.695-7.539 6.695-7.539.82 3.874 7.298-.877 7.486-1.016-4.764 5.973-3.142 11.887-3.142 11.887 2.168 2.336 9.284-2.295 9.284-2.295-3.605 5.594 6.707 6.079 6.707 6.079-9.575 3.413-3.603 6.422-3.603 6.422-6.421.604-7.31 2.904-7.31 2.904-1.131 2.11 4.284 5.376 4.284 5.376-2.352 1.6.917 6.119 1.021 6.262-3.47-2.715-6.79.702-6.79.702-4.677-2.44-5.53 3.492-5.567 3.759.38-3.957-4.646-6.259-4.646-6.259-2.733.06-4.482 5.19-4.529 5.332 1.468-6.2-2.542-8.822-2.542-8.822.454-2.27-3.117-2.123-3.305-2.113 3.08-.519 2.22-6.774 2.22-6.774l-.176-.45C2.488 18.916.101 17.06.101 17.06 4.227 13.801 3.45 5.68 3.45 5.68 5.287 8.016 7.21 8.72 7.21 8.72" fill="#E95B34" mask="url(#b)"/></g><path d="M191.823 143.554l.177.45s-10.745 3.571-11.878 7.119c0 0-.421-1.471-.663-1.662 0 0 8.706-4.87 12.364-5.907" fill="#DE8922"/><path d="M101.43 35.021c-1.56-4.32-10.059.592-10.059.592 2.157-3.32-5.78-4.547-6.01-4.582 7.586-.85 10.616-6.181 10.616-6.181.117-3.186-8.185-4.95-8.185-4.95 6.5-1.403-.45-9.046-.45-9.046 9.181 4.364 7.084-1.99 7.084-1.99 4.966 4.118 7.22 3.121 7.22 3.121 2.288-.69.766-6.834.766-6.834 2.794.533 3.674-4.976 3.7-5.151.537 4.375 5.299 4.311 5.299 4.311 1.582 5.037 6.376 1.446 6.59 1.283-3.064 2.529-1.135 7.715-1.135 7.715 1.975 1.893 6.835-.497 6.968-.564-5.416 3.345-4.433 8.038-4.433 8.038-1.924 1.284.705 3.708.845 3.834-2.544-1.814-6.354 3.218-6.354 3.218l-.193.442c-1.73 2.88-1.352 5.882-1.352 5.882-5.22-.618-10.404 5.676-10.404 5.676.349-2.953-.514-4.814-.514-4.814" fill="#F8BE37"/><path d="M113.7 28.277l.191-.442s10.122 5.082 13.427 3.375c0 0-.74 1.338-.704 1.645 0 0-9.595-2.72-12.914-4.578" fill="#F8BE37"/><path d="M106.574 166.6s-11.702-4.704-18.909 5.992l-7.206 10.695s10.789-.21 16.013-3.23c5.222-3.021 12.211-5.676 10.102-13.458" fill="#A0D22E"/><path d="M28.768 116.658c2.354-1.627-2.034-4.529-2.163-4.612 4.84 1.435 8.357-1.29 8.357-1.29 1.084-2.078-3.354-5.43-3.354-5.43 4.36.785 2.606-6.1 2.606-6.1 4.14 5.305 4.898.549 4.898.549 1.68 4.032 3.354 3.966 3.354 3.966 1.598.147 2.634-4.318 2.634-4.318 1.513 1.09 3.794-2.323 3.866-2.43-1.068 3.033 1.82 4.244 1.82 4.244-.649 3.748 3.38 2.636 3.56 2.585-2.649.865-3.136 4.802-3.136 4.802.586 1.772 4.272 1.472 4.374 1.463-4.325.784-5.224 4.147-5.224 4.147-1.568.342-.755 2.637-.711 2.759-.955-1.87-4.85.454-4.85.454l-.255.242c-1.957 1.447-2.684 3.533-2.684 3.533-2.947-1.783-8.07 1.013-8.07 1.013 1.15-1.86 1.221-3.32 1.221-3.32.436-3.267-6.243-2.257-6.243-2.257" fill="#F5B332"/><path d="M44.8 117.447s4.478 6.025 7.01 5.767c0 0-.87.69-.946.902 0 0-4.913-4.325-6.32-6.427l.255-.242z" fill="#DE8922"/><path d="M20.297 116.152c2.827 4.775 6.246-.28 6.398-.508-2.122 3.474 1.063 8.307 1.063 8.307 2.328 1.407 6.135-2.42 6.24-2.527-4.058 4.972-1.876 9.56-1.876 9.56-1.416 1.865 1.658 3.642 1.82 3.735-2.828-1.17-4.951 5.104-4.951 5.104l-.056.51c-.802 3.465.363 6.468.363 6.468-4.957.815-7.997 8.78-7.997 8.78-.487-3.155-1.786-4.843-1.786-4.843-2.608-4.041-9.067 3.416-9.067 3.416 1.074-4.038-6.543-3.096-6.765-3.069 6.73-2.996 8.057-9.36 8.057-9.36-.762-3.332-8.861-2.845-8.861-2.845C8.459 135.616 0 129.638 0 129.638c9.614 1.96 5.956-4.038 5.956-4.038 5.68 2.882 7.476 1.222 7.476 1.222 1.912-1.354-1.162-7.293-1.162-7.293 2.71-.225 2.015-6.176 1.993-6.365 1.683 4.382 6.034 2.988 6.034 2.988" fill="#F27C37"/><path d="M42.032 141.474s-9.547-.142-13.097-1.14l.056-.511s10.671 2.44 13.238-.249c0 0-.313 1.592-.197 1.9" fill="#DB8F54"/><g transform="translate(106.317 166.516)"><mask id="d" fill="#fff"><use xlink:href="#c"/></mask><path d="M6.94.137s-10.092 6.38-5.896 17.848l4.2 11.463s5.819-8.4 6.403-14.088C12.231 9.674 14.073 2.83 6.94.137" fill="#F5B332" mask="url(#d)"/></g><path d="M124.8 86.27c-.3-.153-.518-.088-.821-.082.3.186.523.234.822.083m-16.969-14.228c-.1.366-.22.728-.291 1.1-.072.379.061.485.408.33.414-.185.803-.432 1.264-.505.81-.128 1.563-.433 2.276-.82 1.048-.568 1.645-1.481 1.828-2.648.113-.718-.264-1.167-.99-1.246a1.976 1.976 0 0 0-.527.023c-1.435.244-2.494 1.036-3.268 2.25-.304.475-.497.994-.7 1.516m15.003 9.328c-.382.836-.3 1.803.138 2.784.465 1.039 1.723 1.745 2.783.497.648-.763.988-1.663.848-2.681a13.063 13.063 0 0 0-.98-3.511c-.238-.54-.394-.584-.813-.135-.795.854-1.521 1.765-1.976 3.046m-7.26 16.214c1.854.375 3.6.542 5.218 1.284 1.59.727 3.055 1.628 4.385 2.827.741-1.42.202-3.339-.837-4.419-1.719-1.786-4.565-2.067-6.746-1.04-.682.321-1.36.668-2.02 1.348M78.34 49.272c.998-2.988.33-6.793-3.411-7.122-3.402-.298-6.734 1.855-9.208 3.954-.381.324-.326.49.174.666 3.672 1.289 7.466 2.074 11.161 3.248.831.264.977.177 1.284-.746m31.437 4.15c.147.146.305.118.454.111 5.03-.214 11.02-1.125 14.283-5.506.833-1.119 1.311-2.785 1.183-4.187-.243-2.635-3.041-3.167-5.235-2.442-5.303 1.753-8.8 6.717-10.66 11.749-.034.09-.019.197-.025.275m-53.534 8.636c-.165.492-.32.99-.463 1.496-.57 2.006-.881 4.03-1.214 6.082-.044.276-.174.613.052.795.232.187.533-.023.776-.15 1.148-.6 2.337-1.114 3.506-1.665 2.594-1.225 4.943-2.836 7.202-4.56 3.553-2.712 6.632-5.92 9.31-9.507.227-.306.474-.6.681-.919.211-.326.154-.432-.22-.517-2.222-.507-4.414-1.135-6.598-1.785-2.006-.596-4.066-1.425-6.14-1.728-.337-.05-.696-.1-.93.316-2.247 3.986-4.508 7.817-5.962 12.142M55.22 86.41l.197.038c.187-1.659.792-3.198 1.264-4.776.642-2.147 2.03-5.235 4.093-6.4 2.248-1.268 5.172 1.549 4.721 3.802-.32 1.598-.706 3.175-1.22 4.723-.162.482-.318.968-.434 1.462-.35 1.485-.75 2.957-.995 4.465-.187 1.152-.502 2.282-.512 3.462-.01 1.153.116 2.285.461 3.385.08.257.177.584.52.58.282-.002.416-.27.52-.504.281-.625.591-1.237.803-1.895.81-2.519 1.478-5.077 2.204-7.618 1.031-3.618 1.883-7.296 3.361-10.776.127-.298.095-.534-.153-.749-.151-.134-.28-.294-.43-.432-.718-.664-1.016-1.507-1.025-2.461-.01-1.018.304-1.965.778-2.844 1.92-3.567 4.887-4.939 8.716-5.606 1.928-.337 3.406-.095 4.475 1.74.113.196.276.4.139.632-.142.236-.394.186-.623.155-2.154-.299-4.479.084-6.467.95-2.343 1.022-4.727 3.58-5.185 6.14-.072.399.07.955.329 1.27.322.39.84.409 1.238.337.949-.171 1.774-.613 2.54-1.171 1.439-1.047 2.864-2.114 4.301-3.162 1.356-.989 2.493-2.244 3.917-3.155.563-.36 1.552.044 1.842.583.413.769.11 2.393-.142 3.173-.658 2.037-1.555 3.993-2.23 6.027-.625 1.885-1.232 3.763-1.486 5.738-.097.752-.255 1.513-.052 2.271.2.748.55.849 1.137.342.594-.514.934-1.202 1.252-1.895 1.18-2.57 2.073-5.25 3.027-7.905.492-1.367.708-2.815 1.137-4.201.206-.668.457-1.321.807-1.927.124-.213.315-.42.386-.658.017-.058.06-.815-.068-.745 2.149-1.185 3.954 1.614 3.765 3.52-.009.08.01.203.235.18.208-1.206.629-2.377 1.035-3.551.488-1.41 1.114-2.722 2.264-3.739 1.175-1.04 3.467-1.616 4.693-.364 1.336 1.366.234 4.391-.063 5.973-.877 4.662-2.308 9.324-2.757 14.052-.06.65-.496 4.303.45 4.412 1.058.12 1.587-2.796 1.849-3.492.896-2.38 1.304-4.883 1.867-7.354.31-1.356.68-2.706 1.222-3.99.32-.761.436-1.558.477-2.38.108-2.232.1-4.47.441-6.69.31-2.01.551-4.03 1-6.019.215-.946.548-1.855.773-2.795.114-.476.266-.248-.249-.238-3.434.07-7.031.044-10.468-.052-3.53-.098-7.004-.68-10.463-1.349-2.06-.398-4.113-.83-6.17-1.237-.29-.057-.5.039-.655.272-2.178 3.287-4.919 6.161-7.82 8.814-.888.809-1.812 1.58-2.8 2.266-3.691 2.56-7.707 4.684-12.01 6.004-.492.15-.696.387-.728.903-.298 4.868.267 9.65.969 14.459m56.83 12.484c-.578-.178-1.194-.126-1.786-.098-8.764.413-13.815 6.826-23.167 11.145-3.7 1.71-9.571 1.73-13.078-.448-3.127-1.944-5.523-6.744-4.298-10.347 1.719-5.06 7.539-7.982 12.807-5.061.461.256-.128.253-.589.397-3.041.955-5.59 4.483-3.266 7.311 2.425 2.95 7.334 2.799 10.511 1.353 5.06-2.302 10.346-4.416 15.843-5.43 2.668-.494 5.33-.693 8.036-.473.425.035.732-.056 1.015-.352 1.863-1.957 4.627-3.536 7.393-3.253 3.567.365 7.43 4.095 6.285 7.91-.153.51-1.284 2.502-2.025 2.311-.843-.217-1.575-1.227-2.247-1.74-1.913-1.457-7.046-4.065-9.528-2.861-1.405.68-1.997 2.567-2.416 3.945-.796 2.62-.993 5.747.067 8.307.955 2.307 2.666 4.4 4.704 5.831 1.17.822 2.547 1.567 3.899 2.041 8.25 2.888 13.142-6.331 15.098-12.685 2.81-9.134 3.373-18.415 3.14-27.915-.065-2.635-.168-5.268-.247-7.902-.006-.22.027-.453-.198-.735-.754 2.028-2.75 5.203-5.16 5.34-.81.046-1.687-.242-2.391-.626-1.293-.706-1.284-.748-2.431.313-.24.222-.282.426-.13.737 1.355 2.774 2.819 7.372.074 9.825-.645.578-1.779 1.113-2.657 1.145-1.134.042-2.448-.431-3.17-1.317-.846-1.036-1.008-2.467-.739-3.74.154-.734.423-1.5.767-2.166.482-.935 1.185-1.712 1.867-2.499.583-.671.612-.674.075-1.407-.95-1.291-1.964-2.527-3.137-3.628-.364-.343-.645-.776-.968-1.163a.58.58 0 0 0-.392-.232c-.006.393-.038.78-.014 1.162.233 3.648-.114 8.024-1.304 11.49-.713 2.074-2.535 4.8-5.224 3.66-1.025-.435-1.684-1.187-2.223-2.105-.884-1.502-1.107-3.261-1.217-4.971-.062-.977.023-1.985-.21-2.945-.292-1.206-1.117-1.775-2.081-2.453-.267.228-.326.482-.358.731-.249 1.958-.632 3.94-.374 5.917.06.45.033.914.031 1.371-.001.376-.2.544-.526.391-.811-.38-1.64-.225-2.068-1.132-.243-.512-.724-5.352-.678-5.352-.271.002-.23.21-.25.325-.327 1.915-.856 3.79-1.244 5.693-.373 1.834-.737 3.705-1.375 5.47-.47 1.304-1.476 2.627-3.045 2.453-.848-.093-1.91-1.063-2.313-1.765-.533-.93-.614-2.075-.67-3.122-.194-3.569.43-7.129 1.326-10.57.446-1.717.962-3.415 1.497-5.106.222-.7 2.085-5.57-.273-4.407-2.211 1.092-3.154 4.59-3.658 6.76-.201.862-.367 1.733-.548 2.6-.28 1.342-.434 2.719-.935 4.004-.437 1.118-1.46 2.771-2.908 2.546-1.09-.171-.736-1.883-.633-2.601.307-2.149.276-4.294.353-6.457-.265.142-.286.322-.334.472-1.073 3.336-2.065 6.698-3.39 9.945-.833 2.041-1.516 5.394-4.485 4.568-.048-.015-.096-.033-.145-.046-2.055-.501-2.884-2.664-2.868-4.528.022-2.602.71-5.202 1.723-7.584.578-1.359 1.261-2.673 1.95-3.978.113-.217.277-.418.227-.731-.36.086-.584.349-.827.547-1.204.987-2.52 1.854-3.77 2.786-1.413 1.054-3.147 2.452-4.987 2.549-.324.017-.475.14-.584.466-.653 1.956-1.253 3.928-1.71 5.937-.455 2.008-1.015 3.989-1.53 5.979-.386 1.49-.745 2.988-1.148 4.473-.475 1.752-.742 3.955-2.467 4.976-1.306.774-3.143.225-4.116-.891a4.693 4.693 0 0 1-1.028-2.022c-.924-3.841-.113-7.762 1.038-11.463.718-2.308 2.153-4.474 2.451-6.9a1.432 1.432 0 0 0-.137-.817c-.095-.195-.257-.255-.441-.155a2.162 2.162 0 0 0-.425.318c-2.985 2.733-4.165 7.021-4.82 10.877a66.027 66.027 0 0 0-.487 3.507c-.103.901-.198 1.87-.945 2.495-.078.065-.138.152-.22.212-.643.47-.919.434-1.52-.104-1.538-1.376-2.036-3.488-2.31-5.452-.332-2.37-.68-4.792-.778-7.184-.009-.217.013-.46-.222-.733-.175.483-.355.911-.487 1.354-1.286 4.32-2.748 8.784-5.19 12.606-1.544 2.414-3.863 5.314-6.703 6.206-4.048 1.27-8.718-1.727-10.473-5.295-1.97-4.007-1.358-8.664.004-12.755.885-2.657 2.106-5.196 3.362-7.693 3.104-6.174 6.436-12.255 8.487-18.888.436-1.408.836-2.9.674-4.386-.067-.611-.845-3.466-1.843-3.182.288-.082.49-.015.666.062 5.656 2.476 4.846 7.738 3.116 12.701-1.745 5.004-3.857 9.869-6.088 14.671-2.591 5.577-8.997 16.719-3.295 22.28 1.608 1.569 3.933 2.1 5.97 1.065 1.142-.58 2.274-1.559 3.09-2.544 1.05-1.266 1.883-2.714 2.672-4.154 2.052-3.744 3.567-7.618 4.72-11.73.331-1.18.635-2.366.913-3.559 1.109-4.758 1.174-9.567 2.674-14.273a44.891 44.891 0 0 1 6.648-13.013c.303-.41.27-.543-.207-.714-10.725-3.848-25.993-6.254-33.892 4.525-1.719 2.345-3.272 6.269-3.163 9.232.064 1.75.608 5.42 2.206 6.565-2.775 1.913-9.867 1.143-12.47-4.059-2.998-5.99-.253-11.938 4.188-16.301 3.734-3.668 9.247-5.894 14.284-6.996 8.289-1.813 17.004-.256 25.033 2.042 2.217.635 4.442 1.315 6.61 2.104.502.182.9.09 1.32-.27 3.348-2.859 7.495-5.113 12.046-4.312 4.52.796 5.54 4.756 4.344 8.772-.172.581-.146.628.444.803 8.272 2.451 17.225 2.775 25.786 2.845.805.006.826.034 1.133-.709 1.521-3.67 3.45-7.29 6.43-9.985 2.613-2.364 7.595-5.221 11.06-2.955 2.623 1.719 3.06 5.921 1.626 8.557-1.79 3.286-5.633 5.218-9.065 6.322-2.554.822-5.56.719-8.187 1.14-.256.04-.102.023-.174.275-.695 2.436-1.383 4.895-1.747 7.406-.295 2.034-.595 4.07-.65 6.133a57.322 57.322 0 0 0-.01 3.112c.285-.325.31-.62.373-.888.638-2.711 2.405-4.285 5.028-4.971 1.158-.303 2.348.227 2.928 1.274.38.683.317 1.444.17 2.157-.462 2.233-1.85 3.666-3.98 4.41-.141.048-.305.061-.376.228.018.046.022.111.056.137 2.018 1.501 2.522 3.603 2.287 5.951-.125 1.253.07 2.428.519 3.576.415 1.061 1.782 1.316 2.655.743 1.06-.698 1.365-2.153 1.682-3.295 1.008-3.632.774-7.34.914-11.063.048-1.27-.024-2.405-.634-3.586-1.54-2.983-.966-7.536 1.927-9.554 2.748-1.918 7.203-1.03 8.84 2.266.72 1.451.572 5.082-1.196 4.289.384.173 1.16-2.895-.296-4.507-1.158-1.28-3.034-1.768-4.595-1.044-5.75 2.672-1.086 9.53 1.69 12.28.831.823 1.644 1.654 2.335 2.595.225.305.383.345.658.104a15.3 15.3 0 0 1 1.003-.822c.252-.188.27-.385.159-.66-1.233-3.023.71-6.272 3.037-8.16 1.001-.811 2.593-1.5 3.902-1.48.867.012 2.269.984 2.128 2.011-.054.388-.295.601-.643.66-1.747.3-3.53 1.218-4.805 2.437-1.47 1.404-3.48 6.93.423 6.62 1.983-.156 3.71-3.409 4.523-4.928.51-.955 1.685-2.8 1.243-3.941-.084-.217-.145-.461.128-.6.234-.119.45-.148.702.039 3.28 2.455 3.218 6.775 3.344 10.445.17 4.956.186 9.936-.064 14.889-.297 5.857-1.014 11.771-2.831 17.366-2.564 7.888-9.13 16.206-18.51 14.08-5.898-1.335-11.062-6.373-11.38-12.592-.148-2.873.563-7.472 2.214-9.901.095-.14.26-.246.246-.509M160.476 64.044c.263-.716.434-1.455.584-2.2.11-.552.006-1.063-.21-1.556-.15-.343-.438-.39-.633-.082-.668 1.051-1.233 2.148-1.242 3.443-.003.652.203 1.245.524 1.799.185.32.386.314.526-.034.179-.445.303-.912.451-1.37m31.706 31.3c.303-.944.596-1.892.884-2.842.185-.614.12-.674-.502-.586-.05.007-.1.021-.15.027-1.88.226-3.678.875-5.492 1.39-1.85.526-3.71 1.016-5.523 1.663-1.191.426-2.36.918-3.475 1.518-3.128 1.682-5.766 5.49-3.718 8.98 1.785 3.04 5.356 4.029 8.639 3.112.964-.27 1.92-.659 2.734-1.25 3.51-2.547 4.968-7.03 6.265-10.972.114-.347.226-.693.338-1.04m-22.016-25.775c-.14.11-1.496 2.547-2.178 3.62-.812 1.277-1.962 3.205-3.523 3.64-1.066.297-1.827-.14-2.436-1.203-1.127-1.97.02-4.157.664-6.074.12-.356.296-.636.517-1.072-.799-.013-2.232-.212-2.768-.488-.187.308-.488.8-.74 1.173-.844 1.251-1.621 2.562-2.595 3.764-.634.78-1.387 1.425-2.383 1.812-2.866 1.112-2.511-2.812-2.323-4.502.088-.796.11-1.593.097-2.393-.002-.101-.014-.206-.125-.262-.162.054-.203.217-.266.343-.622 1.235-1.665 2.112-2.634 3.04-.635.61-1.445.967-2.34.978-.8.01-1.458-.395-2.01-.947-.667-.667-.93-1.5-.903-2.432.03-1.003.238-1.963.687-2.867.11-.222.285-.423.253-.7-.217-.122-.406-.01-.576.082-.957.515-1.99.55-3.036.507-.36-.016-.732-.459-.542-.836.207-.408.612-.103.966-.093.477.013.905-.126 1.34-.302 1.292-.524 2.538-1.158 3.804-1.738.308-.142.538-.35.716-.653.484-.815 1.278.165 1.594.586.548.73.582 1.291.097 2.07-.832 1.334-1.78 2.605-2.294 4.116-.173.506-.342 1.017-.363 1.556-.021.538.165.69.695.592.356-.067.67-.231.953-.457 1.55-1.241 2.805-2.723 3.658-4.529.132-.278.235-.564.223-.879-.042-1.114.01-2.24-.401-3.312-.005-.011 1.692.305 1.884.41.586.322 1.027.83 1.307 1.434 1.228 2.655.673 6.372.09 9.117-.009.046.01.099.015.149.076.052.15.026.2-.027 1.338-1.416 2.37-3.108 3.315-4.814.291-.526.291-.572-.17-.96-.936-.786-1.683-1.697-1.96-2.922-.35-1.55-.202-3.167.703-4.487.77-1.12 1.926-1.706 3.266-1.088 2.925 1.348 1.433 5.318.767 7.532-.167.559-.123.667.442.819.636.17 1.404.44 1.901.003.513-.453.615-1.253.675-1.977.02-.261-.156-.473-.163-.784 1.05.156 1.882.646 2.566 1.39.32.347.342.78.167 1.219-.623 1.553-1.444 3.017-2.119 4.548-.297.673-1.803 3.762-.958 4.339.312.212.611-.124.88-.297.855-.55 1.392-1.403 2.01-2.171 1.23-1.53 2.116-3.293 3.268-4.876.3-.413-.023-.705-.147-1.04.005.016.874.039.971.062.302.072.572.202.81.401.452.378.733.95.884 1.51.399 1.468-.399 5.4-.594 5.54.29-.209.418-.504.59-.765 1.488-2.265 3.185-4.351 5.261-6.103.978-.825 2.032-1.526 3.333-1.76 1.216-.22 2.466.6 2.47 1.882.004 1.019-.503 2.073-.973 2.947-1.936 3.605-4.002 7.246-5.603 11.014-.429 1.008-.953 1.976-1.122 3.074-.171 1.116.584 2.131 1.72 2.083 2.485-.106 4.415-3.478 5.583-5.288.967-1.497 1.74-3.102 2.61-4.652.1-.178.21-.35.331-.514.215-.292.258-.583.097-.925-.78-1.66-.698-3.403-.485-5.16.3-2.465 1.23-4.679 2.81-6.573 2.347-2.816 5.559-4.423 9.216-4.52 2.214-.057 3.568 2.151 2.82 4.207-.386 1.065-3.619.49-4.542.587-1.737.183-3.228.845-4.426 2.142-2.394 2.593-4.133 7.334-2.968 10.832.185.555.505.972 1.046 1.242 1.127.563 2.204.487 3.26-.17 1.818-1.127 3.268-2.92 4.298-4.773.379-.682 1.574-5.105 1.978-5.059 1.377.158 2.664.703 3.077 2.132.502 1.744-1.702 12.224-2.473 15.618-.016.075-.036.15-.047.225-.062.446.025.533.425.38 8.8-3.353 15.508-13.226 14.273-22.363-1.07-7.904-6.04-11.961-14.244-14.126-3.926-1.035-11.029.348-14.2 1.748-.096-1.911 2.094-5.198 3.226-6.634 1.55-1.965 3.647-3.42 5.996-4.265 4.915-1.771 10.393-.765 14.764 1.94 2.322 1.44 4.73 3.433 6.436 5.583 1.965 2.473 3.833 5.81 4.702 8.864a26.383 26.383 0 0 1 .997 7.297c-.022 7.815-6.36 15.864-13.085 20.57-1.974 1.381-4.15 2.533-6.318 3.575-1.071.513-2.187.968-3.35 1.223-.375.082-.532.258-.614.647-1.615 7.772-5.61 22.08-15.895 21.383-2.852-.194-6.816-2.042-8.703-4.239-.81-.943-1.732-2.276-2.062-3.494-1.031-3.796.667-7.516 3.76-9.71 3.56-2.525 7.828-3.98 12.068-4.847 1.862-.38 3.772-.808 5.587-1.375.487-.152.766-.39.911-.892.929-3.201 1.4-6.513 2.279-9.726.186-.68.304-1.38.475-2.173-.416.204-.622.468-.838.74-.759.96-1.626 1.808-2.67 2.456-1.655 1.028-4.462.939-6.125-.96-.21-.24-.356-.679-.689-.645-.367.038-.323.524-.472.805-1.074 2.024-2.244 4.012-3.552 5.893-.966 1.391-2.064 3.122-3.633 3.896-2.612 1.287-5.911-.112-5.862-3.233.022-1.426.413-2.771.962-4.063a67.815 67.815 0 0 1 4.127-8.167c.522-.88 1.126-1.709 1.64-2.597.244-.42 1.744-2.516 1.342-2.963-.358-.398-2.12.58-2.412.792-1.188.859-2.172 1.917-3.126 3-.821.93-1.6 1.909-2.256 2.972-.893 1.447-1.886 2.83-2.757 4.293-.268.452-.654.838-1.004 1.238-.296.337-.636.498-1.053.159-.094-.076-.24-.08-.356-.132-1.525-.694-.157-3.2.222-4.218.538-1.443.993-2.92 1.268-4.437.04-.226.086-.45.12-.676.014-.097 0-.199-.003-.412M148.271 52.545c.263-.166.432-.08.587-.01.824.366 1.547.878 2.098 1.597.481.627.742 1.326.55 2.137-.205.86-.287 1.777-1.052 2.382-.795.627-1.585.661-2.4.179-.28-.165-.429-.477-.494-.823-.16-.83-.004-1.615.291-2.387.145-.38.287-.761.433-1.14.244-.637.355-1.276-.013-1.935" fill="#655140"/><path d="M170.017 56.269c.897.333 1.51.859 2.033 1.488.446.538.493 1.154.195 1.784-.11.233-.157.479-.22.725-.266 1.032-1.013 1.578-2.07 1.532-.483-.02-.95-.084-1.414-.253-.434-.157-.593-.437-.58-.866.014-.544.136-1.054.443-1.512.283-.421.556-.85.854-1.262.343-.475.678-.95.759-1.636M117.595 96.238c2.181-1.028 5.027-.747 6.746 1.04 1.04 1.08 1.578 2.998.837 4.418-1.33-1.199-2.796-2.1-4.385-2.827-1.617-.742-3.364-.91-5.218-1.284.66-.68 1.338-1.027 2.02-1.347m8.161-11.586c-1.06 1.248-2.318.542-2.783-.497-.439-.981-.52-1.948-.138-2.784.455-1.28 1.18-2.192 1.976-3.046.419-.449.575-.405.813.135.496 1.122.813 2.299.98 3.51.14 1.019-.2 1.92-.848 2.682m-1.777 1.536c.303-.006.522-.07.822.083-.3.151-.522.103-.822-.083m-14.767-13.22c-.46.073-.849.32-1.264.505-.345.155-.479.049-.407-.33.07-.372.192-.734.291-1.1.203-.522.396-1.041.7-1.517.774-1.213 1.834-2.005 3.268-2.249.173-.028.355-.042.528-.023.725.08 1.102.528.99 1.246-.184 1.167-.78 2.08-1.83 2.648-.712.387-1.465.692-2.276.82m-3.598-16.4c-.225.941-.558 1.85-.772 2.796-.45 1.988-.692 4.008-1 6.02-.342 2.22-.334 4.457-.442 6.69-.04.82-.156 1.618-.477 2.378-.541 1.285-.913 2.635-1.222 3.991-.563 2.471-.971 4.974-1.868 7.354-.26.696-.79 3.613-1.849 3.492-.945-.109-.51-3.763-.449-4.412.449-4.728 1.88-9.39 2.757-14.052.297-1.582 1.399-4.607.062-5.973-1.225-1.252-3.517-.676-4.692.364-1.15 1.017-1.776 2.33-2.264 3.739-.406 1.174-.827 2.345-1.035 3.55-.225.024-.243-.098-.235-.18.189-1.905-1.616-4.704-3.765-3.519.128-.07.085.687.068.745-.072.238-.262.445-.386.658-.35.606-.601 1.259-.807 1.927-.428 1.386-.645 2.834-1.138 4.2-.953 2.657-1.845 5.337-3.026 7.906-.319.693-.658 1.381-1.252 1.895-.587.507-.936.406-1.137-.342-.203-.758-.045-1.52.052-2.271.254-1.975.861-3.853 1.486-5.738.675-2.034 1.572-3.99 2.23-6.027.25-.78.555-2.404.142-3.173-.29-.539-1.279-.942-1.842-.583-1.424.91-2.561 2.166-3.917 3.155-1.437 1.048-2.862 2.115-4.3 3.162-.767.558-1.592 1-2.541 1.171-.397.072-.916.053-1.238-.338-.259-.314-.401-.87-.329-1.27.458-2.56 2.842-5.117 5.185-6.139 1.988-.866 4.313-1.249 6.467-.95.229.031.481.081.623-.155.138-.232-.026-.436-.14-.631-1.068-1.836-2.545-2.078-4.474-1.741-3.829.667-6.795 2.04-8.716 5.606-.474.879-.788 1.826-.777 2.844.009.954.306 1.797 1.024 2.461.15.138.278.298.43.432.248.215.28.451.153.75-1.478 3.479-2.33 7.157-3.361 10.775-.725 2.541-1.394 5.1-2.204 7.618-.211.658-.522 1.27-.802 1.895-.105.233-.24.502-.522.504-.342.004-.438-.323-.52-.58-.344-1.1-.47-2.232-.46-3.385.01-1.18.325-2.31.512-3.462.245-1.508.645-2.98.995-4.465.116-.494.272-.98.433-1.462.515-1.548.901-3.125 1.221-4.723.45-2.253-2.472-5.07-4.721-3.801-2.063 1.164-3.451 4.252-4.093 6.4-.472 1.577-1.077 3.116-1.264 4.775l-.197-.038c-.703-4.808-1.267-9.591-.968-14.46.03-.515.235-.751.727-.902 4.303-1.32 8.319-3.444 12.011-6.004.987-.685 1.911-1.457 2.798-2.266 2.902-2.653 5.643-5.527 7.821-8.814.155-.233.365-.33.654-.272 2.059.406 4.11.84 6.17 1.237 3.46.669 6.935 1.25 10.465 1.349 3.435.096 7.033.123 10.467.052.515-.01.363-.238.25.238M54.566 69.636c.333-2.052.644-4.076 1.214-6.082.143-.506.298-1.004.463-1.496 1.454-4.325 3.715-8.156 5.962-12.142.234-.415.593-.365.93-.316 2.074.303 4.134 1.132 6.14 1.728 2.184.65 4.376 1.278 6.599 1.785.373.085.43.191.219.517-.207.32-.454.613-.682.919-2.677 3.586-5.756 6.795-9.309 9.507-2.259 1.724-4.608 3.335-7.202 4.56-1.169.551-2.358 1.064-3.506 1.665-.243.127-.544.337-.777.15-.225-.182-.095-.518-.05-.795m11.154-23.532c2.474-2.099 5.806-4.252 9.208-3.954 3.741.329 4.41 4.134 3.411 7.122-.307.923-.452 1.01-1.284.746-3.695-1.174-7.489-1.96-11.161-3.248-.5-.175-.555-.342-.174-.666m44.08 7.043c1.862-5.032 5.358-9.996 10.661-11.749 2.194-.725 4.992-.193 5.235 2.442.129 1.402-.35 3.068-1.183 4.187-3.264 4.38-9.253 5.292-14.283 5.506-.149.007-.307.035-.454-.11.006-.08-.009-.186.024-.276m29.23 11.97c-.252-.187-.469-.158-.703-.04-.273.14-.211.384-.128.6.442 1.142-.733 2.987-1.243 3.942-.814 1.52-2.54 4.772-4.523 4.928-3.903.31-1.893-5.216-.423-6.62 1.274-1.219 3.057-2.138 4.805-2.437.348-.059.59-.272.642-.66.141-1.027-1.26-1.999-2.127-2.012-1.309-.018-2.9.67-3.902 1.481-2.326 1.888-4.27 5.137-3.037 8.16.112.275.093.472-.16.66-.346.256-.677.537-1.001.822-.275.241-.434.2-.659-.104-.69-.941-1.504-1.772-2.334-2.595-2.776-2.75-7.44-9.608-1.69-12.28 1.56-.724 3.436-.237 4.593 1.044 1.456 1.612.68 4.68.297 4.507 1.768.793 1.916-2.838 1.195-4.289-1.636-3.297-6.091-4.184-8.84-2.266-2.892 2.018-3.467 6.57-1.926 9.554.61 1.18.682 2.316.635 3.586-.14 3.724.093 7.43-.915 11.063-.317 1.142-.621 2.597-1.682 3.295-.873.573-2.24.318-2.655-.743-.45-1.148-.644-2.323-.519-3.576.235-2.348-.269-4.45-2.286-5.951-.034-.026-.039-.09-.057-.137.07-.167.235-.18.376-.229 2.13-.743 3.518-2.176 3.98-4.41.147-.712.21-1.473-.17-2.156-.58-1.047-1.77-1.577-2.929-1.274-2.622.686-4.389 2.26-5.027 4.971-.062.268-.088.563-.374.888-.03-1.14-.014-2.126.012-3.112.054-2.063.354-4.099.65-6.133.363-2.51 1.05-4.97 1.746-7.406.072-.252-.082-.235.174-.275 2.626-.421 5.634-.318 8.187-1.14 3.431-1.104 7.275-3.036 9.064-6.322 1.435-2.636.998-6.838-1.626-8.557-3.463-2.266-8.446.591-11.059 2.955-2.98 2.696-4.909 6.315-6.43 9.985-.307.743-.328.715-1.133.709-8.561-.07-17.514-.394-25.786-2.845-.59-.175-.616-.222-.444-.803 1.196-4.016.176-7.976-4.344-8.772-4.55-.801-8.698 1.453-12.045 4.312-.422.36-.819.452-1.322.27-2.167-.789-4.392-1.47-6.609-2.104-8.03-2.298-16.745-3.855-25.033-2.042-5.037 1.102-10.55 3.328-14.284 6.996-4.441 4.363-7.186 10.31-4.188 16.301 2.603 5.202 9.695 5.972 12.47 4.059-1.598-1.146-2.142-4.816-2.206-6.565-.109-2.963 1.444-6.887 3.163-9.232 7.9-10.779 23.167-8.373 33.892-4.525.478.171.51.303.207.714a44.885 44.885 0 0 0-6.648 13.013c-1.5 4.706-1.565 9.515-2.674 14.273a83.202 83.202 0 0 1-.912 3.56c-1.154 4.111-2.669 7.985-4.721 11.73-.79 1.439-1.622 2.887-2.672 4.153-.816.985-1.948 1.964-3.09 2.544-2.037 1.035-4.362.504-5.97-1.064-5.702-5.562.704-16.704 3.295-22.281 2.231-4.802 4.343-9.667 6.088-14.67 1.73-4.964 2.54-10.226-3.116-12.702-.176-.077-.378-.144-.666-.062.998-.284 1.777 2.571 1.843 3.182.162 1.486-.238 2.978-.673 4.386-2.052 6.633-5.384 12.714-8.488 18.888-1.256 2.497-2.477 5.036-3.362 7.693-1.362 4.09-1.974 8.748-.004 12.755 1.755 3.568 6.424 6.566 10.472 5.295 2.842-.892 5.16-3.792 6.703-6.206 2.443-3.822 3.905-8.286 5.19-12.606.133-.443.313-.87.489-1.354.234.273.212.516.221.733.099 2.392.446 4.814.777 7.184.275 1.964.773 4.076 2.31 5.452.602.538.878.574 1.522.104.08-.06.141-.147.219-.212.747-.626.842-1.594.945-2.495.136-1.172.289-2.343.487-3.507.655-3.856 1.835-8.144 4.82-10.877.13-.12.271-.235.425-.318.184-.1.346-.04.441.155.126.258.172.532.137.816-.298 2.427-1.733 4.593-2.451 6.901-1.15 3.7-1.962 7.622-1.039 11.463a4.693 4.693 0 0 0 1.029 2.022c.972 1.116 2.81 1.665 4.115.891 1.726-1.02 1.993-3.224 2.469-4.976.402-1.485.761-2.983 1.147-4.473.515-1.99 1.075-3.97 1.531-5.979.456-2.009 1.056-3.98 1.71-5.937.108-.325.259-.45.583-.466 1.84-.097 3.574-1.495 4.986-2.55 1.25-.93 2.567-1.798 3.771-2.785.243-.198.467-.461.827-.547.05.313-.114.514-.228.73-.688 1.306-1.37 2.62-1.95 3.98-1.013 2.38-1.7 4.98-1.722 7.583-.016 1.864.813 4.027 2.868 4.528.049.013.097.031.145.046 2.97.826 3.652-2.527 4.486-4.568 1.324-3.247 2.316-6.61 3.39-9.945.047-.15.069-.33.333-.472-.077 2.163-.046 4.308-.353 6.457-.103.718-.458 2.43.633 2.601 1.449.225 2.471-1.428 2.908-2.546.501-1.285.655-2.662.935-4.004.181-.867.347-1.738.548-2.6.504-2.17 1.447-5.668 3.658-6.76 2.358-1.162.495 3.707.273 4.407-.535 1.69-1.05 3.39-1.498 5.106-.895 3.441-1.519 7.001-1.326 10.57.057 1.047.138 2.192.671 3.122.402.702 1.465 1.672 2.313 1.765 1.57.174 2.574-1.149 3.045-2.454.638-1.764 1.002-3.635 1.375-5.47.388-1.903.917-3.777 1.244-5.692.02-.115-.02-.323.25-.325-.046 0 .435 4.84.678 5.352.429.907 1.257.753 2.068 1.132.327.153.525-.015.526-.391.002-.457.028-.92-.03-1.371-.259-1.978.124-3.96.373-5.917.032-.25.091-.503.358-.73.964.677 1.79 1.246 2.082 2.452.232.96.147 1.968.209 2.945.11 1.71.333 3.469 1.217 4.97.539.919 1.198 1.671 2.223 2.105 2.69 1.142 4.51-1.585 5.224-3.659 1.19-3.466 1.537-7.842 1.305-11.49-.025-.383.007-.769.013-1.162a.58.58 0 0 1 .392.232c.324.387.604.82.968 1.163 1.173 1.101 2.188 2.337 3.137 3.628.537.733.508.736-.075 1.407-.682.787-1.385 1.564-1.867 2.5a8.727 8.727 0 0 0-.767 2.164c-.269 1.274-.106 2.705.738 3.741.724.886 2.037 1.36 3.171 1.317.878-.032 2.012-.567 2.657-1.145 2.744-2.453 1.281-7.05-.074-9.825-.152-.311-.11-.515.13-.737 1.147-1.06 1.138-1.02 2.43-.313.705.384 1.583.672 2.391.627 2.412-.138 4.407-3.313 5.161-5.341.225.282.192.515.198.735.08 2.634.182 5.267.247 7.902.233 9.5-.33 18.781-3.14 27.915-1.956 6.354-6.848 15.573-15.098 12.685-1.352-.474-2.728-1.219-3.898-2.04-2.039-1.432-3.75-3.525-4.705-5.832-1.06-2.56-.863-5.688-.066-8.307.418-1.378 1.01-3.265 2.415-3.945 2.482-1.204 7.615 1.404 9.528 2.86.672.514 1.405 1.524 2.247 1.741.74.191 1.872-1.8 2.025-2.311 1.145-3.815-2.718-7.545-6.285-7.91-2.766-.283-5.53 1.296-7.393 3.253-.283.296-.59.387-1.015.352-2.706-.22-5.368-.02-8.036.472-5.497 1.015-10.783 3.129-15.843 5.43-3.177 1.447-8.086 1.599-10.511-1.352-2.323-2.828.225-6.356 3.266-7.311.461-.144 1.05-.141.59-.397-5.27-2.921-11.09.002-12.808 5.061-1.225 3.603 1.17 8.403 4.298 10.347 3.507 2.178 9.378 2.158 13.078.448 9.352-4.32 14.403-10.732 23.167-11.145.592-.028 1.208-.08 1.786.098.014.263-.15.368-.246.509-1.65 2.43-2.362 7.028-2.214 9.901.318 6.219 5.482 11.257 11.38 12.592 9.38 2.126 15.946-6.192 18.51-14.08 1.817-5.595 2.534-11.51 2.83-17.366.251-4.953.235-9.933.065-14.89-.126-3.669-.065-7.989-3.344-10.444" fill="#655140"/><path d="M193.065 92.502a172.145 172.145 0 0 1-1.22 3.882c-1.298 3.942-2.755 8.424-6.266 10.972-.814.591-1.77.98-2.734 1.25-3.283.917-6.854-.072-8.64-3.113-2.047-3.49.591-7.297 3.719-8.98a25.353 25.353 0 0 1 3.475-1.517c1.812-.647 3.674-1.137 5.523-1.663 1.814-.515 3.611-1.164 5.492-1.39.05-.006.1-.02.15-.027.622-.088.687-.028.501.586M161.06 61.843c-.15.746-.321 1.486-.584 2.201-.148.458-.272.925-.451 1.37-.14.348-.341.354-.526.034-.32-.555-.527-1.147-.523-1.8.008-1.294.573-2.39 1.24-3.443.196-.307.484-.26.634.083.216.493.32 1.004.21 1.555m60.183-4.254c-.87-3.053-2.737-6.39-4.702-8.864-1.707-2.15-4.114-4.143-6.436-5.582-4.371-2.706-9.85-3.712-14.764-1.941-2.349.846-4.446 2.3-5.996 4.265-1.132 1.436-3.322 4.723-3.226 6.634 3.171-1.4 10.274-2.783 14.2-1.748 8.204 2.165 13.175 6.222 14.244 14.126 1.234 9.137-5.472 19.01-14.273 22.363-.4.153-.487.066-.425-.38.01-.076.03-.15.047-.225.77-3.394 2.975-13.874 2.473-15.618-.413-1.429-1.7-1.974-3.077-2.132-.404-.046-1.599 4.377-1.978 5.06-1.03 1.852-2.48 3.645-4.298 4.773-1.056.656-2.132.732-3.26.169-.541-.27-.86-.687-1.046-1.242-1.165-3.498.574-8.239 2.968-10.832 1.198-1.297 2.69-1.96 4.426-2.142.923-.097 4.156.478 4.542-.587.748-2.056-.606-4.264-2.82-4.207-3.657.097-6.869 1.703-9.217 4.52-1.58 1.894-2.509 4.108-2.809 6.572-.213 1.758-.295 3.501.484 5.161.162.342.12.633-.096.925a4.881 4.881 0 0 0-.33.513c-.872 1.55-1.643 3.156-2.61 4.654-1.169 1.81-3.1 5.181-5.584 5.287-1.136.048-1.891-.967-1.72-2.084.169-1.097.693-2.065 1.122-3.073 1.601-3.769 3.667-7.41 5.603-11.014.47-.874.977-1.928.973-2.947-.004-1.282-1.254-2.102-2.47-1.883-1.301.235-2.355.936-3.333 1.76-2.077 1.753-3.773 3.839-5.261 6.103-.172.262-.3.557-.59.767.195-.14.992-4.073.594-5.542-.151-.56-.431-1.131-.883-1.509-.24-.2-.509-.33-.81-.4-.098-.024-.967-.047-.972-.063.124.335.447.627.147 1.04-1.153 1.582-2.038 3.347-3.268 4.876-.618.768-1.155 1.622-2.01 2.171-.269.173-.568.509-.88.297-.846-.577.66-3.666.958-4.34.675-1.53 1.496-2.994 2.119-4.548.175-.437.153-.87-.167-1.218-.684-.744-1.516-1.235-2.566-1.39.007.311.184.523.163.784-.06.724-.162 1.524-.675 1.977-.497.438-1.266.167-1.902-.003-.564-.152-.609-.26-.441-.819.666-2.214 2.158-6.184-.767-7.532-1.34-.618-2.496-.032-3.266 1.088-.906 1.32-1.054 2.937-.703 4.487.277 1.225 1.024 2.136 1.96 2.923.462.386.461.433.17.959-.946 1.706-1.977 3.398-3.314 4.814-.05.053-.126.079-.201.027-.005-.05-.024-.103-.014-.15.581-2.744 1.136-6.462-.091-9.116-.28-.604-.721-1.112-1.307-1.434-.192-.105-1.89-.421-1.884-.41.411 1.072.36 2.198.4 3.312.013.315-.09.601-.222.88-.853 1.805-2.107 3.287-3.658 4.528a2.15 2.15 0 0 1-.953.456c-.53.099-.717-.053-.695-.59.021-.54.19-1.051.363-1.557.515-1.51 1.463-2.782 2.295-4.117.484-.778.45-1.34-.098-2.068-.316-.422-1.11-1.402-1.594-.587a1.554 1.554 0 0 1-.716.653c-1.266.58-2.512 1.214-3.803 1.738-.436.176-.864.315-1.34.302-.355-.01-.76-.315-.966.092-.191.378.18.821.54.837 1.047.044 2.08.008 3.037-.507.17-.092.36-.204.576-.082.033.277-.144.478-.253.7-.45.903-.657 1.864-.687 2.867-.027.932.236 1.765.903 2.432.552.552 1.21.957 2.01.947.895-.011 1.705-.369 2.34-.978.969-.928 2.012-1.805 2.634-3.04.063-.125.104-.29.266-.343.111.057.123.16.125.262.013.8-.009 1.597-.097 2.393-.188 1.69-.543 5.614 2.323 4.502.996-.387 1.75-1.032 2.383-1.813.974-1.201 1.751-2.512 2.595-3.764.252-.372.553-.864.74-1.172.536.276 1.97.475 2.768.488-.221.436-.396.716-.517 1.072-.645 1.916-1.791 4.105-.664 6.074.61 1.062 1.37 1.5 2.436 1.203 1.561-.435 2.711-2.363 3.523-3.64.682-1.073 2.038-3.51 2.179-3.62.002.213.016.315.001.411-.033.227-.079.451-.12.677-.274 1.516-.73 2.994-1.267 4.437-.38 1.018-1.747 3.524-.222 4.218.116.052.263.056.355.132.418.34.757.178 1.053-.16.351-.399.737-.785 1.005-1.237.871-1.464 1.864-2.846 2.757-4.293.657-1.063 1.434-2.042 2.256-2.972.954-1.083 1.938-2.14 3.126-3 .292-.211 2.054-1.19 2.412-.792.402.446-1.098 2.543-1.342 2.963-.514.888-1.118 1.717-1.64 2.597a67.815 67.815 0 0 0-4.128 8.167c-.548 1.291-.939 2.637-.96 4.063-.05 3.121 3.249 4.52 5.86 3.232 1.57-.774 2.668-2.504 3.634-3.895 1.307-1.881 2.479-3.87 3.552-5.893.15-.28.105-.767.472-.805.333-.033.479.404.689.644 1.663 1.9 4.47 1.989 6.125.96 1.044-.647 1.91-1.495 2.67-2.455.216-.272.422-.536.838-.74-.17.793-.29 1.492-.475 2.173-.88 3.213-1.35 6.525-2.279 9.726-.145.502-.424.74-.91.892-1.816.567-3.727.995-5.588 1.375-4.24.868-8.509 2.322-12.067 4.846-3.094 2.195-4.792 5.915-3.762 9.712.33 1.217 1.253 2.55 2.063 3.494 1.887 2.196 5.85 4.044 8.703 4.238 10.285.698 14.28-13.611 15.895-21.383.082-.389.239-.565.614-.647 1.163-.255 2.279-.71 3.35-1.223 2.168-1.042 4.344-2.194 6.318-3.575 6.726-4.706 13.063-12.755 13.085-20.57.008-2.46-.322-4.93-.997-7.297M148.054 58.83c.815.482 1.605.447 2.4-.18.765-.604.847-1.522 1.051-2.38.193-.812-.068-1.51-.55-2.138-.55-.719-1.273-1.231-2.097-1.597-.155-.07-.325-.157-.587.01.368.659.258 1.298.013 1.934-.145.38-.287.761-.433 1.14-.295.773-.45 1.557-.291 2.388.066.346.215.658.494.823" fill="#655140"/><path d="M168.54 61.545c.464.169.932.233 1.416.253 1.056.046 1.803-.5 2.068-1.533.064-.245.111-.49.221-.724.298-.63.25-1.245-.195-1.784-.523-.63-1.136-1.155-2.033-1.488-.08.687-.416 1.16-.758 1.636-.299.412-.572.84-.855 1.262-.307.458-.429.968-.443 1.512-.013.43.146.709.58.866" fill="#655140"/><path d="M93.245 123.655c-1.441 2.378.034 5.98 3.32 8.401.299.22.61.433.942.631 3.473 2.113 7.358 2.22 9.305.43.257-.241.481-.514.668-.817 1.573-2.602-.337-6.64-4.264-9.032-3.936-2.386-8.398-2.218-9.97.387" fill="#DE5D07"/><path d="M84.285 137.877c-8.769-4.591-7.776-6.933-7.271-11.45-.076.005-.143 0-.202.003-.115.27-.274.944-.501 2.234-.795 4.622 1.65 5.902 7.974 9.213" fill="#A0D22E"/><path d="M84.285 137.877c-8.769-4.591-7.776-6.933-7.271-11.45-.076.005-.143 0-.202.003-.115.27-.274.944-.501 2.234-.795 4.622 1.65 5.902 7.974 9.213" fill="#036B32"/><path d="M85.536 132.207c-1.072 1.76-.543 4.176 1.132 6.303.774.986 1.797 1.908 3.028 2.664 1.499.162 3.119.705 4.656 1.639.03.018.062.04.093.057 1.955.211 3.706-.243 4.782-1.328.207-.206.382-.437.538-.686 1.459-2.417-.073-6.058-3.433-8.483a14.183 14.183 0 0 0-.83-.551c-3.934-2.39-8.392-2.213-9.966.385" fill="#F27B2A"/><path d="M106.013 134.069c-1.509 2.483.167 6.279 3.735 8.698.17.112.347.224.521.329 3.662 2.228 7.789 2.226 9.612.114.13-.153.254-.319.36-.495 1.575-2.604-.336-6.645-4.267-9.032-3.382-2.06-7.164-2.214-9.153-.55a3.697 3.697 0 0 0-.808.936" fill="#F79F6D"/><path d="M68.102 142.665c-4.374 6.735 1.263 1.652 1.263 1.652s11.142-7.784 17.263-3.15l.083.274c.878-.29 1.9-.377 2.984-.267-1.23-.756-2.253-1.678-3.027-2.664h-.005s-14.193-2.574-18.56 4.155" fill="#A65146"/><path d="M84.387 143.204c-1.575 2.598.33 6.64 4.261 9.027.503.305 1.01.566 1.516.787.555.144 1.112.337 1.67.575 2.457.643 4.77.315 6.13-.939.25-.236.476-.507.657-.81.723-1.198.71-2.706.095-4.218a13.946 13.946 0 0 0-.135-.317c-.755-1.63-2.192-3.234-4.136-4.439-1.495-.159-3.116-.7-4.653-1.629a.434.434 0 0 1-.096-.067c-1.086-.11-2.107-.023-2.985.267-.997.325-1.812.915-2.324 1.763" fill="#ED3E1D"/><path d="M99.031 142.74c-.757 1.243-.71 2.817-.032 4.38l.147.32c.786 1.591 2.225 3.159 4.147 4.327.091.052.182.111.271.163h.008c1.241.205 2.547.669 3.81 1.39l.002.006c2.207.366 4.21-.076 5.383-1.297.186-.193.352-.411.499-.647 1.47-2.441-.113-6.142-3.55-8.567-.234-.158-.47-.317-.719-.467-3.503-2.125-7.43-2.224-9.354-.378a3.634 3.634 0 0 0-.612.77" fill="#CA5108"/><path d="M119.571 143.867c-1.477 2.437.103 6.147 3.544 8.568.228.159.466.317.714.467 2.394 1.452 4.99 1.959 7.005 1.544 1.291-.269 2.353-.913 2.967-1.929 1.573-2.605-.337-6.642-4.263-9.035-3.625-2.198-7.702-2.226-9.55-.177a3.657 3.657 0 0 0-.417.562" fill="#DE5D07"/><path d="M83.382 154.766c-1.578 2.6.33 6.642 4.257 9.035 3.928 2.387 8.392 2.207 9.973-.386.818-1.358.697-3.097-.161-4.794-.793-1.567-2.216-3.098-4.101-4.24a13.156 13.156 0 0 0-1.516-.788 11.154 11.154 0 0 1-1.67-.575c-2.915-.76-5.621-.16-6.782 1.748" fill="#CA5108"/><path d="M97.693 153.873c-.787 1.302-.705 2.958.065 4.591l.001.006c.772 1.633 2.226 3.242 4.193 4.437 3.93 2.386 8.397 2.212 9.971-.387.786-1.295.706-2.96-.059-4.587-.776-1.637-2.232-3.25-4.204-4.444-.089-.054-.182-.112-.276-.163l-.001-.007c-1.248-.204-2.55-.667-3.811-1.389h-.008c-2.098-.348-4.018.035-5.203 1.132-.257.238-.48.507-.668.81M112.284 152.773c-.819 1.35-.698 3.09.16 4.787.793 1.568 2.214 3.1 4.1 4.24 3.927 2.387 8.394 2.218 9.969-.379.458-.763.62-1.642.522-2.564l-.007-.044c-.23-2.07-1.753-4.362-4.163-6.021a9.69 9.69 0 0 0-.616-.405c-3.545-2.156-7.524-2.226-9.43-.306-.2.205-.386.439-.535.692" fill="#ED3E1D"/><path d="M127.85 156.416c-.424.702-.596 1.51-.547 2.363.15 2.298 1.942 4.925 4.805 6.665 3.931 2.385 8.398 2.213 9.972-.386 1.574-2.604-.336-6.64-4.265-9.033-2.383-1.448-4.963-1.957-6.972-1.549-1.309.266-2.373.916-2.992 1.94" fill="#CA5108"/><path d="M71.23 102.469c-6.174 4.642-3.218 10.767-3.218 10.767-4.372-2.515-4.526-4.814-4.526-4.814-5.693 4.725 1.26 9.054 1.26 9.054-2.258 2.427-6.6-.112-6.6-.112s-3.697 3.356 3.86 8.031c6.702 4.146 13.206 1.311 14.59.617.043-.002.1 0 .164.004.08-.19.139-.159.176-.002 1.878-.011 8.603-.513 12.664-6.92 4.763-7.507-.027-8.916-.027-8.916s-2.793 4.18-5.89 2.979c0 0 4.372-6.932-2.81-8.694 0 0 .867 2.135-1.975 6.307 0 0-.004-6.856-7.669-8.301" fill="#A0D22E"/><path d="M183.738 110.462l.284.19c-1.546 1.874-2.577 8.86-2.8 10.49 1.329-.813 6.4-4.003 6.73-5.635l.351.052c-.41 2.01-6.93 5.879-7.207 6.043l-.313.185.041-.333c.044-.359 1.108-8.805 2.914-10.992M181.125 121.694c.076 0 7.78-.154 10.584-2.83l.256.22c-2.915 2.781-10.52 2.93-10.845 2.934l.005-.324z" fill="#8F9274"/><path d="M186.12 112.876l.26.216c-1.854 1.85-5.186 8.375-5.218 8.44-.05.106-1.38 2.658-10.915 6.992l-.157-.287c9.37-4.26 10.736-6.808 10.75-6.832.136-.273 3.388-6.639 5.28-8.529" fill="#8F9274"/><path d="M186.927 105.643c1.473 1.114 1.712 3.052.53 4.328-1.178 1.276-3.332 1.408-4.806.293-1.475-1.115-1.713-3.054-.53-4.329 1.18-1.277 3.33-1.405 4.806-.292" fill="#D6352E"/><path d="M187.033 110.402c1.464-1.181 3.618-1.151 4.811.07 1.191 1.222.971 3.17-.495 4.353-1.464 1.181-3.616 1.15-4.807-.071-1.192-1.218-.972-3.167.49-4.352M195.517 115.427c1.473 1.112 1.712 3.05.531 4.324-1.18 1.279-3.334 1.409-4.808.294-1.475-1.113-1.713-3.051-.53-4.327 1.179-1.277 3.332-1.407 4.807-.29" fill="#EE603F"/><path d="M193.67 104.592c1.26.955 1.464 2.614.454 3.708-1.01 1.09-2.855 1.205-4.116.249-1.262-.954-1.467-2.612-.457-3.705 1.013-1.093 2.855-1.204 4.118-.252" fill="#DF8458"/><path d="M195.149 108.984c1.713-.859 3.791-.394 4.648 1.043.856 1.44.16 3.306-1.55 4.168-1.712.858-3.794.392-4.65-1.045-.852-1.436-.16-3.303 1.552-4.166M152.694 56.44c1.123-2.33.27-5.068-1.907-6.122-2.178-1.055-4.857-.022-5.983 2.306-1.12 2.325-.268 5.071 1.91 6.124 2.176 1.052 4.855.02 5.98-2.307" fill="#F08065"/><path d="M174.82 56.055c-1.753-1.896-4.612-2.1-6.388-.456-1.777 1.645-1.794 4.519-.039 6.413 1.754 1.9 4.615 2.103 6.392.457 1.774-1.644 1.788-4.514.035-6.414" fill="#D6352E"/><path fill="#A65146" d="M136.34 44.426l-2.043-4.308v4.308h-1.714v-7.843h1.816l1.794 4.058v-4.058h1.725v7.843zM141.92 37.936c-.794 0-1.078.966-1.078 2.568 0 1.603.295 2.57 1.078 2.57.772 0 1.068-.967 1.068-2.57 0-1.602-.307-2.568-1.068-2.568m-.011 6.638c-1.987 0-2.986-1.58-2.986-4.058 0-2.478 1.022-4.08 3.009-4.08 1.975 0 2.974 1.579 2.974 4.057 0 2.478-1.022 4.08-2.997 4.08M149.33 44.448h-2.179l-1.953-7.604 2.033-.33 1.09 5.593 1.1-5.524h1.919zM152.07 44.426v-7.843h4.133v1.534h-2.293v1.455h1.646l.26 1.569h-1.906v1.75h2.384v1.535zM162.896 44.426l-.193-5.524-.942 5.535h-1.828l-.954-5.535-.204 5.524h-1.635l.307-7.843H160l.908 5.217.92-5.217h2.542l.318 7.843zM167.872 40.993h-.33v2.069h.364c.76 0 1.146-.375 1.146-1.023 0-.694-.374-1.046-1.18-1.046m.045-3.046h-.374v1.784h.374c.67 0 .965-.363.965-.897 0-.512-.25-.887-.965-.887m-.01 6.479h-2.101v-7.843h2.134c1.703 0 2.6.716 2.6 1.978 0 .807-.432 1.386-1.067 1.682.783.307 1.282.898 1.282 1.92 0 1.535-1.18 2.263-2.849 2.263M171.678 44.426v-7.843h4.132v1.534h-2.293v1.455h1.646l.261 1.569h-1.907v1.75h2.384v1.535zM178.867 40.345c.726 0 1.158-.33 1.158-1.182 0-.795-.42-1.125-1.147-1.125h-.182v2.307h.17zm.057 1.307h-.205v2.774h-1.805v-7.843h2.055c1.691 0 2.827.807 2.827 2.444 0 1.034-.477 1.705-1.215 2.102l1.578 3.092-1.85.284-1.385-2.853z"/><path d="M141.377 32.26v-4.007l6.104-8.012c1.254-1.664 1.797-3.056 1.797-4.312 0-1.8-1.12-2.818-2.713-2.818-1.187 0-2.679.611-4.273 1.867l-.678-4.65c1.797-1.19 3.9-1.936 6.138-1.936 3.967 0 7.12 2.105 7.12 6.553 0 2.342-.982 4.855-3.119 7.604l-3.967 5.195h6.985l.746 4.516h-14.14zM163.885 32.701c-2.543 0-4.883-.713-6.612-1.732l.746-4.38c1.492.917 3.221 1.596 4.849 1.596 2.068 0 3.12-1.052 3.12-2.92 0-2.206-1.628-3.02-4.273-3.02h-.712l-.712-4.38h1.458c2.577 0 3.798-.917 3.798-2.649 0-1.426-.916-2.309-2.475-2.309-1.628 0-3.154.68-4.748 1.766l-.678-4.312c1.695-1.154 3.594-1.97 6.748-1.97 4.07 0 6.612 2.106 6.612 6.078 0 2.818-1.661 4.685-3.628 5.433 2.102.678 4.035 2.376 4.035 5.737 0 4.651-2.95 7.062-7.528 7.062" fill="#B36048"/></g></svg>